<svg width="91" height="98" fill="none" xmlns="http://www.w3.org/2000/svg"><ellipse cx="45.5" cy="44.954" rx="45" ry="44.954" fill="#fff"/><g clip-path="url(#clip0)"><path d="M57.003 63.032v2.91c0 2.124 3.319.191 4.077-.129 8.941 4.109 19.541-2.767 19.424-12.62 0-7.614-6.196-13.81-13.811-13.81-12.28-.014-18.442 15.065-9.69 23.65zm9.69-21.536c6.45 0 11.699 5.247 11.699 11.697.104 8.518-9.228 14.343-16.827 10.515a1.057 1.057 0 00-.875-.024l-1.574.665v-1.77c0-.294-.124-.577-.341-.776-7.799-7.157-2.675-20.313 7.918-20.307z" fill="url(#paint0_linear)"/><path d="M63.379 51.36c.583 0 1.056-.473 1.056-1.057 0-1.229 1.077-2.276 2.305-2.257a2.263 2.263 0 012.208 2.136c.066 1.276-.975 2.38-2.255 2.38-.584 0-1.057.472-1.057 1.056v3.465c.048 1.397 2.065 1.399 2.113 0v-2.54c2.005-.503 3.415-2.405 3.308-4.47a4.383 4.383 0 00-4.275-4.14c-2.417-.05-4.46 1.955-4.46 4.37 0 .584.473 1.056 1.056 1.056z" fill="url(#paint1_linear)"/><path d="M66.694 59.267c-1.36 0-1.361 2.112 0 2.112 1.36 0 1.362-2.112 0-2.112z" fill="url(#paint2_linear)"/><path d="M23.982 80.661h-8.085c-.584 0-1.056.473-1.056 1.056v4.05c0 .584.472 1.057 1.056 1.057h8.085c.584 0 1.056-.473 1.056-1.057v-4.05c0-.583-.472-1.056-1.056-1.056zm-1.056 4.05h-5.973v-1.937h5.973v1.937z" fill="url(#paint3_linear)"/><path d="M80.268 72.496a3.123 3.123 0 00-2.419-1.141H47.876c-.429 0-.844.073-1.232.208a20.662 20.662 0 00-4.586-4.713h6.93c.584 0 1.057-.473 1.057-1.057V46.238c.182-14.671-15.971-24.705-29.153-18.235-1.234.585-.328 2.494.906 1.908 11.814-5.795 26.296 3.183 26.134 16.328v18.498h-7.38c1.502-1.698 2.618-3.72 3.038-5.42.172.017.344.027.517.032a3.8 3.8 0 003.795-3.794v-3.447a3.802 3.802 0 00-2.75-3.649c.728-9.257-6.073-17.17-15.539-17.228-9.465.06-16.267 7.972-15.538 17.228a3.807 3.807 0 00-2.69 2.969l.033-5.19a18.06 18.06 0 016.009-13.417c1.016-.912-.394-2.484-1.411-1.572-4.265 3.826-6.71 9.29-6.71 14.983v19.554c.056.648.285 1.002.931 1.063h7.056c-5.154 3.831-8.277 9.982-8.277 16.407v2.942c0 1.366 2.113 1.366 2.113 0v-2.942c0-4.787 1.931-9.454 5.293-12.86l7.4 5.063c.486.294.95.236 1.391-.176l3.43-3.916v14.831c0 1.366 2.112 1.366 2.112 0v-14.83l3.429 3.915c.442.412.905.47 1.391.176l7.372-5.044a18.71 18.71 0 011.974 2.37 3.753 3.753 0 00-.747 1.62L40.763 91.86H26.834c-.584 0-1.056.473-1.056 1.056v1.82A3.267 3.267 0 0029.04 98h44.301a3.78 3.78 0 003.703-3.05l.61-3.12c.262-1.34-1.812-1.745-2.074-.404l-.61 3.12a1.663 1.663 0 01-1.629 1.341H43.368c-.638 0-1.124-.59-1.002-1.216l3.88-19.862a1.664 1.664 0 011.63-1.342H77.85c.638 0 1.125.591 1.002 1.217l-2.193 11.224c-.262 1.34 1.812 1.745 2.073.405l2.194-11.223a3.123 3.123 0 00-.657-2.594zm-50.57-4.995h-.006c-5.634-.003-10.566-3.833-11.944-9.19a3.785 3.785 0 001.19-2.756v-3.423c3.397-.01 10.418-.876 14.06-7.384 1.181 2.095 3.483 5.183 7.348 6.703-.11.384-.038 3.638-.057 4.104 0 1.15.515 2.184 1.327 2.88l-.007.028a7.622 7.622 0 01-6.128 3.067h-1.993c-1.167-3.95-6.924-3.238-7.03.93.077 4.012 5.573 4.893 6.95 1.182h2.072a9.786 9.786 0 003.917-.815c-2.32 2.93-5.958 4.674-9.699 4.674zm.337-3.599a1.456 1.456 0 01-1.465-1.443c.08-1.914 2.85-1.914 2.93 0 0 .796-.658 1.444-1.465 1.444zm15.754-11.794v3.447c0 .927-.754 1.682-1.682 1.682-.89-.035-1.706-.709-1.706-1.682v-3.447c.09-2.235 3.298-2.235 3.388 0zM29.613 33.343c7.403 0 13.426 5.968 13.426 13.303v1.813a3.803 3.803 0 00-1.754 1.088c-5.242-1.973-7.278-7.576-7.299-7.633-.315-.903-1.644-.926-1.985-.025-1.3 3.44-3.696 5.832-7.12 7.11-2.578.962-5.107 1.062-6.578 1.011a3.81 3.81 0 00-2.116-1.551v-1.813c0-7.335 6.023-13.303 13.426-13.303zM13.436 52.108c0-.928.755-1.683 1.683-1.683h.023c.928 0 1.683.755 1.683 1.683v3.447c0 .927-.755 1.682-1.683 1.682h-.023a1.684 1.684 0 01-1.683-1.682v-3.447zm-2.08 3.938c.247 2.111 2.346 3.657 4.47 3.242a14.209 14.209 0 003.027 5.449h-7.497v-8.69zm12.885 17.14l-6.203-4.244a18.58 18.58 0 013.2-2.058 14.522 14.522 0 006.276 2.564l-3.273 3.738zm10.915 0l-3.273-3.738a14.547 14.547 0 006.27-2.544 18.595 18.595 0 013.181 2.055l-6.178 4.227zM29.04 95.887c-.634 0-1.15-.516-1.15-1.15v-.764h12.46a3.34 3.34 0 00.054 1.914H29.04z" fill="url(#paint4_linear)"/><path d="M56.251 84.677a4.362 4.362 0 004.358 4.357c5.78-.239 5.779-8.476 0-8.715a4.362 4.362 0 00-4.358 4.358zm6.603 0a2.247 2.247 0 01-2.245 2.245c-2.978-.124-2.978-4.367 0-4.49a2.247 2.247 0 012.245 2.245z" fill="url(#paint5_linear)"/></g><defs><linearGradient id="paint0_linear" x1="52.894" y1="39.384" x2="80.534" y2="66.995" gradientUnits="userSpaceOnUse"><stop stop-color="#A83592"/><stop offset="1" stop-color="#4F4A9D"/></linearGradient><linearGradient id="paint1_linear" x1="62.322" y1="45.933" x2="73.873" y2="54.209" gradientUnits="userSpaceOnUse"><stop stop-color="#A83592"/><stop offset="1" stop-color="#4F4A9D"/></linearGradient><linearGradient id="paint2_linear" x1="65.674" y1="59.267" x2="67.785" y2="61.306" gradientUnits="userSpaceOnUse"><stop stop-color="#A83592"/><stop offset="1" stop-color="#4F4A9D"/></linearGradient><linearGradient id="paint3_linear" x1="14.841" y1="80.661" x2="20.296" y2="89.689" gradientUnits="userSpaceOnUse"><stop stop-color="#A83592"/><stop offset="1" stop-color="#4F4A9D"/></linearGradient><linearGradient id="paint4_linear" x1="9.016" y1="26" x2="81.016" y2="97.967" gradientUnits="userSpaceOnUse"><stop stop-color="#A83592"/><stop offset="1" stop-color="#4F4A9D"/></linearGradient><linearGradient id="paint5_linear" x1="56.251" y1="80.319" x2="64.966" y2="89.012" gradientUnits="userSpaceOnUse"><stop stop-color="#A83592"/><stop offset="1" stop-color="#4F4A9D"/></linearGradient><clipPath id="clip0"><path fill="#fff" transform="translate(9 26)" d="M0 0h72v72H0z"/></clipPath></defs></svg>