<svg width="102" height="109" viewBox="0 0 102 109" fill="none" xmlns="http://www.w3.org/2000/svg">
<circle cx="50" cy="50" r="50" fill="#FCF8F2"/>
<g opacity="0.65">
<path d="M83.3332 65.0668V65.0002C83.3332 64.2638 83.9302 63.6668 84.6666 63.6668H89.9999C91.484 63.6707 92.9026 63.0561 93.9147 61.9706C94.9268 60.8851 95.4408 59.427 95.3332 57.9468C95.0553 55.0994 92.6337 52.9449 89.7732 53.0002H69.8799C69.5764 51.2189 68.6788 49.5929 67.3332 48.3868V43.6668C67.3332 40.7213 64.9454 38.3335 61.9999 38.3335C59.0544 38.3335 56.6666 40.7213 56.6666 43.6668V48.3868C55.321 49.5929 54.4234 51.2189 54.1199 53.0002H33.9999C32.5158 52.9963 31.0972 53.6109 30.0851 54.6964C29.073 55.7819 28.559 57.24 28.6666 58.7202C28.9445 61.5676 31.3661 63.7221 34.2266 63.6668H39.3332C40.0696 63.6668 40.6666 64.2638 40.6666 65.0002V65.0668C32.8439 65.5943 26.0509 70.6441 23.2916 77.983C20.5323 85.3219 22.3158 93.5962 27.8532 99.1468C28.1049 99.3964 28.4455 99.5356 28.7999 99.5335C29.1543 99.5356 29.4949 99.3964 29.7466 99.1468C29.999 98.8965 30.141 98.5557 30.141 98.2002C30.141 97.8447 29.999 97.5039 29.7466 97.2535C24.792 92.2963 23.3102 84.8432 25.992 78.3678C28.6738 71.8925 34.9912 67.6694 41.9999 67.6668H45.9999C47.4727 67.6668 48.6666 66.4729 48.6666 65.0002C48.6666 64.2638 49.2635 63.6668 49.9999 63.6668H51.3332C52.0696 63.6668 52.6666 64.2638 52.6666 65.0002V74.9602C48.2055 70.2162 41.1507 68.9818 35.3439 71.9291C29.5371 74.8764 26.3689 81.2995 27.5647 87.7008C28.7605 94.102 34.0338 98.9483 40.513 99.6005C46.9922 100.253 53.1257 96.5547 55.5732 90.5202C57.5266 89.4108 59.7565 88.8833 61.9999 89.0002C64.2392 88.8814 66.4654 89.409 68.4132 90.5202C70.8563 96.5562 76.9866 100.259 83.4661 99.6115C89.9456 98.9644 95.2225 94.1226 96.4236 87.7226C97.6246 81.3226 94.4621 74.8971 88.6581 71.9448C82.8541 68.9925 75.7985 70.2206 71.3332 74.9602V65.0002C71.3332 64.2638 71.9302 63.6668 72.6666 63.6668H73.9999C74.7363 63.6668 75.3332 64.2638 75.3332 65.0002C75.3332 66.4729 76.5271 67.6668 77.9999 67.6668H81.9999C89.0086 67.6694 95.326 71.8925 98.0078 78.3678C100.69 84.8432 99.2078 92.2963 94.2532 97.2535C94.0008 97.5039 93.8588 97.8447 93.8588 98.2002C93.8588 98.5557 94.0008 98.8965 94.2532 99.1468C94.5049 99.3964 94.8455 99.5356 95.1999 99.5335C95.5543 99.5356 95.8949 99.3964 96.1466 99.1468C101.684 93.5962 103.467 85.3219 100.708 77.983C97.9489 70.6441 91.1559 65.5943 83.3332 65.0668ZM59.3332 43.6668C59.3332 42.1941 60.5271 41.0002 61.9999 41.0002C63.4727 41.0002 64.6666 42.1941 64.6666 43.6668V46.8002C62.9432 46.178 61.0566 46.178 59.3332 46.8002V43.6668ZM61.9999 49.0002C64.356 49.0094 66.4269 50.5636 67.094 52.8233C67.7612 55.083 66.8665 57.5127 64.8932 58.8002C63.0146 58.1778 60.9852 58.1778 59.1066 58.8002C57.1333 57.5127 56.2386 55.083 56.9058 52.8233C57.5729 50.5636 59.6438 49.0094 61.9999 49.0002ZM61.9999 61.0002C65.6818 61.0002 68.6666 63.9849 68.6666 67.6668C68.6666 71.3487 65.6818 74.3335 61.9999 74.3335C58.318 74.3335 55.3332 71.3487 55.3332 67.6668C55.3332 63.9849 58.318 61.0002 61.9999 61.0002ZM51.3332 61.0002H49.9999C47.7908 61.0002 45.9999 62.791 45.9999 65.0002H43.3332C43.3332 62.791 41.5424 61.0002 39.3332 61.0002H34.2266C32.775 61.0339 31.5296 59.9721 31.3332 58.5335C31.2801 57.7587 31.5673 56.9992 32.1199 56.4535C32.6177 55.9527 33.2938 55.6698 33.9999 55.6668H54.1199C54.408 57.3797 55.2458 58.9522 56.5066 60.1468C55.6587 60.7461 54.9192 61.4856 54.3199 62.3335C53.5598 61.4837 52.4733 60.9987 51.3332 61.0002ZM32.0666 91.6668C31.5023 90.786 31.0541 89.8359 30.7332 88.8402L45.8932 73.6668C46.8889 73.9877 47.839 74.4359 48.7199 75.0002L32.0666 91.6668ZM41.9999 73.0002H42.7466L29.9999 85.7468C29.9999 85.4935 29.9999 85.2535 29.9999 85.0002C29.9999 78.3727 35.3725 73.0002 41.9999 73.0002ZM41.9999 97.0002C38.9557 97.0009 36.0266 95.8369 33.8132 93.7468L50.7466 76.8135C54.0029 80.3034 54.8814 85.3914 52.9837 89.7711C51.086 94.1508 46.7731 96.9894 41.9999 97.0002ZM61.9999 86.3335C60.1304 86.3046 58.2691 86.5885 56.4932 87.1735C56.6045 86.4543 56.6624 85.7279 56.6666 85.0002C56.6666 84.7735 56.6666 84.5602 56.6666 84.3468C60.1914 83.4403 63.8884 83.4403 67.4132 84.3468V85.0002C67.4169 85.7235 67.4748 86.4455 67.5866 87.1602C65.7824 86.5794 63.8949 86.3001 61.9999 86.3335ZM72.0666 91.6668C71.5023 90.786 71.0541 89.8359 70.7332 88.8402L85.8932 73.6668C86.8889 73.9877 87.839 74.4359 88.7199 75.0002L72.0666 91.6668ZM93.9999 85.0002C93.9891 89.7733 91.1505 94.0863 86.7708 95.984C82.3911 97.8817 77.3031 97.0032 73.8132 93.7468L90.7466 76.8135C92.8366 79.0268 94.0006 81.956 93.9999 85.0002ZM81.9999 73.0002H82.7466L69.9999 85.7468C69.9999 85.4935 69.9999 85.2535 69.9999 85.0002C69.9999 78.3727 75.3725 73.0002 81.9999 73.0002ZM68.6666 78.9202C68.2624 79.8014 67.9497 80.7218 67.7332 81.6668C63.9627 80.7779 60.0371 80.7779 56.2666 81.6668C56.0501 80.7218 55.7374 79.8014 55.3332 78.9202V74.1868C57.0887 75.9785 59.4915 76.9882 61.9999 76.9882C64.5083 76.9882 66.9111 75.9785 68.6666 74.1868V78.9202ZM73.9999 61.0002H72.6666C71.5265 60.9987 70.4399 61.4837 69.6799 62.3335C69.0851 61.4749 68.3505 60.7222 67.5066 60.1068C68.7549 58.9208 69.5872 57.3637 69.8799 55.6668H89.7732C91.2248 55.6331 92.4702 56.6949 92.6666 58.1335C92.7197 58.9083 92.4325 59.6678 91.8799 60.2135C91.3821 60.7143 90.706 60.9972 89.9999 61.0002H84.6666C82.4574 61.0002 80.6666 62.791 80.6666 65.0002H77.9999C77.9999 62.791 76.209 61.0002 73.9999 61.0002Z" fill="url(#paint0_linear)"/>
</g>
<defs>
<linearGradient id="paint0_linear" x1="22.0116" y1="38.3335" x2="81.2679" y2="115.579" gradientUnits="userSpaceOnUse">
<stop stop-color="#A83592"/>
<stop offset="1" stop-color="#4F4A9D"/>
</linearGradient>
</defs>
</svg>
