<svg width="90" height="98" viewBox="0 0 90 98" fill="none" xmlns="http://www.w3.org/2000/svg">
<ellipse cx="45" cy="44.9541" rx="45" ry="44.9541" fill="white"/>
<path d="M38.2363 48.5449C37.6539 48.5449 37.1816 49.017 37.1816 49.5996V50.727C37.1816 51.3096 37.6539 51.7817 38.2363 51.7817C38.8188 51.7817 39.291 51.3096 39.291 50.727V49.5996C39.291 49.0171 38.8186 48.5449 38.2363 48.5449Z" fill="url(#paint0_linear)"/>
<path d="M51.7639 48.5449C51.1813 48.5449 50.7092 49.017 50.7092 49.5996V50.727C50.7092 51.3096 51.1813 51.7817 51.7639 51.7817C52.3465 51.7817 52.8186 51.3096 52.8186 50.727V49.5996C52.8186 49.0171 52.3464 48.5449 51.7639 48.5449Z" fill="url(#paint1_linear)"/>
<path d="M49.1334 56.7497C48.7245 56.3347 48.0566 56.3305 47.6421 56.7396C47.2571 57.1193 46.3343 57.5628 45.0009 57.5628C43.6675 57.5628 42.7448 57.1193 42.3598 56.7396C41.945 56.3302 41.2771 56.3349 40.8683 56.7496C40.4593 57.1643 40.4638 57.832 40.8783 58.241C41.7866 59.1371 43.3277 59.6722 45.0009 59.6722C46.6739 59.6722 48.215 59.1371 49.1233 58.241C49.538 57.8321 49.5425 57.1643 49.1334 56.7497Z" fill="url(#paint2_linear)"/>
<path d="M39.3632 45.1641H37.1089C36.5264 45.1641 36.0542 45.6361 36.0542 46.2187C36.0542 46.8013 36.5264 47.2734 37.1089 47.2734H39.3634C39.9458 47.2734 40.418 46.8013 40.418 46.2187C40.418 45.6361 39.9457 45.1641 39.3632 45.1641Z" fill="url(#paint3_linear)"/>
<path d="M52.8907 45.1641H50.6362C50.0536 45.1641 49.5815 45.6361 49.5815 46.2187C49.5815 46.8013 50.0538 47.2734 50.6362 47.2734H52.8907C53.4733 47.2734 53.9454 46.8013 53.9454 46.2187C53.9454 45.6361 53.4733 45.1641 52.8907 45.1641Z" fill="url(#paint4_linear)"/>
<path d="M67.5889 76.2364L59.9869 73.8993C59.9992 73.6696 59.9824 73.4373 59.9282 73.2078C59.7617 72.5032 59.295 71.9132 58.6474 71.5894L53.9461 69.2388V65.8866C57.4635 63.4403 59.9391 59.595 60.5581 55.1636H61.185C63.2405 55.1636 65.0036 53.6363 65.1988 51.6863C65.3082 50.5935 64.9508 49.5025 64.2181 48.6929C63.8636 48.301 63.4351 47.9909 62.9642 47.7742V36.0728C62.9642 31.7618 59.457 28.2545 55.1459 28.2545C55.1404 28.2545 55.067 28.2545 54.9676 28.2546C53.0687 26.854 50.2792 26 47.1847 26C40.5966 26 37.57 27.3725 34.0656 28.9617C32.1935 29.8106 30.2578 30.6884 27.5139 31.4908C27.2259 31.575 26.9873 31.778 26.8581 32.0489C26.7288 32.3198 26.7211 32.633 26.8368 32.9099C26.8689 32.9866 27.3401 34.0805 28.5558 35.4094C28.0309 36.0556 27.0372 37.7081 27.0372 40.9575V47.8212C25.8236 48.3999 24.9378 49.5461 24.8027 50.8948C24.6932 51.9876 25.0505 53.0787 25.7831 53.8886C26.5162 54.6989 27.5631 55.1635 28.6555 55.1635H29.4427C30.0612 59.5962 32.5369 63.442 36.0552 65.888V69.2387L31.3537 71.5892C30.7061 71.9132 30.2392 72.5032 30.0729 73.2078C30.0187 73.4372 30.002 73.6695 30.0142 73.8991L22.4122 76.2363C19.1102 77.2516 16.8916 80.2546 16.8916 83.7094V96.9449C16.8916 97.5275 17.3638 97.9996 17.9463 97.9996C18.5287 97.9996 19.001 97.5275 19.001 96.9449V83.7095C19.001 81.187 20.621 78.9941 23.0322 78.2527L30.9397 75.8216L32.3354 77.6826L30.7497 79.2684C29.7409 80.2771 29.4917 81.8122 30.1297 83.0884L33.1489 89.1266H30.2738V87.9268C30.2738 87.3442 29.8016 86.8721 29.2191 86.8721C28.6367 86.8721 28.1645 87.3442 28.1645 87.9268V89.1266H23.5828C23.0003 89.1266 22.5281 89.5987 22.5281 90.1813V96.9449C22.5281 97.5275 23.0003 97.9996 23.5828 97.9996H34.8555C35.438 97.9996 35.9102 97.5275 35.9102 96.9449V94.6491L37.2939 97.4167C37.4787 97.7863 37.8511 97.9999 38.2381 97.9999C38.3966 97.9999 38.5574 97.9639 38.7089 97.8882C39.2299 97.6276 39.4411 96.9943 39.1805 96.4731L32.0164 82.1448C31.7851 81.6821 31.8755 81.1257 32.2413 80.7598L34.474 78.5269C34.8451 78.1558 34.8869 77.5683 34.572 77.1484L32.1825 73.9625C32.1031 73.8565 32.113 73.7478 32.1261 73.6924C32.1392 73.6369 32.1789 73.5352 32.2974 73.4758L36.4514 71.3988L39.384 81.4533C39.5471 82.0127 40.1324 82.3333 40.6918 82.1706C41.2511 82.0075 41.5721 81.4221 41.409 80.8628L40.9468 79.278C42.2436 79.7287 43.6148 79.9633 45.001 79.9633C46.3877 79.9633 47.7583 79.7294 49.0549 79.2787L45.0008 93.178L42.7247 85.3742C42.5616 84.8148 41.9761 84.4938 41.4169 84.6569C40.8576 84.82 40.5366 85.4056 40.6997 85.9647L43.9883 97.2399C44.1197 97.6899 44.5321 97.9993 45.0008 97.9993C45.4695 97.9993 45.8821 97.6899 46.0133 97.2399L53.5504 71.3988L57.7043 73.4758C57.8229 73.5352 57.8625 73.637 57.8757 73.6923C57.8888 73.7478 57.8987 73.8565 57.8193 73.9625L55.4298 77.1484C55.1149 77.5682 55.1567 78.1558 55.5277 78.5271L57.7605 80.7599C58.1264 81.1257 58.2165 81.6823 57.9854 82.1448L50.8208 96.4732C50.5603 96.9943 50.7715 97.6278 51.2925 97.8884C51.4439 97.9641 51.605 98 51.7634 98C52.1503 98 52.5228 97.7863 52.7076 97.4168L59.8717 83.0885C60.5097 81.8125 60.2607 80.2774 59.252 79.2686L57.666 77.6826L59.0616 75.8217L66.9691 78.253C69.3803 78.9942 71.0003 81.1871 71.0003 83.7098V96.9449C71.0003 97.5275 71.4724 97.9996 72.055 97.9996C72.6376 97.9996 73.1096 97.5275 73.1096 96.9449V83.7095C73.1095 80.2548 70.891 77.2516 67.5889 76.2364ZM33.8005 95.8902H24.6372V91.236H28.1642V91.3085C28.1642 91.8912 28.6364 92.3632 29.2189 92.3632C29.8013 92.3632 30.2735 91.8912 30.2735 91.3085V91.236H33.8005V95.8902ZM34.9366 30.8828C38.3537 29.3332 41.0525 28.1094 47.1847 28.1094C51.0758 28.1094 54.5529 29.7378 55.2727 31.8974C55.4571 32.45 56.0539 32.7483 56.6068 32.5643C57.1593 32.3801 57.458 31.7827 57.2738 31.2302C57.2132 31.0483 57.1408 30.8698 57.0588 30.6946C59.2686 31.4829 60.8549 33.5957 60.8549 36.0728V47.418H59.6551C58.9935 47.418 58.4553 46.8799 58.4553 46.2182V45.0909C58.4553 40.2012 54.9153 36.605 54.7645 36.4543C54.4865 36.1761 54.0766 36.0764 53.7011 36.1943C47.8464 38.0432 39.5913 39.6015 33.5138 36.5264C31.3511 35.4321 30.0741 34.0415 29.4025 33.1129C31.6414 32.3772 33.3768 31.5901 34.9366 30.8828ZM51.8368 69.74L49.8225 76.6464C48.3466 77.4372 46.6883 77.8542 45.0008 77.8542C43.3143 77.8542 41.6545 77.4378 40.1792 76.6475L38.1645 69.74V67.1234C40.2324 68.1271 42.5519 68.691 45.0007 68.691C47.4492 68.691 49.7687 68.1268 51.8368 67.1224V69.74ZM45.0007 66.5815C37.5018 66.5815 31.4011 60.4806 31.4011 52.9817C31.4011 52.3991 30.9288 51.927 30.3464 51.927C29.7639 51.927 29.2917 52.3991 29.2917 52.9817V53.0543H28.6555C28.1581 53.0543 27.6813 52.8425 27.3473 52.4733C27.0089 52.0994 26.8506 51.6136 26.9015 51.1052C26.9902 50.2204 27.8315 49.5273 28.8167 49.5273H30.3464C32.1711 49.5273 33.6556 48.0427 33.6556 46.2181V42.2373C33.6556 41.6547 33.1833 41.1826 32.6009 41.1826C32.0184 41.1826 31.5462 41.6547 31.5462 42.2373V46.2181C31.5462 46.8797 31.0079 47.4179 30.3464 47.4179H29.1466V40.9575C29.1466 38.5035 29.8061 37.2831 30.1107 36.8504C30.755 37.3586 31.5108 37.8621 32.3953 38.323C34.7855 39.5688 37.6303 40.2587 40.8506 40.3735C44.6251 40.5092 48.9392 39.8471 53.6811 38.4085C54.5181 39.4222 56.3461 41.9909 56.3461 45.0907V46.2181C56.3461 48.0428 57.8307 49.5273 59.6553 49.5273H61.3461C61.8435 49.5273 62.3204 49.739 62.6544 50.1082C62.9927 50.4821 63.1511 50.9678 63.1001 51.4762C63.0116 52.3611 62.1705 53.0543 61.1853 53.0543H60.7094V52.9927C60.7094 52.4103 60.2375 51.9383 59.6551 51.938C59.655 51.938 59.6549 51.938 59.6547 51.938C59.0725 51.938 58.6005 52.4096 58.6 52.9918C58.5943 60.4851 52.4937 66.5815 45.0007 66.5815Z" fill="url(#paint5_linear)"/>
<path d="M66.4176 89.6902H64.6542V87.9268C64.6542 87.3441 64.1821 86.8721 63.5995 86.8721C63.0169 86.8721 62.5448 87.3441 62.5448 87.9268V89.6902H60.7812C60.1986 89.6902 59.7266 90.1623 59.7266 90.7449C59.7266 91.3275 60.1986 91.7995 60.7812 91.7995H62.5448V93.563C62.5448 94.1456 63.0169 94.6176 63.5995 94.6176C64.1821 94.6176 64.6542 94.1456 64.6542 93.563V91.7995H66.4176C67.0002 91.7995 67.4723 91.3275 67.4723 90.7449C67.4723 90.1623 66.9999 89.6902 66.4176 89.6902Z" fill="url(#paint6_linear)"/>
<defs>
<linearGradient id="paint0_linear" x1="37.1816" y1="48.5449" x2="40.1428" y2="50.4747" gradientUnits="userSpaceOnUse">
<stop stop-color="#A83592"/>
<stop offset="1" stop-color="#4F4A9D"/>
</linearGradient>
<linearGradient id="paint1_linear" x1="50.7092" y1="48.5449" x2="53.6704" y2="50.4747" gradientUnits="userSpaceOnUse">
<stop stop-color="#A83592"/>
<stop offset="1" stop-color="#4F4A9D"/>
</linearGradient>
<linearGradient id="paint2_linear" x1="40.5645" y1="56.4355" x2="42.6485" y2="62.1486" gradientUnits="userSpaceOnUse">
<stop stop-color="#A83592"/>
<stop offset="1" stop-color="#4F4A9D"/>
</linearGradient>
<linearGradient id="paint3_linear" x1="36.0542" y1="45.1641" x2="37.7072" y2="48.5838" gradientUnits="userSpaceOnUse">
<stop stop-color="#A83592"/>
<stop offset="1" stop-color="#4F4A9D"/>
</linearGradient>
<linearGradient id="paint4_linear" x1="49.5815" y1="45.1641" x2="51.2345" y2="48.5838" gradientUnits="userSpaceOnUse">
<stop stop-color="#A83592"/>
<stop offset="1" stop-color="#4F4A9D"/>
</linearGradient>
<linearGradient id="paint5_linear" x1="16.8916" y1="26" x2="86.7425" y2="80.54" gradientUnits="userSpaceOnUse">
<stop stop-color="#A83592"/>
<stop offset="1" stop-color="#4F4A9D"/>
</linearGradient>
<linearGradient id="paint6_linear" x1="59.7266" y1="86.8721" x2="67.4721" y2="94.6178" gradientUnits="userSpaceOnUse">
<stop stop-color="#A83592"/>
<stop offset="1" stop-color="#4F4A9D"/>
</linearGradient>
</defs>
</svg>
