<svg width="102" height="109" viewBox="0 0 102 109" fill="none" xmlns="http://www.w3.org/2000/svg">
<circle cx="50" cy="50" r="50" fill="#FCF8F2"/>
<g opacity="0.65">
<path d="M96.6072 35.0497C96.5213 34.923 96.4057 34.8193 96.2705 34.7475C96.1352 34.6758 95.9845 34.6382 95.8314 34.6382C95.6783 34.6382 95.5276 34.6756 95.3923 34.7473C95.2571 34.8189 95.1414 34.9226 95.0555 35.0493C94.9334 35.2293 92.0566 39.4751 91.3149 41.051C90.893 41.9469 90.4436 43.0126 90.4436 44.3224C90.4436 45.7513 91.0112 47.1217 92.0216 48.1321C93.032 49.1424 94.4024 49.7101 95.8313 49.7101C97.2602 49.7101 98.6305 49.1424 99.6409 48.1321C100.651 47.1217 101.219 45.7513 101.219 44.3224C101.219 42.9974 100.824 42.0558 100.347 41.0485C99.595 39.4633 96.7289 35.2291 96.6072 35.0497ZM95.8313 47.8321C94.9004 47.8314 94.0078 47.4614 93.3492 46.8035C92.6907 46.1456 92.32 45.2533 92.3184 44.3224C92.3184 43.3991 92.6606 42.5943 93.0111 41.8493C93.4672 40.8805 94.9174 38.643 95.8308 37.263C96.7424 38.6405 98.1889 40.8749 98.652 41.8515C99.1208 42.8407 99.3438 43.4627 99.3438 44.3224C99.3422 45.2532 98.9715 46.1455 98.3131 46.8034C97.6546 47.4613 96.7621 47.8313 95.8313 47.8321Z" fill="url(#paint0_linear)"/>
<path d="M31.8841 104.544C32.1506 104.818 32.4687 105.035 32.8201 105.185C33.1714 105.334 33.549 105.413 33.9308 105.415C34.3126 105.417 34.6911 105.344 35.0443 105.199C35.3976 105.054 35.7185 104.84 35.9885 104.57C36.2585 104.3 36.4722 103.979 36.6171 103.626C36.7621 103.273 36.8355 102.895 36.8331 102.513C36.8306 102.131 36.7524 101.753 36.6029 101.402C36.4534 101.051 36.2356 100.732 35.9622 100.466L33.8728 98.3752L40.0949 92.1533L44.5636 96.6221C44.8482 96.9066 45.186 97.1324 45.5578 97.2864C45.9297 97.4404 46.3282 97.5196 46.7306 97.5196C47.1331 97.5196 47.5316 97.4403 47.9034 97.2863C48.2752 97.1323 48.613 96.9066 48.8976 96.622C49.1822 96.3374 49.4079 95.9996 49.5619 95.6278C49.7159 95.2559 49.7951 94.8574 49.7951 94.455C49.7951 94.0525 49.7159 93.654 49.5618 93.2822C49.4078 92.9104 49.1821 92.5726 48.8975 92.288L48.5578 91.9482L75.7922 64.7138C76.3719 64.1352 76.7233 63.3668 76.7817 62.5498C76.84 61.7329 76.6015 60.9223 76.1099 60.2672L79.6536 56.7235C80.0733 56.3024 80.3494 55.7596 80.4424 55.1723C80.5355 54.5851 80.4408 53.9836 80.1719 53.4533L84.6806 48.9446C85.2869 48.3361 85.6729 47.5428 85.7777 46.6902C85.8824 45.8376 85.6998 44.9745 85.2588 44.2374L95.2839 34.2122C95.371 34.1252 95.44 34.0218 95.4871 33.9081C95.5342 33.7943 95.5585 33.6724 95.5585 33.5493C95.5585 33.4262 95.5342 33.3043 95.4871 33.1905C95.44 33.0768 95.3709 32.9734 95.2838 32.8864C95.1968 32.7993 95.0934 32.7303 94.9797 32.6832C94.8659 32.6361 94.744 32.6118 94.6209 32.6118C94.4978 32.6118 94.3759 32.6361 94.2621 32.6832C94.1484 32.7303 94.045 32.7994 93.958 32.8864L83.9375 42.9072C83.1995 42.4657 82.3353 42.2833 81.4819 42.3887C80.6284 42.4941 79.8346 42.8815 79.2263 43.4893L74.7172 47.998C74.1868 47.729 73.5851 47.6342 72.9977 47.7273C72.4103 47.8203 71.8673 48.0965 71.4461 48.5163L67.9023 52.0602C67.2472 51.5686 66.4367 51.33 65.6197 51.3883C64.8027 51.4467 64.0343 51.798 63.4556 52.3777L36.2213 79.6121L35.8816 79.2722C35.3068 78.6974 34.5273 78.3745 33.7144 78.3744C32.9015 78.3744 32.1219 78.6972 31.5471 79.272C30.9723 79.8467 30.6493 80.6263 30.6493 81.4392C30.6493 82.252 30.9721 83.0316 31.5469 83.6064L36.0156 88.0752L29.7944 94.2971L27.7045 92.2074C27.1607 91.6812 26.432 91.3899 25.6753 91.3961C24.9187 91.4024 24.1948 91.7057 23.6598 92.2408C23.1247 92.7758 22.8214 93.4997 22.8152 94.2563C22.8089 95.0129 23.1003 95.7417 23.6264 96.2855L31.8841 104.544ZM80.5517 44.8152C80.9235 44.4435 81.4277 44.2346 81.9534 44.2346C82.4791 44.2346 82.9833 44.4435 83.355 44.8152C83.7267 45.1869 83.9356 45.6911 83.9356 46.2168C83.9356 46.7426 83.7267 47.2467 83.355 47.6185L78.9452 52.0282L76.142 49.2249L80.5517 44.8152ZM72.7719 49.8422C72.9492 49.6654 73.1894 49.566 73.4398 49.566C73.6902 49.566 73.9304 49.6654 74.1077 49.8422L78.3281 54.0627C78.505 54.2399 78.6043 54.4801 78.6043 54.7305C78.6043 54.9809 78.505 55.2211 78.3281 55.3983L74.8116 58.9149L69.2555 53.3596L72.7719 49.8422ZM64.7813 53.7033C64.9235 53.561 65.0924 53.4481 65.2784 53.3711C65.4643 53.294 65.6635 53.2544 65.8648 53.2544C66.066 53.2544 66.2653 53.294 66.4512 53.3711C66.6371 53.4481 66.806 53.561 66.9483 53.7033L74.4663 61.2213C74.6086 61.3636 74.7215 61.5325 74.7985 61.7184C74.8755 61.9043 74.9152 62.1036 74.9152 62.3048C74.9152 62.506 74.8755 62.7053 74.7985 62.8912C74.7215 63.0771 74.6086 63.2461 74.4663 63.3883L72.0266 65.8283L68.5603 62.3621C68.384 62.1886 68.1464 62.0918 67.899 62.0928C67.6517 62.0938 67.4148 62.1924 67.2399 62.3673C67.065 62.5422 66.9663 62.779 66.9653 63.0264C66.9642 63.2737 67.061 63.5114 67.2344 63.6877L70.7005 67.1539L68.6772 69.1772L67.2756 67.7757C67.1886 67.6886 67.0852 67.6195 66.9715 67.5724C66.8577 67.5253 66.7358 67.501 66.6127 67.501C66.4896 67.501 66.3677 67.5253 66.2539 67.5724C66.1402 67.6195 66.0368 67.6885 65.9498 67.7756C65.8627 67.8626 65.7936 67.966 65.7465 68.0797C65.6994 68.1935 65.6751 68.3154 65.6751 68.4385C65.6751 68.5616 65.6994 68.6835 65.7465 68.7973C65.7936 68.911 65.8626 69.0144 65.9497 69.1014L67.3514 70.503L65.3281 72.5271L61.8619 69.0608C61.7748 68.9738 61.6715 68.9047 61.5577 68.8576C61.444 68.8105 61.3221 68.7863 61.1989 68.7863C61.0758 68.7863 60.9539 68.8105 60.8402 68.8577C60.7264 68.9048 60.6231 68.9738 60.536 69.0609C60.449 69.148 60.3799 69.2513 60.3328 69.3651C60.2857 69.4788 60.2615 69.6007 60.2615 69.7238C60.2615 69.847 60.2857 69.9689 60.3329 70.0826C60.38 70.1964 60.449 70.2997 60.5361 70.3868L64.0022 73.8529L61.9789 75.8761L60.5774 74.4746C60.4015 74.2987 60.1631 74.2 59.9144 74.1999C59.6658 74.1999 59.4273 74.2987 59.2515 74.4745C59.0757 74.6503 58.9769 74.8888 58.9769 75.1374C58.9768 75.3861 59.0756 75.6245 59.2514 75.8004L60.653 77.2021L58.6297 79.2254L55.1636 75.7591C54.9878 75.5833 54.7493 75.4845 54.5006 75.4845C54.252 75.4845 54.0135 75.5833 53.8377 75.7591C53.6618 75.9349 53.5631 76.1734 53.5631 76.4221C53.5631 76.6707 53.6618 76.9092 53.8377 77.085L57.3039 80.5511L55.2813 82.5746L53.8795 81.1729C53.7037 80.997 53.4652 80.8983 53.2166 80.8983C52.9679 80.8983 52.7295 80.9971 52.5537 81.1729C52.3779 81.3488 52.2791 81.5872 52.2791 81.8359C52.2791 82.0845 52.3779 82.323 52.5538 82.4988L53.9553 83.9003L51.9316 85.9236L48.4653 82.4574C48.2895 82.2816 48.051 82.1828 47.8024 82.1828C47.5537 82.1828 47.3153 82.2816 47.1395 82.4575C46.9636 82.6333 46.8649 82.8718 46.8649 83.1204C46.8649 83.3691 46.9637 83.6075 47.1395 83.7833L50.6058 87.2502L47.232 90.6238L37.5469 80.9377L64.7813 53.7033ZM32.8733 82.2814C32.6502 82.0584 32.5249 81.7558 32.5248 81.4403C32.5248 81.1248 32.6501 80.8223 32.8732 80.5992C33.0963 80.3761 33.3988 80.2507 33.7143 80.2507C34.0298 80.2507 34.3324 80.376 34.5555 80.5991L47.5719 93.6147C47.795 93.8378 47.9203 94.1404 47.9203 94.4559C47.9203 94.7714 47.795 95.074 47.5719 95.2971C47.3488 95.5202 47.0462 95.6455 46.7307 95.6455C46.4152 95.6455 46.1126 95.5202 45.8895 95.2971L32.8733 82.2814ZM37.342 89.4019L38.7689 90.8288L32.5469 97.05L31.12 95.6232L37.342 89.4019ZM24.9514 93.5341C25.1408 93.3452 25.3974 93.2391 25.6649 93.2391C25.9323 93.2391 26.1889 93.3452 26.3783 93.5341L34.6366 101.792C34.7326 101.885 34.8092 101.997 34.8618 102.12C34.9145 102.243 34.9421 102.375 34.9431 102.509C34.9442 102.643 34.9186 102.775 34.8678 102.899C34.8171 103.023 34.7423 103.135 34.6477 103.23C34.5531 103.325 34.4406 103.399 34.3168 103.45C34.193 103.501 34.0603 103.526 33.9266 103.525C33.7928 103.524 33.6605 103.497 33.5375 103.444C33.4145 103.392 33.3032 103.315 33.21 103.219L24.9517 94.9602C24.7625 94.771 24.6563 94.5143 24.6563 94.2468C24.6563 93.9792 24.7625 93.7225 24.9517 93.5333L24.9514 93.5341Z" fill="url(#paint1_linear)"/>
<path d="M65.575 57.3208C65.7421 57.3208 65.9066 57.2796 66.0539 57.2008C66.2012 57.122 66.3268 57.0081 66.4195 56.8692C66.5123 56.7303 66.5694 56.5706 66.5857 56.4044C66.602 56.2382 66.5771 56.0704 66.5131 55.9161C66.4491 55.7618 66.3481 55.6257 66.2189 55.5198C66.0897 55.4139 65.9364 55.3415 65.7725 55.309C65.6087 55.2765 65.4394 55.2849 65.2795 55.3335C65.1197 55.3821 64.9743 55.4693 64.8563 55.5875C64.7144 55.7296 64.6178 55.9106 64.5787 56.1076C64.5397 56.3046 64.5599 56.5087 64.6368 56.6942C64.7137 56.8797 64.8439 57.0382 65.0109 57.1498C65.1779 57.2613 65.3742 57.3208 65.575 57.3208Z" fill="url(#paint2_linear)"/>
<path d="M52.8934 70.0347C53.0165 70.0348 53.1385 70.0106 53.2522 69.9635C53.366 69.9164 53.4693 69.8473 53.5563 69.7602L64.3593 58.9569C64.5351 58.781 64.6339 58.5426 64.6339 58.2939C64.6338 58.0453 64.5351 57.8068 64.3592 57.631C64.1834 57.4552 63.9449 57.3564 63.6963 57.3564C63.4476 57.3565 63.2092 57.4552 63.0334 57.6311L52.2301 68.4342C52.099 68.5653 52.0096 68.7324 51.9735 68.9143C51.9373 69.0961 51.9558 69.2846 52.0268 69.456C52.0978 69.6273 52.218 69.7737 52.3722 69.8767C52.5263 69.9797 52.7076 70.0347 52.8931 70.0347H52.8934Z" fill="url(#paint3_linear)"/>
</g>
<defs>
<linearGradient id="paint0_linear" x1="90.4436" y1="34.6382" x2="104.705" y2="44.834" gradientUnits="userSpaceOnUse">
<stop stop-color="#A83592"/>
<stop offset="1" stop-color="#4F4A9D"/>
</linearGradient>
<linearGradient id="paint1_linear" x1="22.8151" y1="32.6118" x2="95.6183" y2="105.355" gradientUnits="userSpaceOnUse">
<stop stop-color="#A83592"/>
<stop offset="1" stop-color="#4F4A9D"/>
</linearGradient>
<linearGradient id="paint2_linear" x1="64.5593" y1="55.2896" x2="66.5906" y2="57.3208" gradientUnits="userSpaceOnUse">
<stop stop-color="#A83592"/>
<stop offset="1" stop-color="#4F4A9D"/>
</linearGradient>
<linearGradient id="paint3_linear" x1="51.9554" y1="57.3564" x2="64.6337" y2="70.0349" gradientUnits="userSpaceOnUse">
<stop stop-color="#A83592"/>
<stop offset="1" stop-color="#4F4A9D"/>
</linearGradient>
</defs>
</svg>
