<svg width="102" height="109" viewBox="0 0 102 109" fill="none" xmlns="http://www.w3.org/2000/svg">
<circle cx="50" cy="50" r="50" fill="#FCF8F2"/>
<g opacity="0.65">
<path d="M87.3334 64.0798C87.3416 63.9733 87.3416 63.8663 87.3334 63.7598V63.6665C87.3499 63.5203 87.3499 63.3727 87.3334 63.2265C84.5601 51.8665 71.6934 43.6665 56.6668 43.6665C41.6401 43.6665 28.7734 51.8665 26.0001 63.2532C25.9919 63.3597 25.9919 63.4667 26.0001 63.5732V63.7465C25.9843 63.8883 25.9843 64.0314 26.0001 64.1732C28.7734 75.4665 41.6401 83.6665 56.6668 83.6665C71.6934 83.6665 84.5601 75.4665 87.3334 64.0798ZM28.7601 63.6665C30.4401 60.3198 35.7201 57.5065 42.7201 55.8665C39.982 60.7061 39.982 66.6269 42.7201 71.4665C35.7201 69.8265 30.4401 67.0132 28.7601 63.6665ZM46.4401 72.1865C42.2994 67.2612 42.2994 60.0719 46.4401 55.1465C49.8218 54.6026 53.2416 54.3306 56.6668 54.3332H58.0001C57.2736 55.0506 56.8048 55.9882 56.6668 56.9998C52.9849 56.9998 50.0001 59.9846 50.0001 63.6665C50.0001 67.3484 52.9849 70.3332 56.6668 70.3332C60.3487 70.3332 63.3334 67.3484 63.3334 63.6665C63.3295 63.0982 63.2487 62.5331 63.0934 61.9865C64.8503 61.2711 65.9993 59.5634 66.0001 57.6665C65.9992 56.6588 65.6665 55.6795 65.0534 54.8798C65.6801 54.9598 66.2934 55.0398 66.8934 55.1465C71.0341 60.0719 71.0341 67.2612 66.8934 72.1865C63.5117 72.7304 60.0919 73.0024 56.6668 72.9998C53.2416 73.0024 49.8218 72.7304 46.4401 72.1865ZM61.8934 59.5732C61.2181 58.7056 60.3386 58.0185 59.3334 57.5732C59.3726 56.5507 60.1772 55.7227 61.198 55.6542C62.2189 55.5857 63.1269 56.2988 63.3023 57.3068C63.4778 58.3149 62.8641 59.2927 61.8801 59.5732H61.8934ZM60.6668 63.6665C60.6668 65.8756 58.8759 67.6665 56.6668 67.6665C54.4576 67.6665 52.6668 65.8756 52.6668 63.6665C52.6668 61.4574 54.4576 59.6665 56.6668 59.6665C58.8759 59.6665 60.6668 61.4574 60.6668 63.6665ZM70.6134 55.8665C77.6134 57.5065 82.8934 60.3198 84.5734 63.6665C82.8934 67.0132 77.6134 69.8265 70.6134 71.4665C73.3515 66.6269 73.3515 60.7061 70.6134 55.8665ZM56.6668 46.3332C67.2268 46.3332 76.5868 50.6398 81.4801 57.1465C75.8134 53.7598 66.8401 51.6665 56.6668 51.6665C46.4934 51.6665 37.5468 53.7598 31.8801 57.1332C36.7868 50.6132 46.1334 46.3332 56.6668 46.3332ZM31.8534 70.1865C37.5201 73.5732 46.4934 75.6665 56.6668 75.6665C66.8401 75.6665 75.7868 73.5732 81.4534 70.1998C76.5468 76.7198 67.2001 80.9998 56.6668 80.9998C46.1334 80.9998 36.7468 76.6932 31.8534 70.1865Z" fill="url(#paint0_linear)"/>
<path d="M56.6668 98.3332C63.951 98.3497 71.0522 96.0526 76.9468 91.7732L91.7601 107.227C93.2678 108.744 95.4703 109.341 97.5381 108.794C99.6058 108.247 101.225 106.639 101.785 104.574C102.345 102.51 101.761 100.304 100.253 98.7865L89.8268 87.8798L85.3601 83.2132C94.7178 69.4523 92.9772 50.9835 81.2135 39.2132C67.6767 25.6835 45.7368 25.6835 32.2001 39.2132C18.6704 52.7499 18.6704 74.6898 32.2001 88.2265C38.6802 94.7254 47.4893 98.3643 56.6668 98.3332ZM99.3335 103C99.336 103.887 98.9802 104.738 98.3468 105.36C97.0323 106.598 94.9813 106.598 93.6668 105.36L84.1335 95.4132L88.8401 90.7065L98.3601 100.653C98.9854 101.274 99.3359 102.119 99.3335 103ZM87.0001 88.7865L82.2935 93.4932L79.0535 90.1199C79.7868 89.5065 80.4935 88.8665 81.1735 88.1732C82.0736 87.2824 82.9196 86.3385 83.7068 85.3465L87.0001 88.7865ZM34.0001 40.9999C46.5186 28.4814 66.815 28.4814 79.3335 40.9999C91.8519 53.5183 91.8519 73.8147 79.3335 86.3332C66.815 98.8516 46.5186 98.8516 34.0001 86.3332C21.4817 73.8147 21.4817 53.5183 34.0001 40.9999Z" fill="url(#paint1_linear)"/>
<path d="M36.8666 45.2001C37.221 45.2021 37.5616 45.063 37.8132 44.8134C41.5294 41.0791 46.273 38.5355 51.4399 37.5068C51.9163 37.4139 52.3069 37.0739 52.4646 36.6149C52.6224 36.1559 52.5232 35.6477 52.2046 35.2816C51.886 34.9155 51.3963 34.7472 50.9199 34.8401C45.2374 35.9608 40.0163 38.7454 35.9199 42.8401C35.6675 43.0904 35.5255 43.4312 35.5255 43.7868C35.5255 44.1423 35.6675 44.4831 35.9199 44.7334C36.1578 45.0126 36.5003 45.1814 36.8666 45.2001Z" fill="url(#paint2_linear)"/>
<path d="M56.667 36.9997C57.4033 36.9997 58.0003 36.4027 58.0003 35.6663C58.0003 34.93 57.4033 34.333 56.667 34.333C55.9306 34.333 55.3336 34.93 55.3336 35.6663C55.3336 36.4027 55.9306 36.9997 56.667 36.9997Z" fill="url(#paint3_linear)"/>
</g>
<defs>
<linearGradient id="paint0_linear" x1="25.9883" y1="43.6665" x2="62.5872" y2="99.807" gradientUnits="userSpaceOnUse">
<stop stop-color="#A83592"/>
<stop offset="1" stop-color="#4F4A9D"/>
</linearGradient>
<linearGradient id="paint1_linear" x1="22.0529" y1="29.0659" x2="101.98" y2="109.007" gradientUnits="userSpaceOnUse">
<stop stop-color="#A83592"/>
<stop offset="1" stop-color="#4F4A9D"/>
</linearGradient>
<linearGradient id="paint2_linear" x1="35.5255" y1="34.8149" x2="44.7624" y2="49.9468" gradientUnits="userSpaceOnUse">
<stop stop-color="#A83592"/>
<stop offset="1" stop-color="#4F4A9D"/>
</linearGradient>
<linearGradient id="paint3_linear" x1="55.3336" y1="34.333" x2="58.0003" y2="36.9997" gradientUnits="userSpaceOnUse">
<stop stop-color="#A83592"/>
<stop offset="1" stop-color="#4F4A9D"/>
</linearGradient>
</defs>
</svg>
