<svg width="102" height="109" viewBox="0 0 102 109" fill="none" xmlns="http://www.w3.org/2000/svg">
<circle cx="50" cy="50" r="50" fill="#FCF8F2"/>
<g opacity="0.65" clip-path="url(#clip0)">
<path d="M45.2863 79.7738L34.4807 90.5793C33.9822 91.0778 33.9822 91.8862 34.4807 92.3845C34.7301 92.6339 35.0567 92.7585 35.3835 92.7585C35.7102 92.7585 36.037 92.6339 36.2863 92.3845L47.092 81.5791C47.5905 81.0805 47.5905 80.2722 47.092 79.7738C46.5934 79.2754 45.7851 79.2751 45.2863 79.7738Z" fill="url(#paint0_linear)"/>
<path d="M83.6683 79.7738L72.8628 90.5793C72.3643 91.0778 72.3643 91.8862 72.8628 92.3845C73.1122 92.6337 73.439 92.7585 73.7656 92.7585C74.0923 92.7585 74.4191 92.6339 74.6684 92.3845L85.4739 81.5791C85.9724 81.0805 85.9724 80.2722 85.4739 79.7738C84.9752 79.2753 84.1668 79.2753 83.6683 79.7738Z" fill="url(#paint1_linear)"/>
<path d="M101.891 83.8793C101.889 83.8717 101.889 83.864 101.887 83.8563L91.4946 42.0419C90.6948 38.8238 87.8177 36.5763 84.4982 36.5763C83.793 36.5763 83.2216 37.1479 83.2216 37.8529C83.2216 38.558 83.793 39.1295 84.4982 39.1295C86.6425 39.1295 88.5006 40.5804 89.017 42.6579L98.5363 80.9612C98.4114 80.9489 98.2849 80.9423 98.1568 80.9423H95.8526C95.0346 79.5382 93.8313 78.2567 92.2815 77.1649C89.3021 75.0666 85.3634 73.9108 81.191 73.9108C77.0182 73.9108 73.0797 75.0666 70.1003 77.1649C67.7237 78.8388 66.1631 80.9592 65.5559 83.2834C64.4725 82.7501 63.2601 82.4664 62 82.4664C60.7399 82.4664 59.5277 82.7501 58.4441 83.2834C57.8369 80.9592 56.2761 78.839 53.8997 77.1649C50.9203 75.0666 46.9816 73.9108 42.8092 73.9108C38.6364 73.9108 34.6979 75.0666 31.7185 77.1649C30.1687 78.2567 28.9654 79.5382 28.1474 80.9423H25.8432C25.7152 80.9423 25.5886 80.9489 25.4637 80.9612L34.983 42.6577C35.4994 40.5803 37.3574 39.1294 39.5018 39.1294C40.207 39.1294 40.7784 38.5578 40.7784 37.8528C40.7784 37.1477 40.207 36.5762 39.5018 36.5762C36.1821 36.5762 33.3052 38.8237 32.5054 42.0417L22.1134 83.8563C22.1115 83.864 22.1106 83.8717 22.1089 83.8793C22.0383 84.17 22 84.4734 22 84.7854V85.6843C22 87.8034 23.7241 89.5277 25.8432 89.5277H27.4036C28.5079 93.751 31.3074 97.2953 35.0283 99.3886C35.0924 99.4327 35.1597 99.4698 35.2291 99.5009C37.4843 100.727 40.0669 101.424 42.8092 101.424C51.3872 101.424 58.4014 94.6046 58.7181 86.1025C59.6351 85.4012 60.782 85.0196 62 85.0196C63.218 85.0196 64.3649 85.401 65.2819 86.1025C65.4943 91.8053 68.72 96.7503 73.4104 99.3888C73.474 99.4325 73.5409 99.4695 73.61 99.5004C75.8654 100.727 78.4483 101.424 81.1911 101.424C88.5801 101.424 94.809 96.3643 96.5966 89.5278H98.1569C100.276 89.5278 102 87.8038 102 85.6844V84.7855C102 84.4734 101.962 84.17 101.891 83.8793ZM25.8432 86.9743C25.1319 86.9743 24.5532 86.3956 24.5532 85.6841V84.7852C24.5532 84.0739 25.1319 83.4952 25.8432 83.4952H27.1209C26.9668 84.1505 26.8877 84.8211 26.8877 85.5021C26.8877 85.9985 26.9117 86.4894 26.9564 86.9741H25.8432V86.9743ZM42.8092 98.8706C41.0924 98.8706 39.4521 98.5418 37.9428 97.9496L48.3336 87.559C48.8322 87.0604 48.8322 86.2521 48.3336 85.7537C47.8351 85.2552 47.0269 85.2552 46.5282 85.7537L35.5574 96.7239C31.8803 94.3394 29.4407 90.2017 29.4407 85.5023C29.4407 80.5185 35.4376 76.4638 42.809 76.4638C46.7721 76.4638 50.336 77.6369 52.786 79.4952L50.1386 82.1426C49.64 82.6412 49.64 83.4495 50.1386 83.9479C50.3879 84.1971 50.7147 84.3219 51.0414 84.3219C51.368 84.3219 51.6948 84.1973 51.9442 83.9479L54.6189 81.2732C55.6121 82.5358 56.1772 83.975 56.1772 85.5021C56.1774 92.8735 50.1804 98.8706 42.8092 98.8706ZM81.191 98.8706C79.4742 98.8706 77.8339 98.5418 76.3246 97.9496L86.7152 87.559C87.2138 87.0604 87.2138 86.2521 86.7152 85.7537C86.2165 85.2552 85.4083 85.2552 84.9098 85.7537L73.9394 96.7241C70.2623 94.3396 67.8226 90.2019 67.8226 85.5025C67.8226 80.5186 73.8196 76.464 81.191 76.464C85.154 76.464 88.718 77.6371 91.168 79.4953L88.5205 82.1428C88.022 82.6414 88.022 83.4497 88.5205 83.9481C88.7699 84.1973 89.0967 84.322 89.4233 84.322C89.75 84.322 90.0768 84.1975 90.3261 83.9481L93.0008 81.2734C93.994 82.536 94.5592 83.9752 94.5592 85.5023C94.5592 92.8735 88.5622 98.8706 81.191 98.8706ZM99.4468 85.6843C99.4468 86.3956 98.8681 86.9745 98.1568 86.9745H97.0437C97.0883 86.4895 97.1125 85.9988 97.1125 85.5025C97.1125 84.8215 97.0334 84.1508 96.8793 83.4955H98.1569C98.8683 83.4955 99.447 84.0742 99.447 84.7855V85.6843H99.4468Z" fill="url(#paint2_linear)"/>
</g>
<defs>
<linearGradient id="paint0_linear" x1="34.1068" y1="79.3999" x2="47.4654" y2="92.759" gradientUnits="userSpaceOnUse">
<stop stop-color="#A83592"/>
<stop offset="1" stop-color="#4F4A9D"/>
</linearGradient>
<linearGradient id="paint1_linear" x1="72.4889" y1="79.3999" x2="85.8475" y2="92.7588" gradientUnits="userSpaceOnUse">
<stop stop-color="#A83592"/>
<stop offset="1" stop-color="#4F4A9D"/>
</linearGradient>
<linearGradient id="paint2_linear" x1="22" y1="36.5762" x2="85.444" y2="114.844" gradientUnits="userSpaceOnUse">
<stop stop-color="#A83592"/>
<stop offset="1" stop-color="#4F4A9D"/>
</linearGradient>
<clipPath id="clip0">
<rect width="80" height="80" fill="white" transform="translate(22 29)"/>
</clipPath>
</defs>
</svg>
