<svg width="102" height="109" viewBox="0 0 102 109" fill="none" xmlns="http://www.w3.org/2000/svg">
<circle cx="50" cy="50" r="50" fill="#FCF8F2"/>
<g opacity="0.65" clip-path="url(#clip0)">
<path d="M53.8802 85.9199C54.6887 83.9101 55.3439 81.842 55.8403 79.7333C56.5877 76.5321 56.99 73.2601 57.0403 69.9733C57.0403 69.6933 57.0403 69.3733 57.0403 69.0399C57.0403 68.7066 57.0403 68.4533 57.0403 68.2399C56.9999 64.9084 56.5976 61.5912 55.8403 58.3466C55.4208 56.6007 54.8954 54.8819 54.2669 53.1999H54.3469C57.7336 53.1999 62.5603 51.8666 64.5736 46.8933C64.846 46.2084 64.5118 45.4324 63.8269 45.1599C63.1421 44.8875 62.366 45.2218 62.0936 45.9066C61.1041 48.3289 58.8784 50.0236 56.2802 50.3333C57.4138 49.1699 58.1189 47.6562 58.2803 46.0399C58.4536 43.6399 57.0936 41.6799 55.8936 39.9466C55.5126 39.4289 55.1609 38.8903 54.8402 38.3333C53.8728 36.5498 53.2913 34.5828 53.1336 32.5599C52.902 30.5295 51.1772 29.0001 49.1336 29.0133H30.0002C27.7963 29.0133 26.0076 30.796 26.0002 32.9999V105C26.0002 107.209 27.7911 109 30.0002 109H49.1736C51.2171 109.013 52.942 107.484 53.1736 105.453C53.3131 103.428 53.8812 101.456 54.8402 99.6666C55.1585 99.1123 55.5102 98.578 55.8936 98.0666C57.0936 96.3333 58.4536 94.3733 58.2803 91.9733C57.9429 89.3368 56.2839 87.0545 53.8802 85.9199ZM36.6669 64.1466C37.1287 65.0494 37.5339 65.9801 37.8802 66.9333C38.3181 68.2762 38.3181 69.7236 37.8802 71.0666C37.5396 72.022 37.1342 72.953 36.6669 73.8533L35.5336 72.7199C33.5182 70.6494 33.5182 67.3505 35.5336 65.2799L36.6669 64.1466ZM40.4002 66.0799C39.9254 64.7473 39.3458 63.4544 38.6669 62.2133C39.8669 61.1066 41.0669 60.0533 42.2802 59.0799C45.1339 56.8277 48.2177 54.8835 51.4802 53.2799C52.0592 54.7481 52.5534 56.2484 52.9602 57.7733C48.604 59.7871 45.8666 64.2026 46.0002 68.9999C45.8619 73.791 48.5878 78.2049 52.9336 80.2266C52.5327 81.7533 52.0384 83.2539 51.4536 84.7199C48.1869 83.1163 45.0986 81.1722 42.2402 78.9199C41.0269 77.9466 39.8269 76.8933 38.6269 75.7866C39.3058 74.5455 39.8854 73.2525 40.3602 71.9199C41.0004 70.0259 41.0004 67.974 40.3602 66.0799H40.4002ZM54.4136 68.2799V69.0266V69.8399C54.3666 72.4408 54.0944 75.0327 53.6003 77.5866C50.4794 75.8722 48.5761 72.5595 48.6669 68.9999C48.5713 65.4497 50.457 62.1406 53.5602 60.4133C54.0669 63.0058 54.3392 65.6386 54.3736 68.2799H54.4136ZM53.7336 96.5599C53.3336 97.1466 52.9069 97.7599 52.5602 98.3733C51.4082 100.475 50.713 102.797 50.5202 105.187C50.4266 105.849 49.8562 106.34 49.1869 106.333H30.0002C29.2639 106.333 28.6669 105.736 28.6669 105V32.9999C28.6669 32.2636 29.2639 31.6666 30.0002 31.6666H49.1736C49.8428 31.66 50.4132 32.1506 50.5069 32.8133C50.6895 35.2137 51.3755 37.5488 52.5202 39.6666C52.8669 40.2666 53.2936 40.8799 53.6936 41.4666C54.7336 42.9599 55.7202 44.3733 55.6136 45.8266C55.344 47.6013 54.1804 49.1124 52.5336 49.8266C48.2569 51.743 44.2277 54.1695 40.5336 57.0533C38.0755 59.0554 35.7422 61.2061 33.5469 63.4933C30.5497 66.594 30.5497 71.5125 33.5469 74.6133C35.7524 76.883 38.0946 79.0159 40.5602 80.9999C44.253 83.882 48.2826 86.3042 52.5602 88.2133C54.209 88.928 55.3766 90.4377 55.6536 92.2133C55.7202 93.6533 54.7336 95.0666 53.6936 96.5599H53.7336Z" fill="url(#paint0_linear)"/>
<path d="M92.6673 70.3332H91.3339C91.0539 70.3332 90.7873 70.3332 90.5073 70.3332C95.4539 65.5599 97.8273 58.9732 96.1073 53.4666C95.8619 52.6744 95.2749 52.0336 94.5073 51.7199C93.71 51.3871 92.8061 51.4262 92.0406 51.8266L62.7072 67.0932C61.9396 67.4913 61.3878 68.209 61.2006 69.0532C61.0244 69.8635 61.2093 70.7103 61.7072 71.3732C64.4939 74.9599 69.2806 76.8532 74.4806 76.8532C75.8944 76.8511 77.3049 76.7171 78.6939 76.4532C76.4901 79.2725 75.3058 82.7549 75.3339 86.3332V106.333C75.3339 107.806 76.5278 109 78.0006 109H95.3339C96.8067 109 98.0006 107.806 98.0006 106.333V75.6666C98.0006 72.7211 95.6128 70.3332 92.6673 70.3332ZM95.3339 75.6666V90.3332C94.3321 90.31 93.3571 90.005 92.5206 89.4532C91.0883 88.2989 90.1803 86.6173 90.0006 84.7866C89.0539 79.0932 90.2406 75.2666 91.5473 73.7199C91.8088 73.3393 92.2124 73.0798 92.6673 72.9999C94.14 72.9999 95.3339 74.1938 95.3339 75.6666ZM63.8539 69.6666C63.8776 69.5954 63.9246 69.5344 63.9872 69.4932L93.3206 54.2266C93.4255 54.1894 93.5424 54.2213 93.6139 54.3066C95.5073 60.3599 91.2539 68.0932 83.9206 71.9066C76.5872 75.7199 67.7606 74.7999 63.8539 69.6666ZM78.0006 106.333V86.3332C77.9993 79.9963 82.4584 74.534 88.6673 73.2666C87.3339 75.6799 86.4539 79.7332 87.3339 85.2666C87.6289 87.815 88.9598 90.1297 91.0139 91.6666C92.2974 92.5137 93.7963 92.9763 95.3339 92.9999V99.6666H91.3339C90.5975 99.6666 90.0006 100.264 90.0006 101C90.0006 101.736 90.5975 102.333 91.3339 102.333H95.3339V106.333H78.0006Z" fill="url(#paint1_linear)"/>
</g>
<defs>
<linearGradient id="paint0_linear" x1="26.0002" y1="29.0132" x2="88.6865" y2="59.3178" gradientUnits="userSpaceOnUse">
<stop stop-color="#A83592"/>
<stop offset="1" stop-color="#4F4A9D"/>
</linearGradient>
<linearGradient id="paint1_linear" x1="61.1354" y1="51.4956" x2="113.39" y2="84.9951" gradientUnits="userSpaceOnUse">
<stop stop-color="#A83592"/>
<stop offset="1" stop-color="#4F4A9D"/>
</linearGradient>
<clipPath id="clip0">
<rect width="80" height="80" fill="white" transform="translate(22 29)"/>
</clipPath>
</defs>
</svg>
