<svg width="102" height="109" viewBox="0 0 102 109" fill="none" xmlns="http://www.w3.org/2000/svg">
<circle cx="50" cy="50" r="50" fill="#FCF8F2"/>
<g opacity="0.65" clip-path="url(#clip0)">
<path d="M58.0002 65C55.7911 65 54.0002 66.7909 54.0002 69C54.0002 71.2091 55.7911 73 58.0002 73C58.0002 75.2091 59.7911 77 62.0002 77C64.2094 77 66.0002 75.2091 66.0002 73C68.2094 73 70.0002 71.2091 70.0002 69C70.0002 66.7909 68.2094 65 66.0002 65C66.0002 62.7909 64.2094 61 62.0002 61C59.7911 61 58.0002 62.7909 58.0002 65ZM63.3336 65V66.3333C63.3336 67.0697 63.9305 67.6667 64.6669 67.6667H66.0002C66.7366 67.6667 67.3336 68.2636 67.3336 69C67.3336 69.7364 66.7366 70.3333 66.0002 70.3333H64.6669C63.9305 70.3333 63.3336 70.9303 63.3336 71.6667V73C63.3336 73.7364 62.7366 74.3333 62.0002 74.3333C61.2639 74.3333 60.6669 73.7364 60.6669 73V71.6667C60.6669 70.9303 60.07 70.3333 59.3336 70.3333H58.0002C57.2639 70.3333 56.6669 69.7364 56.6669 69C56.6669 68.2636 57.2639 67.6667 58.0002 67.6667H59.3336C60.07 67.6667 60.6669 67.0697 60.6669 66.3333V65C60.6669 64.2636 61.2639 63.6667 62.0002 63.6667C62.7366 63.6667 63.3336 64.2636 63.3336 65Z" fill="url(#paint0_linear)"/>
<path d="M58.9601 43.7734C41.8801 44.7067 27.4134 53.5334 22.8667 65.8667C22.5601 66.72 22.2934 67.5734 22.0801 68.4267C22.0726 68.4753 22.0726 68.5248 22.0801 68.5734C22.0378 68.7122 22.011 68.8553 22.0001 69C21.9845 69.1329 21.9845 69.2672 22.0001 69.4C21.9937 69.4576 21.9937 69.5158 22.0001 69.5734C22.2134 70.4267 22.4801 71.28 22.7867 72.1334C27.4134 84.4667 41.8801 93.2934 58.9601 94.2267C59.7072 95.1367 60.8227 95.6641 62.0001 95.6641C63.1775 95.6641 64.2929 95.1367 65.0401 94.2267C82.1201 93.2934 96.5867 84.4667 101.133 72.1334C101.44 71.28 101.707 70.4267 101.92 69.5734C101.927 69.5114 101.927 69.4487 101.92 69.3867C101.962 69.2616 101.989 69.1317 102 69C102.016 68.8672 102.016 68.7329 102 68.6C102.006 68.5424 102.006 68.4843 102 68.4267C101.787 67.5734 101.52 66.72 101.213 65.8667C96.5867 53.5334 82.1201 44.7067 65.0401 43.7734C64.2929 42.8634 63.1775 42.3359 62.0001 42.3359C60.8227 42.3359 59.7072 42.8634 58.9601 43.7734ZM64.9201 57.1067C68.4266 57.2091 71.9228 57.5387 75.3867 58.0934C77.0576 60.1005 78.2479 62.4628 78.8667 65H76.6667C74.4576 65 72.6667 66.7909 72.6667 69C72.6667 71.2092 74.4576 73 76.6667 73H78.8667C78.2397 75.5608 77.0306 77.9425 75.3334 79.96C71.8695 80.5148 68.3733 80.8443 64.8667 80.9467C64.1105 80.1389 63.0533 79.6805 61.9467 79.6805C60.8402 79.6805 59.783 80.1389 59.0267 80.9467C55.5558 80.8404 52.0953 80.5108 48.6667 79.96C46.9799 77.9376 45.7761 75.5573 45.1467 73H47.3334C49.5425 73 51.3334 71.2092 51.3334 69C51.3334 66.7909 49.5425 65 47.3334 65H45.1467C45.7761 62.4428 46.9799 60.0625 48.6667 58.04C52.1118 57.4691 55.5902 57.1217 59.0801 57C59.8364 57.8078 60.8935 58.2663 62.0001 58.2663C63.1067 58.2663 64.1638 57.8078 64.9201 57V57.1067ZM93.2001 73.84C92.4889 70.6526 92.4889 67.3475 93.2001 64.16C94.4971 64.9996 95.665 66.0237 96.6667 67.2C97.1882 67.7389 97.6365 68.3441 98.0001 69C97.6361 69.6597 97.1879 70.2693 96.6667 70.8134C95.6684 71.9894 94.5 73.0095 93.2001 73.84ZM90.8134 75.1734C87.1163 77.0114 83.1939 78.3562 79.1467 79.1734C80.3087 77.2711 81.1341 75.1827 81.5867 73H84.6667C86.8759 73 88.6667 71.2092 88.6667 69C88.6667 66.7909 86.8759 65 84.6667 65H81.5867C81.1415 62.7943 80.3158 60.6828 79.1467 58.76C83.1939 59.5772 87.1163 60.922 90.8134 62.76C89.7291 66.8494 89.7291 71.1507 90.8134 75.24V75.1734ZM84.6667 67.6667C85.4031 67.6667 86.0001 68.2637 86.0001 69C86.0001 69.7364 85.4031 70.3334 84.6667 70.3334H76.6667C75.9304 70.3334 75.3334 69.7364 75.3334 69C75.3334 68.2637 75.9304 67.6667 76.6667 67.6667H84.6667ZM29.6267 65C29.8734 66.3191 29.9984 67.6581 30.0001 69C29.9984 70.342 29.8734 71.681 29.6267 73C28.781 72.3564 28.0116 71.6183 27.3334 70.8C26.8363 70.2594 26.4147 69.6539 26.0801 69C26.4164 68.3391 26.8378 67.725 27.3334 67.1734C28.0153 66.3666 28.7845 65.6377 29.6267 65ZM32.0134 63.4C36.0178 61.2244 40.3291 59.6689 44.8001 58.7867C43.6589 60.7066 42.8561 62.8083 42.4267 65H39.3334C37.1243 65 35.3334 66.7909 35.3334 69C35.3334 71.2092 37.1243 73 39.3334 73H42.4267C42.8697 75.2044 43.6907 77.3156 44.8534 79.24C40.3824 78.3578 36.0711 76.8023 32.0667 74.6267C32.4879 72.7814 32.6893 70.8927 32.6667 69C32.6697 67.1142 32.4504 65.2346 32.0134 63.4ZM39.3334 70.3334C38.597 70.3334 38.0001 69.7364 38.0001 69C38.0001 68.2637 38.597 67.6667 39.3334 67.6667H47.3334C48.0698 67.6667 48.6667 68.2637 48.6667 69C48.6667 69.7364 48.0698 70.3334 47.3334 70.3334H39.3334ZM58.0001 46.5067V54.3334V54.4267C54.7043 54.5648 51.419 54.8897 48.1601 55.4C42.0684 56.2333 36.1701 58.1287 30.7334 61C29.261 61.8333 27.8878 62.8308 26.6401 63.9734C31.7201 54.3334 43.7867 47.5867 58.0001 46.5067ZM26.6401 73.9734C27.8841 75.1357 29.2575 76.1513 30.7334 77C36.1743 79.8728 42.0772 81.7683 48.1734 82.6C51.4324 83.1103 54.7176 83.4353 58.0134 83.5734V83.6667V91.4934C43.7867 90.4134 31.7201 83.6667 26.6401 73.9734ZM63.3334 91.6667C63.3334 92.4031 62.7365 93 62.0001 93C61.2637 93 60.6667 92.4031 60.6667 91.6667V83.6667C60.6667 82.9303 61.2637 82.3334 62.0001 82.3334C62.7365 82.3334 63.3334 82.9303 63.3334 83.6667V91.6667ZM66.0001 91.4934V83.6667C66.0001 83.6667 66.0001 83.6667 66.0001 83.5734C69.2958 83.4353 72.5811 83.1103 75.8401 82.6C81.5002 81.7851 86.9979 80.089 92.1334 77.5734C94.0244 76.6106 95.7815 75.4048 97.3601 73.9867C92.2667 83.6667 80.2134 90.4134 66.0001 91.4934ZM97.3601 64.0134C95.7792 62.5982 94.0225 61.3927 92.1334 60.4267C86.9937 57.9098 81.4915 56.2136 75.8267 55.4C72.5722 54.8902 69.2914 54.5653 66.0001 54.4267V54.3334V46.5067C80.2134 47.5867 92.2667 54.3334 97.3601 64.0134ZM63.3334 46.3334V54.3334C63.3334 55.0698 62.7365 55.6667 62.0001 55.6667C61.2637 55.6667 60.6667 55.0698 60.6667 54.3334V46.3334C60.6667 45.597 61.2637 45 62.0001 45C62.7365 45 63.3334 45.597 63.3334 46.3334Z" fill="url(#paint1_linear)"/>
<path d="M26 46.3333C28.2091 46.3333 30 44.5425 30 42.3333V37H35.3333C37.5425 37 39.3333 35.2091 39.3333 33C39.3333 30.7909 37.5425 29 35.3333 29H27.3333C24.3878 29 22 31.3878 22 34.3333V42.3333C22 44.5425 23.7909 46.3333 26 46.3333ZM24.6667 34.3333C24.6667 32.8606 25.8606 31.6667 27.3333 31.6667H35.3333C36.0697 31.6667 36.6667 32.2636 36.6667 33C36.6667 33.7364 36.0697 34.3333 35.3333 34.3333H28.6667C27.9303 34.3333 27.3333 34.9303 27.3333 35.6667V42.3333C27.3333 43.0697 26.7364 43.6667 26 43.6667C25.2636 43.6667 24.6667 43.0697 24.6667 42.3333V34.3333Z" fill="url(#paint2_linear)"/>
<path d="M27.3333 109H35.3333C37.5425 109 39.3333 107.209 39.3333 105C39.3333 102.791 37.5425 101 35.3333 101H30V95.6665C30 93.4574 28.2091 91.6665 26 91.6665C23.7909 91.6665 22 93.4574 22 95.6665V103.667C22 105.081 22.5619 106.438 23.5621 107.438C24.5623 108.438 25.9188 109 27.3333 109ZM24.6667 95.6665C24.6667 94.9301 25.2636 94.3332 26 94.3332C26.7364 94.3332 27.3333 94.9301 27.3333 95.6665V102.333C27.3333 103.07 27.9303 103.667 28.6667 103.667H35.3333C36.0697 103.667 36.6667 104.263 36.6667 105C36.6667 105.736 36.0697 106.333 35.3333 106.333H27.3333C25.8606 106.333 24.6667 105.139 24.6667 103.667V95.6665Z" fill="url(#paint3_linear)"/>
<path d="M96.6665 29H88.6665C86.4574 29 84.6665 30.7909 84.6665 33C84.6665 35.2091 86.4574 37 88.6665 37H93.9998V42.3333C93.9998 44.5425 95.7907 46.3333 97.9998 46.3333C100.209 46.3333 102 44.5425 102 42.3333V34.3333C102 31.3878 99.612 29 96.6665 29ZM99.3332 42.3333C99.3332 43.0697 98.7362 43.6667 97.9998 43.6667C97.2635 43.6667 96.6665 43.0697 96.6665 42.3333V35.6667C96.6665 34.9303 96.0695 34.3333 95.3332 34.3333H88.6665C87.9301 34.3333 87.3332 33.7364 87.3332 33C87.3332 32.2636 87.9301 31.6667 88.6665 31.6667H96.6665C98.1393 31.6667 99.3332 32.8606 99.3332 34.3333V42.3333Z" fill="url(#paint4_linear)"/>
<path d="M97.9998 91.6665C95.7907 91.6665 93.9998 93.4574 93.9998 95.6665V101H88.6665C86.4574 101 84.6665 102.791 84.6665 105C84.6665 107.209 86.4574 109 88.6665 109H96.6665C99.612 109 102 106.612 102 103.667V95.6665C102 93.4574 100.209 91.6665 97.9998 91.6665ZM99.3332 103.667C99.3332 105.139 98.1393 106.333 96.6665 106.333H88.6665C87.9301 106.333 87.3332 105.736 87.3332 105C87.3332 104.263 87.9301 103.667 88.6665 103.667H95.3332C96.0695 103.667 96.6665 103.07 96.6665 102.333V95.6665C96.6665 94.9301 97.2635 94.3332 97.9998 94.3332C98.7362 94.3332 99.3332 94.9301 99.3332 95.6665V103.667Z" fill="url(#paint5_linear)"/>
</g>
<defs>
<linearGradient id="paint0_linear" x1="54.0002" y1="61" x2="70.0002" y2="77" gradientUnits="userSpaceOnUse">
<stop stop-color="#A83592"/>
<stop offset="1" stop-color="#4F4A9D"/>
</linearGradient>
<linearGradient id="paint1_linear" x1="21.9884" y1="42.3359" x2="71.2071" y2="116.193" gradientUnits="userSpaceOnUse">
<stop stop-color="#A83592"/>
<stop offset="1" stop-color="#4F4A9D"/>
</linearGradient>
<linearGradient id="paint2_linear" x1="22" y1="29" x2="39.3333" y2="46.3333" gradientUnits="userSpaceOnUse">
<stop stop-color="#A83592"/>
<stop offset="1" stop-color="#4F4A9D"/>
</linearGradient>
<linearGradient id="paint3_linear" x1="22" y1="91.6665" x2="39.3333" y2="109" gradientUnits="userSpaceOnUse">
<stop stop-color="#A83592"/>
<stop offset="1" stop-color="#4F4A9D"/>
</linearGradient>
<linearGradient id="paint4_linear" x1="84.6665" y1="29" x2="102" y2="46.3333" gradientUnits="userSpaceOnUse">
<stop stop-color="#A83592"/>
<stop offset="1" stop-color="#4F4A9D"/>
</linearGradient>
<linearGradient id="paint5_linear" x1="84.6665" y1="91.6665" x2="102" y2="109" gradientUnits="userSpaceOnUse">
<stop stop-color="#A83592"/>
<stop offset="1" stop-color="#4F4A9D"/>
</linearGradient>
<clipPath id="clip0">
<rect width="80" height="80" fill="white" transform="translate(22 29)"/>
</clipPath>
</defs>
</svg>
