<svg width="102" height="109" viewBox="0 0 102 109" fill="none" xmlns="http://www.w3.org/2000/svg">
<circle cx="50" cy="50" r="50" fill="#FCF8F2"/>
<g opacity="0.65" clip-path="url(#clip0)">
<path d="M52.6666 109C67.6933 109 80.56 100.8 83.3333 89.4133C83.3452 89.2758 83.3452 89.1375 83.3333 89C83.3414 88.9336 83.3414 88.8664 83.3333 88.8C83.3472 88.6983 83.3472 88.5951 83.3333 88.4933C82.0147 83.4802 79.005 79.0764 74.8133 76.0267C74.4402 75.6999 73.9165 75.6073 73.4539 75.7862C72.9913 75.9652 72.6663 76.3861 72.6101 76.8789C72.554 77.3718 72.7761 77.855 73.1866 78.1333C75.3054 79.7493 77.1126 81.7372 78.52 84C73.3733 79.7333 63.76 77 52.6666 77C41.5733 77 31.8933 79.7467 26.7866 84.04C30.96 77.2533 39.7866 72.44 50.0933 71.7467C50.8297 71.6988 51.3878 71.0631 51.34 70.3267C51.2921 69.5903 50.6564 69.0321 49.92 69.08C36.04 70 24.5866 77.9867 22.0666 88.48C22.0527 88.5683 22.0527 88.6583 22.0666 88.7467L22 89C21.9839 89.1685 21.9839 89.3382 22 89.5067C24.7733 100.8 37.64 109 52.6666 109ZM52.6666 106.333C41.32 106.333 31.3333 101.373 26.8133 93.9867C31.9333 98.3333 41.56 101 52.6666 101C63.7733 101 73.4 98.3333 78.52 93.9867C74 101.373 64.0133 106.333 52.6666 106.333ZM79.2533 89C77.7333 92.2267 73.0133 94.9467 66.72 96.6C69.3147 91.8655 69.3147 86.1345 66.72 81.4C73.0133 83.0533 77.7333 85.7733 79.2533 89ZM57.92 84.9067C57.2371 84.0356 56.3482 83.3483 55.3333 82.9067C55.3725 81.8842 56.177 81.0563 57.1979 80.9877C58.2188 80.9192 59.1268 81.6323 59.3022 82.6403C59.4777 83.6484 58.864 84.6263 57.88 84.9067H57.92ZM56.6666 89C56.6666 91.2091 54.8758 93 52.6666 93C50.4575 93 48.6666 91.2091 48.6666 89C48.6666 86.7909 50.4575 85 52.6666 85C54.8758 85 56.6666 86.7909 56.6666 89ZM54 79.6667C53.2775 80.387 52.8094 81.3232 52.6666 82.3333C48.9847 82.3333 46 85.3181 46 89C46 92.6819 48.9847 95.6667 52.6666 95.6667C56.3485 95.6667 59.3333 92.6819 59.3333 89C59.3294 88.4318 59.2486 87.8666 59.0933 87.32C60.4212 86.782 61.4273 85.6622 61.8205 84.2845C62.2138 82.9067 61.9505 81.4246 61.1066 80.2667L62.9733 80.5733C67.0104 85.4658 67.0104 92.5342 62.9733 97.4267C56.1554 98.6354 49.1779 98.6354 42.36 97.4267C38.3229 92.5342 38.3229 85.4658 42.36 80.5733C45.7623 79.9696 49.2112 79.6662 52.6666 79.6667H54ZM38.6133 81.4C36.0186 86.1345 36.0186 91.8655 38.6133 96.6C32.32 94.9467 27.6 92.2133 26.08 89C27.6 85.7867 32.32 83.0533 38.6133 81.4Z" fill="url(#paint0_linear)"/>
<path d="M58.0002 74.92C59.5619 76.4798 62.0919 76.4798 63.6536 74.92L65.6136 73C66.6992 73.724 67.9754 74.1091 69.2802 74.1067C71.0592 74.0922 72.7585 73.3674 74.0002 72.0934L75.8269 70.2534L100.987 50.4934C101.591 50.0205 101.962 49.3104 102.005 48.5446C102.049 47.7788 101.76 47.0314 101.214 46.4934L84.4936 29.7867C83.9555 29.2401 83.2081 28.9516 82.4423 28.995C81.6765 29.0384 80.9664 29.4094 80.4936 30.0134L60.7469 55.1734L58.9069 57C57.6574 58.2527 56.9571 59.9507 56.9602 61.72C56.9578 63.0249 57.3429 64.3011 58.0669 65.3867L56.0802 67.3734C54.5205 68.9351 54.5205 71.465 56.0802 73.0267L58.0002 74.92ZM78.4536 37L81.5336 40.08C81.783 40.3345 82.1239 40.4785 82.4802 40.48C83.0219 40.4832 83.5117 40.1583 83.7194 39.658C83.9271 39.1577 83.8115 38.5815 83.4269 38.2L80.1202 34.84L82.6002 31.6667L99.3336 48.4L96.1602 50.8934L90.0002 44.7467C89.7499 44.4943 89.4091 44.3523 89.0536 44.3523C88.6981 44.3523 88.3573 44.4943 88.1069 44.7467C87.5899 45.2667 87.5899 46.1066 88.1069 46.6267L94.0002 52.5467L75.0402 67.48L63.5202 55.96L78.4536 37ZM60.8002 58.8934L61.7469 57.9467L73.0536 69.2534L72.1069 70.2C70.525 71.7103 68.0354 71.7103 66.4536 70.2L60.8002 64.5467C59.2405 62.985 59.2405 60.4551 60.8002 58.8934ZM58.0002 69.2534L59.8802 67.3734L63.6536 71.1467L61.7469 73C61.4965 73.2524 61.1557 73.3944 60.8002 73.3944C60.4447 73.3944 60.1039 73.2524 59.8535 73L58.0002 71.1467C57.7478 70.8963 57.6058 70.5555 57.6058 70.2C57.6058 69.8445 57.7478 69.5037 58.0002 69.2534Z" fill="url(#paint1_linear)"/>
</g>
<defs>
<linearGradient id="paint0_linear" x1="21.9879" y1="69.0771" x2="58.4882" y2="125.173" gradientUnits="userSpaceOnUse">
<stop stop-color="#A83592"/>
<stop offset="1" stop-color="#4F4A9D"/>
</linearGradient>
<linearGradient id="paint1_linear" x1="54.9104" y1="28.9907" x2="102.01" y2="76.0899" gradientUnits="userSpaceOnUse">
<stop stop-color="#A83592"/>
<stop offset="1" stop-color="#4F4A9D"/>
</linearGradient>
<clipPath id="clip0">
<rect width="80" height="80" fill="white" transform="translate(22 29)"/>
</clipPath>
</defs>
</svg>
