<svg width="27" height="27" viewBox="0 0 27 27" fill="none" xmlns="http://www.w3.org/2000/svg">
<circle cx="13.5" cy="13.5" r="13" stroke="#8A8A8A"/>
<path d="M12.0691 15.8836H14.4738V15.513C14.4738 14.6541 14.8082 14.2021 16.0106 13.506C17.2852 12.7557 17.9452 11.8065 17.9452 10.4505V10.4414C17.9452 8.37122 16.2275 6.94287 13.6511 6.94287C10.8758 6.94287 9.32989 8.50682 9.25757 10.6313V10.7217H11.7075L11.7165 10.6493C11.7707 9.71821 12.4488 9.04019 13.4884 9.04019C14.5099 9.04019 15.206 9.65492 15.206 10.5228V10.5318C15.206 11.3726 14.8534 11.8246 13.6873 12.5207C12.4397 13.2529 11.9696 14.0756 12.06 15.3593L12.0691 15.8836ZM13.3076 20.2139C14.1302 20.2139 14.7902 19.5901 14.7902 18.7945C14.7902 17.999 14.1302 17.3752 13.3076 17.3752C12.494 17.3752 11.834 17.999 11.834 18.7945C11.834 19.5901 12.494 20.2139 13.3076 20.2139Z" fill="#8A8A8A"/>
</svg>
