<svg width="102" height="109" viewBox="0 0 102 109" fill="none" xmlns="http://www.w3.org/2000/svg">
<circle cx="50" cy="50" r="50" fill="#FCF8F2"/>
<g opacity="0.65" clip-path="url(#clip0)">
<path d="M21.9998 68.5465C21.9848 68.6972 21.9848 68.8491 21.9998 68.9998C21.9779 69.1903 21.9779 69.3827 21.9998 69.5732C25.5998 83.9198 42.3998 94.3332 61.9998 94.3332C81.5998 94.3332 98.3998 83.9198 102 69.4532C102.015 69.3024 102.015 69.1506 102 68.9998C102 68.8068 101.977 68.6144 101.933 68.4265C98.3998 54.0798 81.5998 43.6665 61.9998 43.6665C42.3998 43.6665 25.5998 54.0798 21.9998 68.5465ZM68.8798 64.9998C68.1898 63.8433 67.223 62.8765 66.0664 62.1865C66.0526 62.0357 66.0526 61.884 66.0664 61.7332C66.0395 60.3732 66.8416 59.1333 68.0931 58.6003C69.3445 58.0674 70.7943 58.3483 71.7561 59.3101C72.718 60.272 72.9989 61.7217 72.4659 62.9732C71.933 64.2247 70.6931 65.0268 69.3331 64.9998C69.1823 65.0137 69.0306 65.0137 68.8798 64.9998ZM67.3331 68.9998C67.3331 71.9454 64.9453 74.3332 61.9998 74.3332C59.0542 74.3332 56.6664 71.9454 56.6664 68.9998C56.6664 66.0543 59.0542 63.6665 61.9998 63.6665C64.9453 63.6665 67.3331 66.0543 67.3331 68.9998ZM63.3331 61.1332C62.8932 61.051 62.4472 61.0063 61.9998 60.9998C57.5815 60.9998 53.9998 64.5816 53.9998 68.9998C53.9998 73.4181 57.5815 76.9998 61.9998 76.9998C66.418 76.9998 69.9998 73.4181 69.9998 68.9998C69.9933 68.5524 69.9486 68.1064 69.8664 67.6665C72.0792 67.4679 73.9967 66.0523 74.8383 63.9961C75.6798 61.94 75.305 59.5862 73.8664 57.8932L75.3731 58.1332C80.5827 64.4812 80.5827 73.6252 75.3731 79.9732C70.9504 80.6762 66.478 81.0195 61.9998 80.9998C57.5067 81.0054 53.0207 80.6442 48.5864 79.9198C43.3611 73.5775 43.3611 64.4222 48.5864 58.0798C53.0207 57.3555 57.5067 56.9943 61.9998 56.9998C63.1909 56.9998 64.3642 57.0265 65.5198 57.0798C64.2713 58.0784 63.482 59.5414 63.3331 61.1332ZM93.1998 73.8532C92.4886 70.6567 92.4886 67.343 93.1998 64.1465C95.1749 65.318 96.8037 66.9928 97.9198 68.9998C96.8037 71.0069 95.1749 72.6817 93.1998 73.8532ZM90.8131 75.1865C87.1275 77.0075 83.225 78.3516 79.1998 79.1865C82.9284 72.8976 82.9284 65.0754 79.1998 58.7865C83.225 59.6214 87.1275 60.9655 90.8131 62.7865C89.7286 66.8668 89.7286 71.1596 90.8131 75.2398V75.1865ZM41.9998 68.9998C42.0048 72.5907 42.9766 76.1141 44.8131 79.1998C40.3432 78.3135 36.0326 76.7582 32.0264 74.5865C32.4521 72.7548 32.6669 70.8804 32.6664 68.9998C32.6669 67.1193 32.4521 65.2449 32.0264 63.4132C36.0326 61.2415 40.3432 59.6862 44.8131 58.7998C42.9766 61.8856 42.0048 65.4089 41.9998 68.9998ZM29.6264 64.9998C29.8725 66.319 29.9974 67.6579 29.9998 68.9998C29.9974 70.3418 29.8725 71.6807 29.6264 72.9998C28.1547 71.9543 26.9416 70.5861 26.0798 68.9998C26.9416 67.4136 28.1547 66.0454 29.6264 64.9998ZM61.9998 91.6665C45.9998 91.6665 31.9731 84.3998 26.5198 73.8265C32.8264 79.6665 46.5064 83.6665 61.9998 83.6665C77.4931 83.6665 91.1464 79.6665 97.4664 73.8398C91.9864 84.4132 77.9998 91.6665 61.9998 91.6665ZM97.5731 64.2665C91.3331 58.3332 77.5731 54.3332 61.9998 54.3332C46.4264 54.3332 32.8398 58.3332 26.5198 64.1732C31.9998 53.5865 45.9998 46.3332 61.9998 46.3332C77.9998 46.3332 92.1598 53.6798 97.5731 64.2665Z" fill="url(#paint0_linear)"/>
<path d="M100.666 40.3332C94.2397 40.3332 93.9997 33.7598 93.9997 32.9998C93.9997 32.2635 93.4027 31.6665 92.6663 31.6665C91.93 31.6665 91.333 32.2635 91.333 32.9998C91.333 33.7598 91.093 40.3332 84.6663 40.3332C83.93 40.3332 83.333 40.9301 83.333 41.6665C83.333 42.4029 83.93 42.9998 84.6663 42.9998C91.1063 42.9998 91.333 49.5865 91.333 50.3332C91.333 51.0696 91.93 51.6665 92.6663 51.6665C93.4027 51.6665 93.9997 51.0696 93.9997 50.3332C93.9997 49.5732 94.2397 42.9998 100.666 42.9998C101.403 42.9998 102 42.4029 102 41.6665C102 40.9301 101.403 40.3332 100.666 40.3332ZM92.6663 44.9998C91.9819 43.645 90.9516 42.495 89.6797 41.6665C90.9516 40.838 91.9819 39.688 92.6663 38.3332C93.3508 39.688 94.3811 40.838 95.653 41.6665C94.3811 42.495 93.3508 43.645 92.6663 44.9998Z" fill="url(#paint1_linear)"/>
<path d="M23.3332 97.6668C29.7732 97.6668 29.9999 104.253 29.9999 105C29.9999 105.737 30.5968 106.333 31.3332 106.333C32.0696 106.333 32.6665 105.737 32.6665 105C32.6665 104.24 32.9065 97.6668 39.3332 97.6668C40.0696 97.6668 40.6665 97.0699 40.6665 96.3335C40.6665 95.5971 40.0696 95.0002 39.3332 95.0002C32.9065 95.0002 32.6665 88.4268 32.6665 87.6668C32.6665 86.9304 32.0696 86.3335 31.3332 86.3335C30.5968 86.3335 29.9999 86.9304 29.9999 87.6668C29.9999 88.4268 29.7599 95.0002 23.3332 95.0002C22.5968 95.0002 21.9999 95.5971 21.9999 96.3335C21.9999 97.0699 22.5968 97.6668 23.3332 97.6668ZM31.3332 93.0002C32.0177 94.355 33.048 95.505 34.3199 96.3335C33.048 97.162 32.0177 98.312 31.3332 99.6668C30.6488 98.312 29.6184 97.162 28.3465 96.3335C29.6184 95.505 30.6488 94.355 31.3332 93.0002Z" fill="url(#paint2_linear)"/>
<path d="M47.333 96.9998C47.333 96.2635 46.7361 95.6665 45.9997 95.6665C45.2633 95.6665 44.6664 96.2635 44.6664 96.9998V99.6665C44.6664 100.403 45.2633 101 45.9997 101C46.7361 101 47.333 100.403 47.333 99.6665V96.9998Z" fill="url(#paint3_linear)"/>
<path d="M45.9997 109C46.7361 109 47.333 108.403 47.333 107.666V105C47.333 104.263 46.7361 103.667 45.9997 103.667C45.2633 103.667 44.6664 104.263 44.6664 105V107.666C44.6664 108.403 45.2633 109 45.9997 109Z" fill="url(#paint4_linear)"/>
<path d="M48.6662 103.667H51.3329C52.0693 103.667 52.6662 103.07 52.6662 102.333C52.6662 101.597 52.0693 101 51.3329 101H48.6662C47.9298 101 47.3329 101.597 47.3329 102.333C47.3329 103.07 47.9298 103.667 48.6662 103.667Z" fill="url(#paint5_linear)"/>
<path d="M43.333 101H40.6663C39.93 101 39.333 101.597 39.333 102.333C39.333 103.07 39.93 103.667 40.6663 103.667H43.333C44.0694 103.667 44.6663 103.07 44.6663 102.333C44.6663 101.597 44.0694 101 43.333 101Z" fill="url(#paint6_linear)"/>
<path d="M78 29C77.2636 29 76.6666 29.597 76.6666 30.3333V33C76.6666 33.7364 77.2636 34.3333 78 34.3333C78.7363 34.3333 79.3333 33.7364 79.3333 33V30.3333C79.3333 29.597 78.7363 29 78 29Z" fill="url(#paint7_linear)"/>
<path d="M76.6666 41C76.6666 41.7364 77.2636 42.3333 78 42.3333C78.7363 42.3333 79.3333 41.7364 79.3333 41V38.3333C79.3333 37.597 78.7363 37 78 37C77.2636 37 76.6666 37.597 76.6666 38.3333V41Z" fill="url(#paint8_linear)"/>
<path d="M80.6663 37.0002H83.333C84.0694 37.0002 84.6663 36.4032 84.6663 35.6668C84.6663 34.9305 84.0694 34.3335 83.333 34.3335H80.6663C79.93 34.3335 79.333 34.9305 79.333 35.6668C79.333 36.4032 79.93 37.0002 80.6663 37.0002Z" fill="url(#paint9_linear)"/>
<path d="M75.3333 34.3335H72.6666C71.9302 34.3335 71.3333 34.9305 71.3333 35.6668C71.3333 36.4032 71.9302 37.0002 72.6666 37.0002H75.3333C76.0696 37.0002 76.6666 36.4032 76.6666 35.6668C76.6666 34.9305 76.0696 34.3335 75.3333 34.3335Z" fill="url(#paint10_linear)"/>
</g>
<defs>
<linearGradient id="paint0_linear" x1="21.9834" y1="43.6665" x2="67.7816" y2="116.004" gradientUnits="userSpaceOnUse">
<stop stop-color="#A83592"/>
<stop offset="1" stop-color="#4F4A9D"/>
</linearGradient>
<linearGradient id="paint1_linear" x1="83.333" y1="31.6665" x2="103.286" y2="50.2888" gradientUnits="userSpaceOnUse">
<stop stop-color="#A83592"/>
<stop offset="1" stop-color="#4F4A9D"/>
</linearGradient>
<linearGradient id="paint2_linear" x1="21.9999" y1="86.3335" x2="41.9524" y2="104.956" gradientUnits="userSpaceOnUse">
<stop stop-color="#A83592"/>
<stop offset="1" stop-color="#4F4A9D"/>
</linearGradient>
<linearGradient id="paint3_linear" x1="44.6664" y1="95.6665" x2="48.9331" y2="97.7998" gradientUnits="userSpaceOnUse">
<stop stop-color="#A83592"/>
<stop offset="1" stop-color="#4F4A9D"/>
</linearGradient>
<linearGradient id="paint4_linear" x1="44.6664" y1="103.667" x2="48.933" y2="105.8" gradientUnits="userSpaceOnUse">
<stop stop-color="#A83592"/>
<stop offset="1" stop-color="#4F4A9D"/>
</linearGradient>
<linearGradient id="paint5_linear" x1="47.3329" y1="101" x2="49.4662" y2="105.267" gradientUnits="userSpaceOnUse">
<stop stop-color="#A83592"/>
<stop offset="1" stop-color="#4F4A9D"/>
</linearGradient>
<linearGradient id="paint6_linear" x1="39.333" y1="101" x2="41.4663" y2="105.267" gradientUnits="userSpaceOnUse">
<stop stop-color="#A83592"/>
<stop offset="1" stop-color="#4F4A9D"/>
</linearGradient>
<linearGradient id="paint7_linear" x1="76.6666" y1="29" x2="80.9333" y2="31.1333" gradientUnits="userSpaceOnUse">
<stop stop-color="#A83592"/>
<stop offset="1" stop-color="#4F4A9D"/>
</linearGradient>
<linearGradient id="paint8_linear" x1="76.6666" y1="37" x2="80.9333" y2="39.1333" gradientUnits="userSpaceOnUse">
<stop stop-color="#A83592"/>
<stop offset="1" stop-color="#4F4A9D"/>
</linearGradient>
<linearGradient id="paint9_linear" x1="79.333" y1="34.3335" x2="81.4663" y2="38.6002" gradientUnits="userSpaceOnUse">
<stop stop-color="#A83592"/>
<stop offset="1" stop-color="#4F4A9D"/>
</linearGradient>
<linearGradient id="paint10_linear" x1="71.3333" y1="34.3335" x2="73.4666" y2="38.6002" gradientUnits="userSpaceOnUse">
<stop stop-color="#A83592"/>
<stop offset="1" stop-color="#4F4A9D"/>
</linearGradient>
<clipPath id="clip0">
<rect width="80" height="80" fill="white" transform="translate(22 29)"/>
</clipPath>
</defs>
</svg>
