<svg width="102" height="109" viewBox="0 0 102 109" fill="none" xmlns="http://www.w3.org/2000/svg">
<circle cx="50" cy="50" r="50" fill="#FCF8F2"/>
<g opacity="0.65">
<path d="M27.3333 109H78C80.9455 109 83.3333 106.612 83.3333 103.667V83.6667C83.3333 82.9303 82.7364 82.3333 82 82.3333C81.2636 82.3333 80.6667 82.9303 80.6667 83.6667V103.667C80.6667 105.139 79.4728 106.333 78 106.333H27.3333C25.8606 106.333 24.6667 105.139 24.6667 103.667V43.6667C24.6667 42.1939 25.8606 41 27.3333 41H40.6667V43.6667H28.6667C27.9303 43.6667 27.3333 44.2636 27.3333 45V102.333C27.3333 103.07 27.9303 103.667 28.6667 103.667H76.6667C77.403 103.667 78 103.07 78 102.333V89C78 88.2636 77.403 87.6667 76.6667 87.6667C75.9303 87.6667 75.3333 88.2636 75.3333 89V101H30V46.3333H40.9067C41.4703 47.9276 42.9757 48.9952 44.6667 49H60.6667C62.3577 48.9952 63.863 47.9276 64.4267 46.3333H75.3333V61C75.3333 61.7364 75.9303 62.3333 76.6667 62.3333C77.403 62.3333 78 61.7364 78 61V45C78 44.2636 77.403 43.6667 76.6667 43.6667H64.6667V41H78C79.4728 41 80.6667 42.1939 80.6667 43.6667V54.3333C80.6667 55.0697 81.2636 55.6667 82 55.6667C82.7364 55.6667 83.3333 55.0697 83.3333 54.3333V43.6667C83.3333 40.7211 80.9455 38.3333 78 38.3333H64.6667C64.56 36.9367 63.7306 35.6976 62.48 35.0667L59.3333 33.5067V33C59.3333 30.7909 57.5425 29 55.3333 29H50C47.7909 29 46 30.7909 46 33V33.5067L42.88 35.0667C41.6191 35.6906 40.7787 36.931 40.6667 38.3333H27.3333C24.3878 38.3333 22 40.7211 22 43.6667V103.667C22 106.612 24.3878 109 27.3333 109ZM43.3333 38.6533C43.3298 38.1465 43.614 37.6814 44.0667 37.4533L47.9333 35.52C48.3817 35.2941 48.6651 34.8354 48.6667 34.3333V33C48.6667 32.2636 49.2636 31.6667 50 31.6667H55.3333C56.0697 31.6667 56.6667 32.2636 56.6667 33V34.3333C56.6682 34.8354 56.9516 35.2941 57.4 35.52L61.2667 37.4533C61.7193 37.6814 62.0035 38.1465 62 38.6533V45C62 45.7364 61.403 46.3333 60.6667 46.3333H44.6667C43.9303 46.3333 43.3333 45.7364 43.3333 45V38.6533Z" fill="url(#paint0_linear)"/>
<path d="M72.5467 64.4932C72.7067 63.9446 72.7067 63.3617 72.5467 62.8132C70.6534 56.3465 62.2934 51.6665 52.6667 51.6665C43.0401 51.6665 34.6801 56.3465 32.7867 62.8132C32.6267 63.3617 32.6267 63.9446 32.7867 64.4932C34.6934 70.9598 43.0534 75.6665 52.6667 75.6665C62.2801 75.6665 70.6401 70.9598 72.5467 64.4932ZM62.0001 63.6665C62.0001 68.8212 57.8214 72.9998 52.6667 72.9998C47.5121 72.9998 43.3334 68.8212 43.3334 63.6665C43.3334 58.5118 47.5121 54.3332 52.6667 54.3332C55.1421 54.3332 57.5161 55.3165 59.2664 57.0668C61.0168 58.8172 62.0001 61.1912 62.0001 63.6665ZM35.3334 63.7332C35.3203 63.6761 35.3203 63.6169 35.3334 63.5598C36.2801 60.3465 39.3334 57.6665 43.3334 56.0265C39.679 60.4593 39.679 66.8604 43.3334 71.2932C39.3334 69.6532 36.2934 66.9598 35.3334 63.7332ZM62.0001 71.2932C65.6545 66.8604 65.6545 60.4593 62.0001 56.0265C66.0001 57.6665 69.0401 60.3332 70.0001 63.5598C70.0132 63.6169 70.0132 63.6761 70.0001 63.7332C69.0401 66.9598 66.0001 69.6532 62.0001 71.2932Z" fill="url(#paint1_linear)"/>
<path d="M52.6667 69.0002C55.6122 69.0002 58 66.6124 58 63.6668C58 60.7213 55.6122 58.3335 52.6667 58.3335C49.7212 58.3335 47.3334 60.7213 47.3334 63.6668C47.3334 66.6124 49.7212 69.0002 52.6667 69.0002ZM52.6667 61.0002C54.1395 61.0002 55.3334 62.1941 55.3334 63.6668C55.3334 65.1396 54.1395 66.3335 52.6667 66.3335C51.1939 66.3335 50 65.1396 50 63.6668C50 62.1941 51.1939 61.0002 52.6667 61.0002Z" fill="url(#paint2_linear)"/>
<path d="M34.0001 81.0002H38.0001C38.7365 81.0002 39.3334 80.4032 39.3334 79.6668C39.3334 78.9304 38.7365 78.3335 38.0001 78.3335H34.0001C33.2637 78.3335 32.6667 78.9304 32.6667 79.6668C32.6667 80.4032 33.2637 81.0002 34.0001 81.0002Z" fill="url(#paint3_linear)"/>
<path d="M62 79.6668C62 78.9304 61.403 78.3335 60.6667 78.3335H43.3333C42.597 78.3335 42 78.9304 42 79.6668C42 80.4032 42.597 81.0002 43.3333 81.0002H60.6667C61.403 81.0002 62 80.4032 62 79.6668Z" fill="url(#paint4_linear)"/>
<path d="M58.0001 84.9998C58.0001 84.2635 57.4031 83.6665 56.6668 83.6665H34.0001C33.2637 83.6665 32.6667 84.2635 32.6667 84.9998C32.6667 85.7362 33.2637 86.3332 34.0001 86.3332H56.6668C57.4031 86.3332 58.0001 85.7362 58.0001 84.9998Z" fill="url(#paint5_linear)"/>
<path d="M99.88 61.72C102.406 59.1041 102.37 54.9461 99.7988 52.3745C97.2273 49.8029 93.0692 49.7668 90.4534 52.2933L80.08 62.6666C79.4109 63.3419 79.1518 64.3223 79.4 65.24L63.12 81.52C63.12 81.52 63.12 81.6133 63.0267 81.6533L62.92 81.7733L57.0267 91.52C56.6918 92.1259 56.6058 92.8384 56.7867 93.5066L55.5734 94.72C55.3209 94.9703 55.179 95.3111 55.179 95.6666C55.179 96.0221 55.3209 96.3629 55.5734 96.6133C55.825 96.8629 56.1656 97.002 56.52 97C56.8698 96.9985 57.205 96.8596 57.4534 96.6133L58.6534 95.4133C58.8757 95.4704 59.1039 95.5018 59.3334 95.5066C59.8029 95.5018 60.2629 95.373 60.6667 95.1333L70.3734 89.2666C70.3734 89.2666 70.4534 89.1866 70.4934 89.16L70.6267 89.0666L86.9467 72.7733C87.1671 72.8412 87.3961 72.8771 87.6267 72.88C88.3374 72.8805 89.019 72.5973 89.52 72.0933L98 63.6666L98.9467 64.6133C99.193 64.8616 99.3319 65.1968 99.3334 65.5466C99.3354 65.901 99.1963 66.2417 98.9467 66.4933L91.4 74.04C90.8831 74.56 90.8831 75.3999 91.4 75.92C91.6516 76.1695 91.9923 76.3087 92.3467 76.3066C92.6965 76.3052 93.0317 76.1663 93.28 75.92L100.827 68.3733C102.386 66.8116 102.386 64.2817 100.827 62.72L99.88 61.72ZM59.3334 92.8533L64.3067 84.6266L67.56 87.88L59.3334 92.8533ZM69.7067 86.1866L66 82.4666L81.0267 67.3866L84.8 71.16L69.7067 86.1866ZM87.6133 70.1866L82 64.56L92.3733 54.1866C93.935 52.6269 96.465 52.6269 98.0267 54.1866C99.5864 55.7483 99.5864 58.2783 98.0267 59.84L97.08 60.7866L87.6133 70.1866Z" fill="url(#paint6_linear)"/>
<path d="M51.3332 94.5332C50.7219 94.1242 49.9641 93.9979 49.2532 94.1865C48.5977 94.3621 48.0374 94.7883 47.6932 95.3732L46.3599 93.3199C45.8103 92.463 44.8093 92.0081 43.8023 92.1577C42.7954 92.3073 41.9699 93.0336 41.6932 94.0132L41.3199 95.4132L40.1065 90.8932C39.828 89.9045 38.9908 89.1742 37.9734 89.0326C36.956 88.891 35.9512 89.3648 35.4132 90.2399C35.3835 90.2683 35.3567 90.2996 35.3332 90.3332L32.7865 95.9199C32.5412 96.3609 32.5659 96.9027 32.8504 97.3196C33.1349 97.7364 33.6304 97.9569 34.1305 97.8893C34.6306 97.8216 35.0497 97.4774 35.2132 96.9999L37.5865 91.8265L38.8132 96.4132C39.1009 97.5467 40.1237 98.3386 41.2932 98.3332C42.4511 98.3433 43.4701 97.5708 43.7732 96.4532L44.1999 94.9199L45.5332 96.9332C46.0147 97.7085 46.8727 98.1688 47.7849 98.1413C48.6972 98.1138 49.5258 97.6028 49.9599 96.7999L50.8532 97.3866C51.2471 97.6546 51.7102 97.8027 52.1865 97.8132C52.6629 97.837 53.1158 97.6049 53.3746 97.2043C53.6334 96.8037 53.6588 96.2954 53.4412 95.871C53.2237 95.4465 52.7962 95.1704 52.3199 95.1465L51.3332 94.5332Z" fill="url(#paint7_linear)"/>
<path d="M50.0001 43.6667C50.7365 43.6667 51.3334 43.0697 51.3334 42.3333V38.3333C51.3334 37.597 50.7365 37 50.0001 37C49.2637 37 48.6667 37.597 48.6667 38.3333V42.3333C48.6667 43.0697 49.2637 43.6667 50.0001 43.6667Z" fill="url(#paint8_linear)"/>
<path d="M55.3335 43.6667C56.0698 43.6667 56.6668 43.0697 56.6668 42.3333V38.3333C56.6668 37.597 56.0698 37 55.3335 37C54.5971 37 54.0001 37.597 54.0001 38.3333V42.3333C54.0001 43.0697 54.5971 43.6667 55.3335 43.6667Z" fill="url(#paint9_linear)"/>
</g>
<defs>
<linearGradient id="paint0_linear" x1="22" y1="29" x2="99.2568" y2="88.2302" gradientUnits="userSpaceOnUse">
<stop stop-color="#A83592"/>
<stop offset="1" stop-color="#4F4A9D"/>
</linearGradient>
<linearGradient id="paint1_linear" x1="32.6667" y1="51.6665" x2="53.8432" y2="86.9606" gradientUnits="userSpaceOnUse">
<stop stop-color="#A83592"/>
<stop offset="1" stop-color="#4F4A9D"/>
</linearGradient>
<linearGradient id="paint2_linear" x1="47.3334" y1="58.3335" x2="58" y2="69.0002" gradientUnits="userSpaceOnUse">
<stop stop-color="#A83592"/>
<stop offset="1" stop-color="#4F4A9D"/>
</linearGradient>
<linearGradient id="paint3_linear" x1="32.6667" y1="78.3335" x2="34.5058" y2="82.9312" gradientUnits="userSpaceOnUse">
<stop stop-color="#A83592"/>
<stop offset="1" stop-color="#4F4A9D"/>
</linearGradient>
<linearGradient id="paint4_linear" x1="42" y1="78.3335" x2="42.6987" y2="83.5737" gradientUnits="userSpaceOnUse">
<stop stop-color="#A83592"/>
<stop offset="1" stop-color="#4F4A9D"/>
</linearGradient>
<linearGradient id="paint5_linear" x1="32.6667" y1="83.6665" x2="33.222" y2="88.9414" gradientUnits="userSpaceOnUse">
<stop stop-color="#A83592"/>
<stop offset="1" stop-color="#4F4A9D"/>
</linearGradient>
<linearGradient id="paint6_linear" x1="55.179" y1="50.4219" x2="101.756" y2="97.2388" gradientUnits="userSpaceOnUse">
<stop stop-color="#A83592"/>
<stop offset="1" stop-color="#4F4A9D"/>
</linearGradient>
<linearGradient id="paint7_linear" x1="32.6184" y1="89.0078" x2="39.5432" y2="104.579" gradientUnits="userSpaceOnUse">
<stop stop-color="#A83592"/>
<stop offset="1" stop-color="#4F4A9D"/>
</linearGradient>
<linearGradient id="paint8_linear" x1="48.6667" y1="37" x2="53.2645" y2="38.8391" gradientUnits="userSpaceOnUse">
<stop stop-color="#A83592"/>
<stop offset="1" stop-color="#4F4A9D"/>
</linearGradient>
<linearGradient id="paint9_linear" x1="54.0001" y1="37" x2="58.5978" y2="38.8391" gradientUnits="userSpaceOnUse">
<stop stop-color="#A83592"/>
<stop offset="1" stop-color="#4F4A9D"/>
</linearGradient>
</defs>
</svg>
