<svg width="102" height="109" viewBox="0 0 102 109" fill="none" xmlns="http://www.w3.org/2000/svg">
<circle cx="50" cy="50" r="50" fill="#FCF8F2"/>
<g opacity="0.65" clip-path="url(#clip0)">
<path d="M51.3332 75.3159C51.512 75.3156 51.6888 75.2774 51.8532 75.2036C52.5303 74.9009 52.8465 74.0782 52.5599 73.365L48.5599 63.5405C48.3867 63.0595 47.9775 62.7167 47.4933 62.6472C47.0091 62.5777 46.5275 62.7925 46.2383 63.2072C45.9491 63.6218 45.8986 64.1698 46.1066 64.6352L50.1066 74.4598C50.3152 74.9784 50.7982 75.3155 51.3332 75.3159Z" fill="url(#paint0_linear)"/>
<path d="M42.4681 77.7858C43.0277 78.2897 43.8694 78.2206 44.3481 77.6315C44.8267 77.0424 44.761 76.1564 44.2014 75.6525L34.8681 67.2315C34.3084 66.7276 33.4667 66.7968 32.9881 67.3859C32.5094 67.975 32.5751 68.861 33.1347 69.3648L42.4681 77.7858Z" fill="url(#paint1_linear)"/>
<path d="M77.1883 62.7963C76.5108 62.4946 75.7292 62.8275 75.4416 63.5402L71.4416 73.3647C71.155 74.0779 71.4713 74.9006 72.1483 75.2033C72.3127 75.2771 72.4896 75.3153 72.6683 75.3156C73.2033 75.3152 73.6863 74.9781 73.895 74.4595L77.895 64.6349C78.1816 63.9218 77.8654 63.0991 77.1883 62.7963Z" fill="url(#paint2_linear)"/>
<path d="M79.6521 77.6315C79.882 77.9144 80.2092 78.0896 80.5618 78.1185C80.9143 78.1475 81.2634 78.0278 81.5321 77.7858L90.8655 69.3648C91.2275 69.0389 91.3969 68.5344 91.3097 68.0414C91.2226 67.5484 90.8922 67.1418 90.443 66.9747C89.9939 66.8077 89.4942 66.9055 89.1321 67.2315L79.7988 75.6525C79.53 75.8945 79.3636 76.2389 79.3361 76.61C79.3086 76.9811 79.4223 77.3486 79.6521 77.6315Z" fill="url(#paint3_linear)"/>
<path d="M98.4401 84.9439C96.4167 84.791 94.448 84.1832 92.6667 83.1614C92.1601 82.8526 91.6267 82.4596 91.0534 82.0526C89.3334 80.7895 87.3867 79.3719 84.9867 79.5403C82.3424 79.8833 80.0511 81.6326 78.9201 84.1719C76.8902 83.3093 74.7994 82.6148 72.6667 82.0947C69.6008 81.3768 66.4738 80.9865 63.3334 80.9298V72.5088H64.6667C66.8759 72.5088 68.6667 70.6237 68.6667 68.2982V58.4737H71.3334C73.5425 58.4737 75.3334 56.5886 75.3334 54.2632V44.4386H75.9201C77.1952 44.4699 78.3129 43.5464 78.5867 42.2351L80.6534 32.4105C80.8128 31.5737 80.6018 30.706 80.0801 30.0526C79.5744 29.3878 78.8092 29.0005 78.0001 29H46.0001C45.1909 29.0005 44.4258 29.3878 43.9201 30.0526C43.4172 30.7155 43.226 31.5822 43.4001 32.4105L45.4667 42.2351C45.7406 43.5464 46.8583 44.4699 48.1334 44.4386H48.6667V54.2632C48.6667 56.5886 50.4576 58.4737 52.6667 58.4737H55.3334V68.2982C55.3334 70.6237 57.1243 72.5088 59.3334 72.5088H60.6667V80.9298C57.5235 81.002 54.3958 81.4159 51.3334 82.1649C49.2243 82.6918 47.1562 83.3862 45.1467 84.2421C44.0204 81.6485 41.6905 79.861 39.0001 79.5263C36.6001 79.3579 34.6534 80.7754 32.9334 82.0386C32.3601 82.4456 31.8267 82.8386 31.3201 83.1474C29.5429 84.1673 27.5789 84.775 25.5601 84.9298C23.5243 85.1669 21.9876 86.9844 22.0001 89.1404V109C22.0001 111.325 23.7909 113.211 26.0001 113.211H98.0001C100.209 113.211 102 111.325 102 109V89.1263C101.999 86.9811 100.466 85.1798 98.4401 84.9439ZM48.0801 41.6316L46.0001 31.807H78.0001L75.9201 41.6316H48.0801ZM51.3334 54.2632V44.4386H72.6667V54.2632C72.6667 55.0383 72.0698 55.6667 71.3334 55.6667H52.6667C51.9304 55.6667 51.3334 55.0383 51.3334 54.2632ZM58.0001 68.2982V58.4737H66.0001V68.2982C66.0001 69.0734 65.4031 69.7018 64.6667 69.7018H59.3334C58.597 69.7018 58.0001 69.0734 58.0001 68.2982ZM68.7867 100.228C67.5499 99.5005 66.2563 98.8854 64.9201 98.3895C63.0235 97.7319 60.9766 97.7319 59.0801 98.3895C57.7438 98.8854 56.4502 99.5005 55.2134 100.228C54.0934 98.9649 53.0534 97.6877 52.0801 96.4246C49.8366 93.4142 47.8931 90.1691 46.2801 86.7403C47.7445 86.1084 49.2453 85.574 50.7734 85.1404C52.7872 89.7258 57.2028 92.6074 62.0001 92.4667C66.7974 92.6074 71.213 89.7258 73.2267 85.1404C74.7572 85.5644 76.2621 86.0847 77.7334 86.6982C76.1126 90.1211 74.1648 93.3612 71.9201 96.3684C70.9467 97.6877 69.9067 98.9649 68.7867 100.228ZM66.8534 102.333L65.7201 103.512C63.6495 105.634 60.3506 105.634 58.2801 103.512L57.1467 102.333C58.0432 101.833 58.9748 101.406 59.9334 101.056C61.2739 100.579 62.7262 100.579 64.0667 101.056C65.0244 101.409 65.9558 101.836 66.8534 102.333ZM60.6667 85.4491C60.6667 86.2243 61.2637 86.8526 62.0001 86.8526C62.7365 86.8526 63.3334 86.2243 63.3334 85.4491V83.7368C65.76 83.8106 68.1769 84.0922 70.5601 84.5789C68.8175 87.807 65.526 89.7607 62.0001 89.6597C58.4513 89.754 55.1451 87.7707 53.4134 84.5088C55.8068 84.0411 58.2329 83.7829 60.6667 83.7368V85.4491ZM99.3334 109C99.3334 109.775 98.7365 110.404 98.0001 110.404H26.0001C25.2637 110.404 24.6667 109.775 24.6667 109V89.1263C24.6602 88.4219 25.1507 87.8214 25.8134 87.7228C28.2154 87.5395 30.5522 86.8169 32.6667 85.6035C33.2801 85.2246 33.8934 84.7754 34.4801 84.3544C35.6352 83.278 37.0614 82.5761 38.5867 82.3333H38.8001C40.5779 82.6094 42.0922 83.8368 42.8001 85.5754C42.9334 85.8842 43.0667 86.1649 43.2134 86.4596C43.2057 86.5108 43.2057 86.5629 43.2134 86.614C43.241 86.6753 43.277 86.732 43.3201 86.7825C45.1324 90.8263 47.3685 94.6441 49.9867 98.1649C51.9761 100.76 54.1228 103.216 56.4134 105.519C59.5176 108.692 64.4559 108.692 67.5601 105.519C69.8548 103.221 72.0059 100.769 74.0001 98.1789C76.8791 94.287 79.3052 90.0463 81.2267 85.5474C81.9304 83.8053 83.4469 82.5761 85.2267 82.3053C86.6934 82.1789 88.0801 83.2175 89.5734 84.3123C90.1601 84.7333 90.7734 85.1825 91.3867 85.5614C93.4921 86.7758 95.8195 87.5031 98.2134 87.6947C98.8761 87.7933 99.3667 88.3938 99.3601 89.0982L99.3334 109Z" fill="url(#paint4_linear)"/>
</g>
<defs>
<linearGradient id="paint0_linear" x1="45.9797" y1="62.6343" x2="56.4432" y2="68.1507" gradientUnits="userSpaceOnUse">
<stop stop-color="#A83592"/>
<stop offset="1" stop-color="#4F4A9D"/>
</linearGradient>
<linearGradient id="paint1_linear" x1="32.668" y1="66.8945" x2="43.8714" y2="78.8682" gradientUnits="userSpaceOnUse">
<stop stop-color="#A83592"/>
<stop offset="1" stop-color="#4F4A9D"/>
</linearGradient>
<linearGradient id="paint2_linear" x1="71.3359" y1="62.6851" x2="81.7624" y2="68.1867" gradientUnits="userSpaceOnUse">
<stop stop-color="#A83592"/>
<stop offset="1" stop-color="#4F4A9D"/>
</linearGradient>
<linearGradient id="paint3_linear" x1="79.332" y1="66.8945" x2="90.5355" y2="78.8683" gradientUnits="userSpaceOnUse">
<stop stop-color="#A83592"/>
<stop offset="1" stop-color="#4F4A9D"/>
</linearGradient>
<linearGradient id="paint4_linear" x1="22" y1="29" x2="106.1" y2="108.895" gradientUnits="userSpaceOnUse">
<stop stop-color="#A83592"/>
<stop offset="1" stop-color="#4F4A9D"/>
</linearGradient>
<clipPath id="clip0">
<rect width="80" height="80" fill="white" transform="translate(22 29)"/>
</clipPath>
</defs>
</svg>
