<svg width="1059" height="465" viewBox="0 0 1059 465" fill="none" xmlns="http://www.w3.org/2000/svg">
<g opacity="0.05">
<path d="M353.884 555.755C353.836 533.333 358.184 511.121 366.676 490.396C375.168 469.67 387.639 450.838 403.371 434.979C419.104 419.121 437.79 406.548 458.357 397.982C478.923 389.417 500.966 385.027 523.22 385.065C545.475 385.027 567.518 389.417 588.084 397.982C608.651 406.548 627.337 419.121 643.069 434.979C658.802 450.838 671.273 469.67 679.765 490.396C688.257 511.121 692.604 533.333 692.557 555.755C692.557 650.264 616.991 725.031 523.22 725.031C429.465 725.031 353.884 648.849 353.884 555.755ZM747.156 555.755C747.156 431.619 646.351 330.054 523.146 330.054C399.94 330.054 299.136 431.619 299.136 555.755C299.136 679.891 399.94 781.456 523.146 781.456C646.351 780.042 747.156 679.891 747.156 555.755Z" fill="#4F4A9D"/>
<path d="M732.218 360.147C732.218 368.129 735.365 375.783 740.966 381.427C746.568 387.07 754.165 390.241 762.086 390.241C770.008 390.241 777.605 387.07 783.206 381.427C788.807 375.783 791.954 368.129 791.954 360.147C791.954 352.166 788.807 344.512 783.206 338.868C777.605 333.224 770.008 330.054 762.086 330.054C754.165 330.054 746.568 333.224 740.966 338.868C735.365 344.512 732.218 352.166 732.218 360.147Z" fill="url(#paint0_linear)"/>
<path d="M329.005 299.961C329.005 307.942 332.152 315.597 337.754 321.24C343.355 326.884 350.952 330.055 358.873 330.055C366.795 330.055 374.392 326.884 379.993 321.24C385.595 315.597 388.741 307.942 388.741 299.961C388.741 291.98 385.595 284.325 379.993 278.682C374.392 273.038 366.795 269.868 358.873 269.868C350.952 269.868 343.355 273.038 337.754 278.682C332.152 284.325 329.005 291.98 329.005 299.961Z" fill="url(#paint1_linear)"/>
<path d="M582.882 254.832C582.882 262.814 586.029 270.468 591.63 276.112C597.232 281.755 604.829 284.926 612.75 284.926C620.672 284.926 628.269 281.755 633.87 276.112C639.472 270.468 642.618 262.814 642.618 254.832C642.618 246.851 639.472 239.197 633.87 233.553C628.269 227.909 620.672 224.739 612.75 224.739C604.829 224.739 597.232 227.909 591.63 233.553C586.029 239.197 582.882 246.851 582.882 254.832Z" fill="url(#paint2_linear)"/>
<path d="M672.491 299.962C672.491 307.943 675.638 315.597 681.239 321.241C686.841 326.885 694.438 330.055 702.359 330.055C710.281 330.055 717.878 326.885 723.479 321.241C729.08 315.597 732.227 307.943 732.227 299.962C732.227 291.98 729.08 284.326 723.479 278.682C717.878 273.039 710.281 269.868 702.359 269.868C694.438 269.868 686.841 273.039 681.239 278.682C675.638 284.326 672.491 291.98 672.491 299.962Z" fill="url(#paint3_linear)"/>
<path d="M403.672 254.832C403.672 262.814 406.819 270.468 412.42 276.112C418.022 281.755 425.619 284.926 433.54 284.926C441.462 284.926 449.059 281.755 454.66 276.112C460.261 270.468 463.408 262.814 463.408 254.832C463.408 246.851 460.261 239.197 454.66 233.553C449.059 227.909 441.462 224.739 433.54 224.739C425.619 224.739 418.022 227.909 412.42 233.553C406.819 239.197 403.672 246.851 403.672 254.832Z" fill="url(#paint4_linear)"/>
<path d="M493.284 239.775C493.284 247.756 496.431 255.411 502.032 261.054C507.634 266.698 515.231 269.869 523.152 269.869C531.074 269.869 538.671 266.698 544.272 261.054C549.873 255.411 553.02 247.756 553.02 239.775C553.02 231.794 549.873 224.139 544.272 218.496C538.671 212.852 531.074 209.682 523.152 209.682C515.231 209.682 507.634 212.852 502.032 218.496C496.431 224.139 493.284 231.794 493.284 239.775Z" fill="url(#paint5_linear)"/>
<path d="M657.557 202.169C657.557 212.146 661.491 221.714 668.492 228.768C675.494 235.823 684.99 239.786 694.892 239.786C704.794 239.786 714.29 235.823 721.292 228.768C728.294 221.714 732.227 212.146 732.227 202.169C732.227 192.192 728.294 182.624 721.292 175.57C714.29 168.515 704.794 164.552 694.892 164.552C684.99 164.552 675.494 168.515 668.492 175.57C661.491 182.624 657.557 192.192 657.557 202.169Z" fill="url(#paint6_linear)"/>
<path d="M553.019 157.026C553.019 167.003 556.953 176.571 563.954 183.625C570.956 190.68 580.452 194.643 590.354 194.643C600.256 194.643 609.752 190.68 616.754 183.625C623.756 176.571 627.689 167.003 627.689 157.026C627.689 147.049 623.756 137.481 616.754 130.427C609.752 123.372 600.256 119.409 590.354 119.409C580.452 119.409 570.956 123.372 563.954 130.427C556.953 137.481 553.019 147.049 553.019 157.026Z" fill="url(#paint7_linear)"/>
<path d="M433.54 157.026C433.54 167.003 437.474 176.571 444.475 183.625C451.477 190.68 460.973 194.643 470.875 194.643C480.777 194.643 490.273 190.68 497.275 183.625C504.277 176.571 508.21 167.003 508.21 157.026C508.21 147.049 504.277 137.481 497.275 130.427C490.273 123.372 480.777 119.409 470.875 119.409C460.973 119.409 451.477 123.372 444.475 130.427C437.474 137.481 433.54 147.049 433.54 157.026Z" fill="url(#paint8_linear)"/>
<path d="M314.071 202.169C314.071 212.145 318.005 221.713 325.007 228.768C332.008 235.822 341.505 239.785 351.406 239.785C361.308 239.785 370.805 235.822 377.806 228.768C384.808 221.713 388.741 212.145 388.741 202.169C388.741 192.192 384.808 182.624 377.806 175.569C370.805 168.515 361.308 164.552 351.406 164.552C341.505 164.552 332.008 168.515 325.007 175.569C318.005 182.624 314.071 192.192 314.071 202.169Z" fill="url(#paint9_linear)"/>
<path d="M777.02 172.065C777.02 178.051 779.38 183.792 783.581 188.024C787.782 192.257 793.48 194.635 799.421 194.635C805.362 194.635 811.06 192.257 815.261 188.024C819.462 183.792 821.822 178.051 821.822 172.065C821.822 166.079 819.462 160.338 815.261 156.105C811.06 151.873 805.362 149.495 799.421 149.495C793.48 149.495 787.782 151.873 783.581 156.105C779.38 160.338 777.02 166.079 777.02 172.065Z" fill="url(#paint10_linear)"/>
<path d="M642.611 96.8357C642.611 102.822 644.971 108.563 649.172 112.795C653.373 117.028 659.071 119.406 665.012 119.406C670.953 119.406 676.651 117.028 680.852 112.795C685.053 108.563 687.413 102.822 687.413 96.8357C687.413 90.8498 685.053 85.109 680.852 80.8763C676.651 76.6435 670.953 74.2656 665.012 74.2656C659.071 74.2656 653.373 76.6435 649.172 80.8763C644.971 85.109 642.611 90.8498 642.611 96.8357Z" fill="url(#paint11_linear)"/>
<path d="M508.218 81.7933C508.218 87.7792 510.578 93.52 514.779 97.7528C518.98 101.985 524.678 104.363 530.619 104.363C536.56 104.363 542.258 101.985 546.459 97.7528C550.66 93.52 553.02 87.7792 553.02 81.7933C553.02 75.8073 550.66 70.0665 546.459 65.8338C542.258 61.6011 536.56 59.2231 530.619 59.2231C524.678 59.2231 518.98 61.6011 514.779 65.8338C510.578 70.0665 508.218 75.8073 508.218 81.7933Z" fill="url(#paint12_linear)"/>
<path d="M358.869 96.8353C358.869 102.821 361.229 108.562 365.43 112.795C369.631 117.027 375.329 119.405 381.27 119.405C387.211 119.405 392.909 117.027 397.11 112.795C401.311 108.562 403.671 102.821 403.671 96.8353C403.671 90.8493 401.311 85.1085 397.11 80.8758C392.909 76.643 387.211 74.2651 381.27 74.2651C375.329 74.2651 369.631 76.643 365.43 80.8758C361.229 85.1085 358.869 90.8493 358.869 96.8353Z" fill="url(#paint13_linear)"/>
<path d="M254.333 360.147C254.333 368.128 257.48 375.782 263.081 381.426C268.682 387.07 276.28 390.24 284.201 390.24C292.123 390.24 299.72 387.07 305.321 381.426C310.922 375.782 314.069 368.128 314.069 360.147C314.069 352.165 310.922 344.511 305.321 338.867C299.72 333.224 292.123 330.053 284.201 330.053C276.28 330.053 268.682 333.224 263.081 338.867C257.48 344.511 254.333 352.165 254.333 360.147Z" fill="url(#paint14_linear)"/>
<path d="M209.538 450.433C209.538 458.414 212.685 466.068 218.287 471.712C223.888 477.356 231.485 480.526 239.407 480.526C247.328 480.526 254.925 477.356 260.527 471.712C266.128 466.069 269.275 458.414 269.275 450.433C269.275 442.452 266.128 434.797 260.527 429.154C254.925 423.51 247.328 420.339 239.407 420.339C231.485 420.339 223.888 423.51 218.287 429.154C212.685 434.797 209.538 442.452 209.538 450.433Z" fill="url(#paint15_linear)"/>
<path d="M149.792 367.671C149.792 377.647 153.726 387.215 160.727 394.27C167.729 401.324 177.225 405.287 187.127 405.287C197.029 405.287 206.526 401.324 213.527 394.27C220.529 387.215 224.462 377.647 224.462 367.671C224.462 357.694 220.529 348.126 213.527 341.071C206.526 334.017 197.029 330.054 187.127 330.054C177.225 330.054 167.729 334.017 160.727 341.071C153.726 348.126 149.792 357.694 149.792 367.671Z" fill="url(#paint16_linear)"/>
<path d="M119.935 488.058C119.935 498.035 123.868 507.603 130.87 514.658C137.871 521.712 147.368 525.675 157.27 525.675C167.171 525.675 176.668 521.712 183.669 514.658C190.671 507.603 194.604 498.035 194.604 488.058C194.604 478.082 190.671 468.514 183.669 461.459C176.668 454.405 167.171 450.441 157.27 450.441C147.368 450.441 137.871 454.405 130.87 461.459C123.868 468.514 119.935 478.082 119.935 488.058Z" fill="url(#paint17_linear)"/>
<path d="M224.46 262.355C224.46 272.332 228.393 281.9 235.395 288.954C242.396 296.009 251.893 299.972 261.795 299.972C271.696 299.972 281.193 296.009 288.194 288.954C295.196 281.9 299.13 272.332 299.13 262.355C299.13 252.379 295.196 242.811 288.194 235.756C281.193 228.701 271.696 224.738 261.795 224.738C251.893 224.738 242.396 228.701 235.395 235.756C228.393 242.811 224.46 252.379 224.46 262.355Z" fill="url(#paint18_linear)"/>
<path d="M134.859 277.394C134.859 283.38 137.219 289.121 141.42 293.354C145.621 297.587 151.319 299.964 157.26 299.964C163.201 299.964 168.899 297.587 173.1 293.354C177.301 289.121 179.661 283.38 179.661 277.394C179.661 271.408 177.301 265.668 173.1 261.435C168.899 257.202 163.201 254.824 157.26 254.824C151.319 254.824 145.621 257.202 141.42 261.435C137.219 265.668 134.859 271.408 134.859 277.394Z" fill="url(#paint19_linear)"/>
<path d="M75.1208 397.768C75.1208 403.754 77.4809 409.495 81.6819 413.727C85.8829 417.96 91.5807 420.338 97.5218 420.338C103.463 420.338 109.161 417.96 113.362 413.727C117.563 409.495 119.923 403.754 119.923 397.768C119.923 391.782 117.563 386.041 113.362 381.808C109.161 377.576 103.463 375.198 97.5218 375.198C91.5807 375.198 85.8829 377.576 81.6819 381.808C77.4809 386.041 75.1208 391.782 75.1208 397.768Z" fill="url(#paint20_linear)"/>
<path d="M239.4 172.065C239.4 178.051 241.76 183.792 245.961 188.025C250.162 192.257 255.86 194.635 261.801 194.635C267.742 194.635 273.44 192.257 277.641 188.025C281.842 183.792 284.202 178.051 284.202 172.065C284.202 166.079 281.842 160.338 277.641 156.106C273.44 151.873 267.742 149.495 261.801 149.495C255.86 149.495 250.162 151.873 245.961 156.106C241.76 160.338 239.4 166.079 239.4 172.065Z" fill="url(#paint21_linear)"/>
<path d="M777.03 450.434C777.03 458.415 780.177 466.069 785.778 471.713C791.38 477.357 798.977 480.527 806.898 480.527C814.82 480.527 822.417 477.357 828.018 471.713C833.62 466.069 836.766 458.415 836.766 450.434C836.766 442.453 833.62 434.798 828.018 429.155C822.417 423.511 814.82 420.34 806.898 420.34C798.977 420.34 791.38 423.511 785.778 429.155C780.177 434.798 777.03 442.453 777.03 450.434Z" fill="url(#paint22_linear)"/>
<path d="M836.765 367.671C836.765 377.647 840.699 387.215 847.7 394.27C854.702 401.324 864.198 405.287 874.1 405.287C884.002 405.287 893.498 401.324 900.5 394.27C907.502 387.215 911.435 377.647 911.435 367.671C911.435 357.694 907.502 348.126 900.5 341.071C893.498 334.017 884.002 330.054 874.1 330.054C864.198 330.054 854.702 334.017 847.7 341.071C840.699 348.126 836.765 357.694 836.765 367.671Z" fill="url(#paint23_linear)"/>
<path d="M762.096 262.356C762.096 272.332 766.03 281.9 773.031 288.955C780.033 296.009 789.529 299.973 799.431 299.973C809.333 299.973 818.829 296.009 825.831 288.955C832.833 281.9 836.766 272.332 836.766 262.356C836.766 252.379 832.833 242.811 825.831 235.756C818.829 228.702 809.333 224.739 799.431 224.739C789.529 224.739 780.033 228.702 773.031 235.756C766.03 242.811 762.096 252.379 762.096 262.356Z" fill="url(#paint24_linear)"/>
<path d="M866.636 488.058C866.636 498.035 870.569 507.603 877.571 514.658C884.573 521.712 894.069 525.675 903.971 525.675C913.873 525.675 923.369 521.712 930.371 514.658C937.372 507.603 941.306 498.035 941.306 488.058C941.306 478.082 937.372 468.514 930.371 461.459C923.369 454.405 913.873 450.441 903.971 450.441C894.069 450.441 884.573 454.405 877.571 461.459C870.569 468.514 866.636 478.082 866.636 488.058Z" fill="url(#paint25_linear)"/>
<path d="M941.299 397.768C941.299 403.754 943.659 409.495 947.86 413.727C952.061 417.96 957.758 420.338 963.7 420.338C969.641 420.338 975.338 417.96 979.539 413.727C983.74 409.495 986.101 403.754 986.101 397.768C986.101 391.782 983.74 386.041 979.539 381.808C975.338 377.576 969.641 375.198 963.7 375.198C957.758 375.198 952.061 377.576 947.86 381.808C943.659 386.041 941.299 391.782 941.299 397.768Z" fill="url(#paint26_linear)"/>
<path d="M881.56 277.394C881.56 283.38 883.921 289.121 888.122 293.353C892.323 297.586 898.02 299.964 903.962 299.964C909.903 299.964 915.6 297.586 919.801 293.353C924.002 289.121 926.363 283.38 926.363 277.394C926.363 271.408 924.002 265.667 919.801 261.434C915.6 257.202 909.903 254.824 903.962 254.824C898.02 254.824 892.323 257.202 888.122 261.434C883.921 265.667 881.56 271.408 881.56 277.394Z" fill="url(#paint27_linear)"/>
<path d="M431.772 29.6466C432.453 34.0066 434.831 37.9098 438.383 40.4975C441.934 43.0852 446.369 44.1455 450.71 43.4452C455.051 42.7448 458.945 40.3412 461.533 36.763C464.121 33.1848 465.192 28.7252 464.511 24.3652C463.83 20.0052 461.452 16.102 457.901 13.5143C454.349 10.9266 449.915 9.86624 445.574 10.5666C441.232 11.267 437.339 13.6706 434.751 17.2488C432.163 20.827 431.091 25.2866 431.772 29.6466Z" fill="url(#paint28_linear)"/>
<path d="M276.876 84.0445C280.997 92.2509 290.966 95.4955 299.125 91.2828C307.284 87.0702 310.563 76.9784 306.428 68.7789C302.294 60.5794 292.338 57.328 284.179 61.5406C276.014 65.7399 272.735 75.8316 276.876 84.0445Z" fill="url(#paint29_linear)"/>
<path d="M746.336 87.6367C754.501 91.8368 764.465 88.6067 768.593 80.3874C772.729 72.1884 769.444 62.1097 761.286 57.8962C753.121 53.696 743.157 56.9261 739.029 65.1454C734.894 73.3445 738.178 83.4232 746.336 87.6367Z" fill="url(#paint30_linear)"/>
<path d="M1021.24 463.332C1021.92 467.692 1024.3 471.596 1027.85 474.185C1031.4 476.773 1035.83 477.835 1040.17 477.135C1044.52 476.436 1048.41 474.033 1051 470.456C1053.59 466.878 1054.66 462.419 1053.98 458.059C1053.3 453.698 1050.92 449.795 1047.37 447.206C1043.82 444.618 1039.39 443.556 1035.05 444.255C1030.7 444.955 1026.81 447.358 1024.22 450.935C1021.63 454.513 1020.56 458.972 1021.24 463.332Z" fill="url(#paint31_linear)"/>
<path d="M609.124 35.62C613.482 36.3229 617.931 35.2605 621.492 32.6666C625.054 30.0727 627.435 26.1597 628.113 21.7884C628.791 17.4172 627.709 12.9458 625.107 9.35782C622.504 5.76988 618.594 3.35932 614.235 2.65644C609.877 1.95355 605.427 3.01594 601.866 5.60986C598.305 8.20378 595.924 12.1168 595.246 16.488C594.568 20.8592 595.649 25.3307 598.252 28.9186C600.855 32.5066 604.765 34.9171 609.124 35.62Z" fill="url(#paint32_linear)"/>
<path d="M22.2947 479.818C24.4515 480.164 26.6534 480.08 28.7748 479.571C30.8962 479.062 32.8954 478.137 34.6584 476.85C36.4213 475.563 37.9135 473.939 39.0496 472.07C40.1858 470.202 40.9437 468.125 41.2801 465.959C41.6165 463.793 41.5248 461.58 41.0102 459.447C40.4956 457.314 39.5682 455.301 38.2809 453.525C36.9937 451.749 35.3719 450.244 33.5079 449.095C31.644 447.947 29.5746 447.178 27.4178 446.832C23.0619 446.133 18.6145 447.201 15.0541 449.8C11.4936 452.399 9.11171 456.317 8.43234 460.691C7.75297 465.065 8.8318 469.538 11.4315 473.125C14.0312 476.712 17.9388 479.12 22.2947 479.818Z" fill="url(#paint33_linear)"/>
<path d="M881.035 182.515C882.568 184.066 884.391 185.297 886.399 186.137C888.406 186.977 890.558 187.409 892.731 187.408C894.905 187.407 897.056 186.974 899.063 186.133C901.07 185.292 902.892 184.06 904.425 182.508C907.527 179.366 909.269 175.116 909.272 170.684C909.275 166.253 907.537 162.001 904.439 158.855C902.905 157.302 901.082 156.069 899.075 155.227C897.067 154.386 894.914 153.952 892.739 153.952C890.564 153.952 888.411 154.384 886.403 155.225C884.395 156.066 882.572 157.299 881.038 158.852C874.574 165.384 874.583 175.971 881.045 182.504L881.035 182.515Z" fill="url(#paint34_linear)"/>
<path d="M150.528 180.601C152.062 182.152 153.884 183.383 155.892 184.223C157.899 185.063 160.051 185.495 162.224 185.494C164.398 185.493 166.55 185.06 168.556 184.219C170.563 183.378 172.385 182.146 173.918 180.594C177.02 177.452 178.763 173.202 178.765 168.771C178.768 164.339 177.03 160.087 173.932 156.942C172.399 155.388 170.576 154.155 168.568 153.313C166.56 152.472 164.407 152.039 162.232 152.038C160.058 152.038 157.904 152.471 155.896 153.312C153.888 154.153 152.065 155.385 150.531 156.939C144.067 163.47 144.077 174.057 150.538 180.59L150.528 180.601Z" fill="url(#paint35_linear)"/>
<path d="M972.875 316.314C976.994 324.522 986.963 327.768 995.123 323.557C1003.28 319.346 1006.56 309.255 1002.43 301.055C998.298 292.854 988.343 289.601 980.183 293.812C972.017 298.01 968.736 308.101 972.875 316.314Z" fill="url(#paint36_linear)"/>
<path d="M59.0498 320.94C67.2152 325.139 77.1781 321.908 81.3058 313.688C85.4401 305.489 82.1545 295.41 73.9958 291.198C65.8304 286.999 55.8675 290.23 51.7398 298.449C47.6055 306.649 50.8979 316.714 59.0498 320.94Z" fill="url(#paint37_linear)"/>
</g>
<defs>
<linearGradient id="paint0_linear" x1="791.954" y1="330.054" x2="731.769" y2="389.788" gradientUnits="userSpaceOnUse">
<stop stop-color="#A83592"/>
<stop offset="1" stop-color="#4F4A9D"/>
</linearGradient>
<linearGradient id="paint1_linear" x1="388.741" y1="269.868" x2="328.556" y2="329.602" gradientUnits="userSpaceOnUse">
<stop stop-color="#A83592"/>
<stop offset="1" stop-color="#4F4A9D"/>
</linearGradient>
<linearGradient id="paint2_linear" x1="642.618" y1="224.739" x2="582.433" y2="284.473" gradientUnits="userSpaceOnUse">
<stop stop-color="#A83592"/>
<stop offset="1" stop-color="#4F4A9D"/>
</linearGradient>
<linearGradient id="paint3_linear" x1="732.227" y1="269.868" x2="672.042" y2="329.603" gradientUnits="userSpaceOnUse">
<stop stop-color="#A83592"/>
<stop offset="1" stop-color="#4F4A9D"/>
</linearGradient>
<linearGradient id="paint4_linear" x1="463.408" y1="224.739" x2="403.223" y2="284.473" gradientUnits="userSpaceOnUse">
<stop stop-color="#A83592"/>
<stop offset="1" stop-color="#4F4A9D"/>
</linearGradient>
<linearGradient id="paint5_linear" x1="553.02" y1="209.682" x2="492.835" y2="269.416" gradientUnits="userSpaceOnUse">
<stop stop-color="#A83592"/>
<stop offset="1" stop-color="#4F4A9D"/>
</linearGradient>
<linearGradient id="paint6_linear" x1="732.227" y1="164.552" x2="656.996" y2="239.22" gradientUnits="userSpaceOnUse">
<stop stop-color="#A83592"/>
<stop offset="1" stop-color="#4F4A9D"/>
</linearGradient>
<linearGradient id="paint7_linear" x1="627.689" y1="119.409" x2="552.458" y2="194.077" gradientUnits="userSpaceOnUse">
<stop stop-color="#A83592"/>
<stop offset="1" stop-color="#4F4A9D"/>
</linearGradient>
<linearGradient id="paint8_linear" x1="508.21" y1="119.409" x2="432.979" y2="194.077" gradientUnits="userSpaceOnUse">
<stop stop-color="#A83592"/>
<stop offset="1" stop-color="#4F4A9D"/>
</linearGradient>
<linearGradient id="paint9_linear" x1="388.741" y1="164.552" x2="313.51" y2="239.22" gradientUnits="userSpaceOnUse">
<stop stop-color="#A83592"/>
<stop offset="1" stop-color="#4F4A9D"/>
</linearGradient>
<linearGradient id="paint10_linear" x1="821.822" y1="149.495" x2="776.683" y2="194.295" gradientUnits="userSpaceOnUse">
<stop stop-color="#A83592"/>
<stop offset="1" stop-color="#4F4A9D"/>
</linearGradient>
<linearGradient id="paint11_linear" x1="687.413" y1="74.2656" x2="642.274" y2="119.066" gradientUnits="userSpaceOnUse">
<stop stop-color="#A83592"/>
<stop offset="1" stop-color="#4F4A9D"/>
</linearGradient>
<linearGradient id="paint12_linear" x1="553.02" y1="59.2231" x2="507.881" y2="104.024" gradientUnits="userSpaceOnUse">
<stop stop-color="#A83592"/>
<stop offset="1" stop-color="#4F4A9D"/>
</linearGradient>
<linearGradient id="paint13_linear" x1="403.671" y1="74.2651" x2="358.532" y2="119.066" gradientUnits="userSpaceOnUse">
<stop stop-color="#A83592"/>
<stop offset="1" stop-color="#4F4A9D"/>
</linearGradient>
<linearGradient id="paint14_linear" x1="314.069" y1="330.053" x2="253.884" y2="389.788" gradientUnits="userSpaceOnUse">
<stop stop-color="#A83592"/>
<stop offset="1" stop-color="#4F4A9D"/>
</linearGradient>
<linearGradient id="paint15_linear" x1="269.275" y1="420.339" x2="209.089" y2="480.074" gradientUnits="userSpaceOnUse">
<stop stop-color="#A83592"/>
<stop offset="1" stop-color="#4F4A9D"/>
</linearGradient>
<linearGradient id="paint16_linear" x1="224.462" y1="330.054" x2="149.231" y2="404.722" gradientUnits="userSpaceOnUse">
<stop stop-color="#A83592"/>
<stop offset="1" stop-color="#4F4A9D"/>
</linearGradient>
<linearGradient id="paint17_linear" x1="194.604" y1="450.441" x2="119.373" y2="525.109" gradientUnits="userSpaceOnUse">
<stop stop-color="#A83592"/>
<stop offset="1" stop-color="#4F4A9D"/>
</linearGradient>
<linearGradient id="paint18_linear" x1="299.13" y1="224.738" x2="223.898" y2="299.406" gradientUnits="userSpaceOnUse">
<stop stop-color="#A83592"/>
<stop offset="1" stop-color="#4F4A9D"/>
</linearGradient>
<linearGradient id="paint19_linear" x1="179.661" y1="254.824" x2="134.522" y2="299.625" gradientUnits="userSpaceOnUse">
<stop stop-color="#A83592"/>
<stop offset="1" stop-color="#4F4A9D"/>
</linearGradient>
<linearGradient id="paint20_linear" x1="119.923" y1="375.198" x2="74.7839" y2="419.999" gradientUnits="userSpaceOnUse">
<stop stop-color="#A83592"/>
<stop offset="1" stop-color="#4F4A9D"/>
</linearGradient>
<linearGradient id="paint21_linear" x1="284.202" y1="149.495" x2="239.063" y2="194.296" gradientUnits="userSpaceOnUse">
<stop stop-color="#A83592"/>
<stop offset="1" stop-color="#4F4A9D"/>
</linearGradient>
<linearGradient id="paint22_linear" x1="836.766" y1="420.34" x2="776.581" y2="480.075" gradientUnits="userSpaceOnUse">
<stop stop-color="#A83592"/>
<stop offset="1" stop-color="#4F4A9D"/>
</linearGradient>
<linearGradient id="paint23_linear" x1="911.435" y1="330.054" x2="836.204" y2="404.722" gradientUnits="userSpaceOnUse">
<stop stop-color="#A83592"/>
<stop offset="1" stop-color="#4F4A9D"/>
</linearGradient>
<linearGradient id="paint24_linear" x1="836.766" y1="224.739" x2="761.535" y2="299.407" gradientUnits="userSpaceOnUse">
<stop stop-color="#A83592"/>
<stop offset="1" stop-color="#4F4A9D"/>
</linearGradient>
<linearGradient id="paint25_linear" x1="941.306" y1="450.441" x2="866.074" y2="525.109" gradientUnits="userSpaceOnUse">
<stop stop-color="#A83592"/>
<stop offset="1" stop-color="#4F4A9D"/>
</linearGradient>
<linearGradient id="paint26_linear" x1="986.101" y1="375.198" x2="940.962" y2="419.999" gradientUnits="userSpaceOnUse">
<stop stop-color="#A83592"/>
<stop offset="1" stop-color="#4F4A9D"/>
</linearGradient>
<linearGradient id="paint27_linear" x1="926.363" y1="254.824" x2="881.224" y2="299.625" gradientUnits="userSpaceOnUse">
<stop stop-color="#A83592"/>
<stop offset="1" stop-color="#4F4A9D"/>
</linearGradient>
<linearGradient id="paint28_linear" x1="461.952" y1="7.93213" x2="434.2" y2="45.9835" gradientUnits="userSpaceOnUse">
<stop stop-color="#A83592"/>
<stop offset="1" stop-color="#4F4A9D"/>
</linearGradient>
<linearGradient id="paint29_linear" x1="298.949" y1="53.9448" x2="284.323" y2="98.868" gradientUnits="userSpaceOnUse">
<stop stop-color="#A83592"/>
<stop offset="1" stop-color="#4F4A9D"/>
</linearGradient>
<linearGradient id="paint30_linear" x1="746.517" y1="50.2988" x2="761.138" y2="95.2236" gradientUnits="userSpaceOnUse">
<stop stop-color="#A83592"/>
<stop offset="1" stop-color="#4F4A9D"/>
</linearGradient>
<linearGradient id="paint31_linear" x1="1051.42" y1="441.619" x2="1023.67" y2="479.676" gradientUnits="userSpaceOnUse">
<stop stop-color="#A83592"/>
<stop offset="1" stop-color="#4F4A9D"/>
</linearGradient>
<linearGradient id="paint32_linear" x1="597.81" y1="0" x2="625.624" y2="38.2217" gradientUnits="userSpaceOnUse">
<stop stop-color="#A83592"/>
<stop offset="1" stop-color="#4F4A9D"/>
</linearGradient>
<linearGradient id="paint33_linear" x1="11.0024" y1="444.191" x2="38.8408" y2="482.363" gradientUnits="userSpaceOnUse">
<stop stop-color="#A83592"/>
<stop offset="1" stop-color="#4F4A9D"/>
</linearGradient>
<linearGradient id="paint34_linear" x1="892.74" y1="147.065" x2="892.744" y2="194.295" gradientUnits="userSpaceOnUse">
<stop stop-color="#A83592"/>
<stop offset="1" stop-color="#4F4A9D"/>
</linearGradient>
<linearGradient id="paint35_linear" x1="162.233" y1="145.151" x2="162.237" y2="192.381" gradientUnits="userSpaceOnUse">
<stop stop-color="#A83592"/>
<stop offset="1" stop-color="#4F4A9D"/>
</linearGradient>
<linearGradient id="paint36_linear" x1="994.955" y1="286.219" x2="980.319" y2="331.14" gradientUnits="userSpaceOnUse">
<stop stop-color="#A83592"/>
<stop offset="1" stop-color="#4F4A9D"/>
</linearGradient>
<linearGradient id="paint37_linear" x1="59.2261" y1="283.602" x2="73.8519" y2="328.525" gradientUnits="userSpaceOnUse">
<stop stop-color="#A83592"/>
<stop offset="1" stop-color="#4F4A9D"/>
</linearGradient>
</defs>
</svg>
