<svg width="102" height="109" viewBox="0 0 102 109" fill="none" xmlns="http://www.w3.org/2000/svg">
<circle cx="50" cy="50" r="50" fill="#FCF8F2"/>
<g opacity="0.65" clip-path="url(#clip0)">
<path d="M62 43.6665C42.4 43.6665 25.6 54.0798 22.0667 68.5065C22.0306 68.6688 22.0083 68.8338 22 68.9998C21.984 69.1906 21.984 69.3824 22 69.5732C25.6 83.9198 42.4 94.3332 62 94.3332C81.6 94.3332 98.4 83.9198 102 69.4932C102.014 69.329 102.014 69.164 102 68.9998C101.994 68.8072 101.972 68.6154 101.933 68.4265C98.4 54.0798 81.6 43.6665 62 43.6665ZM29.6267 64.9998C29.8721 66.3191 29.9971 67.6579 30 68.9998C29.9977 70.3418 29.8727 71.6807 29.6267 72.9998C28.1521 71.9575 26.9383 70.5886 26.08 68.9998C26.9418 67.4136 28.155 66.0454 29.6267 64.9998ZM32.0267 63.4265C36.0328 61.2548 40.3435 59.6996 44.8133 58.8132C41.0614 65.0956 41.0614 72.9307 44.8133 79.2132C40.3453 78.3202 36.0356 76.7653 32.0267 74.5998C32.4517 72.7635 32.6664 70.8847 32.6667 68.9998C32.6671 67.1193 32.4524 65.2449 32.0267 63.4132V63.4265ZM48.5867 79.9198C43.3613 73.5775 43.3613 64.4222 48.5867 58.0798C57.4754 56.6399 66.5379 56.6399 75.4267 58.0798C80.6363 64.4278 80.6363 73.5719 75.4267 79.9198C70.9878 80.6436 66.4975 81.0048 62 80.9998C57.507 81.0054 53.021 80.6442 48.5867 79.9198ZM82 68.9998C81.999 65.4102 81.0318 61.887 79.2 58.7998C83.2252 59.6347 87.1278 60.9789 90.8133 62.7998C89.7288 66.8801 89.7288 71.1729 90.8133 75.2532C87.1278 77.0742 83.2252 78.4183 79.2 79.2532C81.041 76.1505 82.0085 72.6076 82 68.9998ZM93.2 73.8532C92.4888 70.6567 92.4888 67.343 93.2 64.1465C95.1752 65.318 96.804 66.9928 97.92 68.9998C96.804 71.0069 95.1752 72.6817 93.2 73.8532ZM62 46.3332C78.12 46.3332 92.1733 53.6798 97.5733 64.2665C91.3333 58.3332 77.5733 54.3332 62 54.3332C46.4267 54.3332 32.84 58.3332 26.52 64.1732C32 53.5865 46 46.3332 62 46.3332ZM62 91.6665C46 91.6665 31.9733 84.3865 26.5067 73.8132C32.8267 79.6665 46.5067 83.6665 62 83.6665C77.4933 83.6665 91.1467 79.6665 97.4667 73.8398C91.9867 84.4132 78 91.6665 62 91.6665Z" fill="url(#paint0_linear)"/>
<path d="M66.3868 77.9468C66.6372 78.1992 66.978 78.3412 67.3335 78.3412C67.689 78.3412 68.0298 78.1992 68.2802 77.9468L74.9468 71.2801C75.4697 70.7573 75.4697 69.9096 74.9468 69.3868C74.424 68.8639 73.5763 68.8639 73.0535 69.3868L66.3868 76.0534C66.1344 76.3038 65.9924 76.6446 65.9924 77.0001C65.9924 77.3556 66.1344 77.6964 66.3868 77.9468Z" fill="url(#paint1_linear)"/>
<path d="M57.6133 60.0531C57.363 59.8007 57.0222 59.6587 56.6667 59.6587C56.3112 59.6587 55.9704 59.8007 55.72 60.0531L49.0533 66.7197C48.8009 66.9701 48.6589 67.3109 48.6589 67.6664C48.6589 68.0219 48.8009 68.3627 49.0533 68.6131C49.3037 68.8655 49.6445 69.0075 50 69.0075C50.3555 69.0075 50.6963 68.8655 50.9467 68.6131L57.6133 61.9464C57.8658 61.6961 58.0077 61.3553 58.0077 60.9998C58.0077 60.6442 57.8658 60.3034 57.6133 60.0531Z" fill="url(#paint2_linear)"/>
<path d="M72.2802 62.7196C72.0299 62.4672 71.6891 62.3252 71.3336 62.3252C70.9781 62.3252 70.6373 62.4672 70.3869 62.7196L57.0536 76.0529C56.8012 76.3033 56.6592 76.6441 56.6592 76.9996C56.6592 77.3551 56.8012 77.6959 57.0536 77.9463C57.3039 78.1987 57.6447 78.3407 58.0002 78.3407C58.3558 78.3407 58.6966 78.1987 58.9469 77.9463L72.2802 64.6129C72.5327 64.3626 72.6746 64.0218 72.6746 63.6663C72.6746 63.3107 72.5327 62.9699 72.2802 62.7196Z" fill="url(#paint3_linear)"/>
<path d="M66.9469 60.0531C66.6965 59.8007 66.3557 59.6587 66.0002 59.6587C65.6447 59.6587 65.3039 59.8007 65.0535 60.0531L51.7202 73.3864C51.4678 73.6368 51.3258 73.9776 51.3258 74.3331C51.3258 74.6886 51.4678 75.0294 51.7202 75.2798C51.9706 75.5322 52.3114 75.6742 52.6669 75.6742C53.0224 75.6742 53.3632 75.5322 53.6135 75.2798L66.9469 61.9464C67.1993 61.6961 67.3413 61.3553 67.3413 60.9998C67.3413 60.6442 67.1993 60.3034 66.9469 60.0531Z" fill="url(#paint4_linear)"/>
</g>
<defs>
<linearGradient id="paint0_linear" x1="21.988" y1="43.6665" x2="67.7875" y2="116.002" gradientUnits="userSpaceOnUse">
<stop stop-color="#A83592"/>
<stop offset="1" stop-color="#4F4A9D"/>
</linearGradient>
<linearGradient id="paint1_linear" x1="65.9924" y1="68.9946" x2="75.339" y2="78.3412" gradientUnits="userSpaceOnUse">
<stop stop-color="#A83592"/>
<stop offset="1" stop-color="#4F4A9D"/>
</linearGradient>
<linearGradient id="paint2_linear" x1="48.6589" y1="59.6587" x2="58.0077" y2="69.0075" gradientUnits="userSpaceOnUse">
<stop stop-color="#A83592"/>
<stop offset="1" stop-color="#4F4A9D"/>
</linearGradient>
<linearGradient id="paint3_linear" x1="56.6592" y1="62.3252" x2="72.6746" y2="78.3407" gradientUnits="userSpaceOnUse">
<stop stop-color="#A83592"/>
<stop offset="1" stop-color="#4F4A9D"/>
</linearGradient>
<linearGradient id="paint4_linear" x1="51.3258" y1="59.6587" x2="67.3413" y2="75.6742" gradientUnits="userSpaceOnUse">
<stop stop-color="#A83592"/>
<stop offset="1" stop-color="#4F4A9D"/>
</linearGradient>
<clipPath id="clip0">
<rect width="80" height="80" fill="white" transform="translate(22 29)"/>
</clipPath>
</defs>
</svg>
