<svg width="102" height="109" viewBox="0 0 102 109" fill="none" xmlns="http://www.w3.org/2000/svg">
<circle cx="50" cy="50" r="50" fill="#FCF8F2"/>
<g opacity="0.65">
<path d="M93.9738 67.9377C97.2187 64.725 99.6199 60.7607 100.964 56.3967C101.069 56.0557 101.161 55.7016 101.239 55.3475V55.2164C101.336 54.7845 101.336 54.3368 101.239 53.9049C97.8033 39.4918 81.2918 29 62 29C42.7082 29 26.1968 39.4918 22.7214 53.918C22.6256 54.3499 22.6256 54.7976 22.7214 55.2295V55.3607C22.8 55.7148 22.8918 56.0688 22.9968 56.3967C26.5902 68.659 39.705 77.918 55.9935 79.7803C53.571 90.6334 59.2775 101.662 69.5362 105.953C79.795 110.244 91.6544 106.564 97.681 97.2185C103.708 87.8731 102.168 75.5517 94.0263 67.977L93.9738 67.9377ZM91.941 66.259C91.176 65.6749 90.3744 65.1405 89.541 64.659C90.2754 64.3443 90.9836 64.0164 91.6656 63.6623L92.5836 63.1508C93.9473 62.4044 95.2344 61.5259 96.4263 60.5279C95.1977 62.6326 93.6888 64.5606 91.941 66.259ZM63.8361 67.0328H61.3705C57.1882 67.0113 53.0139 66.6649 48.8853 65.9967C43.7188 59.7532 43.7188 50.7189 48.8853 44.4754C53.0351 43.7986 57.2315 43.4478 61.4361 43.4262H62.6295C63.5869 43.4262 64.5181 43.4262 65.4492 43.4918C64.266 44.4798 63.5173 45.8924 63.364 47.4262C62.9313 47.3454 62.4926 47.3015 62.0525 47.2951C57.7067 47.2951 54.1836 50.8181 54.1836 55.1639C54.1836 59.5098 57.7067 63.0328 62.0525 63.0328C66.3983 63.0328 69.9213 59.5098 69.9213 55.1639C69.915 54.7238 69.8711 54.2851 69.7902 53.8525C71.9667 53.6571 73.8528 52.2647 74.6805 50.2423C75.5083 48.2198 75.1396 45.9047 73.7246 44.2393L75.1804 44.4623C79.2048 49.3049 80.1913 55.9881 77.7377 61.7869C72.6484 61.9357 67.755 63.7822 63.8361 67.0328ZM26.6689 55.2295C27.5173 53.6698 28.7105 52.3241 30.1574 51.2951C30.3994 52.5926 30.5223 53.9096 30.5246 55.2295C30.523 56.5495 30.4001 57.8665 30.1574 59.1639C28.754 58.1595 27.586 56.8617 26.7345 55.3607C26.7048 55.3213 26.6826 55.2768 26.6689 55.2295ZM32.5181 49.7213C36.0076 47.7995 39.752 46.3822 43.6394 45.5115L45.1607 45.1705C41.4348 51.359 41.4348 59.1001 45.1607 65.2885L43.6394 64.9475C39.7875 64.0749 36.0755 62.6713 32.6099 60.777C33.0099 58.956 33.1904 57.0935 33.1476 55.2295C33.1473 53.3755 32.9361 51.5276 32.5181 49.7213ZM68.7673 51.2951C68.0886 50.1575 67.1376 49.2065 66 48.5279C65.9864 48.3795 65.9864 48.2303 66 48.082C65.9735 46.7443 66.7625 45.5247 67.9935 45.0005C69.2244 44.4763 70.6504 44.7526 71.5965 45.6987C72.5425 46.6447 72.8188 48.0707 72.2946 49.3017C71.7704 50.5326 70.5508 51.3216 69.2132 51.2951C69.0648 51.3087 68.9156 51.3087 68.7673 51.2951ZM67.2459 55.2295C67.2459 58.1267 64.8973 60.4754 62 60.4754C59.1028 60.4754 56.7541 58.1267 56.7541 55.2295C56.7541 52.3323 59.1028 49.9836 62 49.9836C64.8973 49.9836 67.2459 52.3323 67.2459 55.2295ZM78.8918 45.1705L80.4 45.5115C83.8394 46.322 87.1747 47.5232 90.341 49.0918C89.2745 53.1141 89.2745 57.3449 90.341 61.3672C88.9905 62.0484 87.6025 62.6527 86.1836 63.177C84.3547 62.4986 82.4462 62.0578 80.505 61.8656C82.5051 56.3323 81.9129 50.1931 78.8918 45.1443V45.1705ZM97.2525 55.4C96.1325 57.2791 94.5645 58.8516 92.6886 59.977C92.3365 58.4192 92.1605 56.8267 92.164 55.2295C92.1627 53.6281 92.3386 52.0315 92.6886 50.4689C94.6194 51.6305 96.2183 53.2701 97.3312 55.2295L97.2525 55.4ZM62 31.623C78.5246 31.623 92.8197 39.6623 97.5804 51.1377C96.0954 49.6392 94.3986 48.3667 92.5443 47.3607H92.4131L91.6132 46.9279C88.2484 45.2391 84.6959 43.9536 81.0295 43.0984C79.482 42.718 77.8164 42.377 76.1115 42.0885C71.6908 41.2944 67.2124 40.8646 62.7214 40.8033C62.2627 40.7769 61.8029 40.7769 61.3443 40.8033C56.8397 40.8136 52.3436 41.1952 47.9017 41.9443C46.1836 42.2328 44.5181 42.5738 42.9705 42.9541C38.8462 43.9043 34.8739 45.4227 31.1673 47.4656C30.8525 47.6492 30.564 47.8197 30.3279 47.977C28.915 48.8392 27.6153 49.8745 26.4591 51.059C31.2591 39.6229 45.5148 31.623 62 31.623ZM27.6394 60.4754C28.466 61.1846 29.3425 61.8332 30.2623 62.4164C30.564 62.6131 30.905 62.8098 31.2328 63.0066C34.9147 65.0178 38.8553 66.5138 42.9443 67.4525C44.4394 67.8197 46.0394 68.1475 47.6918 68.4229H47.8623C52.252 69.1785 56.6939 69.5907 61.1476 69.6557C59.2098 71.8719 57.718 74.4413 56.7541 77.2229C43.6394 75.8459 32.6623 69.4197 27.6394 60.4754ZM78.3935 105.066C67.1667 105.066 58.0656 95.9645 58.0656 84.7377C58.0656 73.5109 67.1667 64.4098 78.3935 64.4098C89.6202 64.4098 98.7213 73.5109 98.7213 84.7377C98.7141 95.9615 89.6172 105.058 78.3935 105.066Z" fill="url(#paint0_linear)"/>
<path d="M89.1609 73.9705C88.9146 73.7222 88.5794 73.5825 88.2297 73.5825C87.88 73.5825 87.5448 73.7222 87.2986 73.9705L78.3937 82.8885L69.4888 73.9705C68.9745 73.4562 68.1407 73.4562 67.6265 73.9705C67.1122 74.4847 67.1122 75.3185 67.6265 75.8327L76.5445 84.7377L67.6265 93.6426C67.3782 93.8888 67.2385 94.224 67.2385 94.5737C67.2385 94.9234 67.3782 95.2586 67.6265 95.5049C67.8727 95.7532 68.2079 95.8928 68.5576 95.8928C68.9073 95.8928 69.2425 95.7532 69.4888 95.5049L78.3937 86.5868L87.2986 95.5049C87.5448 95.7532 87.88 95.8928 88.2297 95.8928C88.5794 95.8928 88.9146 95.7532 89.1609 95.5049C89.4092 95.2586 89.5488 94.9234 89.5488 94.5737C89.5488 94.224 89.4092 93.8888 89.1609 93.6426L80.2428 84.7377L89.1609 75.8327C89.4092 75.5865 89.5488 75.2513 89.5488 74.9016C89.5488 74.5519 89.4092 74.2167 89.1609 73.9705Z" fill="url(#paint1_linear)"/>
</g>
<defs>
<linearGradient id="paint0_linear" x1="22.6495" y1="29" x2="101.383" y2="107.695" gradientUnits="userSpaceOnUse">
<stop stop-color="#A83592"/>
<stop offset="1" stop-color="#4F4A9D"/>
</linearGradient>
<linearGradient id="paint1_linear" x1="67.2385" y1="73.5825" x2="89.5488" y2="95.8928" gradientUnits="userSpaceOnUse">
<stop stop-color="#A83592"/>
<stop offset="1" stop-color="#4F4A9D"/>
</linearGradient>
</defs>
</svg>
