<svg width="102" height="109" viewBox="0 0 102 109" fill="none" xmlns="http://www.w3.org/2000/svg">
<circle cx="50" cy="50" r="50" fill="#FCF8F2"/>
<g opacity="0.65" clip-path="url(#clip0)">
<path d="M62 109C81.6 109 98.4 98.5867 102 84.16C102.014 83.9958 102.014 83.8308 102 83.6667C101.994 83.474 101.972 83.2822 101.933 83.0933C99.0667 71.4667 87.1333 62.0933 71.8667 59.24L78.32 51.9733C78.6029 51.6569 78.8326 51.2967 79 50.9067V50.8133C79.2062 50.3416 79.3194 49.8346 79.3333 49.32V41C79.3393 40.9647 79.3393 40.9286 79.3333 40.8933L82.4133 32.6C82.719 31.782 82.6047 30.8662 82.1076 30.1483C81.6104 29.4305 80.7932 29.0015 79.92 29H44.08C43.2068 29.0015 42.3896 29.4305 41.8925 30.1483C41.3953 30.8662 41.281 31.782 41.5867 32.6L44.6667 40.8933C44.6607 40.9286 44.6607 40.9647 44.6667 41V49.32C44.668 49.832 44.7676 50.3389 44.96 50.8133C44.9531 50.8441 44.9531 50.8759 44.96 50.9067C45.1177 51.2987 45.3433 51.6598 45.6267 51.9733L52.08 59.24C36.8667 62.0933 24.9333 71.4667 22.0667 83.1733C22.0306 83.3356 22.0083 83.5006 22 83.6667C21.984 83.8574 21.984 84.0492 22 84.24C25.6 98.5867 42.4 109 62 109ZM54 49H47.3333V42.3333H76.6667V49H59.3333C58.597 49 58 49.597 58 50.3333C58 51.0697 58.597 51.6667 59.3333 51.6667H75.0267L67.1333 60.5467C66.8806 60.8344 66.5163 60.9995 66.1333 61H57.8667C57.4837 60.9995 57.1194 60.8344 56.8667 60.5467L48.9733 51.6667H54C54.7364 51.6667 55.3333 51.0697 55.3333 50.3333C55.3333 49.597 54.7364 49 54 49ZM62 85C62.7364 85 63.3333 84.403 63.3333 83.6667V71.6667C67.3848 71.7214 71.4268 72.0735 75.4267 72.72C80.6363 79.068 80.6363 88.212 75.4267 94.56C70.9886 95.2927 66.4982 95.6628 62 95.6667C57.507 95.6722 53.021 95.311 48.5867 94.5867C43.3613 88.2443 43.3613 79.089 48.5867 72.7467C52.5814 72.0906 56.619 71.7296 60.6667 71.6667V83.6667C60.6667 84.403 61.2636 85 62 85ZM93.2 88.52C92.4888 85.3235 92.4888 82.0098 93.2 78.8133C95.1752 79.9848 96.804 81.6597 97.92 83.6667C96.804 85.6737 95.1752 87.3485 93.2 88.52ZM90.8133 89.8533C87.1278 91.6743 83.2252 93.0185 79.2 93.8533C82.9287 87.5645 82.9287 79.7422 79.2 73.4533C83.2252 74.2882 87.1278 75.6324 90.8133 77.4533C89.7288 81.5336 89.7288 85.8264 90.8133 89.9067V89.8533ZM42 83.6667C42.0051 87.2576 42.9769 90.7809 44.8133 93.8667C40.346 92.9779 36.0364 91.4275 32.0267 89.2667C32.4517 87.4303 32.6664 85.5516 32.6667 83.6667C32.6671 81.7861 32.4524 79.9117 32.0267 78.08C36.0328 75.9083 40.3435 74.353 44.8133 73.4667C42.9769 76.5525 42.0051 80.0758 42 83.6667ZM29.6267 79.6667C29.8721 80.9859 29.9971 82.3248 30 83.6667C29.9977 85.0086 29.8727 86.3475 29.6267 87.6667C28.1521 86.6244 26.9383 85.2554 26.08 83.6667C26.9418 82.0804 28.155 80.7122 29.6267 79.6667ZM62 106.333C45.88 106.333 31.8267 98.9867 26.4267 88.4C32.6667 94.3333 46.4267 98.3333 62 98.3333C77.5733 98.3333 91.1467 94.3333 97.4667 88.5067C91.9867 99.08 78 106.333 62 106.333ZM97.48 78.84C91.3333 73.1333 78.2667 69.24 63.3333 69V63.6667H66.1333C67.2734 63.6682 68.36 63.1831 69.12 62.3333L69.7733 61.6133C82.52 63.5467 92.96 70.2 97.48 78.84ZM79.92 31.6667L76.92 39.6667H47.08L44.08 31.6667H79.92ZM54.2267 61.6L54.88 62.32C55.6401 63.1698 56.7266 63.6548 57.8667 63.6533H60.6667V68.9867C45.8133 69.2 32.7867 72.9867 26.6 78.7067C31.1733 70.12 41.56 63.5333 54.2267 61.6Z" fill="url(#paint0_linear)"/>
<path d="M55.1065 77.6001C54.8673 77.1542 54.3964 76.8821 53.8906 76.8976C53.3849 76.9131 52.9315 77.2135 52.7201 77.6732C52.5087 78.1329 52.5757 78.6727 52.8931 79.0667L55.5598 83.0667C55.8051 83.4392 56.2204 83.6644 56.6665 83.6667C56.9286 83.6697 57.1851 83.5905 57.3998 83.4401C58.0082 83.0332 58.1748 82.2119 57.7731 81.6001L55.1065 77.6001Z" fill="url(#paint1_linear)"/>
<path d="M55.3336 85H51.3336C50.5972 85 50.0002 85.597 50.0002 86.3333C50.0002 87.0697 50.5972 87.6667 51.3336 87.6667H55.3336C56.07 87.6667 56.6669 87.0697 56.6669 86.3333C56.6669 85.597 56.07 85 55.3336 85Z" fill="url(#paint2_linear)"/>
<path d="M67.3333 83.6667C67.7794 83.6644 68.1947 83.4392 68.44 83.0667L71.1067 79.0667C71.4241 78.6727 71.4911 78.1329 71.2797 77.6732C71.0683 77.2135 70.6149 76.9131 70.1092 76.8976C69.6035 76.8821 69.1325 77.1542 68.8933 77.6001L66.2267 81.6001C65.825 82.2119 65.9916 83.0332 66.6 83.4401C66.8147 83.5905 67.0712 83.6697 67.3333 83.6667Z" fill="url(#paint3_linear)"/>
<path d="M67.3333 86.3333C67.3333 87.0697 67.9302 87.6667 68.6666 87.6667H72.6666C73.403 87.6667 73.9999 87.0697 73.9999 86.3333C73.9999 85.597 73.403 85 72.6666 85H68.6666C67.9302 85 67.3333 85.597 67.3333 86.3333Z" fill="url(#paint4_linear)"/>
</g>
<defs>
<linearGradient id="paint0_linear" x1="21.988" y1="29" x2="101.988" y2="109.022" gradientUnits="userSpaceOnUse">
<stop stop-color="#A83592"/>
<stop offset="1" stop-color="#4F4A9D"/>
</linearGradient>
<linearGradient id="paint1_linear" x1="52.5981" y1="76.897" x2="59.1969" y2="82.1545" gradientUnits="userSpaceOnUse">
<stop stop-color="#A83592"/>
<stop offset="1" stop-color="#4F4A9D"/>
</linearGradient>
<linearGradient id="paint2_linear" x1="50.0002" y1="85" x2="51.8393" y2="89.5977" gradientUnits="userSpaceOnUse">
<stop stop-color="#A83592"/>
<stop offset="1" stop-color="#4F4A9D"/>
</linearGradient>
<linearGradient id="paint3_linear" x1="66.0078" y1="76.897" x2="72.6066" y2="82.1545" gradientUnits="userSpaceOnUse">
<stop stop-color="#A83592"/>
<stop offset="1" stop-color="#4F4A9D"/>
</linearGradient>
<linearGradient id="paint4_linear" x1="67.3333" y1="85" x2="69.1723" y2="89.5977" gradientUnits="userSpaceOnUse">
<stop stop-color="#A83592"/>
<stop offset="1" stop-color="#4F4A9D"/>
</linearGradient>
<clipPath id="clip0">
<rect width="80" height="80" fill="white" transform="translate(22 29)"/>
</clipPath>
</defs>
</svg>
