<svg width="102" height="109" viewBox="0 0 102 109" fill="none" xmlns="http://www.w3.org/2000/svg">
<circle cx="50" cy="50" r="50" fill="#FCF8F2"/>
<g opacity="0.65">
<path d="M93.9738 67.9377C97.2187 64.725 99.6199 60.7607 100.964 56.3967C101.069 56.0557 101.161 55.7016 101.239 55.3475V55.2164C101.336 54.7845 101.336 54.3368 101.239 53.9049C97.8033 39.4918 81.2918 29 62 29C42.7082 29 26.1968 39.4918 22.7214 53.918C22.6256 54.3499 22.6256 54.7976 22.7214 55.2295V55.3607C22.8 55.7148 22.8918 56.0688 22.9968 56.3967C26.5902 68.659 39.705 77.918 55.9935 79.7803C53.571 90.6334 59.2775 101.662 69.5362 105.953C79.795 110.244 91.6544 106.564 97.681 97.2185C103.708 87.8731 102.168 75.5517 94.0263 67.977L93.9738 67.9377ZM91.941 66.259C91.176 65.6749 90.3744 65.1405 89.541 64.659C90.2754 64.3443 90.9836 64.0164 91.6656 63.6623C93.3537 62.7869 94.9338 61.7174 96.3738 60.4754C95.1654 62.5954 93.6741 64.5411 91.941 66.259ZM63.8361 67.0328H61.3705C57.1885 67.0059 53.0146 66.6595 48.8853 65.9967C43.7115 59.7508 43.7115 50.7082 48.8853 44.4623C53.0364 43.7981 57.2322 43.4518 61.4361 43.4262H62.6295C63.5738 43.4262 64.5181 43.4262 65.4492 43.4918C64.266 44.4798 63.5173 45.8924 63.364 47.4262C62.9313 47.3454 62.4926 47.3015 62.0525 47.2951C57.7067 47.2951 54.1836 50.8181 54.1836 55.1639C54.1836 59.5098 57.7067 63.0328 62.0525 63.0328C66.3983 63.0328 69.9213 59.5098 69.9213 55.1639C69.915 54.7238 69.8711 54.2851 69.7902 53.8525C72.7974 53.5571 75.0957 51.038 75.1148 48.0164C75.1103 46.6307 74.6128 45.2918 73.7115 44.2393L75.1804 44.4623C79.1991 49.3074 80.1852 55.9873 77.7377 61.7869C72.6484 61.9357 67.755 63.7822 63.8361 67.0328ZM26.6689 55.2295C27.5173 53.6698 28.7105 52.3241 30.1574 51.2951C30.3994 52.5926 30.5223 53.9096 30.5246 55.2295C30.5237 56.5495 30.4008 57.8666 30.1574 59.1639C28.7501 58.164 27.5812 56.8652 26.7345 55.3607C26.7048 55.3213 26.6826 55.2768 26.6689 55.2295ZM32.5181 49.7213C36.0076 47.7995 39.752 46.3822 43.6394 45.5115L45.1607 45.1705C41.4348 51.359 41.4348 59.1001 45.1607 65.2885L43.6394 64.9475C39.785 64.0769 36.0721 62.6686 32.6099 60.7639C33.0088 58.9471 33.1894 57.0891 33.1476 55.2295C33.1473 53.3755 32.9361 51.5276 32.5181 49.7213ZM68.7673 51.2951C68.0886 50.1575 67.1376 49.2065 66 48.5279C65.9864 48.3795 65.9864 48.2303 66 48.082C65.9735 46.7443 66.7625 45.5247 67.9935 45.0005C69.2244 44.4763 70.6504 44.7526 71.5965 45.6987C72.5425 46.6447 72.8188 48.0707 72.2946 49.3017C71.7704 50.5326 70.5508 51.3216 69.2132 51.2951C69.0648 51.3087 68.9156 51.3087 68.7673 51.2951ZM67.2459 55.2295C67.2459 58.1267 64.8973 60.4754 62 60.4754C59.1028 60.4754 56.7541 58.1267 56.7541 55.2295C56.7541 52.3323 59.1028 49.9836 62 49.9836C64.8973 49.9836 67.2459 52.3323 67.2459 55.2295ZM78.8918 45.1705L80.4 45.5115C83.8394 46.322 87.1747 47.5232 90.341 49.0918C89.2745 53.1141 89.2745 57.3449 90.341 61.3672C88.9905 62.0484 87.6025 62.6527 86.1836 63.177C84.3547 62.4986 82.4462 62.0578 80.505 61.8656C82.5051 56.3323 81.9129 50.1931 78.8918 45.1443V45.1705ZM97.2525 55.4C96.1333 57.2833 94.5654 58.8602 92.6886 59.9902C91.9891 56.8549 91.9891 53.6041 92.6886 50.4689C94.6227 51.6263 96.2226 53.2669 97.3312 55.2295L97.2525 55.4ZM62 31.623C78.5246 31.623 92.7935 39.6623 97.5804 51.1115C95.8362 49.3618 93.8213 47.9048 91.6132 46.7967C88.2484 45.1079 84.6959 43.8225 81.0295 42.9672C75.0305 41.5435 68.887 40.8174 62.7214 40.8033C62.2627 40.7769 61.8029 40.7769 61.3443 40.8033C55.1617 40.8103 49.0005 41.532 42.9836 42.9541C38.8921 43.8792 34.9471 45.3619 31.2591 47.3607C29.4817 48.3509 27.8562 49.5921 26.4328 51.0459C31.2459 39.6361 45.5017 31.623 62 31.623ZM27.6394 60.4754C28.7606 61.4619 29.9725 62.3401 31.2591 63.0984C34.9409 65.1096 38.8815 66.6056 42.9705 67.5443C48.9286 68.9425 55.0277 69.651 61.1476 69.6557C59.2124 71.8738 57.721 74.4427 56.7541 77.2229C43.6394 75.8459 32.6623 69.4197 27.6394 60.4754ZM78.3935 105.066C67.1667 105.066 58.0656 95.9645 58.0656 84.7377C58.0656 73.5109 67.1667 64.4098 78.3935 64.4098C89.6202 64.4098 98.7213 73.5109 98.7213 84.7377C98.7141 95.9615 89.6172 105.058 78.3935 105.066Z" fill="url(#paint0_linear)"/>
<path d="M89.9609 75.2557L71.3249 92.6459L66.9577 87.2033C66.6835 86.7909 66.2005 86.5681 65.7089 86.6272C65.2172 86.6863 64.8008 87.0173 64.6323 87.4829C64.4637 87.9486 64.5718 88.4694 64.9118 88.8295L70.1577 95.3869C70.3845 95.6762 70.7223 95.857 71.0888 95.8852H71.1806C71.5119 95.8841 71.8305 95.7576 72.0724 95.5311L91.7445 77.1705C92.2156 76.6671 92.2165 75.8849 91.7466 75.3805C91.2767 74.876 90.4964 74.8215 89.9609 75.2557Z" fill="url(#paint1_linear)"/>
</g>
<defs>
<linearGradient id="paint0_linear" x1="22.6495" y1="29" x2="101.383" y2="107.695" gradientUnits="userSpaceOnUse">
<stop stop-color="#A83592"/>
<stop offset="1" stop-color="#4F4A9D"/>
</linearGradient>
<linearGradient id="paint1_linear" x1="64.554" y1="74.9629" x2="84.7095" y2="101.498" gradientUnits="userSpaceOnUse">
<stop stop-color="#A83592"/>
<stop offset="1" stop-color="#4F4A9D"/>
</linearGradient>
</defs>
</svg>
