<svg width="102" height="109" viewBox="0 0 102 109" fill="none" xmlns="http://www.w3.org/2000/svg">
<circle cx="50" cy="50" r="50" fill="#FCF8F2"/>
<g opacity="0.65">
<path d="M96.6667 29H27.3333C24.3878 29 22 31.3878 22 34.3333V92.92C22 95.8655 24.3878 98.2533 27.3333 98.2533H48.6667V99.5067C48.6664 100.509 47.9851 101.382 47.0133 101.627C44.8492 102.161 43.3298 104.104 43.3333 106.333C43.3333 107.806 44.5272 109 46 109H78C79.4728 109 80.6667 107.806 80.6667 106.333C80.6702 104.104 79.1508 102.161 76.9867 101.627C76.0149 101.382 75.3336 100.509 75.3333 99.5067V98.2533H96.6667C99.6122 98.2533 102 95.8655 102 92.92V34.3333C102 31.3878 99.6122 29 96.6667 29ZM27.3333 31.6667H96.6667C98.1394 31.6667 99.3333 32.8606 99.3333 34.3333V86.3333H91.3333V65C91.3333 63.5272 90.1394 62.3333 88.6667 62.3333H35.3333C33.8606 62.3333 32.6667 63.5272 32.6667 65V86.3333H24.6667V34.3333C24.6667 32.8606 25.8606 31.6667 27.3333 31.6667ZM88.6667 78.3333H67.3333V73H88.6667V78.3333ZM51.3333 73H56.6667V78.3333H51.3333V73ZM48.6667 78.3333H43.3333V73H48.6667V78.3333ZM59.3333 73H64.6667V78.3333H59.3333V73ZM88.6667 70.3333H67.3333V65H88.6667V70.3333ZM64.6667 70.3333H59.3333V65H64.6667V70.3333ZM56.6667 70.3333H51.3333V65H56.6667V70.3333ZM48.6667 70.3333H43.3333V65H48.6667V70.3333ZM40.6667 70.3333H35.3333V65H40.6667V70.3333ZM35.3333 73H40.6667V78.3333H35.3333V73ZM35.3333 81H40.6667V86.3333H35.3333V81ZM43.3333 81H48.6667V86.3333H43.3333V81ZM51.3333 81H56.6667V86.3333H51.3333V81ZM59.3333 81H64.6667V86.3333H59.3333V81ZM67.3333 81H88.6667V86.3333H67.3333V81ZM76.3467 104.213C77.3184 104.458 77.9997 105.331 78 106.333H46C46.0003 105.331 46.6816 104.458 47.6533 104.213C49.8175 103.679 51.3369 101.736 51.3333 99.5067V98.2533H72.6667V99.5067C72.6631 101.736 74.1825 103.679 76.3467 104.213ZM96.6667 95.5867H27.3333C25.8606 95.5867 24.6667 94.3928 24.6667 92.92V89H99.3333V92.92C99.3333 94.3928 98.1394 95.5867 96.6667 95.5867Z" fill="url(#paint0_linear)"/>
<path d="M48.6667 59.6665C58.2801 59.6665 66.6401 54.9598 68.5467 48.4932C68.7067 47.9446 68.7067 47.3617 68.5467 46.8132C66.6534 40.3465 58.2934 35.6665 48.6667 35.6665C39.0401 35.6665 30.6801 40.3465 28.7867 46.8132C28.6267 47.3617 28.6267 47.9446 28.7867 48.4932C30.6934 54.9598 39.0534 59.6665 48.6667 59.6665ZM39.3334 47.6665C39.3334 42.5118 43.5121 38.3332 48.6667 38.3332C53.8214 38.3332 58.0001 42.5118 58.0001 47.6665C58.0001 52.8212 53.8214 56.9998 48.6667 56.9998C43.5121 56.9998 39.3334 52.8212 39.3334 47.6665ZM66.0001 47.5598C66.0132 47.6169 66.0132 47.6761 66.0001 47.7332C65.0534 50.9598 62.0001 53.6532 58.0001 55.2932C61.6545 50.8604 61.6545 44.4593 58.0001 40.0265C62.0001 41.6665 65.0401 44.3332 66.0001 47.5598ZM31.3334 47.5598C32.2801 44.3465 35.3334 41.6665 39.4001 40.0265C35.7456 44.4593 35.7456 50.8604 39.4001 55.2932C35.3334 53.6532 32.2934 50.9598 31.3334 47.7332C31.3203 47.6761 31.3203 47.6169 31.3334 47.5598Z" fill="url(#paint1_linear)"/>
<path d="M48.6668 42.3335C45.7213 42.3335 43.3335 44.7213 43.3335 47.6668C43.3335 50.6124 45.7213 53.0002 48.6668 53.0002C51.6124 53.0002 54.0002 50.6124 54.0002 47.6668C54.0002 46.2523 53.4383 44.8958 52.4381 43.8956C51.4379 42.8954 50.0813 42.3335 48.6668 42.3335ZM48.6668 50.3335C47.1941 50.3335 46.0002 49.1396 46.0002 47.6668C46.0002 46.1941 47.1941 45.0002 48.6668 45.0002C50.1396 45.0002 51.3335 46.1941 51.3335 47.6668C51.3335 49.1396 50.1396 50.3335 48.6668 50.3335Z" fill="url(#paint2_linear)"/>
<path d="M74.0001 38.3332H78.0001C78.7365 38.3332 79.3334 37.7362 79.3334 36.9998C79.3334 36.2635 78.7365 35.6665 78.0001 35.6665H74.0001C73.2637 35.6665 72.6667 36.2635 72.6667 36.9998C72.6667 37.7362 73.2637 38.3332 74.0001 38.3332Z" fill="url(#paint3_linear)"/>
<path d="M83.3333 38.3332H94C94.7364 38.3332 95.3333 37.7362 95.3333 36.9998C95.3333 36.2635 94.7364 35.6665 94 35.6665H83.3333C82.597 35.6665 82 36.2635 82 36.9998C82 37.7362 82.597 38.3332 83.3333 38.3332Z" fill="url(#paint4_linear)"/>
<path d="M94.0002 41H90.0002C89.2638 41 88.6669 41.597 88.6669 42.3333C88.6669 43.0697 89.2638 43.6667 90.0002 43.6667H94.0002C94.7366 43.6667 95.3335 43.0697 95.3335 42.3333C95.3335 41.597 94.7366 41 94.0002 41Z" fill="url(#paint5_linear)"/>
<path d="M74.0001 43.6667H84.6667C85.4031 43.6667 86.0001 43.0697 86.0001 42.3333C86.0001 41.597 85.4031 41 84.6667 41H74.0001C73.2637 41 72.6667 41.597 72.6667 42.3333C72.6667 43.0697 73.2637 43.6667 74.0001 43.6667Z" fill="url(#paint6_linear)"/>
<path d="M74.0001 49.0002H78.0001C78.7365 49.0002 79.3334 48.4032 79.3334 47.6668C79.3334 46.9305 78.7365 46.3335 78.0001 46.3335H74.0001C73.2637 46.3335 72.6667 46.9305 72.6667 47.6668C72.6667 48.4032 73.2637 49.0002 74.0001 49.0002Z" fill="url(#paint7_linear)"/>
<path d="M94 46.3335H83.3333C82.597 46.3335 82 46.9305 82 47.6668C82 48.4032 82.597 49.0002 83.3333 49.0002H94C94.7364 49.0002 95.3333 48.4032 95.3333 47.6668C95.3333 46.9305 94.7364 46.3335 94 46.3335Z" fill="url(#paint8_linear)"/>
<path d="M94.0002 51.6665H90.0002C89.2638 51.6665 88.6669 52.2635 88.6669 52.9998C88.6669 53.7362 89.2638 54.3332 90.0002 54.3332H94.0002C94.7366 54.3332 95.3335 53.7362 95.3335 52.9998C95.3335 52.2635 94.7366 51.6665 94.0002 51.6665Z" fill="url(#paint9_linear)"/>
<path d="M74.0001 54.3332H84.6667C85.4031 54.3332 86.0001 53.7362 86.0001 52.9998C86.0001 52.2635 85.4031 51.6665 84.6667 51.6665H74.0001C73.2637 51.6665 72.6667 52.2635 72.6667 52.9998C72.6667 53.7362 73.2637 54.3332 74.0001 54.3332Z" fill="url(#paint10_linear)"/>
</g>
<defs>
<linearGradient id="paint0_linear" x1="22" y1="29" x2="102" y2="109" gradientUnits="userSpaceOnUse">
<stop stop-color="#A83592"/>
<stop offset="1" stop-color="#4F4A9D"/>
</linearGradient>
<linearGradient id="paint1_linear" x1="28.6667" y1="35.6665" x2="49.8432" y2="70.9606" gradientUnits="userSpaceOnUse">
<stop stop-color="#A83592"/>
<stop offset="1" stop-color="#4F4A9D"/>
</linearGradient>
<linearGradient id="paint2_linear" x1="43.3335" y1="42.3335" x2="54.0002" y2="53.0002" gradientUnits="userSpaceOnUse">
<stop stop-color="#A83592"/>
<stop offset="1" stop-color="#4F4A9D"/>
</linearGradient>
<linearGradient id="paint3_linear" x1="72.6667" y1="35.6665" x2="74.5058" y2="40.2642" gradientUnits="userSpaceOnUse">
<stop stop-color="#A83592"/>
<stop offset="1" stop-color="#4F4A9D"/>
</linearGradient>
<linearGradient id="paint4_linear" x1="82" y1="35.6665" x2="83.0256" y2="40.7947" gradientUnits="userSpaceOnUse">
<stop stop-color="#A83592"/>
<stop offset="1" stop-color="#4F4A9D"/>
</linearGradient>
<linearGradient id="paint5_linear" x1="88.6669" y1="41" x2="90.506" y2="45.5977" gradientUnits="userSpaceOnUse">
<stop stop-color="#A83592"/>
<stop offset="1" stop-color="#4F4A9D"/>
</linearGradient>
<linearGradient id="paint6_linear" x1="72.6667" y1="41" x2="73.6924" y2="46.1282" gradientUnits="userSpaceOnUse">
<stop stop-color="#A83592"/>
<stop offset="1" stop-color="#4F4A9D"/>
</linearGradient>
<linearGradient id="paint7_linear" x1="72.6667" y1="46.3335" x2="74.5058" y2="50.9312" gradientUnits="userSpaceOnUse">
<stop stop-color="#A83592"/>
<stop offset="1" stop-color="#4F4A9D"/>
</linearGradient>
<linearGradient id="paint8_linear" x1="82" y1="46.3335" x2="83.0256" y2="51.4617" gradientUnits="userSpaceOnUse">
<stop stop-color="#A83592"/>
<stop offset="1" stop-color="#4F4A9D"/>
</linearGradient>
<linearGradient id="paint9_linear" x1="88.6669" y1="51.6665" x2="90.506" y2="56.2642" gradientUnits="userSpaceOnUse">
<stop stop-color="#A83592"/>
<stop offset="1" stop-color="#4F4A9D"/>
</linearGradient>
<linearGradient id="paint10_linear" x1="72.6667" y1="51.6665" x2="73.6924" y2="56.7947" gradientUnits="userSpaceOnUse">
<stop stop-color="#A83592"/>
<stop offset="1" stop-color="#4F4A9D"/>
</linearGradient>
</defs>
</svg>
