<svg width="102" height="109" viewBox="0 0 102 109" fill="none" xmlns="http://www.w3.org/2000/svg">
<circle cx="50" cy="50" r="50" fill="#FCF8F2"/>
<g opacity="0.65" clip-path="url(#clip0)">
<path d="M22.9602 48.9999C22.275 51.5328 21.9518 54.1498 22.0002 56.7733C22.0669 61.5466 24.1202 64.3199 26.0002 66.7733C26.9169 67.8987 27.6958 69.1296 28.3202 70.4399C29.3708 72.8453 29.7664 75.4857 29.4669 78.0933C29.2098 80.7838 28.488 83.4094 27.3336 85.8533C26.8546 86.8362 26.9202 87.9973 27.5069 88.9199C28.0703 89.8096 29.0539 90.3443 30.1069 90.3333H48.6669C49.8204 90.3324 50.8426 89.59 51.2002 88.4933C51.6077 87.1797 52.2099 85.9347 52.9869 84.7999C53.9692 85.7675 55.2881 86.3171 56.6669 86.3333V101C56.6669 102.473 57.8608 103.667 59.3336 103.667H62.0002C63.473 103.667 64.6669 102.473 64.6669 101V86.3333H68.6669C70.876 86.3333 72.6669 84.5424 72.6669 82.3333C72.6669 80.1241 70.876 78.3333 68.6669 78.3333H66.7602C66.9469 78.2266 67.1202 78.1333 67.2936 78.0133C67.6771 77.7388 67.9323 77.32 68.0002 76.8533C68.0465 76.4307 67.9822 76.0035 67.8136 75.6133L68.3602 75.1733C69.5069 74.2133 68.7736 72.9333 68.3602 72.3066C68.2267 72.1011 68.1065 71.8874 68.0002 71.6666C67.9274 71.4847 67.8955 71.2889 67.9069 71.0933C68.1662 70.8713 68.4586 70.6914 68.7736 70.5599C69.1214 70.3903 69.4558 70.1942 69.7736 69.9733C70.562 69.5614 71.1317 68.8262 71.3336 67.9599C71.3275 66.8292 70.8431 65.7538 70.0002 64.9999C68.4458 62.9951 67.1302 60.816 66.0802 58.5066C66.245 58.2912 66.4327 58.0945 66.6402 57.9199C67.3797 57.3679 67.8956 56.5679 68.0936 55.6666C68.1247 54.7346 67.8986 53.812 67.4402 52.9999H68.6669C70.876 52.9999 72.6669 51.2091 72.6669 48.9999C72.6669 46.7908 70.876 44.9999 68.6669 44.9999H64.5336C63.8468 43.6964 62.9954 42.4865 62.0002 41.3999C59.4914 39.0747 56.3507 37.5438 52.9736 36.9999C41.8402 34.4133 35.6402 35.4666 28.4536 41.1199C25.8223 43.0871 23.8958 45.8506 22.9602 48.9999ZM62.0002 101H59.3336V86.3333H62.0002V101ZM64.8936 53.8266C65.1275 54.2961 65.315 54.7873 65.4536 55.2933C65.4536 55.4133 65.0402 55.7866 64.8536 55.9599C64.015 56.563 63.4837 57.5038 63.4002 58.5333C63.4002 60.0266 66.5869 65.0266 67.9469 66.6799C68.1801 66.9629 68.3939 67.2614 68.5869 67.5733L68.2402 67.8399C68.0441 67.9697 67.8392 68.0855 67.6269 68.1866C66.8269 68.5866 65.6136 69.2133 65.3869 70.5066C65.241 71.2804 65.334 72.0803 65.6536 72.7999C65.8002 73.0933 65.9469 73.3599 66.0802 73.5866L65.2802 74.1999C64.9969 74.4125 64.8098 74.7292 64.7602 75.0799C64.7108 75.4356 64.807 75.7961 65.0269 76.0799L65.1202 76.2133C64.302 76.6081 63.6943 77.3373 63.4536 78.2133V78.3333H59.3336V52.9999H64.5202C64.6669 53.2933 64.7736 53.5733 64.8936 53.8266ZM70.0002 48.9999C70.0002 49.7363 69.4033 50.3333 68.6669 50.3333H58.0002C57.2638 50.3333 56.6669 50.9302 56.6669 51.6666V79.6666C56.6669 80.403 57.2638 80.9999 58.0002 80.9999H68.6669C69.4033 80.9999 70.0002 81.5969 70.0002 82.3333C70.0002 83.0697 69.4033 83.6666 68.6669 83.6666H56.6669C55.1941 83.6666 54.0002 82.4727 54.0002 80.9999V50.3333C54.0002 48.8605 55.1941 47.6666 56.6669 47.6666H68.6669C69.4033 47.6666 70.0002 48.2636 70.0002 48.9999ZM30.1069 43.2133C35.8269 38.7066 40.7736 36.9066 52.3736 39.5866C55.2274 40.0287 57.8885 41.2991 60.0269 43.2399C60.5432 43.7854 61.0116 44.3742 61.4269 44.9999H56.6669C53.7214 44.9999 51.3336 47.3878 51.3336 50.3333V79.7466L50.6536 79.5066C47.9869 78.6933 46.4936 77.5999 46.5202 76.5066C46.5202 75.7702 45.9233 75.1733 45.1869 75.1733C44.4505 75.1733 43.8536 75.7702 43.8536 76.5066C43.8536 78.2133 44.8136 80.5066 49.8402 82.1199L51.3202 82.6266C50.1231 84.1225 49.2225 85.8331 48.6669 87.6666H30.1069C29.976 87.674 29.8522 87.6069 29.7869 87.4933C29.6964 87.3365 29.6964 87.1434 29.7869 86.9866C31.0278 84.2797 31.7945 81.3798 32.0536 78.4133C32.4192 75.335 31.959 72.2149 30.7202 69.3733C29.9982 67.8741 29.1032 66.4645 28.0536 65.1733C26.3602 62.8533 24.6669 60.6399 24.6669 56.7466C24.6208 54.3891 24.9081 52.037 25.5202 49.7599C26.2954 47.1365 27.9059 44.8378 30.1069 43.2133Z" fill="url(#paint0_linear)"/>
<path d="M98.0006 39.6668C98.0006 36.7213 95.6128 34.3335 92.6673 34.3335C89.7217 34.3335 87.3339 36.7213 87.3339 39.6668H86.0006C83.7914 39.6668 82.0006 41.4577 82.0006 43.6668V45.2402C80.4063 45.8038 79.3387 47.3092 79.3339 49.0002V54.3335H75.3339C73.8611 54.3335 72.6672 55.5274 72.6672 57.0002V63.0268C72.6659 63.9138 73.1057 64.7434 73.8406 65.2402C74.282 65.5368 74.8021 65.6947 75.3339 65.6935C75.6719 65.6974 76.0073 65.6339 76.3206 65.5068L79.3339 64.3068V78.3335C77.1248 78.3335 75.3339 80.1244 75.3339 82.3335V87.6668C75.3339 89.876 77.1248 91.6668 79.3339 91.6668H98.0006C100.21 91.6668 102.001 89.876 102.001 87.6668V82.3335C102.001 80.1244 100.21 78.3335 98.0006 78.3335H96.6673V73.0002C99.6128 73.0002 102.001 70.6123 102.001 67.6668V43.6668C102.001 41.4577 100.21 39.6668 98.0006 39.6668ZM92.6673 37.0002C94.14 37.0002 95.3339 38.1941 95.3339 39.6668C95.3339 41.1396 94.14 42.3335 92.6673 42.3335C91.1945 42.3335 90.0006 41.1396 90.0006 39.6668C90.0006 38.1941 91.1945 37.0002 92.6673 37.0002ZM75.3339 63.0268V57.0002H79.3339V61.4268L75.3339 63.0268ZM82.0006 62.3335V49.0002C82.0006 48.2638 82.5975 47.6668 83.3339 47.6668H86.0006C86.737 47.6668 87.3339 48.2638 87.3339 49.0002V78.3335H82.0006V62.3335ZM99.3339 82.3335V87.6668C99.3339 88.4032 98.737 89.0002 98.0006 89.0002H79.3339C78.5975 89.0002 78.0006 88.4032 78.0006 87.6668V82.3335C78.0006 81.5971 78.5975 81.0002 79.3339 81.0002H98.0006C98.737 81.0002 99.3339 81.5971 99.3339 82.3335ZM94.0006 78.3335H90.0006V73.0002H94.0006V78.3335ZM99.3339 67.6668C99.3339 69.1396 98.14 70.3335 96.6673 70.3335H90.0006V49.0002C90.0006 46.791 88.2097 45.0002 86.0006 45.0002H84.6673V43.6668C84.6673 42.9304 85.2642 42.3335 86.0006 42.3335H88.0806C89.0413 43.9526 90.7845 44.9453 92.6673 44.9453C94.55 44.9453 96.2932 43.9526 97.2539 42.3335H98.0006C98.737 42.3335 99.3339 42.9304 99.3339 43.6668V67.6668Z" fill="url(#paint1_linear)"/>
<path d="M28.667 55.6671C29.4033 55.6671 30.0003 55.0701 30.0003 54.3337C30.0003 48.6804 35.5736 46.3337 35.827 46.2404C36.5118 45.968 36.8461 45.1919 36.5736 44.5071C36.3012 43.8222 35.5251 43.488 34.8403 43.7604C34.5336 43.8804 27.3336 46.8537 27.3336 54.3337C27.3336 55.0701 27.9306 55.6671 28.667 55.6671Z" fill="url(#paint2_linear)"/>
<path d="M40.6667 43.6667C41.4031 43.6667 42 43.0697 42 42.3333C42 41.597 41.4031 41 40.6667 41C39.9303 41 39.3334 41.597 39.3334 42.3333C39.3334 43.0697 39.9303 43.6667 40.6667 43.6667Z" fill="url(#paint3_linear)"/>
</g>
<defs>
<linearGradient id="paint0_linear" x1="21.9955" y1="35.6616" x2="87.1596" y2="84.2163" gradientUnits="userSpaceOnUse">
<stop stop-color="#A83592"/>
<stop offset="1" stop-color="#4F4A9D"/>
</linearGradient>
<linearGradient id="paint1_linear" x1="72.6672" y1="34.3335" x2="119.163" y2="58.1221" gradientUnits="userSpaceOnUse">
<stop stop-color="#A83592"/>
<stop offset="1" stop-color="#4F4A9D"/>
</linearGradient>
<linearGradient id="paint2_linear" x1="27.3336" y1="43.6655" x2="38.966" y2="52.7133" gradientUnits="userSpaceOnUse">
<stop stop-color="#A83592"/>
<stop offset="1" stop-color="#4F4A9D"/>
</linearGradient>
<linearGradient id="paint3_linear" x1="39.3334" y1="41" x2="42" y2="43.6667" gradientUnits="userSpaceOnUse">
<stop stop-color="#A83592"/>
<stop offset="1" stop-color="#4F4A9D"/>
</linearGradient>
<clipPath id="clip0">
<rect width="80" height="80" fill="white" transform="translate(22 29)"/>
</clipPath>
</defs>
</svg>
