<svg width="102" height="109" viewBox="0 0 102 109" fill="none" xmlns="http://www.w3.org/2000/svg">
<circle cx="50" cy="50" r="50" fill="#FCF8F2"/>
<g opacity="0.65" clip-path="url(#clip0)">
<path d="M79.3334 109H63.3335C60.3921 109 58.0001 106.608 58.0001 103.667V68.9998C58.0001 66.0585 60.3921 63.6665 63.3335 63.6665H79.3334C82.2748 63.6665 84.6668 66.0585 84.6668 68.9998V103.667C84.6668 106.608 82.2748 109 79.3334 109ZM63.3335 66.3332C61.8628 66.3332 60.6668 67.5292 60.6668 68.9998V103.667C60.6668 105.137 61.8628 106.333 63.3335 106.333H79.3334C80.8041 106.333 82.0001 105.137 82.0001 103.667V68.9998C82.0001 67.5292 80.8041 66.3332 79.3334 66.3332H63.3335Z" fill="url(#paint0_linear)"/>
<path d="M79.3333 66.3335H63.3333C62.5973 66.3335 62 65.7362 62 65.0002V61.8042C62 59.8895 63.556 58.3335 65.4707 58.3335H77.1973C79.1107 58.3335 80.6667 59.8895 80.6667 61.8042V65.0002C80.6667 65.7362 80.0693 66.3335 79.3333 66.3335ZM64.6667 63.6668H78V61.8042C78 61.3615 77.64 61.0002 77.196 61.0002H65.4693C65.0267 61.0002 64.6667 61.3615 64.6667 61.8042V63.6668Z" fill="url(#paint1_linear)"/>
<path d="M74 61.0002H68.6667C67.9307 61.0002 67.3334 60.4028 67.3334 59.6668V51.6668C67.3334 50.9308 67.9307 50.3335 68.6667 50.3335H74C74.736 50.3335 75.3334 50.9308 75.3334 51.6668V59.6668C75.3334 60.4028 74.736 61.0002 74 61.0002ZM70 58.3335H72.6667V53.0002H70V58.3335Z" fill="url(#paint2_linear)"/>
<path d="M74 52.9998H63.3333C62.5973 52.9998 62 52.4025 62 51.6665V40.9998C62 40.2638 62.5973 39.6665 63.3333 39.6665H74C77.676 39.6665 80.6667 42.6572 80.6667 46.3332C80.6667 50.0092 77.676 52.9998 74 52.9998ZM64.6667 50.3332H74C76.2053 50.3332 78 48.5385 78 46.3332C78 44.1278 76.2053 42.3332 74 42.3332H64.6667V50.3332Z" fill="url(#paint3_linear)"/>
<path d="M63.3333 50.3335H58C57.264 50.3335 56.6666 49.7362 56.6666 49.0002V43.6668C56.6666 42.9308 57.264 42.3335 58 42.3335H63.3333C64.0693 42.3335 64.6666 42.9308 64.6666 43.6668V49.0002C64.6666 49.7362 64.0693 50.3335 63.3333 50.3335ZM59.3333 47.6668H62V45.0002H59.3333V47.6668Z" fill="url(#paint4_linear)"/>
<path d="M72.6668 95.6667H59.3335C58.5975 95.6667 58.0001 95.0693 58.0001 94.3333V78.3333C58.0001 77.5973 58.5975 77 59.3335 77H72.6668C73.4028 77 74.0001 77.5973 74.0001 78.3333V94.3333C74.0001 95.0693 73.4028 95.6667 72.6668 95.6667ZM60.6668 93H71.3334V79.6667H60.6668V93Z" fill="url(#paint5_linear)"/>
<path d="M83.3333 95.6667H78C77.264 95.6667 76.6666 95.0693 76.6666 94.3333V78.3333C76.6666 77.5973 77.264 77 78 77H83.3333C84.0693 77 84.6666 77.5973 84.6666 78.3333V94.3333C84.6666 95.0693 84.0693 95.6667 83.3333 95.6667ZM79.3333 93H82V79.6667H79.3333V93Z" fill="url(#paint6_linear)"/>
<path d="M67.3335 85.0001H59.3335C58.5975 85.0001 58.0001 84.4028 58.0001 83.6668C58.0001 82.9308 58.5975 82.3335 59.3335 82.3335H67.3335C68.0695 82.3335 68.6668 82.9308 68.6668 83.6668C68.6668 84.4028 68.0695 85.0001 67.3335 85.0001Z" fill="url(#paint7_linear)"/>
<path d="M64.6668 90.3332H59.3335C58.5975 90.3332 58.0001 89.7358 58.0001 88.9998C58.0001 88.2638 58.5975 87.6665 59.3335 87.6665H64.6668C65.4028 87.6665 66.0001 88.2638 66.0001 88.9998C66.0001 89.7358 65.4028 90.3332 64.6668 90.3332Z" fill="url(#paint8_linear)"/>
<path d="M43.3335 63.6667C41.1282 63.6667 39.3335 61.872 39.3335 59.6667V33C39.3335 30.7947 41.1282 29 43.3335 29C45.5388 29 47.3335 30.7947 47.3335 33V59.6667C47.3335 61.872 45.5388 63.6667 43.3335 63.6667ZM43.3335 31.6667C42.5975 31.6667 42.0002 32.2653 42.0002 33V59.6667C42.0002 60.4013 42.5975 61 43.3335 61C44.0695 61 44.6668 60.4013 44.6668 59.6667V33C44.6668 32.2653 44.0695 31.6667 43.3335 31.6667Z" fill="url(#paint9_linear)"/>
<path d="M45.9998 59.6667C45.2638 59.6667 44.6665 59.0693 44.6665 58.3333V34.3333C44.6665 33.5973 45.2638 33 45.9998 33C53.3518 33 59.3332 38.9813 59.3332 46.3333C59.3332 53.6853 53.3518 59.6667 45.9998 59.6667ZM47.3332 35.7493V56.9173C52.5878 56.2587 56.6665 51.7627 56.6665 46.3333C56.6665 40.904 52.5878 36.408 47.3332 35.7493Z" fill="url(#paint10_linear)"/>
</g>
<defs>
<linearGradient id="paint0_linear" x1="58.0001" y1="63.6665" x2="97.6231" y2="86.9741" gradientUnits="userSpaceOnUse">
<stop stop-color="#A83592"/>
<stop offset="1" stop-color="#4F4A9D"/>
</linearGradient>
<linearGradient id="paint1_linear" x1="62" y1="58.3335" x2="67.7931" y2="71.8507" gradientUnits="userSpaceOnUse">
<stop stop-color="#A83592"/>
<stop offset="1" stop-color="#4F4A9D"/>
</linearGradient>
<linearGradient id="paint2_linear" x1="67.3334" y1="50.3335" x2="77.5734" y2="58.0135" gradientUnits="userSpaceOnUse">
<stop stop-color="#A83592"/>
<stop offset="1" stop-color="#4F4A9D"/>
</linearGradient>
<linearGradient id="paint3_linear" x1="62" y1="39.6665" x2="74.6126" y2="57.3242" gradientUnits="userSpaceOnUse">
<stop stop-color="#A83592"/>
<stop offset="1" stop-color="#4F4A9D"/>
</linearGradient>
<linearGradient id="paint4_linear" x1="56.6666" y1="42.3335" x2="64.6666" y2="50.3335" gradientUnits="userSpaceOnUse">
<stop stop-color="#A83592"/>
<stop offset="1" stop-color="#4F4A9D"/>
</linearGradient>
<linearGradient id="paint5_linear" x1="58.0001" y1="77" x2="76.4472" y2="92.8118" gradientUnits="userSpaceOnUse">
<stop stop-color="#A83592"/>
<stop offset="1" stop-color="#4F4A9D"/>
</linearGradient>
<linearGradient id="paint6_linear" x1="76.6666" y1="77" x2="90.1839" y2="82.7931" gradientUnits="userSpaceOnUse">
<stop stop-color="#A83592"/>
<stop offset="1" stop-color="#4F4A9D"/>
</linearGradient>
<linearGradient id="paint7_linear" x1="58.0001" y1="82.3335" x2="59.255" y2="87.3531" gradientUnits="userSpaceOnUse">
<stop stop-color="#A83592"/>
<stop offset="1" stop-color="#4F4A9D"/>
</linearGradient>
<linearGradient id="paint8_linear" x1="58.0001" y1="87.6665" x2="59.6001" y2="92.4665" gradientUnits="userSpaceOnUse">
<stop stop-color="#A83592"/>
<stop offset="1" stop-color="#4F4A9D"/>
</linearGradient>
<linearGradient id="paint9_linear" x1="39.3335" y1="29" x2="54.5245" y2="32.5056" gradientUnits="userSpaceOnUse">
<stop stop-color="#A83592"/>
<stop offset="1" stop-color="#4F4A9D"/>
</linearGradient>
<linearGradient id="paint10_linear" x1="44.6665" y1="33" x2="67.1873" y2="45.3864" gradientUnits="userSpaceOnUse">
<stop stop-color="#A83592"/>
<stop offset="1" stop-color="#4F4A9D"/>
</linearGradient>
<clipPath id="clip0">
<rect width="80" height="80" fill="white" transform="translate(22 29)"/>
</clipPath>
</defs>
</svg>
