<svg width="102" height="109" viewBox="0 0 102 109" fill="none" xmlns="http://www.w3.org/2000/svg">
<circle cx="50" cy="50" r="50" fill="#FCF8F2"/>
<g opacity="0.65" clip-path="url(#clip0)">
<path d="M100.907 80.4935L97.8268 78.2402C96.5576 77.2911 95.9331 75.7067 96.2134 74.1469C96.4365 72.9481 96.5879 71.737 96.6668 70.5202C97.1147 62.3816 94.17 54.4213 88.5334 48.5335C82.7463 42.3979 74.5205 39.1686 66.1048 39.7284C57.6891 40.2883 49.9635 44.5787 45.0401 51.4269C44.6753 51.9327 44.183 52.3329 43.6134 52.5869C41.3 53.6381 39.3941 55.4176 38.1868 57.6535C37.8874 58.0651 37.8485 58.6113 38.0865 59.0611C38.3244 59.511 38.7978 59.7862 39.3065 59.7704C39.8152 59.7547 40.2705 59.4506 40.4801 58.9869C41.0387 57.9934 41.7495 57.0936 42.5868 56.3202C44.0435 60.3857 44.7483 64.6824 44.6668 69.0002C44.7404 73.2914 44.0356 77.5604 42.5868 81.6002C41.7518 80.8248 41.0412 79.9253 40.4801 78.9335C40.2705 78.4697 39.8152 78.1657 39.3065 78.15C38.7978 78.1342 38.3244 78.4094 38.0865 78.8592C37.8485 79.3091 37.8874 79.8553 38.1868 80.2669C39.3918 82.4615 41.258 84.2204 43.5201 85.2935C44.1716 85.5849 44.7332 86.0453 45.1468 86.6269C50.4367 93.9374 58.8965 98.2862 67.9201 98.3335H68.0134C73.0794 98.3341 78.0494 96.951 82.3868 94.3335C82.4375 94.3055 82.4865 94.2743 82.5334 94.2402C84.3102 93.1596 85.9683 91.8948 87.4801 90.4669C88.8571 89.1212 90.9974 88.9476 92.5734 90.0535L97.7601 93.8402C98.5737 94.4348 99.6531 94.5199 100.55 94.0603C101.447 93.6006 102.008 92.6746 102 91.6669V82.6535C102.002 81.8001 101.596 80.9971 100.907 80.4935ZM68.0134 95.6669H67.9201C59.7359 95.6405 52.0566 91.7067 47.2534 85.0802C46.6164 84.2393 45.7954 83.5552 44.8534 83.0802C46.5909 78.5937 47.4334 73.8104 47.3334 69.0002C47.44 64.1938 46.5973 59.4137 44.8534 54.9335C45.7837 54.4934 46.5901 53.829 47.2001 53.0002C51.6483 46.7837 58.6441 42.883 66.2707 42.3668C73.8972 41.8506 81.3548 44.7731 86.6001 50.3335C90.8155 54.7623 93.381 60.5053 93.8668 66.6002C89.7938 67.5136 86.2114 69.921 83.8268 73.3469C80.1734 78.3869 78.9468 85.1202 80.2668 92.3869C76.532 94.5149 72.3119 95.6446 68.0134 95.6669ZM99.3334 91.6669L94.1468 87.8669C91.5248 86.0042 87.9468 86.279 85.6401 88.5202C84.718 89.3818 83.7379 90.1792 82.7068 90.9069C81.8134 84.7735 82.9468 79.1735 85.9868 74.9735C87.9067 72.219 90.7414 70.2347 93.9868 69.3735V70.4002C93.9312 71.5085 93.811 72.6126 93.6268 73.7069C93.184 76.2545 94.2159 78.834 96.2934 80.3735L99.3334 82.6535V91.6669Z" fill="url(#paint0_linear)"/>
<path d="M62.2668 72.1732C63.6001 67.0799 62.5201 61.7199 59.1335 56.1732C58.7489 55.5496 57.9332 55.3531 57.3068 55.7332C57.0035 55.9181 56.7865 56.2163 56.7039 56.5617C56.6213 56.9071 56.68 57.2712 56.8668 57.5732C59.8535 62.4266 60.8668 67.0932 59.6935 71.4666C58.6482 75.422 56.1357 78.8308 52.6668 80.9999V56.4132C52.6629 56.1345 52.752 55.8623 52.9201 55.6399C56.9036 50.2707 63.3262 47.2725 70.0001 47.6666C70.4765 47.6904 70.9294 47.4583 71.1882 47.0576C71.447 46.657 71.4724 46.1488 71.2548 45.7243C71.0373 45.2999 70.6098 45.0237 70.1335 44.9999C62.5627 44.5565 55.2801 47.9671 50.7735 54.0666C50.2686 54.7445 49.9973 55.568 50.0001 56.4132V80.9999C49.9963 81.9564 50.5051 82.8417 51.3335 83.3199C52.1585 83.7962 53.1751 83.7962 54.0001 83.3199C58.0858 80.8048 61.0461 76.8131 62.2668 72.1732Z" fill="url(#paint1_linear)"/>
<path d="M23.3333 70.3335H37.7333L30.3333 78.7869C29.9879 79.1801 29.9045 79.7389 30.1199 80.2159C30.3354 80.6928 30.81 80.9996 31.3333 81.0002C31.7163 80.9997 32.0806 80.8346 32.3333 80.5469L41.6667 69.8802C42.1089 69.3769 42.1089 68.6236 41.6667 68.1202L32.3333 57.4535C32.0258 57.0718 31.5336 56.8895 31.0516 56.979C30.5696 57.0684 30.1756 57.4152 30.0256 57.8819C29.8756 58.3486 29.9937 58.86 30.3333 59.2135L37.7333 67.6669H23.3333C22.597 67.6669 22 68.2638 22 69.0002C22 69.7366 22.597 70.3335 23.3333 70.3335Z" fill="url(#paint2_linear)"/>
<path d="M73.7067 89.0001C62.6934 91.4534 57.8267 86.9067 57.6001 86.6934C57.08 86.1764 56.2401 86.1764 55.7201 86.6934C55.4677 86.9437 55.3257 87.2845 55.3257 87.6401C55.3257 87.9956 55.4677 88.3364 55.7201 88.5867C55.9201 88.7734 59.6401 92.3867 67.5734 92.3867C69.8168 92.3664 72.0516 92.1072 74.2401 91.6134C74.7164 91.5086 75.1007 91.1576 75.2481 90.6927C75.3955 90.2278 75.2837 89.7195 74.9548 89.3594C74.6258 88.9992 74.1298 88.8419 73.6534 88.9467L73.7067 89.0001Z" fill="url(#paint3_linear)"/>
<path d="M75.3336 49.0002C76.0699 49.0002 76.6669 48.4032 76.6669 47.6668C76.6669 46.9305 76.0699 46.3335 75.3336 46.3335C74.5972 46.3335 74.0002 46.9305 74.0002 47.6668C74.0002 48.4032 74.5972 49.0002 75.3336 49.0002Z" fill="url(#paint4_linear)"/>
</g>
<defs>
<linearGradient id="paint0_linear" x1="37.9318" y1="39.666" x2="96.3725" y2="103.487" gradientUnits="userSpaceOnUse">
<stop stop-color="#A83592"/>
<stop offset="1" stop-color="#4F4A9D"/>
</linearGradient>
<linearGradient id="paint1_linear" x1="50.0001" y1="44.9614" x2="82.7851" y2="63.0847" gradientUnits="userSpaceOnUse">
<stop stop-color="#A83592"/>
<stop offset="1" stop-color="#4F4A9D"/>
</linearGradient>
<linearGradient id="paint2_linear" x1="22" y1="56.9565" x2="45.6414" y2="76.6202" gradientUnits="userSpaceOnUse">
<stop stop-color="#A83592"/>
<stop offset="1" stop-color="#4F4A9D"/>
</linearGradient>
<linearGradient id="paint3_linear" x1="55.3257" y1="86.3057" x2="58.7126" y2="97.4373" gradientUnits="userSpaceOnUse">
<stop stop-color="#A83592"/>
<stop offset="1" stop-color="#4F4A9D"/>
</linearGradient>
<linearGradient id="paint4_linear" x1="74.0002" y1="46.3335" x2="76.6669" y2="49.0002" gradientUnits="userSpaceOnUse">
<stop stop-color="#A83592"/>
<stop offset="1" stop-color="#4F4A9D"/>
</linearGradient>
<clipPath id="clip0">
<rect width="80" height="80" fill="white" transform="translate(22 29)"/>
</clipPath>
</defs>
</svg>
