<svg width="90" height="98" viewBox="0 0 90 98" fill="none" xmlns="http://www.w3.org/2000/svg">
<ellipse cx="45" cy="44.9541" rx="45" ry="44.9541" fill="#FCF8F2"/>
<path d="M58.1705 28.5795C58.066 28.475 57.942 28.3922 57.8055 28.3356C57.669 28.2791 57.5227 28.25 57.375 28.25H23.625C22.1337 28.2517 20.7039 28.8448 19.6494 29.8994C18.5948 30.9539 18.0017 32.3837 18 33.875V90.125C18.0017 91.6163 18.5948 93.0461 19.6494 94.1006C20.7039 95.1552 22.1337 95.7483 23.625 95.75H66.375C67.8663 95.7483 69.2961 95.1552 70.3506 94.1006C71.4052 93.0461 71.9983 91.6163 72 90.125V42.875C72 42.7273 71.9709 42.581 71.9144 42.4445C71.8578 42.308 71.775 42.184 71.6705 42.0795L58.1705 28.5795ZM58.5 32.0909L68.1591 41.75H61.875C60.9802 41.749 60.1224 41.393 59.4897 40.7603C58.857 40.1276 58.501 39.2698 58.5 38.375V32.0909ZM69.75 90.125C69.749 91.0198 69.393 91.8776 68.7603 92.5103C68.1276 93.143 67.2698 93.499 66.375 93.5H23.625C22.7302 93.499 21.8724 93.143 21.2397 92.5103C20.607 91.8776 20.251 91.0198 20.25 90.125V33.875C20.251 32.9802 20.607 32.1224 21.2397 31.4897C21.8724 30.857 22.7302 30.501 23.625 30.5H56.25V38.375C56.2517 39.8663 56.8448 41.2961 57.8994 42.3506C58.9539 43.4052 60.3837 43.9983 61.875 44H69.75V90.125Z" fill="url(#paint0_linear)"/>
<path d="M41.625 54.125C41.625 54.4234 41.7435 54.7095 41.9545 54.9205C42.1655 55.1315 42.4516 55.25 42.75 55.25H64.125C64.4234 55.25 64.7095 55.1315 64.9205 54.9205C65.1315 54.7095 65.25 54.4234 65.25 54.125C65.25 53.8266 65.1315 53.5405 64.9205 53.3295C64.7095 53.1185 64.4234 53 64.125 53H42.75C42.4516 53 42.1655 53.1185 41.9545 53.3295C41.7435 53.5405 41.625 53.8266 41.625 54.125Z" fill="url(#paint1_linear)"/>
<path d="M25.875 59.75H48.375C48.6734 59.75 48.9595 59.6315 49.1705 59.4205C49.3815 59.2095 49.5 58.9234 49.5 58.625C49.5 58.3266 49.3815 58.0405 49.1705 57.8295C48.9595 57.6185 48.6734 57.5 48.375 57.5H25.875C25.5766 57.5 25.2905 57.6185 25.0795 57.8295C24.8685 58.0405 24.75 58.3266 24.75 58.625C24.75 58.9234 24.8685 59.2095 25.0795 59.4205C25.2905 59.6315 25.5766 59.75 25.875 59.75Z" fill="url(#paint2_linear)"/>
<path d="M64.125 62H43.875C43.5766 62 43.2905 62.1185 43.0795 62.3295C42.8685 62.5405 42.75 62.8266 42.75 63.125C42.75 63.4234 42.8685 63.7095 43.0795 63.9205C43.2905 64.1315 43.5766 64.25 43.875 64.25H64.125C64.4234 64.25 64.7095 64.1315 64.9205 63.9205C65.1315 63.7095 65.25 63.4234 65.25 63.125C65.25 62.8266 65.1315 62.5405 64.9205 62.3295C64.7095 62.1185 64.4234 62 64.125 62Z" fill="url(#paint3_linear)"/>
<path d="M25.875 68.75H52.875C53.1734 68.75 53.4595 68.6315 53.6705 68.4205C53.8815 68.2095 54 67.9234 54 67.625C54 67.3266 53.8815 67.0405 53.6705 66.8295C53.4595 66.6185 53.1734 66.5 52.875 66.5H25.875C25.5766 66.5 25.2905 66.6185 25.0795 66.8295C24.8685 67.0405 24.75 67.3266 24.75 67.625C24.75 67.9234 24.8685 68.2095 25.0795 68.4205C25.2905 68.6315 25.5766 68.75 25.875 68.75Z" fill="url(#paint4_linear)"/>
<path d="M29.25 53C28.9516 53 28.6655 53.1185 28.4545 53.3295C28.2435 53.5405 28.125 53.8266 28.125 54.125C28.125 54.4234 28.2435 54.7095 28.4545 54.9205C28.6655 55.1315 28.9516 55.25 29.25 55.25H38.25C38.5484 55.25 38.8345 55.1315 39.0455 54.9205C39.2565 54.7095 39.375 54.4234 39.375 54.125C39.375 53.8266 39.2565 53.5405 39.0455 53.3295C38.8345 53.1185 38.5484 53 38.25 53H29.25Z" fill="url(#paint5_linear)"/>
<path d="M64.125 57.5H52.875C52.5766 57.5 52.2905 57.6185 52.0795 57.8295C51.8685 58.0405 51.75 58.3266 51.75 58.625C51.75 58.9234 51.8685 59.2095 52.0795 59.4205C52.2905 59.6315 52.5766 59.75 52.875 59.75H64.125C64.4234 59.75 64.7095 59.6315 64.9205 59.4205C65.1315 59.2095 65.25 58.9234 65.25 58.625C65.25 58.3266 65.1315 58.0405 64.9205 57.8295C64.7095 57.6185 64.4234 57.5 64.125 57.5Z" fill="url(#paint6_linear)"/>
<path d="M25.875 64.25H39.375C39.6734 64.25 39.9595 64.1315 40.1705 63.9205C40.3815 63.7095 40.5 63.4234 40.5 63.125C40.5 62.8266 40.3815 62.5405 40.1705 62.3295C39.9595 62.1185 39.6734 62 39.375 62H25.875C25.5766 62 25.2905 62.1185 25.0795 62.3295C24.8685 62.5405 24.75 62.8266 24.75 63.125C24.75 63.4234 24.8685 63.7095 25.0795 63.9205C25.2905 64.1315 25.5766 64.25 25.875 64.25Z" fill="url(#paint7_linear)"/>
<path d="M64.125 66.5H57.375C57.0766 66.5 56.7905 66.6185 56.5795 66.8295C56.3685 67.0405 56.25 67.3266 56.25 67.625C56.25 67.9234 56.3685 68.2095 56.5795 68.4205C56.7905 68.6315 57.0766 68.75 57.375 68.75H64.125C64.4234 68.75 64.7095 68.6315 64.9205 68.4205C65.1315 68.2095 65.25 67.9234 65.25 67.625C65.25 67.3266 65.1315 67.0405 64.9205 66.8295C64.7095 66.6185 64.4234 66.5 64.125 66.5Z" fill="url(#paint8_linear)"/>
<path d="M25.875 73.25H34.875C35.1734 73.25 35.4595 73.1315 35.6705 72.9205C35.8815 72.7095 36 72.4234 36 72.125C36 71.8266 35.8815 71.5405 35.6705 71.3295C35.4595 71.1185 35.1734 71 34.875 71H25.875C25.5766 71 25.2905 71.1185 25.0795 71.3295C24.8685 71.5405 24.75 71.8266 24.75 72.125C24.75 72.4234 24.8685 72.7095 25.0795 72.9205C25.2905 73.1315 25.5766 73.25 25.875 73.25Z" fill="url(#paint9_linear)"/>
<path d="M39.375 71C39.0766 71 38.7905 71.1185 38.5795 71.3295C38.3685 71.5405 38.25 71.8266 38.25 72.125C38.25 72.4234 38.3685 72.7095 38.5795 72.9205C38.7905 73.1315 39.0766 73.25 39.375 73.25H50.625C50.9234 73.25 51.2095 73.1315 51.4205 72.9205C51.6315 72.7095 51.75 72.4234 51.75 72.125C51.75 71.8266 51.6315 71.5405 51.4205 71.3295C51.2095 71.1185 50.9234 71 50.625 71H39.375Z" fill="url(#paint10_linear)"/>
<path d="M25.875 45.125H28.125V47.375C28.125 47.6734 28.2435 47.9595 28.4545 48.1705C28.6655 48.3815 28.9516 48.5 29.25 48.5H33.75C34.0484 48.5 34.3345 48.3815 34.5455 48.1705C34.7565 47.9595 34.875 47.6734 34.875 47.375V45.125H37.125C37.4234 45.125 37.7095 45.0065 37.9205 44.7955C38.1315 44.5845 38.25 44.2984 38.25 44V39.5C38.25 39.2016 38.1315 38.9155 37.9205 38.7045C37.7095 38.4935 37.4234 38.375 37.125 38.375H34.875V36.125C34.875 35.8266 34.7565 35.5405 34.5455 35.3295C34.3345 35.1185 34.0484 35 33.75 35H29.25C28.9516 35 28.6655 35.1185 28.4545 35.3295C28.2435 35.5405 28.125 35.8266 28.125 36.125V38.375H25.875C25.5766 38.375 25.2905 38.4935 25.0795 38.7045C24.8685 38.9155 24.75 39.2016 24.75 39.5V44C24.75 44.2984 24.8685 44.5845 25.0795 44.7955C25.2905 45.0065 25.5766 45.125 25.875 45.125ZM27 40.625H29.25C29.5484 40.625 29.8345 40.5065 30.0455 40.2955C30.2565 40.0845 30.375 39.7984 30.375 39.5V37.25H32.625V39.5C32.625 39.7984 32.7435 40.0845 32.9545 40.2955C33.1655 40.5065 33.4516 40.625 33.75 40.625H36V42.875H33.75C33.4516 42.875 33.1655 42.9935 32.9545 43.2045C32.7435 43.4155 32.625 43.7016 32.625 44V46.25H30.375V44C30.375 43.7016 30.2565 43.4155 30.0455 43.2045C29.8345 42.9935 29.5484 42.875 29.25 42.875H27V40.625Z" fill="url(#paint11_linear)"/>
<path d="M46.125 75.5H25.875C25.5766 75.5 25.2905 75.6185 25.0795 75.8295C24.8685 76.0405 24.75 76.3266 24.75 76.625C24.75 76.9234 24.8685 77.2095 25.0795 77.4205C25.2905 77.6315 25.5766 77.75 25.875 77.75H46.125C46.4234 77.75 46.7095 77.6315 46.9205 77.4205C47.1315 77.2095 47.25 76.9234 47.25 76.625C47.25 76.3266 47.1315 76.0405 46.9205 75.8295C46.7095 75.6185 46.4234 75.5 46.125 75.5Z" fill="url(#paint12_linear)"/>
<path d="M64.125 71H55.125C54.8266 71 54.5405 71.1185 54.3295 71.3295C54.1185 71.5405 54 71.8266 54 72.125C54 72.4234 54.1185 72.7095 54.3295 72.9205C54.5405 73.1315 54.8266 73.25 55.125 73.25H64.125C64.4234 73.25 64.7095 73.1315 64.9205 72.9205C65.1315 72.7095 65.25 72.4234 65.25 72.125C65.25 71.8266 65.1315 71.5405 64.9205 71.3295C64.7095 71.1185 64.4234 71 64.125 71Z" fill="url(#paint13_linear)"/>
<path d="M55.125 86.75H50.625C50.3266 86.75 50.0405 86.8685 49.8295 87.0795C49.6185 87.2905 49.5 87.5766 49.5 87.875C49.5 88.1734 49.6185 88.4595 49.8295 88.6705C50.0405 88.8815 50.3266 89 50.625 89H55.125C55.4234 89 55.7095 88.8815 55.9205 88.6705C56.1315 88.4595 56.25 88.1734 56.25 87.875C56.25 87.5766 56.1315 87.2905 55.9205 87.0795C55.7095 86.8685 55.4234 86.75 55.125 86.75Z" fill="url(#paint14_linear)"/>
<path d="M64.125 86.75H59.625C59.3266 86.75 59.0405 86.8685 58.8295 87.0795C58.6185 87.2905 58.5 87.5766 58.5 87.875C58.5 88.1734 58.6185 88.4595 58.8295 88.6705C59.0405 88.8815 59.3266 89 59.625 89H64.125C64.4234 89 64.7095 88.8815 64.9205 88.6705C65.1315 88.4595 65.25 88.1734 65.25 87.875C65.25 87.5766 65.1315 87.2905 64.9205 87.0795C64.7095 86.8685 64.4234 86.75 64.125 86.75Z" fill="url(#paint15_linear)"/>
<path d="M65.1312 79.4968C64.9977 79.23 64.7638 79.027 64.4807 78.9327C64.1977 78.8384 63.8887 78.8603 63.6219 78.9938L57.1094 82.25H54.6953L53.8812 80.6218C53.8015 80.4624 53.685 80.3242 53.5414 80.2186C53.3978 80.113 53.2311 80.043 53.0552 80.0145C52.8792 79.9859 52.699 79.9996 52.5294 80.0544C52.3598 80.1091 52.2056 80.2034 52.0795 80.3294L49.8295 82.5794C49.6185 82.7904 49.5 83.0766 49.5 83.3749C49.5 83.6733 49.6185 83.9595 49.8295 84.1705C50.0405 84.3814 50.3267 84.5 50.625 84.5C50.9234 84.5 51.2096 84.3814 51.4205 84.1705L52.5669 83.0241L52.9939 83.8781C53.0873 84.065 53.2309 84.2221 53.4086 84.3319C53.5863 84.4418 53.7911 84.4999 54 84.4999H57.375C57.5497 84.5 57.722 84.4593 57.8782 84.3811L64.6282 81.0061C64.895 80.8727 65.0979 80.6387 65.1923 80.3556C65.2866 80.0726 65.2646 79.7637 65.1312 79.4968Z" fill="url(#paint16_linear)"/>
<defs>
<linearGradient id="paint0_linear" x1="18" y1="28.25" x2="83.8537" y2="80.9329" gradientUnits="userSpaceOnUse">
<stop stop-color="#A83592"/>
<stop offset="1" stop-color="#4F4A9D"/>
</linearGradient>
<linearGradient id="paint1_linear" x1="41.625" y1="53" x2="42.0497" y2="57.4596" gradientUnits="userSpaceOnUse">
<stop stop-color="#A83592"/>
<stop offset="1" stop-color="#4F4A9D"/>
</linearGradient>
<linearGradient id="paint2_linear" x1="24.75" y1="57.5" x2="25.1557" y2="61.9631" gradientUnits="userSpaceOnUse">
<stop stop-color="#A83592"/>
<stop offset="1" stop-color="#4F4A9D"/>
</linearGradient>
<linearGradient id="paint3_linear" x1="42.75" y1="62" x2="43.1955" y2="66.4554" gradientUnits="userSpaceOnUse">
<stop stop-color="#A83592"/>
<stop offset="1" stop-color="#4F4A9D"/>
</linearGradient>
<linearGradient id="paint4_linear" x1="24.75" y1="66.5" x2="25.0941" y2="70.9735" gradientUnits="userSpaceOnUse">
<stop stop-color="#A83592"/>
<stop offset="1" stop-color="#4F4A9D"/>
</linearGradient>
<linearGradient id="paint5_linear" x1="28.125" y1="53" x2="28.9904" y2="57.3269" gradientUnits="userSpaceOnUse">
<stop stop-color="#A83592"/>
<stop offset="1" stop-color="#4F4A9D"/>
</linearGradient>
<linearGradient id="paint6_linear" x1="51.75" y1="57.5" x2="52.4797" y2="61.8784" gradientUnits="userSpaceOnUse">
<stop stop-color="#A83592"/>
<stop offset="1" stop-color="#4F4A9D"/>
</linearGradient>
<linearGradient id="paint7_linear" x1="24.75" y1="62" x2="25.38" y2="66.41" gradientUnits="userSpaceOnUse">
<stop stop-color="#A83592"/>
<stop offset="1" stop-color="#4F4A9D"/>
</linearGradient>
<linearGradient id="paint8_linear" x1="56.25" y1="66.5" x2="57.3088" y2="70.7353" gradientUnits="userSpaceOnUse">
<stop stop-color="#A83592"/>
<stop offset="1" stop-color="#4F4A9D"/>
</linearGradient>
<linearGradient id="paint9_linear" x1="24.75" y1="71" x2="25.6154" y2="75.3269" gradientUnits="userSpaceOnUse">
<stop stop-color="#A83592"/>
<stop offset="1" stop-color="#4F4A9D"/>
</linearGradient>
<linearGradient id="paint10_linear" x1="38.25" y1="71" x2="38.9797" y2="75.3784" gradientUnits="userSpaceOnUse">
<stop stop-color="#A83592"/>
<stop offset="1" stop-color="#4F4A9D"/>
</linearGradient>
<linearGradient id="paint11_linear" x1="24.75" y1="35" x2="38.25" y2="48.5" gradientUnits="userSpaceOnUse">
<stop stop-color="#A83592"/>
<stop offset="1" stop-color="#4F4A9D"/>
</linearGradient>
<linearGradient id="paint12_linear" x1="24.75" y1="75.5" x2="25.1955" y2="79.9554" gradientUnits="userSpaceOnUse">
<stop stop-color="#A83592"/>
<stop offset="1" stop-color="#4F4A9D"/>
</linearGradient>
<linearGradient id="paint13_linear" x1="54" y1="71" x2="54.8654" y2="75.3269" gradientUnits="userSpaceOnUse">
<stop stop-color="#A83592"/>
<stop offset="1" stop-color="#4F4A9D"/>
</linearGradient>
<linearGradient id="paint14_linear" x1="49.5" y1="86.75" x2="50.85" y2="90.8" gradientUnits="userSpaceOnUse">
<stop stop-color="#A83592"/>
<stop offset="1" stop-color="#4F4A9D"/>
</linearGradient>
<linearGradient id="paint15_linear" x1="58.5" y1="86.75" x2="59.85" y2="90.8" gradientUnits="userSpaceOnUse">
<stop stop-color="#A83592"/>
<stop offset="1" stop-color="#4F4A9D"/>
</linearGradient>
<linearGradient id="paint16_linear" x1="49.5" y1="78.875" x2="53.0633" y2="88.8523" gradientUnits="userSpaceOnUse">
<stop stop-color="#A83592"/>
<stop offset="1" stop-color="#4F4A9D"/>
</linearGradient>
</defs>
</svg>
