<svg width="40" height="40" fill="none" xmlns="http://www.w3.org/2000/svg"><circle cx="20" cy="20" r="20" fill="url(#paint0_linear)"/><g clip-path="url(#clip0)" fill="#fff"><path d="M29.824 13.974L23.758 20l6.066 6.027c.11-.23.176-.483.176-.753V14.727c0-.27-.067-.524-.176-.753zm-1.582-1.005H11.758c-.27 0-.524.066-.753.176l7.752 7.713a1.76 1.76 0 002.486 0l7.752-7.713a1.738 1.738 0 00-.753-.176zm-18.066 1.005a1.73 1.73 0 00-.176.753v10.547c0 .27.066.523.176.753L16.242 20l-6.066-6.026z"/><path d="M22.93 20.828l-.858.858a2.933 2.933 0 01-4.143 0l-.858-.858-6.066 6.027c.23.11.482.176.753.176h16.484c.27 0 .524-.067.753-.176l-6.065-6.027z"/></g><defs><linearGradient id="paint0_linear" x1="0" y1="0" x2="40" y2="40" gradientUnits="userSpaceOnUse"><stop stop-color="#A83592"/><stop offset="1" stop-color="#4F4A9D"/></linearGradient><clipPath id="clip0"><path fill="#fff" transform="translate(10 10)" d="M0 0h20v20H0z"/></clipPath></defs></svg>