<svg width="90" height="98" fill="none" xmlns="http://www.w3.org/2000/svg"><ellipse cx="45" cy="44.954" rx="45" ry="44.954" fill="#FCF8F2"/><g clip-path="url(#clip0)"><path d="M59.627 60.324l-6.98-3.102a1.368 1.368 0 01-.811-1.249v-1.916a10.172 10.172 0 003.852-7.97V43.39a2.49 2.49 0 001.283-2.175v-.262c0-5.617-4.57-10.188-10.188-10.188h-2.567c-5.618 0-10.188 4.57-10.188 10.188v2.376c0 .812.35 1.548.958 2.018.104.08.212.15.326.211v.53c0 3.224 1.506 6.101 3.85 7.97v1.916c0 .54-.318 1.03-.81 1.249l-6.98 3.102a6.342 6.342 0 00-3.764 5.79v15.92a1.201 1.201 0 002.403 0v-15.92c0-.139.01-.276.024-.413l3.216 3.217c.5.5.777 1.166.777 1.874v11.243a1.201 1.201 0 002.402 0V70.792a5.02 5.02 0 00-1.48-3.573l-3.834-3.834c.345-.359.76-.656 1.231-.865l6.862-3.05 5.09 5.089v17.476a1.201 1.201 0 002.402 0V64.559l5.089-5.09 6.862 3.05c.471.21.886.507 1.231.866l-3.834 3.834a5.019 5.019 0 00-1.48 3.573v11.243a1.201 1.201 0 102.402 0V70.792c0-.708.276-1.374.777-1.874l3.216-3.216c.014.136.024.273.024.413v15.92a1.201 1.201 0 002.403 0v-15.92a6.343 6.343 0 00-3.764-5.79zM45.5 62.363l-4.465-4.466c.34-.571.531-1.232.531-1.924v-.488c1.211.509 2.54.79 3.934.79a10.13 10.13 0 003.934-.79v.488c0 .692.192 1.353.532 1.924L45.5 62.363zm0-8.49c-4.293 0-7.785-3.492-7.785-7.785v-.54c.75-.298 1.48-.77 2.181-1.417a1.201 1.201 0 10-1.63-1.765c-.6.554-1.2.913-1.783 1.065a.201.201 0 01-.032.006.243.243 0 01-.02-.109v-2.376c0-4.293 3.492-7.785 7.785-7.785h2.568c4.293 0 7.786 3.492 7.786 7.785v.262c0 .04-.024.073-.054.079-7.193 1.42-10.8-1.257-12.018-2.474a1.201 1.201 0 10-1.699 1.699c3.73 3.73 9.173 3.797 12.487 3.399v2.17c0 4.293-3.493 7.786-7.786 7.786z" fill="url(#paint0_linear)"/><path d="M26.16 53.79v-2.568a8.902 8.902 0 00-4.082-7.48 5.058 5.058 0 00-4.822-6.56 5.058 5.058 0 00-4.823 6.56 8.902 8.902 0 00-4.082 7.48v2.568a8.9 8.9 0 003.852 7.326v2.641c0 .521-.29.99-.755 1.223l-4.155 2.077a5.025 5.025 0 00-2.793 4.52v10.457a1.201 1.201 0 002.402 0v-9.938l1.957 1.957c.5.5.776 1.166.776 1.874v6.107a1.201 1.201 0 102.403 0v-6.107a5.02 5.02 0 00-1.48-3.573L7.834 69.63l-.04-.036a2.66 2.66 0 01.573-.388l4.155-2.078c.213-.106.411-.232.596-.371l2.937 2.937v12.34a1.201 1.201 0 002.402 0v-12.34l2.937-2.938c.185.14.383.266.595.372l1.146.573a1.201 1.201 0 001.074-2.148l-1.145-.573a1.36 1.36 0 01-.756-1.222v-2.642a8.9 8.9 0 003.852-7.326zm-8.904-14.205a2.653 2.653 0 012.608 3.123 8.873 8.873 0 00-2.608-.39c-.906 0-1.78.137-2.605.39a2.67 2.67 0 01-.046-.473 2.653 2.653 0 012.65-2.65zm0 5.135a6.51 6.51 0 016.502 6.502v.436c-5.001 1.53-7.982-2.273-8.109-2.44a1.202 1.202 0 00-1.81-.129c-1.147 1.147-2.27 1.7-3.08 1.967a6.507 6.507 0 016.497-6.336zm0 22.777l-2.776-2.776c.081-.31.125-.632.125-.964v-1.466a8.873 8.873 0 002.65.403c.923 0 1.814-.141 2.65-.403v1.466c0 .332.045.655.126.964l-2.775 2.776zm0-7.205a6.51 6.51 0 01-6.502-6.502v-.25c.958-.22 2.378-.73 3.86-1.922a10.84 10.84 0 002.227 1.621 9.554 9.554 0 004.59 1.185c.724 0 1.498-.084 2.316-.277a6.51 6.51 0 01-6.491 6.145z" fill="url(#paint1_linear)"/><path d="M83.707 64.489l-6.723-3.361a1.36 1.36 0 01-.755-1.222v-1.703a7.602 7.602 0 002.568-5.697v-1.368l.082.001a1.2 1.2 0 001.201-1.201V47.37c0-4.201-3.418-7.62-7.62-7.62h-2.568c-4.201 0-7.62 3.419-7.62 7.62v2.568a1.201 1.201 0 001.284 1.2v1.368a7.6 7.6 0 002.568 5.697v1.703c0 .52-.29.989-.756 1.222a1.2 1.2 0 101.074 2.149c.213-.107.411-.233.596-.372l2.937 2.937v16.192a1.201 1.201 0 002.402 0V65.841l2.937-2.936c.185.14.383.265.596.371l6.505 3.253-1.973 1.973a5.02 5.02 0 00-1.48 3.573v9.959a1.201 1.201 0 002.402 0v-9.96c0-.707.276-1.373.776-1.874l1.87-1.868c.056.217.087.444.087.676v13.026a1.201 1.201 0 002.402 0V69.008a5.025 5.025 0 00-2.792-4.52zm-19.033-16V47.37a5.224 5.224 0 015.218-5.218h2.568a5.224 5.224 0 015.218 5.218v1.335c-5.221-.282-8.373-2.314-8.403-2.334a1.198 1.198 0 00-1.516.15c-1.15 1.15-2.275 1.702-3.085 1.969zm6.502 15.156L68.4 60.87a3.8 3.8 0 00.126-.963v-.256a7.584 7.584 0 002.65.476c.932 0 1.825-.169 2.65-.476v.256c0 .33.045.654.126.964l-2.776 2.775zm0-5.921a5.224 5.224 0 01-5.218-5.218v-1.937c.841-.336 1.822-.87 2.819-1.72 1.261.656 3.9 1.79 7.617 2.165v1.492a5.224 5.224 0 01-5.218 5.218z" fill="url(#paint2_linear)"/></g><defs><linearGradient id="paint0_linear" x1="27.608" y1="30.764" x2="76.457" y2="64.075" gradientUnits="userSpaceOnUse"><stop stop-color="#A83592"/><stop offset="1" stop-color="#4F4A9D"/></linearGradient><linearGradient id="paint1_linear" x1="4.5" y1="37.183" x2="39.973" y2="53.866" gradientUnits="userSpaceOnUse"><stop stop-color="#A83592"/><stop offset="1" stop-color="#4F4A9D"/></linearGradient><linearGradient id="paint2_linear" x1="62.272" y1="39.75" x2="99.249" y2="60.351" gradientUnits="userSpaceOnUse"><stop stop-color="#A83592"/><stop offset="1" stop-color="#4F4A9D"/></linearGradient><clipPath id="clip0"><path fill="#fff" transform="translate(4.5 16)" d="M0 0h82v82H0z"/></clipPath></defs></svg>