<svg width="40" height="25" viewBox="0 0 40 25" fill="none" xmlns="http://www.w3.org/2000/svg">
<path d="M6.00752 25L3.96241 21.0327C5.66667 20.3275 6.81704 19.4458 7.41353 18.3879C8.01003 17.4181 8.30827 16.9332 8.30827 16.9332C8.30827 16.9332 7.88221 16.8451 7.03008 16.6688C6.17795 16.5806 5.198 16.272 4.09023 15.7431C3.06767 15.2141 2.13033 14.4207 1.2782 13.3627C0.426065 12.2166 0 10.6738 0 8.73426C0 6.26574 0.809524 4.19395 2.42857 2.51889C4.13283 0.755667 6.13534 -0.0818641 8.43609 0.00629725C10.9073 0.0944586 12.9524 1.06423 14.5714 2.91562C16.1905 4.767 17 7.10328 17 9.92443C17 13.3627 15.9774 16.4043 13.9323 19.0491C11.8872 21.7821 9.24561 23.7657 6.00752 25Z" fill="#4F4A9D"/>
<path d="M29.0075 25L26.9624 21.0327C28.6667 20.3275 29.817 19.4458 30.4135 18.3879C31.01 17.4181 31.3083 16.9332 31.3083 16.9332C31.3083 16.9332 30.8822 16.8451 30.0301 16.6688C29.1779 16.5806 28.198 16.272 27.0902 15.7431C26.0677 15.2141 25.1303 14.4207 24.2782 13.3627C23.4261 12.2166 23 10.6738 23 8.73426C23 6.26574 23.8095 4.19395 25.4286 2.51889C27.1328 0.755667 29.1353 -0.0818641 31.4361 0.00629725C33.9073 0.0944586 35.9524 1.06423 37.5714 2.91562C39.1905 4.767 40 7.10328 40 9.92443C40 13.3627 38.9774 16.4043 36.9323 19.0491C34.8872 21.7821 32.2456 23.7657 29.0075 25Z" fill="#4F4A9D"/>
</svg>
