<svg width="90" height="98" viewBox="0 0 90 98" fill="none" xmlns="http://www.w3.org/2000/svg">
<ellipse cx="45" cy="44.9541" rx="45" ry="44.9541" fill="white"/>
<g clip-path="url(#clip0)">
<path d="M77.8295 26H63.8043C63.2206 26 62.7475 26.4731 62.7475 27.0568C62.7475 27.6405 63.2206 28.1136 63.8043 28.1136H77.8295C78.4123 28.1136 78.8863 28.5876 78.8863 29.1704V50.4403C78.8863 51.0231 78.4123 51.4971 77.8295 51.4971H48.7526V50.9891C48.7526 48.9275 47.0755 47.2505 45.0141 47.2505C42.9527 47.2505 41.2756 48.9276 41.2756 50.9891V51.4971H30.5109C29.9273 51.4971 29.4541 51.9702 29.4541 52.5539C29.4541 53.1377 29.9273 53.6107 30.5109 53.6107H41.2756V72.234L38.7656 69.4209C37.2162 67.6845 34.9929 66.6886 32.6658 66.6886C31.7986 66.6886 31.0163 67.1337 30.5732 67.8793C30.1301 68.6248 30.1132 69.5248 30.5278 70.2866L34.7364 78.018C35.7797 79.9346 37.1104 81.6695 38.6916 83.174L43.1767 87.4416V89.7054C42.0797 89.9333 41.253 90.9072 41.253 92.0708V95.5841C41.253 96.9163 42.3368 98.0001 43.669 98.0001H60.3313C61.6636 98.0001 62.7475 96.9163 62.7475 95.5841V92.0708C62.7475 90.9323 61.9551 89.9778 60.8935 89.7234V87.3742C61.8566 86.1592 64.8431 81.7003 64.8431 73.1347V66.68C64.8431 64.6186 63.166 62.9416 61.1046 62.9416C60.4156 62.9416 59.7696 63.1289 59.2147 63.4553C58.6639 62.0762 57.3144 61.0992 55.741 61.0992C55.0521 61.0992 54.4062 61.2865 53.8513 61.6129C53.3004 60.2337 51.951 59.2567 50.3776 59.2567C49.7955 59.2567 49.2441 59.3903 48.7525 59.6286V53.611H77.8294C79.5775 53.611 80.9996 52.1887 80.9996 50.4408V29.1703C80.9998 27.4221 79.5776 26 77.8295 26V26ZM50.3777 61.3697C51.2738 61.3697 52.0028 62.0987 52.0028 62.9948V64.8374C52.0028 65.4211 52.4758 65.8942 53.0596 65.8942C53.6433 65.8942 54.1164 65.4211 54.1164 64.8374C54.1164 63.9413 54.8454 63.2123 55.7414 63.2123C56.6373 63.2123 57.3663 63.9413 57.3663 64.8374V66.6799C57.3663 67.2636 57.8394 67.7367 58.4231 67.7367C59.0069 67.7367 59.4799 67.2636 59.4799 66.6799C59.4799 65.7838 60.2089 65.0549 61.105 65.0549C62.0011 65.0549 62.7301 65.7838 62.7301 66.6799V73.1345C62.7301 82.2136 59.1032 86.2259 59.0703 86.2613C58.8841 86.4575 58.7803 86.7178 58.7803 86.9884V89.6545H56.2273C55.6435 89.6545 55.1705 90.1275 55.1705 90.7113C55.1705 91.295 55.6435 91.7681 56.2273 91.7681H60.3314C60.4983 91.7681 60.6342 91.9039 60.6342 92.0708V95.5841C60.6342 95.751 60.4983 95.8867 60.3314 95.8867H43.669C43.5021 95.8867 43.3664 95.751 43.3664 95.5841V92.0708C43.3664 91.9039 43.5021 91.7681 43.669 91.7681H52.0002C52.584 91.7681 53.057 91.295 53.057 90.7113C53.057 90.1275 52.584 89.6545 52.0002 89.6545H45.2903V86.9884C45.2903 86.699 45.1716 86.4223 44.9619 86.2228L40.1485 81.6428C38.7269 80.2901 37.5306 78.7306 36.5926 77.0074L32.384 69.2759C32.2846 69.0093 32.3839 68.8421 32.6657 68.8019C34.3912 68.8019 36.0396 69.5402 37.1883 70.8277L41.5034 75.6638C42.1157 76.3841 43.4183 75.9247 43.3888 74.9603V50.9891C43.3888 50.093 44.1178 49.364 45.0138 49.364C45.9098 49.364 46.6388 50.093 46.6388 50.9891V62.9948C46.6388 63.5785 47.1118 64.0516 47.6956 64.0516C48.2793 64.0516 48.7523 63.5785 48.7523 62.9948C48.7526 62.0987 49.4816 61.3697 50.3777 61.3697Z" fill="url(#paint0_linear)"/>
<path d="M26.2841 51.497H12.1703C11.5875 51.497 11.1135 51.023 11.1135 50.4402V29.1703C11.1135 28.5875 11.5875 28.1135 12.1703 28.1135H59.5775C60.1612 28.1135 60.6343 27.6404 60.6343 27.0567C60.6343 26.4729 60.1612 26 59.5775 26H12.1703C10.4221 26 9 27.4221 9 29.1703V50.4402C9 52.1882 10.4221 53.6105 12.1703 53.6105H26.2841C26.8677 53.6105 27.3409 53.1374 27.3409 52.5537C27.3409 51.9699 26.8678 51.497 26.2841 51.497Z" fill="url(#paint1_linear)"/>
<path d="M51.9548 39.0114C52.5757 38.4063 52.795 37.5181 52.527 36.6935C52.2591 35.8689 51.5595 35.2791 50.7014 35.1544L48.2409 34.7969C48.1927 34.7899 48.1509 34.7596 48.1292 34.7159L47.0287 32.4861C46.6451 31.7086 45.8681 31.2256 45.0009 31.2256C44.1338 31.2256 43.3567 31.7085 42.9729 32.4861L41.8724 34.716C41.8508 34.7596 41.8091 34.79 41.7612 34.7969L39.3001 35.1544C38.442 35.2791 37.7425 35.8689 37.4746 36.6935C37.2068 37.5181 37.426 38.4063 38.0468 39.0114L39.8276 40.7473C39.8625 40.7813 39.8783 40.8301 39.87 40.8782L39.4497 43.329C39.3032 44.1835 39.6479 45.031 40.3493 45.5406C41.0507 46.0504 41.9634 46.1164 42.7309 45.7129L44.932 44.5557C44.975 44.5329 45.0265 44.5329 45.0695 44.5557L47.2707 45.7129C47.6046 45.8883 47.9657 45.975 48.3251 45.975C48.792 45.975 49.2559 45.8286 49.6523 45.5406C50.3536 45.031 50.6983 44.1835 50.5516 43.329L50.1315 40.8782C50.1232 40.8303 50.139 40.7813 50.1739 40.7473L51.9548 39.0114ZM48.6988 39.234C48.1657 39.7536 47.9225 40.5019 48.0485 41.2356L48.4688 43.6866C48.4729 43.7114 48.4843 43.7772 48.4099 43.8311C48.3358 43.8851 48.2762 43.8538 48.2541 43.8423L46.0532 42.6853C45.7236 42.5119 45.3623 42.4254 45.0008 42.4254C44.6393 42.4254 44.2779 42.512 43.9485 42.6851L41.7475 43.8423C41.7253 43.8538 41.6661 43.8853 41.5916 43.8311C41.5172 43.7771 41.5284 43.7113 41.5328 43.6865L41.9531 41.2356C42.079 40.5018 41.8358 39.7535 41.3027 39.234L39.5221 37.4983C39.5041 37.4807 39.4563 37.434 39.4846 37.3467C39.513 37.2592 39.5792 37.2495 39.604 37.246L42.0651 36.8886C42.8018 36.7814 43.4381 36.3187 43.7675 35.6515L44.868 33.4217C44.8791 33.3991 44.9086 33.3393 45.0006 33.3393C45.0926 33.3393 45.122 33.3992 45.1332 33.4217L46.2337 35.6513C46.563 36.3189 47.1996 36.7814 47.9366 36.8887L50.3972 37.2462C50.4221 37.2498 50.4884 37.2594 50.5166 37.3468C50.545 37.4342 50.4972 37.4809 50.4792 37.4984L48.6988 39.234Z" fill="url(#paint2_linear)"/>
<path d="M29.4803 43.329L29.0599 40.8782C29.0516 40.8303 29.0675 40.7813 29.1025 40.7473L30.8831 39.0114C31.504 38.4063 31.7232 37.5181 31.4553 36.6935C31.1874 35.8689 30.488 35.2791 29.6297 35.1544L27.1691 34.7969C27.1208 34.7899 27.0792 34.7596 27.0576 34.7159L25.957 32.4861C25.5733 31.7086 24.7963 31.2256 23.9292 31.2256C23.0621 31.2256 22.285 31.7085 21.9013 32.4861L20.8009 34.7159C20.7792 34.7596 20.7375 34.7899 20.6895 34.7969L18.2286 35.1544C17.3705 35.2791 16.671 35.8689 16.4031 36.6935C16.1352 37.5181 16.3545 38.4063 16.9753 39.0114L18.756 40.7473C18.7909 40.7813 18.8068 40.8301 18.7985 40.8782L18.3782 43.329C18.2317 44.1836 18.5763 45.0312 19.2778 45.5406C19.9793 46.0505 20.8919 46.1162 21.6594 45.7129L23.8605 44.5557C23.9035 44.5331 23.955 44.5331 23.9981 44.5557L26.1993 45.7129C26.5332 45.8883 26.8943 45.975 27.2537 45.975C27.7206 45.975 28.1845 45.8286 28.581 45.5406C29.2821 45.031 29.6268 44.1835 29.4803 43.329ZM27.6274 39.2338C27.0941 39.7534 26.851 40.5016 26.9768 41.2354L27.3972 43.6864C27.4014 43.7111 27.4128 43.7769 27.3384 43.8309C27.2641 43.8852 27.2048 43.8537 27.1826 43.8422L24.9815 42.685C24.652 42.5117 24.2906 42.4252 23.9292 42.4252C23.5678 42.4252 23.2063 42.5119 22.8769 42.685L20.676 43.8422C20.6538 43.8537 20.5946 43.8851 20.5202 43.8309C20.4458 43.7771 20.457 43.7111 20.4614 43.6864L20.8817 41.2354C21.0076 40.5016 20.7645 39.7534 20.2313 39.2339L18.4508 37.498C18.4328 37.4804 18.3849 37.4338 18.4132 37.3464C18.4416 37.259 18.5078 37.2493 18.5326 37.2457L20.9937 36.8883C21.7303 36.7811 22.3667 36.3186 22.6962 35.6512L23.7968 33.4214C23.8079 33.3988 23.8374 33.339 23.9294 33.339C24.0213 33.339 24.0509 33.3989 24.062 33.4214L25.1625 35.6511C25.4918 36.3186 26.1282 36.7811 26.8652 36.8884L29.326 37.2459C29.3509 37.2495 29.417 37.2591 29.4454 37.3466C29.4738 37.4339 29.426 37.4806 29.408 37.4982L27.6274 39.2338Z" fill="url(#paint3_linear)"/>
<path d="M73.0256 39.0114C73.6464 38.4063 73.8658 37.5181 73.5978 36.6935C73.3299 35.8689 72.6303 35.2791 71.7722 35.1544L69.3117 34.7969C69.2633 34.7899 69.2217 34.7596 69.2 34.7159L68.0995 32.4861C67.7157 31.7086 66.9388 31.2256 66.0717 31.2256C65.2046 31.2256 64.4275 31.7085 64.0437 32.4861L62.9433 34.7158C62.9215 34.7595 62.8799 34.7899 62.8318 34.7969L60.3709 35.1544C59.5126 35.2791 58.8133 35.8689 58.5454 36.6936C58.2775 37.5183 58.4969 38.4065 59.1176 39.0114L60.8984 40.7473C60.9331 40.7813 60.9491 40.8301 60.9407 40.8782L60.5206 43.329C60.374 44.1836 60.7186 45.0312 61.4201 45.5408C62.1212 46.0505 63.0339 46.1165 63.8016 45.713L66.0026 44.5558C66.0455 44.5333 66.0973 44.5331 66.1402 44.5558L68.3414 45.713C68.6752 45.8884 69.0363 45.9752 69.3958 45.9752C69.8626 45.9752 70.3266 45.8288 70.723 45.5408C71.4243 45.0312 71.769 44.1836 71.6223 43.3292L71.2021 40.8784C71.1938 40.8304 71.2097 40.7815 71.2446 40.7474L73.0256 39.0114ZM69.7695 39.234C69.2364 39.7536 68.9933 40.5019 69.1193 41.2355L69.5396 43.6866C69.5437 43.7114 69.5551 43.7772 69.4807 43.8311C69.4066 43.8851 69.347 43.8538 69.3249 43.8423L67.124 42.6853C66.7945 42.5119 66.4331 42.4254 66.0717 42.4254C65.7103 42.4254 65.3487 42.512 65.0192 42.6851L62.8182 43.8423C62.7962 43.8538 62.7369 43.8852 62.6625 43.8311C62.5882 43.7772 62.5995 43.7114 62.6037 43.6865L63.0238 41.236C63.1498 40.5022 62.9068 39.7538 62.3737 39.234L60.5931 37.498C60.5752 37.4806 60.5273 37.4339 60.5557 37.3466C60.5842 37.2591 60.6503 37.2494 60.675 37.2459L63.1361 36.8884C63.8726 36.7813 64.5089 36.3187 64.8387 35.6513L65.9392 33.4216C65.9503 33.3989 65.98 33.3392 66.0718 33.3392C66.1636 33.3392 66.1932 33.3991 66.2043 33.4216L67.3048 35.6512C67.634 36.3187 68.2706 36.7813 69.0076 36.8886L71.4683 37.246C71.4932 37.2497 71.5594 37.2592 71.5877 37.3467C71.6162 37.434 71.5683 37.4807 71.5503 37.4983L69.7695 39.234Z" fill="url(#paint4_linear)"/>
</g>
<defs>
<linearGradient id="paint0_linear" x1="29.4541" y1="26" x2="97.6123" y2="74.7951" gradientUnits="userSpaceOnUse">
<stop stop-color="#A83592"/>
<stop offset="1" stop-color="#4F4A9D"/>
</linearGradient>
<linearGradient id="paint1_linear" x1="9" y1="26" x2="31.9625" y2="68.9421" gradientUnits="userSpaceOnUse">
<stop stop-color="#A83592"/>
<stop offset="1" stop-color="#4F4A9D"/>
</linearGradient>
<linearGradient id="paint2_linear" x1="37.3623" y1="31.2256" x2="52.1027" y2="46.4932" gradientUnits="userSpaceOnUse">
<stop stop-color="#A83592"/>
<stop offset="1" stop-color="#4F4A9D"/>
</linearGradient>
<linearGradient id="paint3_linear" x1="16.2908" y1="31.2256" x2="31.0311" y2="46.4931" gradientUnits="userSpaceOnUse">
<stop stop-color="#A83592"/>
<stop offset="1" stop-color="#4F4A9D"/>
</linearGradient>
<linearGradient id="paint4_linear" x1="58.4331" y1="31.2256" x2="73.1736" y2="46.4932" gradientUnits="userSpaceOnUse">
<stop stop-color="#A83592"/>
<stop offset="1" stop-color="#4F4A9D"/>
</linearGradient>
<clipPath id="clip0">
<rect width="72" height="72" fill="white" transform="translate(9 26)"/>
</clipPath>
</defs>
</svg>
