<svg width="20" height="20" viewBox="0 0 20 20" fill="none" xmlns="http://www.w3.org/2000/svg">
<circle cx="10" cy="10" r="10" fill="#292929"/>
<path d="M14.6102 7.08557C14.2493 6.65648 13.5828 6.48145 12.31 6.48145H7.68987C6.38797 6.48145 5.71023 6.66777 5.35061 7.12461C5 7.57003 5 8.22632 5 9.13464V10.8659C5 12.6256 5.416 13.5191 7.68987 13.5191H12.3101C13.4138 13.5191 14.0254 13.3646 14.4211 12.9859C14.8269 12.5976 15 11.9636 15 10.8659V9.13464C15 8.17674 14.9729 7.51657 14.6102 7.08557ZM11.42 10.2393L9.32203 11.3358C9.27513 11.3603 9.22384 11.3724 9.17261 11.3724C9.11461 11.3724 9.05674 11.3568 9.00548 11.3258C8.90897 11.2673 8.85003 11.1627 8.85003 11.0499V8.86393C8.85003 8.75128 8.90881 8.64677 9.00513 8.58825C9.10148 8.52974 9.22132 8.52574 9.32129 8.57767L11.4193 9.66709C11.526 9.72251 11.5931 9.8327 11.5932 9.95293C11.5934 10.0733 11.5266 10.1836 11.42 10.2393Z" fill="white"/>
</svg>
