<svg width="90" height="98" fill="none" xmlns="http://www.w3.org/2000/svg"><ellipse cx="45" cy="44.954" rx="45" ry="44.954" fill="#FCF8F2"/><path d="M58.17 28.58a1.126 1.126 0 00-.795-.33h-33.75A5.631 5.631 0 0018 33.875v56.25a5.631 5.631 0 005.625 5.625h42.75A5.631 5.631 0 0072 90.125v-47.25a1.126 1.126 0 00-.33-.795l-13.5-13.5zm.33 3.51l9.66 9.66h-6.285a3.379 3.379 0 01-3.375-3.375v-6.284zm11.25 58.035a3.379 3.379 0 01-3.375 3.375h-42.75a3.379 3.379 0 01-3.375-3.375v-56.25a3.379 3.379 0 013.375-3.375H56.25v7.875A5.631 5.631 0 0061.875 44h7.875v46.125z" fill="url(#paint0_linear)"/><path d="M41.625 54.125a1.125 1.125 0 001.125 1.125h21.375a1.125 1.125 0 100-2.25H42.75a1.125 1.125 0 00-1.125 1.125z" fill="url(#paint1_linear)"/><path d="M25.875 59.75h22.5a1.125 1.125 0 100-2.25h-22.5a1.125 1.125 0 100 2.25z" fill="url(#paint2_linear)"/><path d="M64.125 62h-20.25a1.125 1.125 0 100 2.25h20.25a1.125 1.125 0 100-2.25z" fill="url(#paint3_linear)"/><path d="M25.875 68.75h27a1.125 1.125 0 100-2.25h-27a1.125 1.125 0 100 2.25z" fill="url(#paint4_linear)"/><path d="M29.25 53a1.125 1.125 0 100 2.25h9a1.125 1.125 0 100-2.25h-9z" fill="url(#paint5_linear)"/><path d="M64.125 57.5h-11.25a1.125 1.125 0 100 2.25h11.25a1.125 1.125 0 100-2.25z" fill="url(#paint6_linear)"/><path d="M25.875 64.25h13.5a1.125 1.125 0 100-2.25h-13.5a1.125 1.125 0 100 2.25z" fill="url(#paint7_linear)"/><path d="M64.125 66.5h-6.75a1.125 1.125 0 100 2.25h6.75a1.125 1.125 0 100-2.25z" fill="url(#paint8_linear)"/><path d="M25.875 73.25h9a1.125 1.125 0 100-2.25h-9a1.125 1.125 0 100 2.25z" fill="url(#paint9_linear)"/><path d="M39.375 71a1.125 1.125 0 100 2.25h11.25a1.125 1.125 0 100-2.25h-11.25z" fill="url(#paint10_linear)"/><path d="M25.875 45.125h2.25v2.25A1.125 1.125 0 0029.25 48.5h4.5a1.125 1.125 0 001.125-1.125v-2.25h2.25A1.125 1.125 0 0038.25 44v-4.5a1.125 1.125 0 00-1.125-1.125h-2.25v-2.25A1.125 1.125 0 0033.75 35h-4.5a1.125 1.125 0 00-1.125 1.125v2.25h-2.25A1.125 1.125 0 0024.75 39.5V44a1.125 1.125 0 001.125 1.125zm1.125-4.5h2.25a1.125 1.125 0 001.125-1.125v-2.25h2.25v2.25a1.125 1.125 0 001.125 1.125H36v2.25h-2.25A1.125 1.125 0 0032.625 44v2.25h-2.25V44a1.125 1.125 0 00-1.125-1.125H27v-2.25z" fill="url(#paint11_linear)"/><path d="M46.125 75.5h-20.25a1.125 1.125 0 100 2.25h20.25a1.125 1.125 0 100-2.25z" fill="url(#paint12_linear)"/><path d="M64.125 71h-9a1.125 1.125 0 100 2.25h9a1.125 1.125 0 100-2.25z" fill="url(#paint13_linear)"/><path d="M55.125 86.75h-4.5a1.125 1.125 0 100 2.25h4.5a1.125 1.125 0 100-2.25z" fill="url(#paint14_linear)"/><path d="M64.125 86.75h-4.5a1.125 1.125 0 100 2.25h4.5a1.125 1.125 0 100-2.25z" fill="url(#paint15_linear)"/><path d="M65.131 79.497a1.125 1.125 0 00-1.51-.503L57.11 82.25h-2.414l-.814-1.628a1.125 1.125 0 00-1.801-.293l-2.25 2.25a1.125 1.125 0 001.59 1.592l1.147-1.147.427.854A1.124 1.124 0 0054 84.5h3.375c.175 0 .347-.04.503-.119l6.75-3.375a1.125 1.125 0 00.503-1.51z" fill="url(#paint16_linear)"/><defs><linearGradient id="paint0_linear" x1="18" y1="28.25" x2="83.854" y2="80.933" gradientUnits="userSpaceOnUse"><stop stop-color="#A83592"/><stop offset="1" stop-color="#4F4A9D"/></linearGradient><linearGradient id="paint1_linear" x1="41.625" y1="53" x2="42.05" y2="57.46" gradientUnits="userSpaceOnUse"><stop stop-color="#A83592"/><stop offset="1" stop-color="#4F4A9D"/></linearGradient><linearGradient id="paint2_linear" x1="24.75" y1="57.5" x2="25.156" y2="61.963" gradientUnits="userSpaceOnUse"><stop stop-color="#A83592"/><stop offset="1" stop-color="#4F4A9D"/></linearGradient><linearGradient id="paint3_linear" x1="42.75" y1="62" x2="43.196" y2="66.455" gradientUnits="userSpaceOnUse"><stop stop-color="#A83592"/><stop offset="1" stop-color="#4F4A9D"/></linearGradient><linearGradient id="paint4_linear" x1="24.75" y1="66.5" x2="25.094" y2="70.974" gradientUnits="userSpaceOnUse"><stop stop-color="#A83592"/><stop offset="1" stop-color="#4F4A9D"/></linearGradient><linearGradient id="paint5_linear" x1="28.125" y1="53" x2="28.99" y2="57.327" gradientUnits="userSpaceOnUse"><stop stop-color="#A83592"/><stop offset="1" stop-color="#4F4A9D"/></linearGradient><linearGradient id="paint6_linear" x1="51.75" y1="57.5" x2="52.48" y2="61.878" gradientUnits="userSpaceOnUse"><stop stop-color="#A83592"/><stop offset="1" stop-color="#4F4A9D"/></linearGradient><linearGradient id="paint7_linear" x1="24.75" y1="62" x2="25.38" y2="66.41" gradientUnits="userSpaceOnUse"><stop stop-color="#A83592"/><stop offset="1" stop-color="#4F4A9D"/></linearGradient><linearGradient id="paint8_linear" x1="56.25" y1="66.5" x2="57.309" y2="70.735" gradientUnits="userSpaceOnUse"><stop stop-color="#A83592"/><stop offset="1" stop-color="#4F4A9D"/></linearGradient><linearGradient id="paint9_linear" x1="24.75" y1="71" x2="25.615" y2="75.327" gradientUnits="userSpaceOnUse"><stop stop-color="#A83592"/><stop offset="1" stop-color="#4F4A9D"/></linearGradient><linearGradient id="paint10_linear" x1="38.25" y1="71" x2="38.98" y2="75.378" gradientUnits="userSpaceOnUse"><stop stop-color="#A83592"/><stop offset="1" stop-color="#4F4A9D"/></linearGradient><linearGradient id="paint11_linear" x1="24.75" y1="35" x2="38.25" y2="48.5" gradientUnits="userSpaceOnUse"><stop stop-color="#A83592"/><stop offset="1" stop-color="#4F4A9D"/></linearGradient><linearGradient id="paint12_linear" x1="24.75" y1="75.5" x2="25.195" y2="79.955" gradientUnits="userSpaceOnUse"><stop stop-color="#A83592"/><stop offset="1" stop-color="#4F4A9D"/></linearGradient><linearGradient id="paint13_linear" x1="54" y1="71" x2="54.865" y2="75.327" gradientUnits="userSpaceOnUse"><stop stop-color="#A83592"/><stop offset="1" stop-color="#4F4A9D"/></linearGradient><linearGradient id="paint14_linear" x1="49.5" y1="86.75" x2="50.85" y2="90.8" gradientUnits="userSpaceOnUse"><stop stop-color="#A83592"/><stop offset="1" stop-color="#4F4A9D"/></linearGradient><linearGradient id="paint15_linear" x1="58.5" y1="86.75" x2="59.85" y2="90.8" gradientUnits="userSpaceOnUse"><stop stop-color="#A83592"/><stop offset="1" stop-color="#4F4A9D"/></linearGradient><linearGradient id="paint16_linear" x1="49.5" y1="78.875" x2="53.063" y2="88.852" gradientUnits="userSpaceOnUse"><stop stop-color="#A83592"/><stop offset="1" stop-color="#4F4A9D"/></linearGradient></defs></svg>