<svg width="81" height="80" fill="none" xmlns="http://www.w3.org/2000/svg"><circle cx="40.5" cy="40" r="40" fill="url(#paint0_linear)"/><g clip-path="url(#clip0)"><path d="M41.195 44.6c-3.43-2.82-5.72-6.3-6.924-8.28l-.898-1.693c.314-.337 2.709-2.902 3.747-4.293 1.304-1.747-.587-3.325-.587-3.325s-5.32-5.321-6.533-6.377-2.608-.47-2.608-.47c-2.549 1.647-5.19 3.079-5.35 9.964-.005 6.446 4.888 13.095 10.18 18.242C37.522 54.18 44.799 60.007 51.834 60c6.884-.157 8.316-2.798 9.962-5.347 0 0 .588-1.395-.468-2.608-1.057-1.214-6.379-6.535-6.379-6.535s-1.576-1.891-3.324-.586c-1.302.974-3.64 3.139-4.204 3.664 0 .002-3.911-2.084-6.226-3.987z" fill="#fff"/></g><defs><linearGradient id="paint0_linear" x1=".5" y1="0" x2="80.5" y2="80" gradientUnits="userSpaceOnUse"><stop stop-color="#A83592"/><stop offset="1" stop-color="#4F4A9D"/></linearGradient><clipPath id="clip0"><path fill="#fff" transform="translate(22 20)" d="M0 0h40v40H0z"/></clipPath></defs></svg>