<svg width="91" height="98" fill="none" xmlns="http://www.w3.org/2000/svg"><ellipse cx="45.5" cy="44.954" rx="45" ry="44.954" fill="#FCF8F2"/><g clip-path="url(#clip0)"><path d="M46 39.12a9.58 9.58 0 00-5.488 1.716c-.478.331-.6.99-.27 1.473.33.482.984.604 1.462.272A7.504 7.504 0 0146 41.24c4.184 0 7.588 3.43 7.588 7.645 0 4.216-3.404 7.645-7.588 7.645s-7.588-3.43-7.588-7.645c0-1.243.286-2.429.852-3.523a1.063 1.063 0 00-.448-1.429 1.048 1.048 0 00-1.418.45 9.85 9.85 0 00-1.09 4.502c0 5.384 4.348 9.765 9.692 9.765s9.691-4.38 9.691-9.765c0-5.384-4.347-9.764-9.691-9.764z" fill="url(#paint0_linear)"/><path d="M81.92 96.533L71.54 71.41a1.051 1.051 0 00-.97-.653H60.227c2.011-2.742 3.686-5.473 4.994-8.154 2.317-4.752 3.492-9.368 3.492-13.718C68.714 36.266 58.524 26 46 26S23.287 36.266 23.287 48.884c0 4.35 1.175 8.965 3.492 13.718 1.308 2.681 2.983 5.412 4.994 8.154H21.431c-.425 0-.808.258-.971.653l-7.072 17.12a1.062 1.062 0 00.97 1.467c.412 0 .803-.246.971-.653l1.01-2.443h7.158l-3.71 8.98H12.63l1.075-2.602c.223-.54-.03-1.16-.567-1.386a1.048 1.048 0 00-1.375.571l-1.68 4.07c-.136.327-.1.7.095.995.195.295.523.472.875.472H80.95c.351 0 .68-.177.875-.472a1.07 1.07 0 00.096-.995zM25.39 48.884c0-11.45 9.246-20.765 20.61-20.765 11.365 0 20.61 9.315 20.61 20.765 0 4.801-1.655 12.474-9.315 22.251l-.022.028a70.29 70.29 0 01-1.22 1.513c-4.21 5.072-8.47 8.775-10.053 10.09-1.578-1.311-5.818-4.996-10.024-10.057a69.87 69.87 0 01-1.25-1.548c-.006-.008-.012-.017-.02-.025-7.659-9.776-9.316-17.449-9.316-22.252zm-3.258 23.991h7.159l-2.611 6.321h-7.16l2.611-6.32zm6.15 23.006l6.572-15.911L53.56 95.88H28.281zm28.537 0L35.114 77.417a1.045 1.045 0 00-1.65.402l-7.46 18.062h-3.939l3.98-9.633c.135-.327.099-.7-.097-.995a1.05 1.05 0 00-.874-.472h-7.86l1.432-3.466h8.735c.425 0 .808-.258.97-.653l3.218-7.787h1.825c.317.398.639.796.97 1.194 5.425 6.53 10.768 10.721 10.993 10.897a1.044 1.044 0 001.287 0c.123-.097 1.794-1.408 4.173-3.651h11.908c.58 0 1.051-.474 1.051-1.06 0-.585-.47-1.059-1.051-1.059h-9.741a81.267 81.267 0 004.654-5.127c.33-.398.653-.796.97-1.194h11.26l2.612 6.321h-5.55c-.58 0-1.051.474-1.051 1.06 0 .585.47 1.059 1.051 1.059h6.424l1.432 3.466H53.12c-.44 0-.832.275-.985.69-.154.413-.036.88.295 1.17l10.566 9.24H56.82zm9.387 0l-10.27-8.98h19.726l3.71 8.98H66.206z" fill="url(#paint1_linear)"/></g><defs><linearGradient id="paint0_linear" x1="36.309" y1="39.12" x2="55.837" y2="58.502" gradientUnits="userSpaceOnUse"><stop stop-color="#A83592"/><stop offset="1" stop-color="#4F4A9D"/></linearGradient><linearGradient id="paint1_linear" x1="10.001" y1="26" x2="82.001" y2="98" gradientUnits="userSpaceOnUse"><stop stop-color="#A83592"/><stop offset="1" stop-color="#4F4A9D"/></linearGradient><clipPath id="clip0"><path fill="#fff" transform="translate(10 26)" d="M0 0h72v72H0z"/></clipPath></defs></svg>