<svg width="81" height="80" fill="none" xmlns="http://www.w3.org/2000/svg"><circle cx="40" cy="40" r="40" fill="url(#paint0_linear)"/><path d="M41.127 20.006V20c-.043 0-.085.003-.127.003-.042 0-.084-.003-.127-.003v.006c-8.594.137-15.52 7.141-15.52 15.767C25.354 47.398 39.003 58.433 41 60c2-1.568 15.647-12.602 15.647-24.227 0-8.626-6.926-15.63-15.52-15.767zm0 22.553a8.14 8.14 0 110-16.282 8.141 8.141 0 110 16.282z" fill="#fff"/><defs><linearGradient id="paint0_linear" x1="0" y1="0" x2="80" y2="80" gradientUnits="userSpaceOnUse"><stop stop-color="#A83592"/><stop offset="1" stop-color="#4F4A9D"/></linearGradient></defs></svg>