<svg width="80" height="80" fill="none" xmlns="http://www.w3.org/2000/svg"><circle cx="40" cy="40" r="40" fill="url(#paint0_linear)"/><path d="M39.5 20.75c-10.338 0-18.75 8.411-18.75 18.75s8.412 18.75 18.75 18.75c10.339 0 18.75-8.411 18.75-18.75S49.84 20.75 39.5 20.75zm0 33.75c-8.27 0-15-6.73-15-15s6.73-15 15-15 15 6.73 15 15-6.73 15-15 15z" fill="#fff"/><path d="M41.375 30.125h-3.75v10.151l6.175 6.175 2.65-2.652-5.075-5.075v-8.599z" fill="#fff"/><defs><linearGradient id="paint0_linear" x1="0" y1="0" x2="80" y2="80" gradientUnits="userSpaceOnUse"><stop stop-color="#A83592"/><stop offset="1" stop-color="#4F4A9D"/></linearGradient></defs></svg>