<svg width="237" height="210" viewBox="0 0 237 210" fill="none" xmlns="http://www.w3.org/2000/svg">
<g opacity="0.05">
<path d="M79.2417 124.637C79.2312 119.62 80.203 114.651 82.1013 110.014C83.9996 105.377 86.7872 101.164 90.304 97.6157C93.8209 94.0676 97.9978 91.2547 102.595 89.3384C107.193 87.422 112.12 86.4398 117.095 86.4483C122.069 86.4398 126.997 87.422 131.594 89.3384C136.191 91.2547 140.368 94.0676 143.885 97.6157C147.402 101.164 150.189 105.377 152.088 110.014C153.986 114.651 154.958 119.62 154.947 124.637C154.947 145.781 138.056 162.509 117.095 162.509C96.1368 162.509 79.2417 145.465 79.2417 124.637ZM167.152 124.637C167.152 96.864 144.619 74.1406 117.078 74.1406C89.537 74.1406 67.0036 96.864 67.0036 124.637C67.0036 152.41 89.537 175.133 117.078 175.133C144.619 174.817 167.152 152.41 167.152 124.637Z" fill="#4F4A9D"/>
<path d="M100.387 124.639C100.387 129.103 102.146 133.384 105.276 136.541C108.406 139.697 112.652 141.471 117.079 141.471C121.505 141.471 125.751 139.697 128.881 136.541C132.011 133.384 133.77 129.103 133.77 124.639C133.77 120.175 132.011 115.893 128.881 112.737C125.751 109.58 121.505 107.807 117.079 107.807C112.652 107.807 108.406 109.58 105.276 112.737C102.146 115.893 100.387 120.175 100.387 124.639Z" fill="#AE9CCC"/>
<path d="M173.827 203.75C173.827 205.089 174.355 206.374 175.294 207.321C176.233 208.268 177.507 208.8 178.835 208.8C180.163 208.8 181.437 208.268 182.376 207.321C183.315 206.374 183.842 205.089 183.842 203.75C183.842 202.41 183.315 201.126 182.376 200.179C181.437 199.232 180.163 198.7 178.835 198.7C177.507 198.7 176.233 199.232 175.294 200.179C174.355 201.126 173.827 202.41 173.827 203.75Z" fill="url(#paint0_linear)"/>
<path d="M73.6806 175.136C73.6806 176.921 74.384 178.634 75.6361 179.897C76.8882 181.159 78.5864 181.869 80.3571 181.869C82.1279 181.869 83.8261 181.159 85.0782 179.897C86.3303 178.634 87.0337 176.921 87.0337 175.136C87.0337 173.35 86.3303 171.637 85.0782 170.375C83.8261 169.112 82.1279 168.403 80.3571 168.403C78.5864 168.403 76.8882 169.112 75.6361 170.375C74.384 171.637 73.6806 173.35 73.6806 175.136Z" fill="url(#paint1_linear)"/>
<path d="M163.813 80.8735C163.813 82.6591 164.516 84.3717 165.768 85.6343C167.02 86.897 168.719 87.6063 170.489 87.6063C172.26 87.6063 173.958 86.897 175.21 85.6343C176.463 84.3717 177.166 82.6591 177.166 80.8735C177.166 79.0878 176.463 77.3753 175.21 76.1126C173.958 74.85 172.26 74.1406 170.489 74.1406C168.719 74.1406 167.021 74.85 165.768 76.1126C164.516 77.3753 163.813 79.0878 163.813 80.8735Z" fill="url(#paint2_linear)"/>
<path d="M150.462 175.136C150.462 176.921 151.165 178.634 152.417 179.897C153.669 181.159 155.368 181.869 157.138 181.869C158.909 181.869 160.607 181.159 161.859 179.897C163.112 178.634 163.815 176.921 163.815 175.136C163.815 173.35 163.112 171.637 161.859 170.375C160.607 169.112 158.909 168.403 157.138 168.403C155.368 168.403 153.669 169.112 152.417 170.375C151.165 171.637 150.462 173.35 150.462 175.136Z" fill="url(#paint3_linear)"/>
<path d="M163.813 161.67C163.813 163.456 164.516 165.168 165.768 166.431C167.02 167.693 168.719 168.403 170.489 168.403C172.26 168.403 173.958 167.693 175.21 166.431C176.463 165.168 177.166 163.456 177.166 161.67C177.166 159.884 176.463 158.172 175.21 156.909C173.958 155.646 172.26 154.937 170.489 154.937C168.719 154.937 167.021 155.646 165.768 156.909C164.516 158.172 163.813 159.884 163.813 161.67Z" fill="url(#paint4_linear)"/>
<path d="M170.492 183.55C170.492 185.782 171.371 187.923 172.936 189.501C174.501 191.08 176.624 191.966 178.837 191.966C181.051 191.966 183.174 191.08 184.739 189.501C186.304 187.923 187.183 185.782 187.183 183.55C187.183 181.318 186.304 179.178 184.739 177.599C183.174 176.021 181.051 175.134 178.837 175.134C176.624 175.134 174.501 176.021 172.936 177.599C171.371 179.178 170.492 181.318 170.492 183.55Z" fill="url(#paint5_linear)"/>
<path d="M197.196 183.553C197.196 184.892 197.724 186.177 198.663 187.124C199.602 188.071 200.876 188.603 202.204 188.603C203.532 188.603 204.805 188.071 205.745 187.124C206.684 186.177 207.211 184.892 207.211 183.553C207.211 182.214 206.684 180.929 205.745 179.982C204.805 179.035 203.532 178.503 202.204 178.503C200.876 178.503 199.602 179.035 198.663 179.982C197.724 180.929 197.196 182.214 197.196 183.553Z" fill="url(#paint6_linear)"/>
<path d="M73.6806 67.4091C73.6806 69.1948 74.384 70.9073 75.6361 72.1699C76.8882 73.4326 78.5864 74.142 80.3571 74.142C82.1279 74.142 83.8261 73.4326 85.0782 72.1699C86.3303 70.9073 87.0337 69.1948 87.0337 67.4091C87.0337 65.6235 86.3303 63.9109 85.0782 62.6483C83.8261 61.3856 82.1279 60.6763 80.3571 60.6763C78.5864 60.6763 76.8882 61.3856 75.6361 62.6483C74.384 63.9109 73.6806 65.6234 73.6806 67.4091Z" fill="url(#paint7_linear)"/>
<path d="M130.431 57.3119C130.431 59.0976 131.134 60.8101 132.386 62.0728C133.638 63.3354 135.337 64.0448 137.107 64.0448C138.878 64.0448 140.576 63.3354 141.828 62.0728C143.081 60.8101 143.784 59.0976 143.784 57.3119C143.784 55.5263 143.081 53.8138 141.828 52.5511C140.576 51.2885 138.878 50.5791 137.107 50.5791C135.337 50.5791 133.638 51.2885 132.386 52.5511C131.134 53.8138 130.431 55.5263 130.431 57.3119Z" fill="url(#paint8_linear)"/>
<path d="M150.462 67.4091C150.462 69.1948 151.165 70.9073 152.417 72.1699C153.669 73.4326 155.368 74.142 157.138 74.142C158.909 74.142 160.607 73.4326 161.859 72.1699C163.112 70.9073 163.815 69.1948 163.815 67.4091C163.815 65.6235 163.112 63.9109 161.859 62.6483C160.607 61.3856 158.909 60.6763 157.138 60.6763C155.368 60.6763 153.669 61.3856 152.417 62.6483C151.165 63.9109 150.462 65.6234 150.462 67.4091Z" fill="url(#paint9_linear)"/>
<path d="M90.3712 57.3119C90.3712 59.0976 91.0747 60.8101 92.3268 62.0728C93.5789 63.3354 95.2771 64.0448 97.0478 64.0448C98.8185 64.0448 100.517 63.3354 101.769 62.0728C103.021 60.8101 103.724 59.0976 103.724 57.3119C103.724 55.5263 103.021 53.8138 101.769 52.5511C100.517 51.2885 98.8185 50.5791 97.0478 50.5791C95.2771 50.5791 93.5789 51.2885 92.3268 52.5511C91.0747 53.8138 90.3712 55.5263 90.3712 57.3119Z" fill="url(#paint10_linear)"/>
<path d="M110.402 53.9438C110.402 55.7294 111.106 57.442 112.358 58.7046C113.61 59.9673 115.308 60.6766 117.079 60.6766C118.85 60.6766 120.548 59.9673 121.8 58.7046C123.052 57.442 123.755 55.7294 123.755 53.9438C123.755 52.1581 123.052 50.4456 121.8 49.1829C120.548 47.9203 118.85 47.2109 117.079 47.2109C115.308 47.2109 113.61 47.9203 112.358 49.1829C111.106 50.4456 110.402 52.1581 110.402 53.9438Z" fill="url(#paint11_linear)"/>
<path d="M147.124 45.5298C147.124 47.7619 148.003 49.9026 149.568 51.4809C151.133 53.0592 153.256 53.9459 155.469 53.9459C157.683 53.9459 159.805 53.0592 161.371 51.4809C162.936 49.9026 163.815 47.7619 163.815 45.5298C163.815 43.2977 162.936 41.1571 161.371 39.5788C159.805 38.0005 157.683 37.1138 155.469 37.1138C153.256 37.1138 151.133 38.0005 149.568 39.5788C148.003 41.1571 147.124 43.2977 147.124 45.5298Z" fill="url(#paint12_linear)"/>
<path d="M123.756 35.4297C123.756 37.6618 124.635 39.8025 126.2 41.3808C127.765 42.9591 129.888 43.8458 132.101 43.8458C134.315 43.8458 136.437 42.9591 138.003 41.3808C139.568 39.8025 140.447 37.6618 140.447 35.4297C140.447 33.1976 139.568 31.057 138.003 29.4787C136.437 27.9004 134.315 27.0137 132.101 27.0137C129.888 27.0137 127.765 27.9004 126.2 29.4787C124.635 31.057 123.756 33.1976 123.756 35.4297Z" fill="url(#paint13_linear)"/>
<path d="M97.0476 35.4297C97.0476 37.6618 97.9269 39.8025 99.492 41.3808C101.057 42.9591 103.18 43.8458 105.393 43.8458C107.607 43.8458 109.729 42.9591 111.295 41.3808C112.86 39.8025 113.739 37.6618 113.739 35.4297C113.739 33.1976 112.86 31.057 111.295 29.4787C109.729 27.9004 107.607 27.0137 105.393 27.0137C103.18 27.0137 101.057 27.9004 99.492 29.4787C97.9269 31.057 97.0476 33.1976 97.0476 35.4297Z" fill="url(#paint14_linear)"/>
<path d="M70.3423 45.5298C70.3423 47.7619 71.2216 49.9026 72.7867 51.4809C74.3518 53.0592 76.4746 53.9459 78.688 53.9459C80.9014 53.9459 83.0242 53.0592 84.5893 51.4809C86.1544 49.9026 87.0337 47.7619 87.0337 45.5298C87.0337 43.2977 86.1544 41.1571 84.5893 39.5788C83.0242 38.0005 80.9014 37.1138 78.688 37.1138C76.4746 37.1138 74.3518 38.0005 72.7867 39.5788C71.2216 41.1571 70.3423 43.2977 70.3423 45.5298Z" fill="url(#paint15_linear)"/>
<path d="M173.827 38.7947C173.827 40.134 174.355 41.4185 175.294 42.3656C176.233 43.3126 177.507 43.8447 178.835 43.8447C180.163 43.8447 181.437 43.3126 182.376 42.3656C183.315 41.4185 183.842 40.134 183.842 38.7947C183.842 37.4553 183.315 36.1708 182.376 35.2237C181.437 34.2767 180.163 33.7446 178.835 33.7446C177.507 33.7446 176.233 34.2767 175.294 35.2237C174.355 36.1708 173.827 37.4553 173.827 38.7947Z" fill="url(#paint16_linear)"/>
<path d="M143.782 21.9636C143.782 23.3029 144.31 24.5874 145.249 25.5345C146.188 26.4816 147.462 27.0136 148.79 27.0136C150.118 27.0136 151.391 26.4816 152.33 25.5345C153.27 24.5874 153.797 23.3029 153.797 21.9636C153.797 20.6242 153.27 19.3398 152.33 18.3927C151.391 17.4456 150.118 16.9136 148.79 16.9136C147.462 16.9136 146.188 17.4456 145.249 18.3927C144.31 19.3398 143.782 20.6242 143.782 21.9636Z" fill="url(#paint17_linear)"/>
<path d="M113.741 18.5984C113.741 19.9377 114.268 21.2222 115.207 22.1693C116.146 23.1163 117.42 23.6484 118.748 23.6484C120.076 23.6484 121.35 23.1163 122.289 22.1693C123.228 21.2222 123.755 19.9377 123.755 18.5984C123.755 17.259 123.228 15.9745 122.289 15.0275C121.35 14.0804 120.076 13.5483 118.748 13.5483C117.42 13.5483 116.146 14.0804 115.207 15.0275C114.268 15.9745 113.741 17.259 113.741 18.5984Z" fill="url(#paint18_linear)"/>
<path d="M80.356 21.9636C80.356 23.3029 80.8836 24.5874 81.8226 25.5345C82.7617 26.4816 84.0354 27.0136 85.3634 27.0136C86.6915 27.0136 87.9651 26.4816 88.9042 25.5345C89.8433 24.5874 90.3708 23.3029 90.3708 21.9636C90.3708 20.6242 89.8433 19.3398 88.9042 18.3927C87.9651 17.4456 86.6915 16.9136 85.3634 16.9136C84.0354 16.9136 82.7617 17.4456 81.8226 18.3927C80.8836 19.3398 80.356 20.6242 80.356 21.9636Z" fill="url(#paint19_linear)"/>
<path d="M46.9752 121.273C46.9752 123.059 47.6786 124.772 48.9307 126.034C50.1828 127.297 51.881 128.006 53.6518 128.006C55.4225 128.006 57.1207 127.297 58.3728 126.034C59.625 124.772 60.3284 123.059 60.3284 121.273C60.3284 119.488 59.625 117.775 58.3728 116.513C57.1207 115.25 55.4225 114.541 53.6518 114.541C51.881 114.541 50.1828 115.25 48.9307 116.513C47.6786 117.775 46.9752 119.488 46.9752 121.273Z" fill="url(#paint20_linear)"/>
<path d="M46.9752 141.471C46.9752 143.257 47.6786 144.969 48.9307 146.232C50.1828 147.495 51.881 148.204 53.6518 148.204C55.4225 148.204 57.1207 147.495 58.3728 146.232C59.625 144.969 60.3284 143.257 60.3284 141.471C60.3284 139.685 59.625 137.973 58.3728 136.71C57.1207 135.448 55.4225 134.738 53.6518 134.738C51.881 134.738 50.1828 135.448 48.9307 136.71C47.6786 137.973 46.9752 139.685 46.9752 141.471Z" fill="url(#paint21_linear)"/>
<path d="M56.9886 161.67C56.9886 163.456 57.6921 165.169 58.9442 166.431C60.1963 167.694 61.8945 168.403 63.6652 168.403C65.436 168.403 67.1342 167.694 68.3863 166.431C69.6384 165.169 70.3418 163.456 70.3418 161.67C70.3418 159.885 69.6384 158.172 68.3863 156.909C67.1342 155.647 65.436 154.937 63.6652 154.937C61.8945 154.937 60.1963 155.647 58.9442 156.909C57.6921 158.172 56.9886 159.885 56.9886 161.67Z" fill="url(#paint22_linear)"/>
<path d="M56.9886 80.8735C56.9886 82.6591 57.6921 84.3717 58.9442 85.6343C60.1963 86.897 61.8945 87.6063 63.6652 87.6063C65.436 87.6063 67.1342 86.897 68.3863 85.6343C69.6384 84.3717 70.3418 82.6591 70.3418 80.8735C70.3418 79.0878 69.6384 77.3753 68.3863 76.1126C67.1342 74.85 65.436 74.1406 63.6652 74.1406C61.8945 74.1406 60.1963 74.85 58.9442 76.1126C57.6921 77.3753 56.9886 79.0878 56.9886 80.8735Z" fill="url(#paint23_linear)"/>
<path d="M46.9752 101.073C46.9752 102.859 47.6786 104.571 48.9307 105.834C50.1828 107.097 51.881 107.806 53.6518 107.806C55.4225 107.806 57.1207 107.097 58.3728 105.834C59.625 104.571 60.3284 102.859 60.3284 101.073C60.3284 99.2875 59.625 97.575 58.3728 96.3123C57.1207 95.0497 55.4225 94.3403 53.6518 94.3403C51.881 94.3403 50.1828 95.0497 48.9307 96.3123C47.6786 97.575 46.9752 99.2875 46.9752 101.073Z" fill="url(#paint24_linear)"/>
<path d="M33.6199 82.5567C33.6199 84.7888 34.4991 86.9294 36.0643 88.5077C37.6294 90.086 39.7521 90.9727 41.9656 90.9727C44.179 90.9727 46.3018 90.086 47.8669 88.5077C49.432 86.9294 50.3113 84.7888 50.3113 82.5567C50.3113 80.3246 49.432 78.1839 47.8669 76.6056C46.3018 75.0273 44.179 74.1406 41.9656 74.1406C39.7521 74.1406 37.6294 75.0273 36.0643 76.6056C34.4991 78.1839 33.6199 80.3246 33.6199 82.5567Z" fill="url(#paint25_linear)"/>
<path d="M26.9458 109.492C26.9458 111.724 27.8251 113.864 29.3902 115.443C30.9553 117.021 33.0781 117.908 35.2915 117.908C37.5049 117.908 39.6277 117.021 41.1928 115.443C42.7579 113.864 43.6372 111.724 43.6372 109.492C43.6372 107.26 42.7579 105.119 41.1928 103.541C39.6277 101.962 37.5049 101.076 35.2915 101.076C33.0781 101.076 30.9553 101.962 29.3902 103.541C27.8251 105.119 26.9458 107.26 26.9458 109.492Z" fill="url(#paint26_linear)"/>
<path d="M26.9458 136.423C26.9458 138.655 27.8251 140.796 29.3902 142.374C30.9553 143.953 33.0781 144.839 35.2915 144.839C37.5049 144.839 39.6277 143.953 41.1928 142.374C42.7579 140.796 43.6372 138.655 43.6372 136.423C43.6372 134.191 42.7579 132.051 41.1928 130.472C39.6277 128.894 37.5049 128.007 35.2915 128.007C33.0781 128.007 30.9553 128.894 29.3902 130.472C27.8251 132.051 26.9458 134.191 26.9458 136.423Z" fill="url(#paint27_linear)"/>
<path d="M33.6199 159.984C33.6199 162.216 34.4991 164.357 36.0643 165.935C37.6294 167.514 39.7521 168.4 41.9656 168.4C44.179 168.4 46.3018 167.514 47.8669 165.935C49.432 164.357 50.3113 162.216 50.3113 159.984C50.3113 157.752 49.432 155.612 47.8669 154.033C46.3018 152.455 44.179 151.568 41.9656 151.568C39.7521 151.568 37.6294 152.455 36.0643 154.033C34.4991 155.612 33.6199 157.752 33.6199 159.984Z" fill="url(#paint28_linear)"/>
<path d="M50.3108 183.55C50.3108 185.782 51.19 187.923 52.7552 189.501C54.3203 191.08 56.4431 191.966 58.6565 191.966C60.8699 191.966 62.9927 191.08 64.5578 189.501C66.1229 187.923 67.0022 185.782 67.0022 183.55C67.0022 181.318 66.1229 179.178 64.5578 177.599C62.9927 176.021 60.8699 175.134 58.6565 175.134C56.4431 175.134 54.3203 176.021 52.7552 177.599C51.19 179.178 50.3108 181.318 50.3108 183.55Z" fill="url(#paint29_linear)"/>
<path d="M50.3105 58.9952C50.3105 61.2272 51.1898 63.3679 52.7549 64.9462C54.3201 66.5245 56.4428 67.4112 58.6562 67.4112C60.8697 67.4112 62.9924 66.5245 64.5576 64.9462C66.1227 63.3679 67.002 61.2272 67.002 58.9952C67.002 56.7631 66.1227 54.6224 64.5576 53.0441C62.9924 51.4658 60.8697 50.5791 58.6562 50.5791C56.4428 50.5791 54.3201 51.4658 52.7549 53.0441C51.1898 54.6224 50.3105 56.7631 50.3105 58.9952Z" fill="url(#paint30_linear)"/>
<path d="M30.2818 62.3601C30.2818 63.6994 30.8093 64.9839 31.7484 65.931C32.6875 66.878 33.9612 67.4101 35.2892 67.4101C36.6173 67.4101 37.8909 66.878 38.83 65.931C39.7691 64.9839 40.2966 63.6994 40.2966 62.3601C40.2966 61.0207 39.7691 59.7362 38.83 58.7892C37.8909 57.8421 36.6173 57.3101 35.2892 57.3101C33.9612 57.3101 32.6875 57.8421 31.7484 58.7892C30.8093 59.7362 30.2818 61.0207 30.2818 62.3601Z" fill="url(#paint31_linear)"/>
<path d="M16.9283 89.2917C16.9283 90.6311 17.4558 91.9156 18.3949 92.8626C19.334 93.8097 20.6076 94.3417 21.9357 94.3417C23.2637 94.3417 24.5374 93.8097 25.4765 92.8626C26.4156 91.9156 26.9431 90.6311 26.9431 89.2917C26.9431 87.9524 26.4156 86.6679 25.4765 85.7208C24.5374 84.7738 23.2637 84.2417 21.9357 84.2417C20.6076 84.2417 19.334 84.7738 18.3949 85.7208C17.4558 86.6679 16.9283 87.9524 16.9283 89.2917Z" fill="url(#paint32_linear)"/>
<path d="M10.2547 122.956C10.2547 124.296 10.7822 125.58 11.7213 126.527C12.6604 127.474 13.9341 128.006 15.2621 128.006C16.5902 128.006 17.8638 127.474 18.8029 126.527C19.742 125.58 20.2695 124.296 20.2695 122.956C20.2695 121.617 19.742 120.332 18.8029 119.385C17.8638 118.438 16.5902 117.906 15.2621 117.906C13.9341 117.906 12.6604 118.438 11.7213 119.385C10.7822 120.332 10.2547 121.617 10.2547 122.956Z" fill="url(#paint33_linear)"/>
<path d="M16.9283 153.253C16.9283 154.592 17.4558 155.877 18.3949 156.824C19.334 157.771 20.6076 158.303 21.9357 158.303C23.2637 158.303 24.5374 157.771 25.4765 156.824C26.4156 155.877 26.9431 154.592 26.9431 153.253C26.9431 151.914 26.4156 150.629 25.4765 149.682C24.5374 148.735 23.2637 148.203 21.9357 148.203C20.6076 148.203 19.334 148.735 18.3949 149.682C17.4558 150.629 16.9283 151.914 16.9283 153.253Z" fill="url(#paint34_linear)"/>
<path d="M30.2818 183.553C30.2818 184.892 30.8093 186.177 31.7484 187.124C32.6875 188.071 33.9612 188.603 35.2892 188.603C36.6173 188.603 37.8909 188.071 38.83 187.124C39.7691 186.177 40.2966 184.892 40.2966 183.553C40.2966 182.214 39.7691 180.929 38.83 179.982C37.8909 179.035 36.6173 178.503 35.2892 178.503C33.9612 178.503 32.6875 179.035 31.7484 179.982C30.8093 180.929 30.2818 182.214 30.2818 183.553Z" fill="url(#paint35_linear)"/>
<path d="M53.6507 203.75C53.6507 205.089 54.1782 206.374 55.1173 207.321C56.0564 208.268 57.33 208.8 58.6581 208.8C59.9862 208.8 61.2598 208.268 62.1989 207.321C63.138 206.374 63.6655 205.089 63.6655 203.75C63.6655 202.41 63.138 201.126 62.1989 200.179C61.2598 199.232 59.9862 198.7 58.6581 198.7C57.33 198.7 56.0564 199.232 55.1173 200.179C54.1782 201.126 53.6507 202.41 53.6507 203.75Z" fill="url(#paint36_linear)"/>
<path d="M53.6504 38.7947C53.6504 40.134 54.178 41.4185 55.1171 42.3656C56.0561 43.3126 57.3298 43.8447 58.6579 43.8447C59.9859 43.8447 61.2596 43.3126 62.1986 42.3656C63.1377 41.4185 63.6653 40.134 63.6653 38.7947C63.6653 37.4553 63.1377 36.1708 62.1986 35.2237C61.2596 34.2767 59.9859 33.7446 58.6579 33.7446C57.3298 33.7446 56.0561 34.2767 55.1171 35.2237C54.178 36.1708 53.6504 37.4553 53.6504 38.7947Z" fill="url(#paint37_linear)"/>
<path d="M177.167 121.273C177.167 123.059 177.87 124.772 179.122 126.034C180.374 127.297 182.072 128.006 183.843 128.006C185.614 128.006 187.312 127.297 188.564 126.034C189.816 124.772 190.52 123.059 190.52 121.273C190.52 119.488 189.816 117.775 188.564 116.513C187.312 115.25 185.614 114.541 183.843 114.541C182.072 114.541 180.374 115.25 179.122 116.513C177.87 117.775 177.167 119.488 177.167 121.273Z" fill="url(#paint38_linear)"/>
<path d="M173.83 141.471C173.83 143.257 174.533 144.969 175.785 146.232C177.038 147.495 178.736 148.204 180.507 148.204C182.277 148.204 183.975 147.495 185.228 146.232C186.48 144.969 187.183 143.257 187.183 141.471C187.183 139.685 186.48 137.973 185.228 136.71C183.975 135.448 182.277 134.738 180.507 134.738C178.736 134.738 177.038 135.448 175.785 136.71C174.533 137.973 173.83 139.685 173.83 141.471Z" fill="url(#paint39_linear)"/>
<path d="M173.83 101.073C173.83 102.859 174.533 104.571 175.785 105.834C177.038 107.097 178.736 107.806 180.507 107.806C182.277 107.806 183.975 107.097 185.228 105.834C186.48 104.571 187.183 102.859 187.183 101.073C187.183 99.2875 186.48 97.575 185.228 96.3123C183.975 95.0497 182.277 94.3403 180.507 94.3403C178.736 94.3403 177.038 95.0497 175.785 96.3123C174.533 97.575 173.83 99.2875 173.83 101.073Z" fill="url(#paint40_linear)"/>
<path d="M187.183 82.5567C187.183 84.7888 188.062 86.9294 189.627 88.5077C191.192 90.086 193.315 90.9727 195.528 90.9727C197.742 90.9727 199.864 90.086 201.43 88.5077C202.995 86.9294 203.874 84.7888 203.874 82.5567C203.874 80.3246 202.995 78.1839 201.43 76.6056C199.864 75.0273 197.742 74.1406 195.528 74.1406C193.315 74.1406 191.192 75.0273 189.627 76.6056C188.062 78.1839 187.183 80.3246 187.183 82.5567Z" fill="url(#paint41_linear)"/>
<path d="M170.492 58.9952C170.492 61.2272 171.371 63.3679 172.936 64.9462C174.501 66.5245 176.624 67.4112 178.837 67.4112C181.051 67.4112 183.174 66.5245 184.739 64.9462C186.304 63.3679 187.183 61.2272 187.183 58.9952C187.183 56.7631 186.304 54.6224 184.739 53.0441C183.174 51.4658 181.051 50.5791 178.837 50.5791C176.624 50.5791 174.501 51.4658 172.936 53.0441C171.371 54.6224 170.492 56.7631 170.492 58.9952Z" fill="url(#paint42_linear)"/>
<path d="M187.183 159.984C187.183 162.216 188.062 164.357 189.627 165.935C191.192 167.514 193.315 168.4 195.528 168.4C197.742 168.4 199.864 167.514 201.43 165.935C202.995 164.357 203.874 162.216 203.874 159.984C203.874 157.752 202.995 155.612 201.43 154.033C199.864 152.455 197.742 151.568 195.528 151.568C193.315 151.568 191.192 152.455 189.627 154.033C188.062 155.612 187.183 157.752 187.183 159.984Z" fill="url(#paint43_linear)"/>
<path d="M193.86 136.423C193.86 138.655 194.74 140.796 196.305 142.374C197.87 143.953 199.993 144.839 202.206 144.839C204.419 144.839 206.542 143.953 208.107 142.374C209.672 140.796 210.552 138.655 210.552 136.423C210.552 134.191 209.672 132.051 208.107 130.472C206.542 128.894 204.419 128.007 202.206 128.007C199.993 128.007 197.87 128.894 196.305 130.472C194.74 132.051 193.86 134.191 193.86 136.423Z" fill="url(#paint44_linear)"/>
<path d="M193.86 109.492C193.86 111.724 194.74 113.864 196.305 115.443C197.87 117.021 199.993 117.908 202.206 117.908C204.419 117.908 206.542 117.021 208.107 115.443C209.672 113.864 210.552 111.724 210.552 109.492C210.552 107.26 209.672 105.119 208.107 103.541C206.542 101.962 204.419 101.076 202.206 101.076C199.993 101.076 197.87 101.962 196.305 103.541C194.74 105.119 193.86 107.26 193.86 109.492Z" fill="url(#paint45_linear)"/>
<path d="M210.55 89.2917C210.55 90.6311 211.077 91.9156 212.016 92.8626C212.955 93.8097 214.229 94.3417 215.557 94.3417C216.885 94.3417 218.159 93.8097 219.098 92.8626C220.037 91.9156 220.564 90.6311 220.564 89.2917C220.564 87.9524 220.037 86.6679 219.098 85.7208C218.159 84.7738 216.885 84.2417 215.557 84.2417C214.229 84.2417 212.955 84.7738 212.016 85.7208C211.077 86.6679 210.55 87.9524 210.55 89.2917Z" fill="url(#paint46_linear)"/>
<path d="M197.196 62.3601C197.196 63.6994 197.724 64.9839 198.663 65.931C199.602 66.878 200.876 67.4101 202.204 67.4101C203.532 67.4101 204.805 66.878 205.745 65.931C206.684 64.9839 207.211 63.6994 207.211 62.3601C207.211 61.0207 206.684 59.7362 205.745 58.7892C204.805 57.8421 203.532 57.3101 202.204 57.3101C200.876 57.3101 199.602 57.8421 198.663 58.7892C197.724 59.7362 197.196 61.0207 197.196 62.3601Z" fill="url(#paint47_linear)"/>
<path d="M210.55 153.253C210.55 154.592 211.077 155.877 212.016 156.824C212.955 157.771 214.229 158.303 215.557 158.303C216.885 158.303 218.159 157.771 219.098 156.824C220.037 155.877 220.564 154.592 220.564 153.253C220.564 151.913 220.037 150.629 219.098 149.682C218.159 148.735 216.885 148.203 215.557 148.203C214.229 148.203 212.955 148.735 212.016 149.682C211.077 150.629 210.55 151.913 210.55 153.253Z" fill="url(#paint48_linear)"/>
<path d="M213.887 122.956C213.887 123.619 214.017 124.276 214.268 124.889C214.52 125.502 214.889 126.058 215.354 126.527C215.819 126.996 216.371 127.368 216.978 127.622C217.586 127.876 218.237 128.006 218.895 128.006C219.552 128.006 220.203 127.876 220.811 127.622C221.418 127.368 221.97 126.996 222.435 126.527C222.9 126.058 223.269 125.502 223.521 124.889C223.773 124.276 223.902 123.619 223.902 122.956C223.902 121.617 223.375 120.332 222.435 119.385C221.496 118.438 220.223 117.906 218.895 117.906C217.567 117.906 216.293 118.438 215.354 119.385C214.415 120.332 213.887 121.617 213.887 122.956Z" fill="url(#paint49_linear)"/>
<path d="M96.588 6.80212C96.7232 7.81185 97.2452 8.73153 98.0391 9.35886C98.833 9.98618 99.8338 10.2698 100.821 10.1472C101.809 10.0246 102.702 9.506 103.305 8.70535C103.907 7.90471 104.17 6.88766 104.035 5.87793C103.899 4.86821 103.377 3.94852 102.584 3.3212C101.79 2.69387 100.789 2.41029 99.8014 2.53285C98.8139 2.65541 97.9205 3.17405 97.3179 3.9747C96.7153 4.77534 96.4527 5.7924 96.588 6.80212Z" fill="url(#paint50_linear)"/>
<path d="M61.8399 18.6834C62.6573 20.7506 64.886 21.852 66.8136 21.1407C68.7413 20.4294 69.643 18.1715 68.8224 16.1055C68.0019 14.0394 65.7763 12.9369 63.8487 13.6482C61.9196 14.3561 61.0179 16.614 61.8399 18.6834Z" fill="url(#paint51_linear)"/>
<path d="M232.103 143.635C233.094 143.757 234.097 143.472 234.893 142.842C235.689 142.212 236.212 141.289 236.346 140.276C236.481 139.263 236.217 138.243 235.611 137.44C235.006 136.638 234.109 136.119 233.118 135.997C232.628 135.936 232.129 135.975 231.65 136.112C231.172 136.248 230.722 136.478 230.328 136.79C229.934 137.102 229.603 137.49 229.354 137.93C229.104 138.37 228.942 138.855 228.875 139.356C228.809 139.858 228.839 140.367 228.965 140.853C229.091 141.34 229.311 141.794 229.61 142.192C229.91 142.589 230.284 142.921 230.712 143.169C231.14 143.416 231.613 143.575 232.103 143.635Z" fill="url(#paint52_linear)"/>
<path d="M167.157 20.3258C169.086 21.034 171.313 19.9363 172.132 17.8658C172.953 15.7999 172.05 13.5453 170.123 12.8337C168.194 12.1255 165.966 13.2232 165.147 15.2937C164.327 17.3596 165.23 19.6142 167.157 20.3258Z" fill="url(#paint53_linear)"/>
<path d="M228.355 103.831C228.49 104.841 229.012 105.76 229.806 106.388C230.599 107.016 231.6 107.3 232.588 107.177C233.575 107.055 234.469 106.537 235.072 105.736C235.675 104.936 235.937 103.919 235.802 102.909C235.667 101.899 235.146 100.979 234.352 100.352C233.558 99.7241 232.557 99.4402 231.57 99.5624C230.582 99.6846 229.689 100.203 229.086 101.003C228.483 101.804 228.22 102.821 228.355 103.831Z" fill="url(#paint54_linear)"/>
<path d="M219.891 179.84C221.82 180.548 224.047 179.449 224.866 177.379C225.686 175.312 224.783 173.058 222.855 172.347C220.926 171.639 218.699 172.738 217.88 174.808C217.06 176.875 217.963 179.129 219.891 179.84Z" fill="url(#paint55_linear)"/>
<path d="M136.36 8.39741C137.351 8.51992 138.355 8.23516 139.151 7.60576C139.947 6.97636 140.47 6.05388 140.605 5.04127C140.74 4.02865 140.475 3.00885 139.869 2.20619C139.263 1.40354 138.366 0.883791 137.375 0.761282C136.383 0.638773 135.379 0.923542 134.583 1.55294C133.787 2.18234 133.264 3.10481 133.129 4.11742C132.995 5.13004 133.259 6.14984 133.865 6.9525C134.471 7.75515 135.368 8.2749 136.36 8.39741Z" fill="url(#paint56_linear)"/>
<path d="M12.484 175.853C13.3019 177.92 15.5307 179.02 17.4582 178.309C19.3856 177.597 20.2868 175.339 19.4658 173.273C18.6448 171.207 16.4191 170.105 14.4916 170.817C12.5628 171.525 11.6617 173.783 12.484 175.853Z" fill="url(#paint57_linear)"/>
<path d="M5.18396 107.777C5.67453 107.838 6.17344 107.799 6.65222 107.663C7.13099 107.527 7.58024 107.296 7.97433 106.984C8.36841 106.672 8.69961 106.285 8.94901 105.845C9.19841 105.404 9.36113 104.919 9.42788 104.418C9.49462 103.916 9.4641 103.408 9.33803 102.921C9.21196 102.435 8.99283 101.98 8.69314 101.582C8.39345 101.185 8.01908 100.853 7.5914 100.605C7.16371 100.357 6.69109 100.199 6.20052 100.138C5.20977 100.016 4.20605 100.302 3.41016 100.932C2.61427 101.562 2.09141 102.485 1.95661 103.498C1.8218 104.511 2.0861 105.531 2.69134 106.333C3.29659 107.136 4.19321 107.655 5.18396 107.777Z" fill="url(#paint58_linear)"/>
<path d="M0.652609 140.7C0.719546 141.2 0.88214 141.683 1.1311 142.122C1.38006 142.561 1.71052 142.946 2.1036 143.257C2.49667 143.568 2.94467 143.797 3.42202 143.933C3.89938 144.068 4.39676 144.106 4.88572 144.046C5.37468 143.985 5.84566 143.826 6.27178 143.579C6.6979 143.332 7.07082 143 7.36923 142.604C7.66765 142.208 7.88572 141.754 8.01099 141.269C8.13627 140.784 8.1663 140.277 8.09936 139.777C8.03242 139.277 7.86983 138.794 7.62087 138.355C7.37191 137.916 7.04145 137.531 6.64837 137.22C6.2553 136.909 5.8073 136.68 5.32995 136.545C4.85259 136.409 4.35522 136.371 3.86626 136.431C3.3773 136.492 2.90631 136.651 2.48019 136.898C2.05406 137.145 1.68115 137.477 1.38274 137.873C1.08432 138.269 0.866256 138.723 0.740981 139.208C0.615706 139.693 0.585672 140.2 0.652609 140.7Z" fill="url(#paint59_linear)"/>
<path d="M197.359 206.231C197.702 206.578 198.109 206.854 198.558 207.041C199.007 207.229 199.488 207.326 199.974 207.326C200.46 207.325 200.941 207.228 201.39 207.04C201.838 206.852 202.245 206.576 202.588 206.229C203.282 205.526 203.671 204.575 203.671 203.583C203.672 202.591 203.283 201.64 202.59 200.936C202.248 200.589 201.84 200.313 201.391 200.125C200.942 199.936 200.461 199.839 199.975 199.839C199.488 199.839 199.007 199.936 198.558 200.125C198.109 200.313 197.702 200.589 197.359 200.936C195.914 202.398 195.916 204.767 197.361 206.229L197.359 206.231Z" fill="url(#paint60_linear)"/>
<path d="M34.0671 205.804C34.4101 206.151 34.8178 206.426 35.2667 206.614C35.7155 206.801 36.1967 206.898 36.6826 206.897C37.1685 206.897 37.6496 206.8 38.0981 206.611C38.5466 206.423 38.9539 206.147 39.2964 205.799C39.9895 205.096 40.3786 204.145 40.3787 203.153C40.3788 202.161 39.9898 201.21 39.2968 200.507C38.9538 200.159 38.5461 199.884 38.0971 199.696C37.6481 199.508 37.1667 199.411 36.6805 199.411C36.1943 199.411 35.713 199.509 35.2641 199.697C34.8153 199.885 34.4078 200.161 34.0651 200.509C32.6208 201.972 32.624 204.341 34.0694 205.802L34.0671 205.804Z" fill="url(#paint61_linear)"/>
<path d="M197.078 41.1338C197.421 41.481 197.829 41.7565 198.278 41.9444C198.726 42.1323 199.208 42.229 199.693 42.2289C200.179 42.2288 200.66 42.1319 201.109 41.9437C201.558 41.7556 201.965 41.48 202.308 41.1326C203.001 40.4297 203.391 39.4787 203.392 38.4871C203.392 37.4956 203.004 36.544 202.311 35.8402C201.968 35.4925 201.561 35.2165 201.112 35.0282C200.663 34.8398 200.182 34.7428 199.696 34.7427C199.209 34.7426 198.728 34.8394 198.279 35.0275C197.83 35.2157 197.422 35.4914 197.079 35.839C195.634 37.3004 195.636 39.6693 197.081 41.1314L197.078 41.1338Z" fill="url(#paint62_linear)"/>
<path d="M33.784 40.7056C34.1269 41.0528 34.5344 41.3282 34.9832 41.5162C35.4319 41.7041 35.9131 41.8008 36.399 41.8006C36.8849 41.8005 37.366 41.7036 37.8146 41.5155C38.2633 41.3274 38.6707 41.0517 39.0134 40.7044C39.7069 40.0015 40.0966 39.0505 40.0972 38.0589C40.0978 37.0673 39.7094 36.1158 39.0167 35.4119C38.6739 35.0642 38.2664 34.7883 37.8175 34.6C37.3686 34.4116 36.8873 34.3146 36.4011 34.3145C35.9149 34.3144 35.4335 34.4112 34.9845 34.5993C34.5356 34.7874 34.1279 35.0632 33.785 35.4108C32.3399 36.8722 32.3418 39.2411 33.7864 40.7032L33.784 40.7056Z" fill="url(#paint63_linear)"/>
<path d="M217.42 70.6482C218.237 72.7157 220.465 73.8176 222.393 73.1067C224.321 72.3958 225.223 70.1381 224.403 68.0718C223.583 66.0054 221.357 64.9024 219.43 65.6132C217.5 66.3207 216.598 68.5785 217.42 70.6482Z" fill="url(#paint64_linear)"/>
<path d="M13.5235 72.5225C15.4525 73.2305 17.6798 72.1325 18.4986 70.0619C19.3192 67.9958 18.4162 65.7413 16.4885 65.03C14.5595 64.3221 12.3322 65.4201 11.5134 67.4907C10.6928 69.5567 11.5972 71.8079 13.5235 72.5225Z" fill="url(#paint65_linear)"/>
</g>
<defs>
<linearGradient id="paint0_linear" x1="183.842" y1="198.7" x2="173.743" y2="208.714" gradientUnits="userSpaceOnUse">
<stop stop-color="#A83592"/>
<stop offset="1" stop-color="#4F4A9D"/>
</linearGradient>
<linearGradient id="paint1_linear" x1="87.0337" y1="168.403" x2="73.5685" y2="181.755" gradientUnits="userSpaceOnUse">
<stop stop-color="#A83592"/>
<stop offset="1" stop-color="#4F4A9D"/>
</linearGradient>
<linearGradient id="paint2_linear" x1="177.166" y1="74.1406" x2="163.701" y2="87.4933" gradientUnits="userSpaceOnUse">
<stop stop-color="#A83592"/>
<stop offset="1" stop-color="#4F4A9D"/>
</linearGradient>
<linearGradient id="paint3_linear" x1="163.815" y1="168.403" x2="150.35" y2="181.755" gradientUnits="userSpaceOnUse">
<stop stop-color="#A83592"/>
<stop offset="1" stop-color="#4F4A9D"/>
</linearGradient>
<linearGradient id="paint4_linear" x1="177.166" y1="154.937" x2="163.701" y2="168.29" gradientUnits="userSpaceOnUse">
<stop stop-color="#A83592"/>
<stop offset="1" stop-color="#4F4A9D"/>
</linearGradient>
<linearGradient id="paint5_linear" x1="187.183" y1="175.134" x2="170.352" y2="191.825" gradientUnits="userSpaceOnUse">
<stop stop-color="#A83592"/>
<stop offset="1" stop-color="#4F4A9D"/>
</linearGradient>
<linearGradient id="paint6_linear" x1="207.211" y1="178.503" x2="197.111" y2="188.517" gradientUnits="userSpaceOnUse">
<stop stop-color="#A83592"/>
<stop offset="1" stop-color="#4F4A9D"/>
</linearGradient>
<linearGradient id="paint7_linear" x1="87.0337" y1="60.6763" x2="73.5685" y2="74.0289" gradientUnits="userSpaceOnUse">
<stop stop-color="#A83592"/>
<stop offset="1" stop-color="#4F4A9D"/>
</linearGradient>
<linearGradient id="paint8_linear" x1="143.784" y1="50.5791" x2="130.319" y2="63.9318" gradientUnits="userSpaceOnUse">
<stop stop-color="#A83592"/>
<stop offset="1" stop-color="#4F4A9D"/>
</linearGradient>
<linearGradient id="paint9_linear" x1="163.815" y1="60.6763" x2="150.35" y2="74.0289" gradientUnits="userSpaceOnUse">
<stop stop-color="#A83592"/>
<stop offset="1" stop-color="#4F4A9D"/>
</linearGradient>
<linearGradient id="paint10_linear" x1="103.724" y1="50.5791" x2="90.2592" y2="63.9318" gradientUnits="userSpaceOnUse">
<stop stop-color="#A83592"/>
<stop offset="1" stop-color="#4F4A9D"/>
</linearGradient>
<linearGradient id="paint11_linear" x1="123.755" y1="47.2109" x2="110.29" y2="60.5636" gradientUnits="userSpaceOnUse">
<stop stop-color="#A83592"/>
<stop offset="1" stop-color="#4F4A9D"/>
</linearGradient>
<linearGradient id="paint12_linear" x1="163.815" y1="37.1138" x2="146.983" y2="53.8046" gradientUnits="userSpaceOnUse">
<stop stop-color="#A83592"/>
<stop offset="1" stop-color="#4F4A9D"/>
</linearGradient>
<linearGradient id="paint13_linear" x1="140.447" y1="27.0137" x2="123.616" y2="43.7045" gradientUnits="userSpaceOnUse">
<stop stop-color="#A83592"/>
<stop offset="1" stop-color="#4F4A9D"/>
</linearGradient>
<linearGradient id="paint14_linear" x1="113.739" y1="27.0137" x2="96.9075" y2="43.7045" gradientUnits="userSpaceOnUse">
<stop stop-color="#A83592"/>
<stop offset="1" stop-color="#4F4A9D"/>
</linearGradient>
<linearGradient id="paint15_linear" x1="87.0337" y1="37.1138" x2="70.2022" y2="53.8046" gradientUnits="userSpaceOnUse">
<stop stop-color="#A83592"/>
<stop offset="1" stop-color="#4F4A9D"/>
</linearGradient>
<linearGradient id="paint16_linear" x1="183.842" y1="33.7446" x2="173.743" y2="43.7591" gradientUnits="userSpaceOnUse">
<stop stop-color="#A83592"/>
<stop offset="1" stop-color="#4F4A9D"/>
</linearGradient>
<linearGradient id="paint17_linear" x1="153.797" y1="16.9136" x2="143.697" y2="26.9281" gradientUnits="userSpaceOnUse">
<stop stop-color="#A83592"/>
<stop offset="1" stop-color="#4F4A9D"/>
</linearGradient>
<linearGradient id="paint18_linear" x1="123.755" y1="13.5483" x2="113.656" y2="23.5628" gradientUnits="userSpaceOnUse">
<stop stop-color="#A83592"/>
<stop offset="1" stop-color="#4F4A9D"/>
</linearGradient>
<linearGradient id="paint19_linear" x1="90.3708" y1="16.9136" x2="80.2712" y2="26.9281" gradientUnits="userSpaceOnUse">
<stop stop-color="#A83592"/>
<stop offset="1" stop-color="#4F4A9D"/>
</linearGradient>
<linearGradient id="paint20_linear" x1="60.3284" y1="114.541" x2="46.8632" y2="127.893" gradientUnits="userSpaceOnUse">
<stop stop-color="#A83592"/>
<stop offset="1" stop-color="#4F4A9D"/>
</linearGradient>
<linearGradient id="paint21_linear" x1="60.3284" y1="134.738" x2="46.8632" y2="148.091" gradientUnits="userSpaceOnUse">
<stop stop-color="#A83592"/>
<stop offset="1" stop-color="#4F4A9D"/>
</linearGradient>
<linearGradient id="paint22_linear" x1="70.3418" y1="154.938" x2="56.8766" y2="168.29" gradientUnits="userSpaceOnUse">
<stop stop-color="#A83592"/>
<stop offset="1" stop-color="#4F4A9D"/>
</linearGradient>
<linearGradient id="paint23_linear" x1="70.3418" y1="74.1406" x2="56.8766" y2="87.4933" gradientUnits="userSpaceOnUse">
<stop stop-color="#A83592"/>
<stop offset="1" stop-color="#4F4A9D"/>
</linearGradient>
<linearGradient id="paint24_linear" x1="60.3284" y1="94.3403" x2="46.8632" y2="107.693" gradientUnits="userSpaceOnUse">
<stop stop-color="#A83592"/>
<stop offset="1" stop-color="#4F4A9D"/>
</linearGradient>
<linearGradient id="paint25_linear" x1="50.3113" y1="74.1406" x2="33.4798" y2="90.8315" gradientUnits="userSpaceOnUse">
<stop stop-color="#A83592"/>
<stop offset="1" stop-color="#4F4A9D"/>
</linearGradient>
<linearGradient id="paint26_linear" x1="43.6372" y1="101.076" x2="26.8057" y2="117.766" gradientUnits="userSpaceOnUse">
<stop stop-color="#A83592"/>
<stop offset="1" stop-color="#4F4A9D"/>
</linearGradient>
<linearGradient id="paint27_linear" x1="43.6372" y1="128.007" x2="26.8057" y2="144.698" gradientUnits="userSpaceOnUse">
<stop stop-color="#A83592"/>
<stop offset="1" stop-color="#4F4A9D"/>
</linearGradient>
<linearGradient id="paint28_linear" x1="50.3113" y1="151.568" x2="33.4798" y2="168.259" gradientUnits="userSpaceOnUse">
<stop stop-color="#A83592"/>
<stop offset="1" stop-color="#4F4A9D"/>
</linearGradient>
<linearGradient id="paint29_linear" x1="67.0022" y1="175.134" x2="50.1707" y2="191.825" gradientUnits="userSpaceOnUse">
<stop stop-color="#A83592"/>
<stop offset="1" stop-color="#4F4A9D"/>
</linearGradient>
<linearGradient id="paint30_linear" x1="67.002" y1="50.5791" x2="50.1704" y2="67.2699" gradientUnits="userSpaceOnUse">
<stop stop-color="#A83592"/>
<stop offset="1" stop-color="#4F4A9D"/>
</linearGradient>
<linearGradient id="paint31_linear" x1="40.2966" y1="57.3101" x2="30.1969" y2="67.3245" gradientUnits="userSpaceOnUse">
<stop stop-color="#A83592"/>
<stop offset="1" stop-color="#4F4A9D"/>
</linearGradient>
<linearGradient id="paint32_linear" x1="26.9431" y1="84.2417" x2="16.8434" y2="94.2562" gradientUnits="userSpaceOnUse">
<stop stop-color="#A83592"/>
<stop offset="1" stop-color="#4F4A9D"/>
</linearGradient>
<linearGradient id="paint33_linear" x1="20.2695" y1="117.906" x2="10.1698" y2="127.921" gradientUnits="userSpaceOnUse">
<stop stop-color="#A83592"/>
<stop offset="1" stop-color="#4F4A9D"/>
</linearGradient>
<linearGradient id="paint34_linear" x1="26.9431" y1="148.203" x2="16.8434" y2="158.218" gradientUnits="userSpaceOnUse">
<stop stop-color="#A83592"/>
<stop offset="1" stop-color="#4F4A9D"/>
</linearGradient>
<linearGradient id="paint35_linear" x1="40.2966" y1="178.503" x2="30.1969" y2="188.517" gradientUnits="userSpaceOnUse">
<stop stop-color="#A83592"/>
<stop offset="1" stop-color="#4F4A9D"/>
</linearGradient>
<linearGradient id="paint36_linear" x1="63.6655" y1="198.7" x2="53.5658" y2="208.714" gradientUnits="userSpaceOnUse">
<stop stop-color="#A83592"/>
<stop offset="1" stop-color="#4F4A9D"/>
</linearGradient>
<linearGradient id="paint37_linear" x1="63.6653" y1="33.7446" x2="53.5656" y2="43.7591" gradientUnits="userSpaceOnUse">
<stop stop-color="#A83592"/>
<stop offset="1" stop-color="#4F4A9D"/>
</linearGradient>
<linearGradient id="paint38_linear" x1="190.52" y1="114.541" x2="177.055" y2="127.893" gradientUnits="userSpaceOnUse">
<stop stop-color="#A83592"/>
<stop offset="1" stop-color="#4F4A9D"/>
</linearGradient>
<linearGradient id="paint39_linear" x1="187.183" y1="134.738" x2="173.718" y2="148.091" gradientUnits="userSpaceOnUse">
<stop stop-color="#A83592"/>
<stop offset="1" stop-color="#4F4A9D"/>
</linearGradient>
<linearGradient id="paint40_linear" x1="187.183" y1="94.3403" x2="173.718" y2="107.693" gradientUnits="userSpaceOnUse">
<stop stop-color="#A83592"/>
<stop offset="1" stop-color="#4F4A9D"/>
</linearGradient>
<linearGradient id="paint41_linear" x1="203.874" y1="74.1406" x2="187.043" y2="90.8315" gradientUnits="userSpaceOnUse">
<stop stop-color="#A83592"/>
<stop offset="1" stop-color="#4F4A9D"/>
</linearGradient>
<linearGradient id="paint42_linear" x1="187.183" y1="50.5791" x2="170.352" y2="67.2699" gradientUnits="userSpaceOnUse">
<stop stop-color="#A83592"/>
<stop offset="1" stop-color="#4F4A9D"/>
</linearGradient>
<linearGradient id="paint43_linear" x1="203.874" y1="151.568" x2="187.043" y2="168.259" gradientUnits="userSpaceOnUse">
<stop stop-color="#A83592"/>
<stop offset="1" stop-color="#4F4A9D"/>
</linearGradient>
<linearGradient id="paint44_linear" x1="210.552" y1="128.007" x2="193.72" y2="144.698" gradientUnits="userSpaceOnUse">
<stop stop-color="#A83592"/>
<stop offset="1" stop-color="#4F4A9D"/>
</linearGradient>
<linearGradient id="paint45_linear" x1="210.552" y1="101.076" x2="193.72" y2="117.767" gradientUnits="userSpaceOnUse">
<stop stop-color="#A83592"/>
<stop offset="1" stop-color="#4F4A9D"/>
</linearGradient>
<linearGradient id="paint46_linear" x1="220.564" y1="84.2417" x2="210.465" y2="94.2562" gradientUnits="userSpaceOnUse">
<stop stop-color="#A83592"/>
<stop offset="1" stop-color="#4F4A9D"/>
</linearGradient>
<linearGradient id="paint47_linear" x1="207.211" y1="57.3101" x2="197.111" y2="67.3246" gradientUnits="userSpaceOnUse">
<stop stop-color="#A83592"/>
<stop offset="1" stop-color="#4F4A9D"/>
</linearGradient>
<linearGradient id="paint48_linear" x1="220.564" y1="148.203" x2="210.465" y2="158.217" gradientUnits="userSpaceOnUse">
<stop stop-color="#A83592"/>
<stop offset="1" stop-color="#4F4A9D"/>
</linearGradient>
<linearGradient id="paint49_linear" x1="223.902" y1="117.906" x2="213.802" y2="127.921" gradientUnits="userSpaceOnUse">
<stop stop-color="#A83592"/>
<stop offset="1" stop-color="#4F4A9D"/>
</linearGradient>
<linearGradient id="paint50_linear" x1="103.527" y1="2.07227" x2="96.8991" y2="10.452" gradientUnits="userSpaceOnUse">
<stop stop-color="#A83592"/>
<stop offset="1" stop-color="#4F4A9D"/>
</linearGradient>
<linearGradient id="paint51_linear" x1="67.3379" y1="12.3677" x2="62.556" y2="22.0414" gradientUnits="userSpaceOnUse">
<stop stop-color="#A83592"/>
<stop offset="1" stop-color="#4F4A9D"/>
</linearGradient>
<linearGradient id="paint52_linear" x1="229.385" y1="135.536" x2="236.034" y2="143.941" gradientUnits="userSpaceOnUse">
<stop stop-color="#A83592"/>
<stop offset="1" stop-color="#4F4A9D"/>
</linearGradient>
<linearGradient id="paint53_linear" x1="166.634" y1="11.5527" x2="171.414" y2="21.2271" gradientUnits="userSpaceOnUse">
<stop stop-color="#A83592"/>
<stop offset="1" stop-color="#4F4A9D"/>
</linearGradient>
<linearGradient id="paint54_linear" x1="235.293" y1="99.1016" x2="228.667" y2="107.482" gradientUnits="userSpaceOnUse">
<stop stop-color="#A83592"/>
<stop offset="1" stop-color="#4F4A9D"/>
</linearGradient>
<linearGradient id="paint55_linear" x1="219.365" y1="171.067" x2="224.149" y2="180.74" gradientUnits="userSpaceOnUse">
<stop stop-color="#A83592"/>
<stop offset="1" stop-color="#4F4A9D"/>
</linearGradient>
<linearGradient id="paint56_linear" x1="133.639" y1="0.297852" x2="140.284" y2="8.71182" gradientUnits="userSpaceOnUse">
<stop stop-color="#A83592"/>
<stop offset="1" stop-color="#4F4A9D"/>
</linearGradient>
<linearGradient id="paint57_linear" x1="17.9805" y1="169.536" x2="13.201" y2="179.21" gradientUnits="userSpaceOnUse">
<stop stop-color="#A83592"/>
<stop offset="1" stop-color="#4F4A9D"/>
</linearGradient>
<linearGradient id="paint58_linear" x1="2.4668" y1="99.6768" x2="9.11497" y2="108.083" gradientUnits="userSpaceOnUse">
<stop stop-color="#A83592"/>
<stop offset="1" stop-color="#4F4A9D"/>
</linearGradient>
<linearGradient id="paint59_linear" x1="7.59155" y1="135.971" x2="0.963712" y2="144.35" gradientUnits="userSpaceOnUse">
<stop stop-color="#A83592"/>
<stop offset="1" stop-color="#4F4A9D"/>
</linearGradient>
<linearGradient id="paint60_linear" x1="199.975" y1="198.298" x2="199.977" y2="208.867" gradientUnits="userSpaceOnUse">
<stop stop-color="#A83592"/>
<stop offset="1" stop-color="#4F4A9D"/>
</linearGradient>
<linearGradient id="paint61_linear" x1="36.6799" y1="197.87" x2="36.6871" y2="208.438" gradientUnits="userSpaceOnUse">
<stop stop-color="#A83592"/>
<stop offset="1" stop-color="#4F4A9D"/>
</linearGradient>
<linearGradient id="paint62_linear" x1="199.696" y1="33.2017" x2="199.696" y2="43.7699" gradientUnits="userSpaceOnUse">
<stop stop-color="#A83592"/>
<stop offset="1" stop-color="#4F4A9D"/>
</linearGradient>
<linearGradient id="paint63_linear" x1="36.4014" y1="32.7734" x2="36.4014" y2="43.3417" gradientUnits="userSpaceOnUse">
<stop stop-color="#A83592"/>
<stop offset="1" stop-color="#4F4A9D"/>
</linearGradient>
<linearGradient id="paint64_linear" x1="222.919" y1="64.3335" x2="218.135" y2="74.0064" gradientUnits="userSpaceOnUse">
<stop stop-color="#A83592"/>
<stop offset="1" stop-color="#4F4A9D"/>
</linearGradient>
<linearGradient id="paint65_linear" x1="12.9993" y1="63.7495" x2="17.7811" y2="73.4232" gradientUnits="userSpaceOnUse">
<stop stop-color="#A83592"/>
<stop offset="1" stop-color="#4F4A9D"/>
</linearGradient>
</defs>
</svg>
