<svg width="90" height="98" fill="none" xmlns="http://www.w3.org/2000/svg"><ellipse cx="45" cy="44.954" rx="45" ry="44.954" fill="#FCF8F2"/><path d="M46.05 46.179h15.124c.582 0 1.053.47 1.053 1.052v10.66h1.678c.582 0 1.052.474 1.052 1.056 0 .582-.47 1.056-1.052 1.056h-1.678v35.888h16.028v-3.496h-8.012c-.582 0-1.056-.47-1.056-1.052v-5.405c0-.582.474-1.053 1.056-1.053h8.012v-3.18h-8.012a1.058 1.058 0 01-1.056-1.057v-5.401c0-.586.474-1.057 1.056-1.057h8.012v-3.18h-8.012a1.056 1.056 0 01-1.056-1.057V64.55c0-.582.474-1.056 1.056-1.056h8.012v-3.492H68.68a1.055 1.055 0 01-1.052-1.056c0-.582.47-1.057 1.052-1.057h10.632c.582 0 1.052.475 1.052 1.057v38a1.05 1.05 0 01-1.052 1.053h-68.62c-.582 0-1.056-.47-1.056-1.052v-38c0-.582.474-1.057 1.056-1.057h2.73c.583 0 1.053.475 1.053 1.057s-.47 1.056-1.052 1.056h-1.679v3.492h8.017c.582 0 1.052.474 1.052 1.056v5.402c0 .586-.47 1.056-1.052 1.056h-8.017v3.181h8.017c.582 0 1.052.47 1.052 1.057v5.401c0 .582-.47 1.056-1.052 1.056h-8.017v3.181h8.017c.582 0 1.052.47 1.052 1.053v5.405a1.05 1.05 0 01-1.052 1.052h-8.017v3.496h16.03V60.003h-9.576a1.055 1.055 0 01-1.052-1.056c0-.582.47-1.057 1.052-1.057h9.575V47.231c0-.582.475-1.052 1.057-1.052h2.73a1.055 1.055 0 010 2.109h-1.678V95.89H40.09v-9.953c0-.582.474-1.053 1.056-1.053h7.71c.582 0 1.052.47 1.052 1.053v9.953h10.209V48.287H36.336a1.055 1.055 0 010-2.108h9.714zm1.75 40.815h-5.6v8.897h5.6v-8.897zm-13.68-34.19h21.764c.582 0 1.053.47 1.053 1.052v5.406a1.05 1.05 0 01-1.053 1.052H34.12c-.582 0-1.056-.47-1.056-1.052v-5.406c0-.582.474-1.052 1.056-1.052zm20.708 2.109H35.172v3.292h19.656v-3.292zM34.119 74.19h21.765c.582 0 1.053.47 1.053 1.057v5.401c0 .582-.47 1.056-1.053 1.056H34.12a1.058 1.058 0 01-1.056-1.056v-5.401c0-.586.474-1.057 1.056-1.057zm20.709 2.11H35.172v3.297h19.656V76.3zm-12.214-7.4c.582 0 1.052.47 1.052 1.053 0 .586-.47 1.056-1.052 1.056H34.12c-.582 0-1.056-.47-1.056-1.056V64.55c0-.582.474-1.056 1.056-1.056h21.765c.582 0 1.053.474 1.053 1.056v5.402c0 .586-.47 1.056-1.053 1.056H47.39a1.055 1.055 0 110-2.109h7.438v-3.292H35.172V68.9h7.442zm35.641 18.094h-6.96v3.293h6.96v-3.293zm-59.55 0h-6.96v3.293h6.96v-3.293zM78.254 76.3h-6.96v3.297h6.96V76.3zm-59.55 0h-6.96v3.297h6.96V76.3zm59.55-10.691h-6.96V68.9h6.96v-3.293zm-59.55 0h-6.96V68.9h6.96v-3.293z" fill="url(#paint0_linear)"/><defs><linearGradient id="paint0_linear" x1="9.636" y1="26.005" x2="81.624" y2="96.722" gradientUnits="userSpaceOnUse"><stop stop-color="#A83592"/><stop offset="1" stop-color="#4F4A9D"/></linearGradient></defs></svg>