<svg width="91" height="98" viewBox="0 0 91 98" fill="none" xmlns="http://www.w3.org/2000/svg">
<ellipse cx="45.5" cy="44.9541" rx="45" ry="44.9541" fill="white"/>
<g clip-path="url(#clip0)">
<path d="M57.0033 63.0325V65.9423C57.0033 68.0655 60.3215 66.1334 61.0796 65.8132C70.0213 69.922 80.621 63.046 80.5041 53.1929C80.5042 45.5787 74.3084 39.3838 66.6927 39.3838C54.413 39.3689 48.251 54.4476 57.0033 63.0325ZM66.6929 41.4964C73.1437 41.4964 78.3916 46.7435 78.3916 53.193C78.4958 61.7114 69.1644 67.5362 61.5646 63.7083C61.2748 63.574 60.9833 63.566 60.6899 63.6844L59.1157 64.3494V62.5799C59.1157 62.2845 58.9919 62.0025 58.7745 61.8025C50.9764 54.6456 56.1002 41.4905 66.6929 41.4964Z" fill="url(#paint0_linear)"/>
<path d="M63.3785 51.3594C63.9619 51.3594 64.4347 50.8866 64.4347 50.3031C64.4347 49.0741 65.5123 48.0271 66.7399 48.0456C67.9167 48.0692 68.8865 49.0075 68.9475 50.1815C69.0138 51.4581 67.9726 52.5612 66.6927 52.5612C66.1092 52.5612 65.6364 53.034 65.6364 53.6175V57.0831C65.6841 58.4803 67.7007 58.4819 67.749 57.0831V54.5428C69.7538 54.0401 71.1644 52.1381 71.0573 50.0721C70.9391 47.7973 69.0613 45.9793 66.7822 45.9336C64.3647 45.8826 62.322 47.8878 62.322 50.3031C62.3222 50.8866 62.795 51.3594 63.3785 51.3594Z" fill="url(#paint1_linear)"/>
<path d="M66.6942 59.2666C65.3348 59.2666 65.3326 61.3792 66.6942 61.3792C68.0536 61.3792 68.0558 59.2666 66.6942 59.2666Z" fill="url(#paint2_linear)"/>
<path d="M23.9821 80.6611H15.8969C15.3134 80.6611 14.8406 81.1339 14.8406 81.7174V85.7674C14.8406 86.3509 15.3134 86.8237 15.8969 86.8237H23.9821C24.5656 86.8237 25.0384 86.3509 25.0384 85.7674V81.7174C25.0384 81.1341 24.5656 80.6611 23.9821 80.6611ZM22.9258 84.7111H16.9532V82.7737H22.9258V84.7111Z" fill="url(#paint3_linear)"/>
<path d="M80.2682 72.4965C79.6708 71.771 78.7891 71.3549 77.8492 71.3549H47.8764C47.4473 71.3549 47.032 71.4278 46.6435 71.5627C45.3782 69.7587 43.8265 68.1637 42.0584 66.8496H48.9886C49.5721 66.8496 50.0449 66.3768 50.0449 65.7933V46.2384C50.2273 31.5666 34.0737 21.5327 20.8919 28.0027C19.6581 28.5885 20.564 30.4968 21.798 29.9112C33.6119 24.1163 48.0945 33.0938 47.9322 46.2387C47.9324 46.2385 47.9324 64.7368 47.9324 64.7368H40.5527C42.0536 63.039 43.1699 61.0162 43.5899 59.3174C43.7618 59.3337 43.9345 59.3444 44.1073 59.3495C46.1999 59.3495 47.9024 57.647 47.9024 55.5546V52.1077C47.9024 50.3773 46.7382 48.9138 45.1519 48.459C45.8799 39.2024 39.0788 31.2899 29.6132 31.2307C20.1478 31.2902 13.3463 39.2026 14.0746 48.459C12.701 48.8528 11.6438 50.0031 11.3851 51.428L11.4181 46.2385C11.4181 41.1375 13.6081 36.2471 17.4267 32.8212C18.4433 31.909 17.0326 30.3368 16.0158 31.2486C11.7512 35.0747 9.30522 40.5382 9.30522 46.2316V65.7864C9.3624 66.4337 9.59056 66.788 10.2374 66.8494H17.2927C12.1392 70.68 9.01636 76.8311 9.01636 83.2563V86.1981C9.01636 87.5638 11.1289 87.5638 11.1289 86.1981V83.2563C11.1289 78.4695 13.0601 73.8015 16.4225 70.3964L23.8222 75.4586C24.3081 75.7534 24.7717 75.6948 25.2132 75.2827L28.6422 71.3671V86.198C28.6422 87.5637 30.7548 87.5637 30.7548 86.198V71.3671L34.184 75.2828C34.6255 75.6949 35.0891 75.7535 35.575 75.4588L42.9474 70.4153C43.6675 71.1467 44.3279 71.9389 44.9207 72.7854C44.5546 73.246 44.2925 73.7964 44.1738 74.4042L40.7627 91.8608H26.834C26.2505 91.8608 25.7777 92.3336 25.7777 92.9171V94.7373C25.7777 96.5363 27.2415 98 29.0404 98H73.3411C75.1413 98 76.6985 96.7177 77.0437 94.9508L77.6536 91.8307C77.9157 90.4906 75.8422 90.0846 75.5803 91.4255L74.9704 94.5456C74.8185 95.3232 74.1333 95.8874 73.3411 95.8874H43.3679C42.7302 95.8874 42.2436 95.2965 42.3658 94.6706L46.2469 74.8093C46.3989 74.0318 47.0842 73.4674 47.8764 73.4674H77.8492C78.4869 73.4674 78.9736 74.0585 78.8514 74.6844L76.6582 85.9076C76.3961 87.2478 78.4696 87.6534 78.7315 86.3128L80.9247 75.0896C81.1049 74.1671 80.8657 73.222 80.2682 72.4965ZM29.6984 67.5012C29.6963 67.5012 29.6943 67.5012 29.6922 67.5012C24.0575 67.4984 19.1263 63.6682 17.7477 58.3114C18.4797 57.6191 18.9372 56.6393 18.9372 55.5546V52.1321C22.3349 52.1226 29.3556 51.2562 32.9984 44.7479C34.1792 46.843 36.4813 49.9307 40.3455 51.4507C40.2361 51.8347 40.3076 55.0888 40.2885 55.5546C40.2885 56.7058 40.8039 57.739 41.616 58.4356C41.6136 58.4446 41.6112 58.4536 41.6087 58.4626C40.1878 60.3768 37.9245 61.5299 35.4807 61.5299H33.4878C32.3208 57.5793 26.5636 58.2925 26.4574 62.4595C26.5347 66.4723 32.0311 67.3532 33.4081 63.6425H35.4805C36.8547 63.6425 38.1843 63.3563 39.3972 62.8271C37.0769 65.7562 33.4388 67.5012 29.6984 67.5012ZM30.0348 63.9025C29.2274 63.9025 28.5704 63.2551 28.5704 62.4593C28.6505 60.5448 31.4197 60.5455 31.4996 62.4593C31.4994 63.2551 30.8424 63.9025 30.0348 63.9025ZM45.7895 52.1077V55.5546C45.7895 56.4823 45.0347 57.2369 44.107 57.2369C43.2167 57.2015 42.4013 56.5285 42.4013 55.5546V52.1077C42.4913 49.8727 45.6994 49.8727 45.7895 52.1077ZM29.613 33.3433C37.0161 33.3433 43.0391 39.3111 43.0391 46.6464V48.459C42.3564 48.6548 41.7521 49.0373 41.2849 49.5474C36.0429 47.5741 34.0066 41.971 33.9864 41.9141C33.671 41.0112 32.3418 40.9882 32.0011 41.8889C30.7007 45.3286 28.3052 47.7207 24.8811 48.999C22.3031 49.9613 19.7738 50.0612 18.3035 50.0103C17.81 49.2688 17.0628 48.7101 16.1869 48.4588V46.6462C16.187 39.3111 22.2098 33.3433 29.613 33.3433ZM13.4364 52.1077C13.4364 51.18 14.1912 50.4254 15.1189 50.4254H15.1423C16.07 50.4254 16.8246 51.18 16.8246 52.1077V55.5546C16.8246 56.4823 16.07 57.2369 15.1423 57.2369H15.1189C14.1912 57.2369 13.4364 56.4823 13.4364 55.5546V52.1077ZM11.3557 56.0461C11.6031 58.1573 13.7023 59.7027 15.8258 59.2878C16.4273 61.3407 17.4768 63.1897 18.8528 64.7368H11.3557V56.0461ZM24.2413 73.1859L18.0379 68.942C19.0266 68.1518 20.0978 67.4617 21.2371 66.8841C23.0691 68.1998 25.2138 69.0968 27.5144 69.448L24.2413 73.1859ZM35.1556 73.1859L31.8825 69.4482C34.1396 69.1044 36.2957 68.2329 38.1524 66.9036C39.2854 67.4814 40.3507 68.1706 41.3343 68.9589L35.1556 73.1859ZM29.0401 95.8874C28.4059 95.8874 27.89 95.3715 27.89 94.7373V93.9734H40.3496C40.1882 94.5992 40.1921 95.2728 40.4042 95.8874H29.0401Z" fill="url(#paint4_linear)"/>
<path d="M56.2512 84.6769C56.2512 87.0797 58.2059 89.0343 60.6086 89.0343C66.3895 88.795 66.3878 80.5578 60.6086 80.3193C58.2059 80.3193 56.2512 82.274 56.2512 84.6769ZM62.8536 84.6769C62.8536 85.9147 61.8466 86.9217 60.6088 86.9217C57.6306 86.7983 57.6314 82.5547 60.6088 82.4319C61.8466 82.4319 62.8536 83.4391 62.8536 84.6769Z" fill="url(#paint5_linear)"/>
</g>
<defs>
<linearGradient id="paint0_linear" x1="52.8938" y1="39.3838" x2="80.5344" y2="66.995" gradientUnits="userSpaceOnUse">
<stop stop-color="#A83592"/>
<stop offset="1" stop-color="#4F4A9D"/>
</linearGradient>
<linearGradient id="paint1_linear" x1="62.322" y1="45.9326" x2="73.8733" y2="54.2095" gradientUnits="userSpaceOnUse">
<stop stop-color="#A83592"/>
<stop offset="1" stop-color="#4F4A9D"/>
</linearGradient>
<linearGradient id="paint2_linear" x1="65.6738" y1="59.2666" x2="67.7851" y2="61.3061" gradientUnits="userSpaceOnUse">
<stop stop-color="#A83592"/>
<stop offset="1" stop-color="#4F4A9D"/>
</linearGradient>
<linearGradient id="paint3_linear" x1="14.8406" y1="80.6611" x2="20.2963" y2="89.6893" gradientUnits="userSpaceOnUse">
<stop stop-color="#A83592"/>
<stop offset="1" stop-color="#4F4A9D"/>
</linearGradient>
<linearGradient id="paint4_linear" x1="9.01636" y1="26" x2="81.0163" y2="97.967" gradientUnits="userSpaceOnUse">
<stop stop-color="#A83592"/>
<stop offset="1" stop-color="#4F4A9D"/>
</linearGradient>
<linearGradient id="paint5_linear" x1="56.2512" y1="80.3193" x2="64.9661" y2="89.0117" gradientUnits="userSpaceOnUse">
<stop stop-color="#A83592"/>
<stop offset="1" stop-color="#4F4A9D"/>
</linearGradient>
<clipPath id="clip0">
<rect width="72" height="72" fill="white" transform="translate(9 26)"/>
</clipPath>
</defs>
</svg>
