<svg width="40" height="40" fill="none" xmlns="http://www.w3.org/2000/svg"><circle cx="20" cy="20" r="20"/><path d="M20.667 16.09a4.572 4.572 0 00-4.578 4.578 4.572 4.572 0 004.578 4.578 4.572 4.572 0 004.578-4.578 4.572 4.572 0 00-4.578-4.578zm0 7.553a2.982 2.982 0 01-2.975-2.975 2.982 2.982 0 012.975-2.976 2.982 2.982 0 012.976 2.976 2.982 2.982 0 01-2.976 2.975zm4.766-8.808a1.069 1.069 0 100 2.139 1.067 1.067 0 00.988-1.48 1.068 1.068 0 00-.988-.659zm4.158 5.833c0-1.232.011-2.453-.058-3.683-.069-1.429-.395-2.697-1.44-3.742-1.046-1.046-2.312-1.37-3.74-1.44-1.233-.068-2.454-.057-3.684-.057-1.232 0-2.453-.011-3.683.058-1.428.069-2.696.395-3.74 1.44-1.048 1.046-1.371 2.312-1.44 3.74-.07 1.233-.058 2.454-.058 3.684s-.012 2.453.058 3.683c.069 1.428.395 2.696 1.44 3.74 1.046 1.048 2.312 1.371 3.74 1.44 1.232.07 2.453.059 3.683.059 1.232 0 2.453.01 3.683-.058 1.429-.07 2.697-.396 3.741-1.44 1.047-1.047 1.371-2.313 1.44-3.741.072-1.23.058-2.451.058-3.683zm-1.964 5.263c-.163.406-.36.71-.674 1.022a2.856 2.856 0 01-1.023.675c-1.174.466-3.962.361-5.263.361-1.301 0-4.091.105-5.266-.36a2.837 2.837 0 01-1.022-.673 2.856 2.856 0 01-.674-1.023c-.464-1.176-.36-3.964-.36-5.265 0-1.302-.104-4.092.36-5.266.163-.406.36-.71.674-1.022a2.885 2.885 0 011.023-.674c1.174-.465 3.964-.36 5.265-.36 1.301 0 4.092-.105 5.266.36.406.162.71.359 1.022.674.315.314.511.616.674 1.022.464 1.174.36 3.964.36 5.266 0 1.301.104 4.089-.362 5.263z" fill="#4F4A9D"/></svg>