<svg width="40" height="40" fill="none" xmlns="http://www.w3.org/2000/svg"><circle cx="20" cy="20" r="20"/><path d="M29.22 14.17c-.721-.858-2.054-1.208-4.6-1.208h-9.24c-2.604 0-3.96.373-4.679 1.286C10 15.14 10 16.452 10 18.268v3.463c0 3.52.832 5.306 5.38 5.306h9.24c2.208 0 3.43-.309 4.222-1.066.812-.777 1.158-2.045 1.158-4.24v-3.463c0-1.916-.054-3.236-.78-4.098zm-6.38 6.308l-4.196 2.193a.645.645 0 01-.944-.572v-4.372a.645.645 0 01.943-.573l4.196 2.18a.645.645 0 01.001 1.144z" fill="#4F4A9D"/></svg>