<svg width="81" height="80" viewBox="0 0 81 80" fill="none" xmlns="http://www.w3.org/2000/svg">
<circle cx="40" cy="40" r="40" fill="url(#paint0_linear)"/>
<path d="M41.1273 20.0064V20C41.0843 20 41.0423 20.0026 41.0002 20.0026C40.9582 20.0026 40.9161 20 40.8731 20V20.0064C32.2793 20.1431 25.3538 27.147 25.3538 35.7735C25.3538 47.3983 39.002 58.4322 41.0002 60C42.9987 58.4325 56.6467 47.398 56.6467 35.7735C56.6467 27.147 49.7214 20.1431 41.1273 20.0064ZM41.1273 42.5585C36.6306 42.5585 32.986 38.9146 32.986 34.4185C32.986 29.9212 36.6306 26.2766 41.1273 26.2766C45.624 26.2766 49.2689 29.9212 49.2689 34.4185C49.2689 38.9146 45.624 42.5585 41.1273 42.5585Z" fill="white"/>
<defs>
<linearGradient id="paint0_linear" x1="0" y1="0" x2="80" y2="80" gradientUnits="userSpaceOnUse">
<stop stop-color="#A83592"/>
<stop offset="1" stop-color="#4F4A9D"/>
</linearGradient>
</defs>
</svg>
