<svg width="81" height="80" viewBox="0 0 81 80" fill="none" xmlns="http://www.w3.org/2000/svg">
<circle cx="40.5" cy="40" r="40" fill="url(#paint0_linear)"/>
<g clip-path="url(#clip0)">
<path d="M41.1952 44.6007C37.7653 41.7804 35.4751 38.3002 34.2711 36.32L33.3729 34.6268C33.687 34.2899 36.0817 31.7255 37.1195 30.3342C38.4236 28.5871 36.5328 27.0092 36.5328 27.0092C36.5328 27.0092 31.2124 21.688 29.9999 20.6325C28.7874 19.5755 27.3916 20.1626 27.3916 20.1626C24.8431 21.8092 22.2012 23.2408 22.0427 30.1258C22.0368 36.5719 26.9301 43.2205 32.2217 48.3676C37.5218 54.1805 44.7988 60.0067 51.8342 60C58.7185 59.843 60.1497 57.2015 61.7963 54.653C61.7963 54.653 62.3837 53.2584 61.3279 52.0447C60.2712 50.8315 54.9494 45.51 54.9494 45.51C54.9494 45.51 53.3726 43.6188 51.6251 44.924C50.3228 45.8975 47.9842 48.0628 47.4208 48.5878C47.4219 48.5897 43.5098 46.5041 41.1952 44.6007Z" fill="white"/>
</g>
<defs>
<linearGradient id="paint0_linear" x1="0.5" y1="0" x2="80.5" y2="80" gradientUnits="userSpaceOnUse">
<stop stop-color="#A83592"/>
<stop offset="1" stop-color="#4F4A9D"/>
</linearGradient>
<clipPath id="clip0">
<rect width="40" height="40" fill="white" transform="translate(22 20)"/>
</clipPath>
</defs>
</svg>
