<svg width="91" height="98" viewBox="0 0 91 98" fill="none" xmlns="http://www.w3.org/2000/svg">
<ellipse cx="45.5" cy="44.9541" rx="45" ry="44.9541" fill="#FCF8F2"/>
<g clip-path="url(#clip0)">
<path d="M45.9999 39.1201C44.0282 39.1201 42.1305 39.7133 40.512 40.8355C40.0336 41.1672 39.9127 41.8269 40.2419 42.3089C40.5712 42.791 41.226 42.9128 41.7044 42.5812C42.9706 41.7033 44.4558 41.2392 45.9999 41.2392C50.1841 41.2392 53.588 44.6688 53.588 48.8843C53.588 53.0998 50.1841 56.5295 45.9999 56.5295C41.8158 56.5295 38.4118 53.0998 38.4118 48.8843C38.4118 47.6407 38.6984 46.4553 39.2635 45.3609C39.5316 44.8417 39.3313 44.202 38.8161 43.932C38.3007 43.6622 37.666 43.8637 37.3979 44.3829C36.6853 45.7627 36.3086 47.3193 36.3086 48.8843C36.3087 54.2684 40.6562 58.6486 45.9999 58.6486C51.3437 58.6486 55.6911 54.2684 55.6911 48.8843C55.6911 43.5003 51.3437 39.1201 45.9999 39.1201Z" fill="url(#paint0_linear)"/>
<path d="M81.9197 96.5334L71.541 71.4087C71.3779 71.0136 70.995 70.7563 70.5703 70.7563H60.2277C62.2394 68.0144 63.9138 65.2833 65.2215 62.6017C67.539 57.8495 68.7139 53.2343 68.7139 48.8842C68.7137 36.2658 58.5246 26 46.0004 26C33.4762 26 23.2871 36.2658 23.2871 48.884C23.2871 53.2341 24.462 57.8495 26.7795 62.6016C28.087 65.2832 29.7615 68.0144 31.7732 70.7562H21.4307C21.006 70.7562 20.6229 71.0136 20.46 71.4085L13.3876 88.529C13.1645 89.0693 13.4182 89.6895 13.9544 89.9142C14.0866 89.9696 14.2232 89.9959 14.358 89.9959C14.77 89.9959 15.1611 89.7504 15.3291 89.3433L16.3382 86.9003H23.4969L19.7872 95.8809H12.6287L13.7041 93.2775C13.9272 92.7373 13.6735 92.1171 13.1373 91.8924C12.6009 91.6672 11.9855 91.9232 11.7624 92.4633L10.0813 96.5334C9.94613 96.8604 9.98213 97.2339 10.1773 97.5283C10.3722 97.823 10.7004 98 11.052 98H80.9488C81.3002 98 81.6286 97.823 81.8237 97.5283C82.0187 97.2339 82.0548 96.8604 81.9197 96.5334ZM25.3903 48.884C25.3903 37.4341 34.6359 28.1189 46.0004 28.1189C57.3649 28.1189 66.6106 37.4342 66.6106 48.884C66.6106 53.6854 64.9547 61.3579 57.2949 71.1353C57.2871 71.1444 57.2802 71.1541 57.2729 71.1635C56.8817 71.6623 56.4753 72.1665 56.0522 72.6763C51.843 77.7475 47.5834 81.4505 46.0003 82.7662C44.4218 81.455 40.1823 77.7705 35.9761 72.709C35.5424 72.1872 35.1264 71.6712 34.7261 71.1607C34.7196 71.1526 34.7136 71.1441 34.7068 71.1361C27.0473 61.3595 25.3903 53.6872 25.3903 48.884ZM22.132 72.8752H29.2908L26.6797 79.196H19.521L22.132 72.8752ZM28.2812 95.8811L34.8542 79.9696L53.5593 95.8811H28.2812ZM56.8194 95.8811L35.1136 77.417C34.8574 77.1989 34.5132 77.1172 34.1878 77.1968C33.8621 77.2762 33.5932 77.5076 33.4645 77.8193L26.0034 95.8809H22.0653L26.0445 86.2478C26.1796 85.9209 26.1436 85.5475 25.9484 85.2529C25.7535 84.9583 25.4251 84.7812 25.0736 84.7812H17.2139L18.6458 81.3148H27.3811C27.8058 81.3148 28.1889 81.0574 28.3518 80.6625L31.5688 72.8751H33.3938C33.7106 73.2731 34.0327 73.6712 34.3633 74.0691C39.7893 80.5984 45.1321 84.7902 45.3569 84.9656C45.5465 85.1134 45.7734 85.1871 46.0004 85.1871C46.2274 85.1871 46.4545 85.1133 46.6439 84.9656C46.7675 84.8693 48.4379 83.5581 50.8167 81.315H62.7249C63.3057 81.315 63.7765 80.8407 63.7765 80.2555C63.7765 79.6704 63.3057 79.196 62.7249 79.196H52.984C54.442 77.7191 56.0356 75.997 57.6377 74.0693C57.9683 73.6713 58.2905 73.2733 58.6072 72.8752H69.8688L72.4798 79.196H66.9312C66.3504 79.196 65.8796 79.6704 65.8796 80.2555C65.8796 80.8407 66.3503 81.315 66.9312 81.315H73.3551L74.7869 84.7814H53.1208C52.6819 84.7814 52.2893 85.0559 52.1356 85.4702C51.9822 85.8845 52.1 86.3512 52.4315 86.641L62.9971 95.8811H56.8194ZM66.2056 95.8811L55.9366 86.9005H75.6624L79.3723 95.8811H66.2056Z" fill="url(#paint1_linear)"/>
</g>
<defs>
<linearGradient id="paint0_linear" x1="36.3086" y1="39.1201" x2="55.8365" y2="58.5021" gradientUnits="userSpaceOnUse">
<stop stop-color="#A83592"/>
<stop offset="1" stop-color="#4F4A9D"/>
</linearGradient>
<linearGradient id="paint1_linear" x1="10.0005" y1="26" x2="82.0005" y2="98" gradientUnits="userSpaceOnUse">
<stop stop-color="#A83592"/>
<stop offset="1" stop-color="#4F4A9D"/>
</linearGradient>
<clipPath id="clip0">
<rect width="72" height="72" fill="white" transform="translate(10 26)"/>
</clipPath>
</defs>
</svg>
