<svg width="40" height="40" viewBox="0 0 40 40" fill="none" xmlns="http://www.w3.org/2000/svg">
<circle cx="20" cy="20" r="20" fill="none"/>
<path d="M29.2205 14.1702C28.4985 13.312 27.1656 12.9619 24.6201 12.9619H15.3797C12.7759 12.9619 11.4205 13.3346 10.7012 14.2482C10 15.1391 10 16.4517 10 18.2683V21.7308C10 25.2502 10.832 27.0371 15.3797 27.0371H24.6201C26.8276 27.0371 28.0508 26.7282 28.8422 25.9709C29.6537 25.1942 30 23.9262 30 21.7308V18.2683C30 16.3525 29.9457 15.0322 29.2205 14.1702ZM22.8401 20.4776L18.6441 22.6706C18.5503 22.7196 18.4477 22.7439 18.3452 22.7439C18.2292 22.7439 18.1135 22.7127 18.011 22.6506C17.8179 22.5337 17.7001 22.3244 17.7001 22.0988V17.7269C17.7001 17.5016 17.8176 17.2926 18.0103 17.1755C18.203 17.0585 18.4426 17.0505 18.6426 17.1544L22.8386 19.3332C23.0521 19.444 23.1861 19.6644 23.1865 19.9049C23.1867 20.1455 23.0532 20.3662 22.8401 20.4776Z" fill="#4F4A9D"/>
</svg>
