<svg width="237" height="210" fill="none" xmlns="http://www.w3.org/2000/svg"><g opacity=".05"><path d="M79.242 124.637a38.388 38.388 0 012.86-14.623 38.133 38.133 0 018.202-12.398 37.77 37.77 0 0112.291-8.278 37.517 37.517 0 0114.5-2.89 37.512 37.512 0 0114.499 2.89 37.773 37.773 0 0112.291 8.278 38.142 38.142 0 018.203 12.398 38.384 38.384 0 012.859 14.623c0 21.144-16.891 37.872-37.852 37.872-20.958 0-37.853-17.044-37.853-37.872zm87.91 0c0-27.773-22.533-50.496-50.074-50.496-27.541 0-50.074 22.723-50.074 50.496 0 27.773 22.533 50.496 50.074 50.496 27.541-.316 50.074-22.723 50.074-50.496z" fill="#4F4A9D"/><path d="M100.387 124.639c0 4.464 1.759 8.745 4.889 11.902a16.624 16.624 0 0011.803 4.93c4.426 0 8.672-1.774 11.802-4.93a16.906 16.906 0 004.889-11.902c0-4.464-1.759-8.746-4.889-11.902a16.62 16.62 0 00-11.802-4.93 16.62 16.62 0 00-11.803 4.93 16.904 16.904 0 00-4.889 11.902z" fill="#AE9CCC"/><path d="M173.827 203.75c0 1.339.528 2.624 1.467 3.571a4.987 4.987 0 003.541 1.479 4.987 4.987 0 003.541-1.479 5.072 5.072 0 001.466-3.571 5.07 5.07 0 00-1.466-3.571 4.987 4.987 0 00-3.541-1.479 4.987 4.987 0 00-3.541 1.479 5.072 5.072 0 00-1.467 3.571z" fill="url(#paint0_linear)"/><path d="M73.68 175.136c0 1.785.704 3.498 1.956 4.761a6.651 6.651 0 004.721 1.972c1.77 0 3.47-.71 4.721-1.972a6.764 6.764 0 001.956-4.761 6.76 6.76 0 00-1.956-4.761 6.647 6.647 0 00-4.72-1.972c-1.772 0-3.47.709-4.722 1.972a6.76 6.76 0 00-1.955 4.761z" fill="url(#paint1_linear)"/><path d="M163.813 80.874a6.76 6.76 0 001.955 4.76 6.65 6.65 0 004.721 1.972 6.646 6.646 0 004.721-1.972 6.758 6.758 0 001.956-4.76 6.759 6.759 0 00-1.956-4.761 6.648 6.648 0 00-4.721-1.972 6.65 6.65 0 00-4.721 1.972 6.762 6.762 0 00-1.955 4.76z" fill="url(#paint2_linear)"/><path d="M150.462 175.136c0 1.785.703 3.498 1.955 4.761a6.652 6.652 0 004.721 1.972 6.65 6.65 0 004.721-1.972 6.76 6.76 0 001.956-4.761 6.757 6.757 0 00-1.956-4.761 6.646 6.646 0 00-4.721-1.972c-1.77 0-3.469.709-4.721 1.972a6.76 6.76 0 00-1.955 4.761z" fill="url(#paint3_linear)"/><path d="M163.813 161.67c0 1.786.703 3.498 1.955 4.761a6.652 6.652 0 004.721 1.972 6.65 6.65 0 004.721-1.972 6.759 6.759 0 001.956-4.761 6.759 6.759 0 00-1.956-4.761 6.646 6.646 0 00-4.721-1.972 6.65 6.65 0 00-4.721 1.972 6.762 6.762 0 00-1.955 4.761z" fill="url(#paint4_linear)"/><path d="M170.492 183.55c0 2.232.879 4.373 2.444 5.951a8.307 8.307 0 005.901 2.465 8.308 8.308 0 005.902-2.465 8.452 8.452 0 002.444-5.951 8.454 8.454 0 00-2.444-5.951 8.312 8.312 0 00-5.902-2.465 8.312 8.312 0 00-5.901 2.465 8.454 8.454 0 00-2.444 5.951z" fill="url(#paint5_linear)"/><path d="M197.196 183.553c0 1.339.528 2.624 1.467 3.571a4.987 4.987 0 003.541 1.479 4.988 4.988 0 003.541-1.479 5.072 5.072 0 001.466-3.571 5.072 5.072 0 00-1.466-3.571 4.988 4.988 0 00-3.541-1.479 4.987 4.987 0 00-3.541 1.479 5.073 5.073 0 00-1.467 3.571z" fill="url(#paint6_linear)"/><path d="M73.68 67.41c0 1.785.704 3.497 1.956 4.76a6.648 6.648 0 004.721 1.972c1.77 0 3.47-.71 4.721-1.972a6.761 6.761 0 001.956-4.76 6.762 6.762 0 00-1.956-4.762 6.648 6.648 0 00-4.72-1.972 6.65 6.65 0 00-4.722 1.972 6.761 6.761 0 00-1.955 4.761z" fill="url(#paint7_linear)"/><path d="M130.431 57.312c0 1.786.703 3.498 1.955 4.76a6.65 6.65 0 004.721 1.973 6.65 6.65 0 004.721-1.972 6.759 6.759 0 001.956-4.761 6.758 6.758 0 00-1.956-4.76 6.648 6.648 0 00-4.721-1.973 6.65 6.65 0 00-4.721 1.972 6.762 6.762 0 00-1.955 4.76z" fill="url(#paint8_linear)"/><path d="M150.462 67.41c0 1.785.703 3.497 1.955 4.76a6.65 6.65 0 004.721 1.972 6.65 6.65 0 004.721-1.972 6.758 6.758 0 001.956-4.76 6.758 6.758 0 00-1.956-4.762 6.647 6.647 0 00-4.721-1.972 6.65 6.65 0 00-4.721 1.972 6.761 6.761 0 00-1.955 4.761z" fill="url(#paint9_linear)"/><path d="M90.371 57.312c0 1.786.704 3.498 1.956 4.76a6.649 6.649 0 004.72 1.973 6.65 6.65 0 004.722-1.972 6.762 6.762 0 001.955-4.761 6.762 6.762 0 00-1.955-4.76 6.649 6.649 0 00-4.721-1.973c-1.77 0-3.47.71-4.721 1.972a6.762 6.762 0 00-1.956 4.76z" fill="url(#paint10_linear)"/><path d="M110.402 53.944a6.76 6.76 0 001.956 4.76 6.647 6.647 0 004.721 1.973 6.65 6.65 0 004.721-1.972 6.762 6.762 0 001.955-4.761 6.762 6.762 0 00-1.955-4.761 6.648 6.648 0 00-4.721-1.972 6.65 6.65 0 00-4.721 1.972 6.763 6.763 0 00-1.956 4.76z" fill="url(#paint11_linear)"/><path d="M147.124 45.53c0 2.232.879 4.373 2.444 5.95a8.31 8.31 0 005.901 2.466 8.313 8.313 0 005.902-2.465 8.452 8.452 0 002.444-5.951 8.452 8.452 0 00-2.444-5.951 8.313 8.313 0 00-5.902-2.465 8.31 8.31 0 00-5.901 2.465 8.452 8.452 0 00-2.444 5.95z" fill="url(#paint12_linear)"/><path d="M123.756 35.43c0 2.232.879 4.373 2.444 5.95a8.31 8.31 0 005.901 2.466 8.313 8.313 0 005.902-2.465 8.452 8.452 0 002.444-5.951 8.452 8.452 0 00-2.444-5.951 8.313 8.313 0 00-5.902-2.465 8.31 8.31 0 00-5.901 2.465 8.452 8.452 0 00-2.444 5.95z" fill="url(#paint13_linear)"/><path d="M97.048 35.43c0 2.232.879 4.373 2.444 5.95a8.31 8.31 0 005.901 2.466 8.313 8.313 0 005.902-2.465 8.452 8.452 0 002.444-5.951 8.452 8.452 0 00-2.444-5.951 8.313 8.313 0 00-5.902-2.465 8.31 8.31 0 00-5.901 2.465 8.452 8.452 0 00-2.444 5.95z" fill="url(#paint14_linear)"/><path d="M70.342 45.53c0 2.232.88 4.373 2.445 5.95a8.31 8.31 0 005.901 2.466 8.31 8.31 0 005.901-2.465 8.452 8.452 0 002.445-5.951c0-2.232-.88-4.373-2.445-5.951a8.31 8.31 0 00-5.901-2.465 8.31 8.31 0 00-5.901 2.465 8.452 8.452 0 00-2.445 5.95z" fill="url(#paint15_linear)"/><path d="M173.827 38.795a5.07 5.07 0 001.467 3.57 4.987 4.987 0 003.541 1.48 4.987 4.987 0 003.541-1.48 5.072 5.072 0 001.466-3.57 5.07 5.07 0 00-1.466-3.571 4.987 4.987 0 00-3.541-1.48 4.987 4.987 0 00-3.541 1.48 5.073 5.073 0 00-1.467 3.57z" fill="url(#paint16_linear)"/><path d="M143.782 21.964a5.07 5.07 0 001.467 3.57 4.986 4.986 0 003.541 1.48 4.984 4.984 0 003.54-1.48 5.068 5.068 0 001.467-3.57c0-1.34-.527-2.624-1.467-3.571a4.984 4.984 0 00-3.54-1.48 4.986 4.986 0 00-3.541 1.48 5.073 5.073 0 00-1.467 3.57z" fill="url(#paint17_linear)"/><path d="M113.741 18.598a5.07 5.07 0 001.466 3.571 4.987 4.987 0 003.541 1.48 4.987 4.987 0 003.541-1.48 5.072 5.072 0 001.466-3.57c0-1.34-.527-2.624-1.466-3.572a4.986 4.986 0 00-3.541-1.479 4.986 4.986 0 00-3.541 1.48 5.071 5.071 0 00-1.466 3.57z" fill="url(#paint18_linear)"/><path d="M80.356 21.964a5.07 5.07 0 001.467 3.57 4.986 4.986 0 003.54 1.48 4.986 4.986 0 003.541-1.48 5.072 5.072 0 001.467-3.57c0-1.34-.528-2.624-1.467-3.571a4.986 4.986 0 00-3.54-1.48 4.986 4.986 0 00-3.541 1.48 5.072 5.072 0 00-1.467 3.57z" fill="url(#paint19_linear)"/><path d="M46.975 121.273a6.76 6.76 0 001.956 4.761 6.647 6.647 0 004.72 1.972c1.771 0 3.47-.709 4.722-1.972a6.76 6.76 0 001.955-4.761 6.76 6.76 0 00-1.955-4.76 6.647 6.647 0 00-4.721-1.972c-1.771 0-3.47.709-4.721 1.972a6.76 6.76 0 00-1.956 4.76z" fill="url(#paint20_linear)"/><path d="M46.975 141.471c0 1.786.704 3.498 1.956 4.761a6.647 6.647 0 004.72 1.972c1.771 0 3.47-.709 4.722-1.972a6.762 6.762 0 001.955-4.761 6.762 6.762 0 00-1.955-4.761 6.651 6.651 0 00-4.721-1.972c-1.771 0-3.47.71-4.721 1.972a6.762 6.762 0 00-1.956 4.761z" fill="url(#paint21_linear)"/><path d="M56.989 161.67a6.76 6.76 0 001.955 4.761 6.647 6.647 0 004.721 1.972c1.771 0 3.47-.709 4.721-1.972a6.76 6.76 0 001.956-4.761 6.764 6.764 0 00-1.956-4.761 6.651 6.651 0 00-4.72-1.972c-1.771 0-3.47.71-4.722 1.972a6.764 6.764 0 00-1.955 4.761z" fill="url(#paint22_linear)"/><path d="M56.989 80.874a6.76 6.76 0 001.955 4.76 6.648 6.648 0 004.721 1.972c1.771 0 3.47-.709 4.721-1.972a6.762 6.762 0 001.956-4.76 6.762 6.762 0 00-1.956-4.761 6.649 6.649 0 00-4.72-1.972c-1.771 0-3.47.709-4.722 1.972a6.762 6.762 0 00-1.955 4.76z" fill="url(#paint23_linear)"/><path d="M46.975 101.073c0 1.786.704 3.498 1.956 4.761a6.647 6.647 0 004.72 1.972c1.771 0 3.47-.709 4.722-1.972a6.762 6.762 0 001.955-4.761 6.761 6.761 0 00-1.955-4.76 6.649 6.649 0 00-4.721-1.973c-1.771 0-3.47.71-4.721 1.972a6.762 6.762 0 00-1.956 4.761z" fill="url(#paint24_linear)"/><path d="M33.62 82.557c0 2.232.88 4.372 2.444 5.95a8.31 8.31 0 005.902 2.466 8.31 8.31 0 005.9-2.465 8.452 8.452 0 002.445-5.951 8.452 8.452 0 00-2.444-5.951 8.31 8.31 0 00-5.901-2.465 8.31 8.31 0 00-5.902 2.465 8.452 8.452 0 00-2.444 5.95z" fill="url(#paint25_linear)"/><path d="M26.946 109.492c0 2.232.88 4.372 2.444 5.951a8.312 8.312 0 005.901 2.465 8.312 8.312 0 005.902-2.465 8.453 8.453 0 002.444-5.951c0-2.232-.88-4.373-2.444-5.951a8.308 8.308 0 00-5.901-2.465 8.308 8.308 0 00-5.902 2.465 8.452 8.452 0 00-2.444 5.951z" fill="url(#paint26_linear)"/><path d="M26.946 136.423c0 2.232.88 4.373 2.444 5.951a8.308 8.308 0 005.901 2.465 8.308 8.308 0 005.902-2.465 8.452 8.452 0 002.444-5.951c0-2.232-.88-4.372-2.444-5.951a8.312 8.312 0 00-5.901-2.465 8.312 8.312 0 00-5.902 2.465 8.453 8.453 0 00-2.444 5.951z" fill="url(#paint27_linear)"/><path d="M33.62 159.984c0 2.232.88 4.373 2.444 5.951a8.307 8.307 0 005.902 2.465 8.308 8.308 0 005.9-2.465 8.452 8.452 0 002.445-5.951 8.454 8.454 0 00-2.444-5.951 8.312 8.312 0 00-5.901-2.465 8.312 8.312 0 00-5.902 2.465 8.453 8.453 0 00-2.444 5.951z" fill="url(#paint28_linear)"/><path d="M50.31 183.55c0 2.232.88 4.373 2.445 5.951a8.308 8.308 0 005.901 2.465 8.308 8.308 0 005.902-2.465 8.452 8.452 0 002.444-5.951c0-2.232-.88-4.372-2.444-5.951a8.312 8.312 0 00-5.902-2.465 8.312 8.312 0 00-5.9 2.465 8.453 8.453 0 00-2.445 5.951z" fill="url(#paint29_linear)"/><path d="M50.31 58.995c0 2.232.88 4.373 2.445 5.951a8.31 8.31 0 005.901 2.465 8.31 8.31 0 005.902-2.465 8.452 8.452 0 002.444-5.95c0-2.233-.88-4.374-2.444-5.952a8.31 8.31 0 00-5.902-2.465 8.31 8.31 0 00-5.901 2.465 8.452 8.452 0 00-2.445 5.951z" fill="url(#paint30_linear)"/><path d="M30.282 62.36a5.07 5.07 0 001.466 3.571 4.987 4.987 0 003.541 1.48 4.986 4.986 0 003.541-1.48 5.072 5.072 0 001.467-3.57c0-1.34-.528-2.625-1.467-3.572a4.986 4.986 0 00-3.54-1.479 4.986 4.986 0 00-3.542 1.48 5.072 5.072 0 00-1.466 3.57z" fill="url(#paint31_linear)"/><path d="M16.928 89.292c0 1.34.528 2.624 1.467 3.57a4.986 4.986 0 003.54 1.48 4.986 4.986 0 003.542-1.48 5.072 5.072 0 001.466-3.57 5.07 5.07 0 00-1.466-3.571 4.987 4.987 0 00-3.541-1.48 4.986 4.986 0 00-3.541 1.48 5.072 5.072 0 00-1.467 3.57z" fill="url(#paint32_linear)"/><path d="M10.255 122.956a5.07 5.07 0 001.466 3.571 4.986 4.986 0 003.541 1.479 4.986 4.986 0 003.54-1.479 5.07 5.07 0 001.468-3.571 5.072 5.072 0 00-1.467-3.571 4.986 4.986 0 00-3.54-1.479 4.986 4.986 0 00-3.542 1.479 5.072 5.072 0 00-1.466 3.571z" fill="url(#paint33_linear)"/><path d="M16.928 153.253c0 1.339.528 2.624 1.467 3.571a4.986 4.986 0 003.54 1.479 4.986 4.986 0 003.542-1.479 5.072 5.072 0 001.466-3.571 5.072 5.072 0 00-1.466-3.571 4.986 4.986 0 00-3.541-1.479 4.986 4.986 0 00-3.541 1.479 5.072 5.072 0 00-1.467 3.571z" fill="url(#paint34_linear)"/><path d="M30.282 183.553c0 1.339.527 2.624 1.466 3.571a4.986 4.986 0 003.541 1.479 4.986 4.986 0 003.541-1.479 5.072 5.072 0 001.467-3.571 5.072 5.072 0 00-1.467-3.571 4.986 4.986 0 00-3.54-1.479 4.986 4.986 0 00-3.542 1.479 5.072 5.072 0 00-1.466 3.571z" fill="url(#paint35_linear)"/><path d="M53.65 203.75c0 1.339.528 2.624 1.467 3.571a4.986 4.986 0 003.541 1.479 4.986 4.986 0 003.54-1.479 5.072 5.072 0 001.468-3.571 5.07 5.07 0 00-1.467-3.571 4.986 4.986 0 00-3.54-1.479 4.986 4.986 0 00-3.542 1.479 5.07 5.07 0 00-1.466 3.571z" fill="url(#paint36_linear)"/><path d="M53.65 38.795a5.07 5.07 0 001.467 3.57 4.986 4.986 0 003.54 1.48 4.986 4.986 0 003.542-1.48 5.072 5.072 0 001.466-3.57 5.07 5.07 0 00-1.466-3.571 4.986 4.986 0 00-3.541-1.48 4.986 4.986 0 00-3.54 1.48 5.072 5.072 0 00-1.468 3.57z" fill="url(#paint37_linear)"/><path d="M177.167 121.273a6.76 6.76 0 001.955 4.761 6.646 6.646 0 004.721 1.972 6.646 6.646 0 004.721-1.972 6.761 6.761 0 001.956-4.761 6.76 6.76 0 00-1.956-4.76 6.646 6.646 0 00-4.721-1.972 6.646 6.646 0 00-4.721 1.972 6.76 6.76 0 00-1.955 4.76z" fill="url(#paint38_linear)"/><path d="M173.83 141.471c0 1.786.703 3.498 1.955 4.761a6.65 6.65 0 004.722 1.972 6.65 6.65 0 004.721-1.972 6.762 6.762 0 001.955-4.761 6.762 6.762 0 00-1.955-4.761 6.654 6.654 0 00-4.721-1.972c-1.771 0-3.469.71-4.722 1.972a6.762 6.762 0 00-1.955 4.761z" fill="url(#paint39_linear)"/><path d="M173.83 101.073c0 1.786.703 3.498 1.955 4.761a6.65 6.65 0 004.722 1.972 6.65 6.65 0 004.721-1.972 6.762 6.762 0 001.955-4.761 6.762 6.762 0 00-1.955-4.76 6.651 6.651 0 00-4.721-1.973c-1.771 0-3.469.71-4.722 1.972a6.762 6.762 0 00-1.955 4.761z" fill="url(#paint40_linear)"/><path d="M187.183 82.557a8.45 8.45 0 002.444 5.95 8.31 8.31 0 005.901 2.466 8.313 8.313 0 005.902-2.465 8.452 8.452 0 002.444-5.951 8.452 8.452 0 00-2.444-5.951 8.313 8.313 0 00-5.902-2.465 8.31 8.31 0 00-5.901 2.465 8.452 8.452 0 00-2.444 5.95z" fill="url(#paint41_linear)"/><path d="M170.492 58.995c0 2.232.879 4.373 2.444 5.951a8.31 8.31 0 005.901 2.465 8.31 8.31 0 005.902-2.465 8.452 8.452 0 002.444-5.95 8.452 8.452 0 00-2.444-5.952 8.31 8.31 0 00-5.902-2.465 8.31 8.31 0 00-5.901 2.465 8.452 8.452 0 00-2.444 5.951z" fill="url(#paint42_linear)"/><path d="M187.183 159.984c0 2.232.879 4.373 2.444 5.951a8.307 8.307 0 005.901 2.465 8.31 8.31 0 005.902-2.465 8.452 8.452 0 002.444-5.951 8.454 8.454 0 00-2.444-5.951 8.314 8.314 0 00-5.902-2.465 8.312 8.312 0 00-5.901 2.465 8.454 8.454 0 00-2.444 5.951z" fill="url(#paint43_linear)"/><path d="M193.86 136.423c0 2.232.88 4.373 2.445 5.951a8.307 8.307 0 005.901 2.465 8.307 8.307 0 005.901-2.465 8.453 8.453 0 002.445-5.951c0-2.232-.88-4.372-2.445-5.951a8.312 8.312 0 00-5.901-2.465 8.312 8.312 0 00-5.901 2.465 8.454 8.454 0 00-2.445 5.951z" fill="url(#paint44_linear)"/><path d="M193.86 109.492c0 2.232.88 4.372 2.445 5.951a8.312 8.312 0 005.901 2.465 8.312 8.312 0 005.901-2.465 8.454 8.454 0 002.445-5.951c0-2.232-.88-4.373-2.445-5.951a8.307 8.307 0 00-5.901-2.465 8.307 8.307 0 00-5.901 2.465 8.453 8.453 0 00-2.445 5.951z" fill="url(#paint45_linear)"/><path d="M210.55 89.292c0 1.34.527 2.624 1.466 3.57a4.986 4.986 0 003.541 1.48 4.986 4.986 0 003.541-1.48 5.071 5.071 0 001.466-3.57 5.07 5.07 0 00-1.466-3.571 4.987 4.987 0 00-3.541-1.48 4.987 4.987 0 00-3.541 1.48 5.072 5.072 0 00-1.466 3.57z" fill="url(#paint46_linear)"/><path d="M197.196 62.36c0 1.34.528 2.624 1.467 3.571a4.987 4.987 0 003.541 1.48 4.989 4.989 0 003.541-1.48 5.072 5.072 0 001.466-3.57c0-1.34-.527-2.625-1.466-3.572a4.988 4.988 0 00-3.541-1.479 4.986 4.986 0 00-3.541 1.48 5.072 5.072 0 00-1.467 3.57z" fill="url(#paint47_linear)"/><path d="M210.55 153.253c0 1.339.527 2.624 1.466 3.571a4.987 4.987 0 003.541 1.479 4.987 4.987 0 003.541-1.479 5.072 5.072 0 001.466-3.571 5.07 5.07 0 00-1.466-3.571 4.987 4.987 0 00-3.541-1.479 4.987 4.987 0 00-3.541 1.479 5.07 5.07 0 00-1.466 3.571z" fill="url(#paint48_linear)"/><path d="M213.887 122.956a5.056 5.056 0 001.467 3.571 4.97 4.97 0 005.457 1.095 5.012 5.012 0 001.624-1.095 5.056 5.056 0 001.467-3.571 5.069 5.069 0 00-1.467-3.571 4.984 4.984 0 00-3.54-1.479 4.987 4.987 0 00-3.541 1.479 5.073 5.073 0 00-1.467 3.571z" fill="url(#paint49_linear)"/><path d="M96.588 6.802a3.925 3.925 0 001.451 2.557c.794.627 1.795.91 2.782.788a3.673 3.673 0 002.484-1.442c.602-.8.865-1.817.73-2.827a3.932 3.932 0 00-1.451-2.557 3.746 3.746 0 00-2.783-.788 3.672 3.672 0 00-2.483 1.442 3.85 3.85 0 00-.73 2.827z" fill="url(#paint50_linear)"/><path d="M61.84 18.683c.817 2.068 3.046 3.169 4.974 2.458 1.927-.712 2.829-2.97 2.008-5.035-.82-2.067-3.046-3.17-4.973-2.458-1.93.708-2.831 2.966-2.01 5.035z" fill="url(#paint51_linear)"/><path d="M232.103 143.635a3.756 3.756 0 002.79-.793 3.933 3.933 0 001.453-2.566 3.86 3.86 0 00-.735-2.836 3.684 3.684 0 00-3.961-1.328 3.811 3.811 0 00-1.322.678 3.947 3.947 0 00-1.363 4.063c.126.487.346.941.645 1.339a3.678 3.678 0 002.493 1.443z" fill="url(#paint52_linear)"/><path d="M167.157 20.326c1.929.708 4.156-.39 4.975-2.46.821-2.066-.082-4.32-2.009-5.032-1.929-.708-4.157.39-4.976 2.46-.82 2.066.083 4.32 2.01 5.032z" fill="url(#paint53_linear)"/><path d="M228.355 103.831a3.926 3.926 0 001.451 2.557 3.739 3.739 0 002.782.789 3.67 3.67 0 002.484-1.441c.603-.8.865-1.817.73-2.827a3.922 3.922 0 00-1.45-2.557 3.745 3.745 0 00-2.782-.79 3.672 3.672 0 00-2.484 1.441 3.853 3.853 0 00-.731 2.828z" fill="url(#paint54_linear)"/><path d="M219.891 179.84c1.929.708 4.156-.391 4.975-2.461.82-2.067-.083-4.321-2.011-5.032-1.929-.708-4.156.391-4.975 2.461-.82 2.067.083 4.321 2.011 5.032z" fill="url(#paint55_linear)"/><path d="M136.36 8.397a3.758 3.758 0 002.791-.791 3.935 3.935 0 001.454-2.565 3.858 3.858 0 00-.736-2.835 3.69 3.69 0 00-2.494-1.445 3.76 3.76 0 00-2.792.792 3.935 3.935 0 00-1.454 2.564 3.863 3.863 0 00.736 2.835 3.69 3.69 0 002.495 1.445z" fill="url(#paint56_linear)"/><path d="M12.484 175.853c.818 2.067 3.047 3.167 4.974 2.456 1.928-.712 2.829-2.97 2.008-5.036-.821-2.066-3.047-3.168-4.974-2.456-1.93.708-2.83 2.966-2.008 5.036z" fill="url(#paint57_linear)"/><path d="M5.184 107.777a3.7 3.7 0 001.468-.114 3.808 3.808 0 001.322-.679 3.91 3.91 0 00.975-1.139c.25-.441.412-.926.479-1.427a3.913 3.913 0 00-.09-1.497 3.82 3.82 0 00-.645-1.339 3.674 3.674 0 00-2.493-1.444 3.758 3.758 0 00-2.79.794 3.938 3.938 0 00-1.453 2.566 3.86 3.86 0 00.734 2.835 3.682 3.682 0 002.493 1.444z" fill="url(#paint58_linear)"/><path d="M.653 140.7c.067.5.23.983.478 1.422a3.9 3.9 0 00.973 1.135c.393.311.84.54 1.318.676a3.669 3.669 0 003.947-1.329c.299-.396.517-.85.642-1.335s.155-.992.088-1.492-.23-.983-.478-1.422a3.9 3.9 0 00-.973-1.135 3.785 3.785 0 00-1.318-.675 3.669 3.669 0 00-3.947 1.328 3.78 3.78 0 00-.642 1.335 3.899 3.899 0 00-.088 1.492z" fill="url(#paint59_linear)"/><path d="M197.359 206.231a3.672 3.672 0 005.229-.002 3.765 3.765 0 001.083-2.646 3.768 3.768 0 00-1.081-2.647 3.68 3.68 0 00-2.615-1.097 3.69 3.69 0 00-2.616 1.097 3.773 3.773 0 00.002 5.293l-.002.002z" fill="url(#paint60_linear)"/><path d="M34.067 205.804a3.663 3.663 0 005.23-.005 3.77 3.77 0 001.082-2.646c0-.992-.39-1.943-1.082-2.646a3.678 3.678 0 00-2.616-1.096 3.667 3.667 0 00-2.616 1.098 3.774 3.774 0 00.004 5.293l-.002.002z" fill="url(#paint61_linear)"/><path d="M197.078 41.134a3.69 3.69 0 002.615 1.095 3.664 3.664 0 002.615-1.096 3.774 3.774 0 00.003-5.293 3.687 3.687 0 00-2.615-1.097 3.663 3.663 0 00-2.617 1.096 3.772 3.772 0 00.002 5.292l-.003.003z" fill="url(#paint62_linear)"/><path d="M33.784 40.706a3.688 3.688 0 002.615 1.095 3.662 3.662 0 002.614-1.097 3.77 3.77 0 001.084-2.645 3.77 3.77 0 00-1.08-2.647 3.687 3.687 0 00-2.616-1.097 3.664 3.664 0 00-2.616 1.096 3.773 3.773 0 00.001 5.292l-.002.003z" fill="url(#paint63_linear)"/><path d="M217.42 70.648c.817 2.068 3.045 3.17 4.973 2.459 1.928-.711 2.83-2.969 2.01-5.035-.82-2.067-3.046-3.17-4.973-2.459-1.93.708-2.832 2.966-2.01 5.035z" fill="url(#paint64_linear)"/><path d="M13.524 72.522c1.929.709 4.156-.39 4.975-2.46.82-2.066-.083-4.32-2.01-5.032-1.93-.708-4.157.39-4.976 2.46-.82 2.067.084 4.318 2.01 5.032z" fill="url(#paint65_linear)"/></g><defs><linearGradient id="paint0_linear" x1="183.842" y1="198.7" x2="173.743" y2="208.714" gradientUnits="userSpaceOnUse"><stop stop-color="#A83592"/><stop offset="1" stop-color="#4F4A9D"/></linearGradient><linearGradient id="paint1_linear" x1="87.034" y1="168.403" x2="73.569" y2="181.755" gradientUnits="userSpaceOnUse"><stop stop-color="#A83592"/><stop offset="1" stop-color="#4F4A9D"/></linearGradient><linearGradient id="paint2_linear" x1="177.166" y1="74.141" x2="163.701" y2="87.493" gradientUnits="userSpaceOnUse"><stop stop-color="#A83592"/><stop offset="1" stop-color="#4F4A9D"/></linearGradient><linearGradient id="paint3_linear" x1="163.815" y1="168.403" x2="150.35" y2="181.755" gradientUnits="userSpaceOnUse"><stop stop-color="#A83592"/><stop offset="1" stop-color="#4F4A9D"/></linearGradient><linearGradient id="paint4_linear" x1="177.166" y1="154.937" x2="163.701" y2="168.29" gradientUnits="userSpaceOnUse"><stop stop-color="#A83592"/><stop offset="1" stop-color="#4F4A9D"/></linearGradient><linearGradient id="paint5_linear" x1="187.183" y1="175.134" x2="170.352" y2="191.825" gradientUnits="userSpaceOnUse"><stop stop-color="#A83592"/><stop offset="1" stop-color="#4F4A9D"/></linearGradient><linearGradient id="paint6_linear" x1="207.211" y1="178.503" x2="197.111" y2="188.517" gradientUnits="userSpaceOnUse"><stop stop-color="#A83592"/><stop offset="1" stop-color="#4F4A9D"/></linearGradient><linearGradient id="paint7_linear" x1="87.034" y1="60.676" x2="73.569" y2="74.029" gradientUnits="userSpaceOnUse"><stop stop-color="#A83592"/><stop offset="1" stop-color="#4F4A9D"/></linearGradient><linearGradient id="paint8_linear" x1="143.784" y1="50.579" x2="130.319" y2="63.932" gradientUnits="userSpaceOnUse"><stop stop-color="#A83592"/><stop offset="1" stop-color="#4F4A9D"/></linearGradient><linearGradient id="paint9_linear" x1="163.815" y1="60.676" x2="150.35" y2="74.029" gradientUnits="userSpaceOnUse"><stop stop-color="#A83592"/><stop offset="1" stop-color="#4F4A9D"/></linearGradient><linearGradient id="paint10_linear" x1="103.724" y1="50.579" x2="90.259" y2="63.932" gradientUnits="userSpaceOnUse"><stop stop-color="#A83592"/><stop offset="1" stop-color="#4F4A9D"/></linearGradient><linearGradient id="paint11_linear" x1="123.755" y1="47.211" x2="110.29" y2="60.564" gradientUnits="userSpaceOnUse"><stop stop-color="#A83592"/><stop offset="1" stop-color="#4F4A9D"/></linearGradient><linearGradient id="paint12_linear" x1="163.815" y1="37.114" x2="146.983" y2="53.805" gradientUnits="userSpaceOnUse"><stop stop-color="#A83592"/><stop offset="1" stop-color="#4F4A9D"/></linearGradient><linearGradient id="paint13_linear" x1="140.447" y1="27.014" x2="123.616" y2="43.705" gradientUnits="userSpaceOnUse"><stop stop-color="#A83592"/><stop offset="1" stop-color="#4F4A9D"/></linearGradient><linearGradient id="paint14_linear" x1="113.739" y1="27.014" x2="96.907" y2="43.705" gradientUnits="userSpaceOnUse"><stop stop-color="#A83592"/><stop offset="1" stop-color="#4F4A9D"/></linearGradient><linearGradient id="paint15_linear" x1="87.034" y1="37.114" x2="70.202" y2="53.805" gradientUnits="userSpaceOnUse"><stop stop-color="#A83592"/><stop offset="1" stop-color="#4F4A9D"/></linearGradient><linearGradient id="paint16_linear" x1="183.842" y1="33.745" x2="173.743" y2="43.759" gradientUnits="userSpaceOnUse"><stop stop-color="#A83592"/><stop offset="1" stop-color="#4F4A9D"/></linearGradient><linearGradient id="paint17_linear" x1="153.797" y1="16.914" x2="143.697" y2="26.928" gradientUnits="userSpaceOnUse"><stop stop-color="#A83592"/><stop offset="1" stop-color="#4F4A9D"/></linearGradient><linearGradient id="paint18_linear" x1="123.755" y1="13.548" x2="113.656" y2="23.563" gradientUnits="userSpaceOnUse"><stop stop-color="#A83592"/><stop offset="1" stop-color="#4F4A9D"/></linearGradient><linearGradient id="paint19_linear" x1="90.371" y1="16.914" x2="80.271" y2="26.928" gradientUnits="userSpaceOnUse"><stop stop-color="#A83592"/><stop offset="1" stop-color="#4F4A9D"/></linearGradient><linearGradient id="paint20_linear" x1="60.328" y1="114.541" x2="46.863" y2="127.893" gradientUnits="userSpaceOnUse"><stop stop-color="#A83592"/><stop offset="1" stop-color="#4F4A9D"/></linearGradient><linearGradient id="paint21_linear" x1="60.328" y1="134.738" x2="46.863" y2="148.091" gradientUnits="userSpaceOnUse"><stop stop-color="#A83592"/><stop offset="1" stop-color="#4F4A9D"/></linearGradient><linearGradient id="paint22_linear" x1="70.342" y1="154.938" x2="56.877" y2="168.29" gradientUnits="userSpaceOnUse"><stop stop-color="#A83592"/><stop offset="1" stop-color="#4F4A9D"/></linearGradient><linearGradient id="paint23_linear" x1="70.342" y1="74.141" x2="56.877" y2="87.493" gradientUnits="userSpaceOnUse"><stop stop-color="#A83592"/><stop offset="1" stop-color="#4F4A9D"/></linearGradient><linearGradient id="paint24_linear" x1="60.328" y1="94.34" x2="46.863" y2="107.693" gradientUnits="userSpaceOnUse"><stop stop-color="#A83592"/><stop offset="1" stop-color="#4F4A9D"/></linearGradient><linearGradient id="paint25_linear" x1="50.311" y1="74.141" x2="33.48" y2="90.832" gradientUnits="userSpaceOnUse"><stop stop-color="#A83592"/><stop offset="1" stop-color="#4F4A9D"/></linearGradient><linearGradient id="paint26_linear" x1="43.637" y1="101.076" x2="26.806" y2="117.766" gradientUnits="userSpaceOnUse"><stop stop-color="#A83592"/><stop offset="1" stop-color="#4F4A9D"/></linearGradient><linearGradient id="paint27_linear" x1="43.637" y1="128.007" x2="26.806" y2="144.698" gradientUnits="userSpaceOnUse"><stop stop-color="#A83592"/><stop offset="1" stop-color="#4F4A9D"/></linearGradient><linearGradient id="paint28_linear" x1="50.311" y1="151.568" x2="33.48" y2="168.259" gradientUnits="userSpaceOnUse"><stop stop-color="#A83592"/><stop offset="1" stop-color="#4F4A9D"/></linearGradient><linearGradient id="paint29_linear" x1="67.002" y1="175.134" x2="50.171" y2="191.825" gradientUnits="userSpaceOnUse"><stop stop-color="#A83592"/><stop offset="1" stop-color="#4F4A9D"/></linearGradient><linearGradient id="paint30_linear" x1="67.002" y1="50.579" x2="50.17" y2="67.27" gradientUnits="userSpaceOnUse"><stop stop-color="#A83592"/><stop offset="1" stop-color="#4F4A9D"/></linearGradient><linearGradient id="paint31_linear" x1="40.297" y1="57.31" x2="30.197" y2="67.325" gradientUnits="userSpaceOnUse"><stop stop-color="#A83592"/><stop offset="1" stop-color="#4F4A9D"/></linearGradient><linearGradient id="paint32_linear" x1="26.943" y1="84.242" x2="16.843" y2="94.256" gradientUnits="userSpaceOnUse"><stop stop-color="#A83592"/><stop offset="1" stop-color="#4F4A9D"/></linearGradient><linearGradient id="paint33_linear" x1="20.27" y1="117.906" x2="10.17" y2="127.921" gradientUnits="userSpaceOnUse"><stop stop-color="#A83592"/><stop offset="1" stop-color="#4F4A9D"/></linearGradient><linearGradient id="paint34_linear" x1="26.943" y1="148.203" x2="16.843" y2="158.218" gradientUnits="userSpaceOnUse"><stop stop-color="#A83592"/><stop offset="1" stop-color="#4F4A9D"/></linearGradient><linearGradient id="paint35_linear" x1="40.297" y1="178.503" x2="30.197" y2="188.517" gradientUnits="userSpaceOnUse"><stop stop-color="#A83592"/><stop offset="1" stop-color="#4F4A9D"/></linearGradient><linearGradient id="paint36_linear" x1="63.666" y1="198.7" x2="53.566" y2="208.714" gradientUnits="userSpaceOnUse"><stop stop-color="#A83592"/><stop offset="1" stop-color="#4F4A9D"/></linearGradient><linearGradient id="paint37_linear" x1="63.665" y1="33.745" x2="53.566" y2="43.759" gradientUnits="userSpaceOnUse"><stop stop-color="#A83592"/><stop offset="1" stop-color="#4F4A9D"/></linearGradient><linearGradient id="paint38_linear" x1="190.52" y1="114.541" x2="177.055" y2="127.893" gradientUnits="userSpaceOnUse"><stop stop-color="#A83592"/><stop offset="1" stop-color="#4F4A9D"/></linearGradient><linearGradient id="paint39_linear" x1="187.183" y1="134.738" x2="173.718" y2="148.091" gradientUnits="userSpaceOnUse"><stop stop-color="#A83592"/><stop offset="1" stop-color="#4F4A9D"/></linearGradient><linearGradient id="paint40_linear" x1="187.183" y1="94.34" x2="173.718" y2="107.693" gradientUnits="userSpaceOnUse"><stop stop-color="#A83592"/><stop offset="1" stop-color="#4F4A9D"/></linearGradient><linearGradient id="paint41_linear" x1="203.874" y1="74.141" x2="187.043" y2="90.832" gradientUnits="userSpaceOnUse"><stop stop-color="#A83592"/><stop offset="1" stop-color="#4F4A9D"/></linearGradient><linearGradient id="paint42_linear" x1="187.183" y1="50.579" x2="170.352" y2="67.27" gradientUnits="userSpaceOnUse"><stop stop-color="#A83592"/><stop offset="1" stop-color="#4F4A9D"/></linearGradient><linearGradient id="paint43_linear" x1="203.874" y1="151.568" x2="187.043" y2="168.259" gradientUnits="userSpaceOnUse"><stop stop-color="#A83592"/><stop offset="1" stop-color="#4F4A9D"/></linearGradient><linearGradient id="paint44_linear" x1="210.552" y1="128.007" x2="193.72" y2="144.698" gradientUnits="userSpaceOnUse"><stop stop-color="#A83592"/><stop offset="1" stop-color="#4F4A9D"/></linearGradient><linearGradient id="paint45_linear" x1="210.552" y1="101.076" x2="193.72" y2="117.767" gradientUnits="userSpaceOnUse"><stop stop-color="#A83592"/><stop offset="1" stop-color="#4F4A9D"/></linearGradient><linearGradient id="paint46_linear" x1="220.564" y1="84.242" x2="210.465" y2="94.256" gradientUnits="userSpaceOnUse"><stop stop-color="#A83592"/><stop offset="1" stop-color="#4F4A9D"/></linearGradient><linearGradient id="paint47_linear" x1="207.211" y1="57.31" x2="197.111" y2="67.325" gradientUnits="userSpaceOnUse"><stop stop-color="#A83592"/><stop offset="1" stop-color="#4F4A9D"/></linearGradient><linearGradient id="paint48_linear" x1="220.564" y1="148.203" x2="210.465" y2="158.217" gradientUnits="userSpaceOnUse"><stop stop-color="#A83592"/><stop offset="1" stop-color="#4F4A9D"/></linearGradient><linearGradient id="paint49_linear" x1="223.902" y1="117.906" x2="213.802" y2="127.921" gradientUnits="userSpaceOnUse"><stop stop-color="#A83592"/><stop offset="1" stop-color="#4F4A9D"/></linearGradient><linearGradient id="paint50_linear" x1="103.527" y1="2.072" x2="96.899" y2="10.452" gradientUnits="userSpaceOnUse"><stop stop-color="#A83592"/><stop offset="1" stop-color="#4F4A9D"/></linearGradient><linearGradient id="paint51_linear" x1="67.338" y1="12.368" x2="62.556" y2="22.041" gradientUnits="userSpaceOnUse"><stop stop-color="#A83592"/><stop offset="1" stop-color="#4F4A9D"/></linearGradient><linearGradient id="paint52_linear" x1="229.385" y1="135.536" x2="236.034" y2="143.941" gradientUnits="userSpaceOnUse"><stop stop-color="#A83592"/><stop offset="1" stop-color="#4F4A9D"/></linearGradient><linearGradient id="paint53_linear" x1="166.634" y1="11.553" x2="171.414" y2="21.227" gradientUnits="userSpaceOnUse"><stop stop-color="#A83592"/><stop offset="1" stop-color="#4F4A9D"/></linearGradient><linearGradient id="paint54_linear" x1="235.293" y1="99.102" x2="228.667" y2="107.482" gradientUnits="userSpaceOnUse"><stop stop-color="#A83592"/><stop offset="1" stop-color="#4F4A9D"/></linearGradient><linearGradient id="paint55_linear" x1="219.365" y1="171.067" x2="224.149" y2="180.74" gradientUnits="userSpaceOnUse"><stop stop-color="#A83592"/><stop offset="1" stop-color="#4F4A9D"/></linearGradient><linearGradient id="paint56_linear" x1="133.639" y1=".298" x2="140.284" y2="8.712" gradientUnits="userSpaceOnUse"><stop stop-color="#A83592"/><stop offset="1" stop-color="#4F4A9D"/></linearGradient><linearGradient id="paint57_linear" x1="17.98" y1="169.536" x2="13.201" y2="179.21" gradientUnits="userSpaceOnUse"><stop stop-color="#A83592"/><stop offset="1" stop-color="#4F4A9D"/></linearGradient><linearGradient id="paint58_linear" x1="2.467" y1="99.677" x2="9.115" y2="108.083" gradientUnits="userSpaceOnUse"><stop stop-color="#A83592"/><stop offset="1" stop-color="#4F4A9D"/></linearGradient><linearGradient id="paint59_linear" x1="7.592" y1="135.971" x2=".964" y2="144.35" gradientUnits="userSpaceOnUse"><stop stop-color="#A83592"/><stop offset="1" stop-color="#4F4A9D"/></linearGradient><linearGradient id="paint60_linear" x1="199.975" y1="198.298" x2="199.977" y2="208.867" gradientUnits="userSpaceOnUse"><stop stop-color="#A83592"/><stop offset="1" stop-color="#4F4A9D"/></linearGradient><linearGradient id="paint61_linear" x1="36.68" y1="197.87" x2="36.687" y2="208.438" gradientUnits="userSpaceOnUse"><stop stop-color="#A83592"/><stop offset="1" stop-color="#4F4A9D"/></linearGradient><linearGradient id="paint62_linear" x1="199.696" y1="33.202" x2="199.696" y2="43.77" gradientUnits="userSpaceOnUse"><stop stop-color="#A83592"/><stop offset="1" stop-color="#4F4A9D"/></linearGradient><linearGradient id="paint63_linear" x1="36.401" y1="32.773" x2="36.401" y2="43.342" gradientUnits="userSpaceOnUse"><stop stop-color="#A83592"/><stop offset="1" stop-color="#4F4A9D"/></linearGradient><linearGradient id="paint64_linear" x1="222.919" y1="64.334" x2="218.135" y2="74.006" gradientUnits="userSpaceOnUse"><stop stop-color="#A83592"/><stop offset="1" stop-color="#4F4A9D"/></linearGradient><linearGradient id="paint65_linear" x1="12.999" y1="63.749" x2="17.781" y2="73.423" gradientUnits="userSpaceOnUse"><stop stop-color="#A83592"/><stop offset="1" stop-color="#4F4A9D"/></linearGradient></defs></svg>