<svg width="90" height="98" fill="none" xmlns="http://www.w3.org/2000/svg"><ellipse cx="45" cy="44.954" rx="45" ry="44.954" fill="#fff"/><g clip-path="url(#clip0)"><path d="M77.83 26H63.803a1.057 1.057 0 100 2.114H77.83c.583 0 1.057.474 1.057 1.056v21.27c0 .583-.474 1.057-1.056 1.057H48.752v-.508a3.743 3.743 0 00-3.739-3.738 3.743 3.743 0 00-3.738 3.738v.508H30.51a1.057 1.057 0 000 2.114h10.765v18.623l-2.51-2.813a8.183 8.183 0 00-6.1-2.732c-.867 0-1.65.445-2.093 1.19a2.413 2.413 0 00-.045 2.408l4.208 7.731a20.9 20.9 0 003.956 5.156l4.485 4.268v2.263a2.42 2.42 0 00-1.924 2.366v3.513A2.419 2.419 0 0043.669 98h16.662a2.419 2.419 0 002.416-2.416v-3.513a2.418 2.418 0 00-1.853-2.348v-2.349c.963-1.215 3.95-5.674 3.95-14.24V66.68a3.743 3.743 0 00-3.74-3.738c-.688 0-1.334.187-1.89.513a3.745 3.745 0 00-3.473-2.356 3.72 3.72 0 00-1.89.514 3.745 3.745 0 00-3.473-2.356c-.583 0-1.134.133-1.626.372V53.61H77.83A3.174 3.174 0 0081 50.44V29.17A3.174 3.174 0 0077.83 26zM50.377 61.37c.896 0 1.625.729 1.625 1.625v1.842a1.057 1.057 0 102.113 0c0-.896.73-1.625 1.625-1.625.896 0 1.625.73 1.625 1.625v1.843a1.057 1.057 0 102.114 0c0-.896.729-1.625 1.625-1.625s1.625.729 1.625 1.625v6.454c0 9.08-3.627 13.092-3.66 13.127a1.06 1.06 0 00-.29.727v2.666h-2.553a1.057 1.057 0 100 2.114h4.104c.167 0 .303.136.303.303v3.513a.303.303 0 01-.303.303H43.67a.303.303 0 01-.303-.303v-3.513c0-.167.136-.303.303-.303H52a1.057 1.057 0 100-2.114h-6.71v-2.666c0-.289-.118-.566-.328-.765l-4.814-4.58a18.79 18.79 0 01-3.555-4.636l-4.209-7.731c-.1-.267 0-.434.282-.474 1.725 0 3.374.738 4.522 2.026l4.315 4.836c.613.72 1.915.26 1.886-.704V50.99c0-.897.729-1.626 1.625-1.626s1.625.729 1.625 1.625v12.006a1.057 1.057 0 102.113 0c0-.896.73-1.625 1.626-1.625z" fill="url(#paint0_linear)"/><path d="M26.284 51.497H12.17a1.058 1.058 0 01-1.056-1.057V29.17c0-.583.473-1.057 1.056-1.057h47.407a1.057 1.057 0 100-2.113H12.17A3.174 3.174 0 009 29.17v21.27a3.174 3.174 0 003.17 3.17h14.114a1.057 1.057 0 000-2.113z" fill="url(#paint1_linear)"/><path d="M51.955 39.011c.62-.605.84-1.493.572-2.318a2.248 2.248 0 00-1.826-1.539l-2.46-.357a.149.149 0 01-.112-.081l-1.1-2.23A2.247 2.247 0 0045 31.226c-.867 0-1.644.483-2.028 1.26l-1.1 2.23a.148.148 0 01-.112.08l-2.46.358a2.247 2.247 0 00-1.826 1.54 2.247 2.247 0 00.572 2.317l1.78 1.736a.149.149 0 01.043.131l-.42 2.451a2.247 2.247 0 00.9 2.212c.7.51 1.613.575 2.38.172l2.202-1.157a.147.147 0 01.137 0l2.202 1.157a2.254 2.254 0 002.382-.172 2.247 2.247 0 00.899-2.212l-.42-2.45a.148.148 0 01.042-.132l1.78-1.736zm-3.256.223a2.26 2.26 0 00-.65 2.002l.42 2.45c.004.025.015.091-.06.145a.133.133 0 01-.155.011l-2.2-1.157a2.259 2.259 0 00-2.105 0l-2.201 1.157c-.023.012-.082.043-.156-.01a.135.135 0 01-.06-.145l.421-2.451a2.26 2.26 0 00-.65-2.002l-1.78-1.736a.131.131 0 01-.038-.151.135.135 0 01.119-.101l2.461-.357a2.262 2.262 0 001.703-1.238l1.1-2.23a.135.135 0 01.133-.082c.092 0 .121.06.132.083l1.1 2.23c.33.667.967 1.13 1.704 1.237l2.46.357a.135.135 0 01.12.1.135.135 0 01-.038.152l-1.78 1.736z" fill="url(#paint2_linear)"/><path d="M29.48 43.329l-.42-2.45a.147.147 0 01.043-.132l1.78-1.736c.621-.605.84-1.493.572-2.318a2.247 2.247 0 00-1.825-1.539l-2.46-.357a.148.148 0 01-.112-.081l-1.101-2.23a2.247 2.247 0 00-2.028-1.26c-.867 0-1.644.483-2.028 1.26l-1.1 2.23a.149.149 0 01-.111.08l-2.461.358a2.247 2.247 0 00-1.826 1.54 2.247 2.247 0 00.572 2.317l1.781 1.736c.035.034.05.083.043.131l-.42 2.451a2.247 2.247 0 00.899 2.212c.701.51 1.614.575 2.381.172l2.201-1.157a.148.148 0 01.138 0l2.201 1.157a2.254 2.254 0 002.382-.172 2.248 2.248 0 00.9-2.212zm-1.853-4.095a2.26 2.26 0 00-.65 2.001l.42 2.451c.004.025.016.09-.059.145a.133.133 0 01-.155.011l-2.201-1.157a2.26 2.26 0 00-2.105 0l-2.201 1.157a.135.135 0 01-.156-.011.134.134 0 01-.059-.145l.42-2.45a2.26 2.26 0 00-.65-2.002l-1.78-1.736c-.018-.018-.066-.064-.038-.152a.135.135 0 01.12-.1l2.46-.358a2.262 2.262 0 001.703-1.237l1.1-2.23a.135.135 0 01.133-.082c.092 0 .122.06.133.082l1.1 2.23a2.26 2.26 0 001.703 1.237l2.461.358a.135.135 0 01.12.1.136.136 0 01-.038.152l-1.78 1.736z" fill="url(#paint3_linear)"/><path d="M73.026 39.011c.62-.605.84-1.493.572-2.318a2.248 2.248 0 00-1.826-1.539l-2.46-.357a.148.148 0 01-.112-.081l-1.1-2.23a2.247 2.247 0 00-2.028-1.26c-.867 0-1.645.483-2.028 1.26l-1.1 2.23a.149.149 0 01-.112.08l-2.461.358a2.247 2.247 0 00-1.826 1.54 2.247 2.247 0 00.573 2.317l1.78 1.736a.149.149 0 01.043.131l-.42 2.451a2.247 2.247 0 00.9 2.212c.7.51 1.613.576 2.38.172l2.202-1.157a.148.148 0 01.137 0l2.201 1.157a2.254 2.254 0 002.382-.172 2.247 2.247 0 00.9-2.212l-.42-2.45a.148.148 0 01.042-.132l1.78-1.736zm-3.257.223a2.26 2.26 0 00-.65 2.002l.42 2.45a.134.134 0 01-.058.145.135.135 0 01-.156.011l-2.201-1.157a2.258 2.258 0 00-2.105 0l-2.2 1.157c-.023.012-.082.043-.157-.01a.134.134 0 01-.058-.145l.42-2.451a2.261 2.261 0 00-.65-2.002l-1.78-1.736a.135.135 0 01-.038-.151.135.135 0 01.119-.101l2.461-.358a2.262 2.262 0 001.703-1.237l1.1-2.23a.135.135 0 01.133-.082c.092 0 .121.06.132.083l1.1 2.23c.33.667.967 1.13 1.704 1.237l2.46.357c.025.004.091.013.12.1a.136.136 0 01-.038.152l-1.78 1.736z" fill="url(#paint4_linear)"/></g><defs><linearGradient id="paint0_linear" x1="29.454" y1="26" x2="97.612" y2="74.795" gradientUnits="userSpaceOnUse"><stop stop-color="#A83592"/><stop offset="1" stop-color="#4F4A9D"/></linearGradient><linearGradient id="paint1_linear" x1="9" y1="26" x2="31.962" y2="68.942" gradientUnits="userSpaceOnUse"><stop stop-color="#A83592"/><stop offset="1" stop-color="#4F4A9D"/></linearGradient><linearGradient id="paint2_linear" x1="37.362" y1="31.226" x2="52.103" y2="46.493" gradientUnits="userSpaceOnUse"><stop stop-color="#A83592"/><stop offset="1" stop-color="#4F4A9D"/></linearGradient><linearGradient id="paint3_linear" x1="16.291" y1="31.226" x2="31.031" y2="46.493" gradientUnits="userSpaceOnUse"><stop stop-color="#A83592"/><stop offset="1" stop-color="#4F4A9D"/></linearGradient><linearGradient id="paint4_linear" x1="58.433" y1="31.226" x2="73.174" y2="46.493" gradientUnits="userSpaceOnUse"><stop stop-color="#A83592"/><stop offset="1" stop-color="#4F4A9D"/></linearGradient><clipPath id="clip0"><path fill="#fff" transform="translate(9 26)" d="M0 0h72v72H0z"/></clipPath></defs></svg>