<svg width="40" height="25" fill="none" xmlns="http://www.w3.org/2000/svg"><path d="M6.008 25l-2.046-3.967c1.705-.706 2.855-1.587 3.452-2.645l.894-1.455-1.278-.264c-.852-.088-1.832-.397-2.94-.926-1.022-.529-1.96-1.322-2.812-2.38C.426 12.217 0 10.673 0 8.734c0-2.468.81-4.54 2.429-6.215C4.133.756 6.135-.081 8.436.006c2.471.088 4.516 1.058 6.135 2.91C16.191 4.767 17 7.103 17 9.924c0 3.439-1.023 6.48-3.068 9.125-2.045 2.733-4.686 4.717-7.924 5.951zm23 0l-2.046-3.967c1.705-.706 2.855-1.587 3.451-2.645l.895-1.455-1.278-.264c-.852-.088-1.832-.397-2.94-.926-1.022-.529-1.96-1.322-2.812-2.38C23.426 12.217 23 10.673 23 8.734c0-2.468.81-4.54 2.429-6.215 1.704-1.763 3.706-2.6 6.007-2.513 2.471.088 4.516 1.058 6.135 2.91C39.191 4.767 40 7.103 40 9.924c0 3.439-1.023 6.48-3.068 9.125-2.045 2.733-4.686 4.717-7.925 5.951z" fill="#4F4A9D"/></svg>