<svg width="90" height="98" viewBox="0 0 90 98" fill="none" xmlns="http://www.w3.org/2000/svg">
<ellipse cx="45" cy="44.9541" rx="45" ry="44.9541" fill="#FCF8F2"/>
<path d="M46.0503 46.1787H61.1742C61.7563 46.1787 62.2265 46.6491 62.2265 47.2311V57.8904H63.9048C64.4868 57.8904 64.9571 58.3647 64.9571 58.9468C64.9571 59.5288 64.4867 60.0031 63.9048 60.0031H62.2265V95.8915H78.2554V92.3955H70.243C69.661 92.3955 69.1866 91.9252 69.1866 91.3433V85.9379C69.1866 85.3558 69.661 84.8855 70.243 84.8855H78.2554V81.7044H70.243C69.661 81.7044 69.1866 81.2299 69.1866 80.648V75.2466C69.1866 74.6606 69.661 74.1902 70.243 74.1902H78.2554V71.0091H70.243C69.661 71.0091 69.1866 70.5387 69.1866 69.9528V64.5514C69.1866 63.9693 69.661 63.495 70.243 63.495H78.2554V60.003H68.6804C68.0983 60.003 67.6281 59.5287 67.6281 58.9466C67.6281 58.3646 68.0985 57.8902 68.6804 57.8902H79.3118C79.8938 57.8902 80.3641 58.3646 80.3641 58.9466V96.9477C80.3641 97.5298 79.8937 98.0001 79.3118 98.0001C56.4386 98.0001 33.5653 98.0001 10.6921 98.0001C10.1101 98.0001 9.63574 97.5298 9.63574 96.9477C9.63574 84.2794 9.63574 71.615 9.63574 58.9466C9.63574 58.3646 10.1101 57.8902 10.6921 57.8902H13.4228C14.0048 57.8902 14.4751 58.3646 14.4751 58.9466C14.4751 59.5287 14.0047 60.003 13.4228 60.003H11.7444V63.495H19.7609C20.3429 63.495 20.8132 63.9693 20.8132 64.5514V69.9528C20.8132 70.5387 20.3428 71.0091 19.7609 71.0091H11.7444V74.1902H19.7609C20.3429 74.1902 20.8132 74.6606 20.8132 75.2466V80.648C20.8132 81.2301 20.3428 81.7044 19.7609 81.7044H11.7444V84.8855H19.7609C20.3429 84.8855 20.8132 85.3558 20.8132 85.9379V91.3433C20.8132 91.9253 20.3428 92.3955 19.7609 92.3955H11.7444V95.8915H27.7733V60.0031H18.1983C17.6162 60.0031 17.1458 59.5288 17.1458 58.9468C17.1458 58.3647 17.6162 57.8904 18.1983 57.8904H27.7733V47.2311C27.7733 46.6491 28.2476 46.1787 28.8296 46.1787H31.5603C32.1422 46.1787 32.6126 46.6491 32.6126 47.2311C32.6126 47.8131 32.1422 48.2875 31.5603 48.2875H29.8819V95.8915H40.0908V85.9378C40.0908 85.3557 40.5651 84.8853 41.1471 84.8853H48.8566C49.4387 84.8853 49.9089 85.3557 49.9089 85.9378V95.8915H60.1177V48.2875H36.3358C35.7537 48.2875 35.2834 47.8131 35.2834 47.2311C35.2834 46.6491 35.7537 46.1787 36.3358 46.1787H43.9495C46.3306 46.1788 64.9466 46.1787 46.0503 46.1787ZM47.8002 86.9941H42.1996V95.8915H47.8002V86.9941ZM34.1193 52.804H55.8842C56.4663 52.804 56.9365 53.2745 56.9365 53.8564V59.2618C56.9365 59.8438 56.4661 60.3141 55.8842 60.3141H34.1193C33.5372 60.3141 33.0629 59.8437 33.0629 59.2618V53.8564C33.063 53.2744 33.5374 52.804 34.1193 52.804ZM54.828 54.9128H35.1717V58.2054H54.828V54.9128ZM34.1193 74.1904H55.8842C56.4663 74.1904 56.9365 74.6607 56.9365 75.2467V80.6481C56.9365 81.2302 56.4661 81.7045 55.8842 81.7045H34.1193C33.5372 81.7045 33.0629 81.23 33.0629 80.6481V75.2467C33.063 74.6606 33.5374 74.1904 34.1193 74.1904ZM54.828 76.299H35.1717V79.5957H54.828V76.299ZM42.6141 68.9005C43.1962 68.9005 43.6664 69.3709 43.6664 69.9528C43.6664 70.5387 43.196 71.0091 42.6141 71.0091H34.1194C33.5374 71.0091 33.063 70.5387 33.063 69.9528V64.5514C33.063 63.9693 33.5374 63.495 34.1194 63.495H55.8843C56.4664 63.495 56.9366 63.9693 56.9366 64.5514V69.9528C56.9366 70.5387 56.4663 71.0091 55.8843 71.0091H47.3896C46.8076 71.0091 46.3332 70.5387 46.3332 69.9528C46.3332 69.3707 46.8076 68.9005 47.3896 68.9005H54.8281V65.6077H35.1717V68.9005H42.6141ZM78.2553 86.9941H71.2952V90.2867H78.2553V86.9941ZM18.7045 86.9941H11.7444V90.2867H18.7045V86.9941ZM78.2553 76.299H71.2952V79.5957H78.2553V76.299ZM18.7045 76.299H11.7444V79.5957H18.7045V76.299ZM78.2553 65.6079H71.2952V68.9006H78.2553V65.6079ZM18.7045 65.6079H11.7444V68.9006H18.7045V65.6079Z" fill="url(#paint0_linear)"/>
<defs>
<linearGradient id="paint0_linear" x1="9.63574" y1="26.0049" x2="81.6241" y2="96.722" gradientUnits="userSpaceOnUse">
<stop stop-color="#A83592"/>
<stop offset="1" stop-color="#4F4A9D"/>
</linearGradient>
</defs>
</svg>
