<svg width="40" height="40" viewBox="0 0 40 40" fill="none" xmlns="http://www.w3.org/2000/svg">
<circle cx="20" cy="20" r="20" fill="url(#paint0_linear)"/>
<path d="M20.6671 16.0895C18.1337 16.0895 16.089 18.1342 16.089 20.6677C16.089 23.2011 18.1337 25.2458 20.6671 25.2458C23.2006 25.2458 25.2453 23.2011 25.2453 20.6677C25.2453 18.1342 23.2006 16.0895 20.6671 16.0895ZM20.6671 23.6431C19.0287 23.6431 17.6917 22.306 17.6917 20.6677C17.6917 19.0293 19.0287 17.6922 20.6671 17.6922C22.3055 17.6922 23.6426 19.0293 23.6426 20.6677C23.6426 22.306 22.3055 23.6431 20.6671 23.6431ZM25.4328 14.8351C24.8412 14.8351 24.3636 15.3127 24.3636 15.9043C24.3636 16.4958 24.8412 16.9735 25.4328 16.9735C26.0243 16.9735 26.502 16.498 26.502 15.9043C26.5021 15.7638 26.4746 15.6247 26.4209 15.4949C26.3673 15.3651 26.2885 15.2472 26.1892 15.1478C26.0899 15.0485 25.9719 14.9698 25.8421 14.9161C25.7123 14.8624 25.5732 14.8349 25.4328 14.8351ZM29.5912 20.6677C29.5912 19.4355 29.6024 18.2145 29.5332 16.9846C29.464 15.556 29.1381 14.2882 28.0935 13.2435C27.0466 12.1967 25.781 11.873 24.3524 11.8038C23.1203 11.7346 21.8993 11.7458 20.6694 11.7458C19.4372 11.7458 18.2162 11.7346 16.9863 11.8038C15.5578 11.873 14.2899 12.1989 13.2453 13.2435C12.1984 14.2904 11.8747 15.556 11.8055 16.9846C11.7363 18.2168 11.7475 19.4377 11.7475 20.6677C11.7475 21.8976 11.7363 23.1208 11.8055 24.3507C11.8747 25.7793 12.2006 27.0471 13.2453 28.0918C14.2921 29.1386 15.5578 29.4623 16.9863 29.5315C18.2185 29.6007 19.4395 29.5895 20.6694 29.5895C21.9015 29.5895 23.1225 29.6007 24.3524 29.5315C25.781 29.4623 27.0488 29.1364 28.0935 28.0918C29.1403 27.0449 29.464 25.7793 29.5332 24.3507C29.6046 23.1208 29.5912 21.8998 29.5912 20.6677ZM27.627 25.931C27.464 26.3373 27.2676 26.6409 26.9528 26.9534C26.6381 27.2681 26.3368 27.4645 25.9305 27.6275C24.7564 28.094 21.9685 27.9891 20.6671 27.9891C19.3658 27.9891 16.5756 28.094 15.4015 27.6297C14.9953 27.4668 14.6917 27.2703 14.3792 26.9556C14.0645 26.6409 13.868 26.3395 13.7051 25.9333C13.2408 24.7569 13.3457 21.969 13.3457 20.6677C13.3457 19.3663 13.2408 16.5761 13.7051 15.402C13.868 14.9958 14.0645 14.6922 14.3792 14.3797C14.6939 14.0672 14.9953 13.8685 15.4015 13.7056C16.5756 13.2413 19.3658 13.3462 20.6671 13.3462C21.9685 13.3462 24.7587 13.2413 25.9328 13.7056C26.339 13.8685 26.6426 14.065 26.9551 14.3797C27.2698 14.6944 27.4662 14.9958 27.6292 15.402C28.0935 16.5761 27.9886 19.3663 27.9886 20.6677C27.9886 21.969 28.0935 24.7569 27.627 25.931Z" fill="white"/>
<defs>
<linearGradient id="paint0_linear" x1="0" y1="0" x2="40" y2="40" gradientUnits="userSpaceOnUse">
<stop stop-color="#A83592"/>
<stop offset="1" stop-color="#4F4A9D"/>
</linearGradient>
</defs>
</svg>
