<svg width="40" height="40" viewBox="0 0 40 40" fill="none" xmlns="http://www.w3.org/2000/svg">
<circle cx="20" cy="20" r="20" fill="url(#paint0_linear)"/>
<g clip-path="url(#clip0)">
<path d="M29.8239 13.9736L23.7583 20.0002L29.8239 26.0267C29.9335 25.7975 30.0001 25.5441 30.0001 25.2736V14.7267C30.0001 14.4561 29.9335 14.2028 29.8239 13.9736Z" fill="white"/>
<path d="M28.2423 12.9688H11.758C11.4874 12.9688 11.2341 13.0353 11.0049 13.1449L18.7573 20.8583C19.4428 21.5438 20.5575 21.5438 21.243 20.8583L28.9954 13.1449C28.7662 13.0353 28.5129 12.9688 28.2423 12.9688Z" fill="white"/>
<path d="M10.1762 13.9736C10.0665 14.2028 10 14.4561 10 14.7267V25.2736C10 25.5442 10.0665 25.7975 10.1762 26.0267L16.2418 20.0002L10.1762 13.9736Z" fill="white"/>
<path d="M22.9298 20.8281L22.0715 21.6864C20.9294 22.8286 19.0709 22.8286 17.9287 21.6864L17.0705 20.8281L11.0049 26.8547C11.2341 26.9643 11.4874 27.0308 11.758 27.0308H28.2423C28.5129 27.0308 28.7662 26.9643 28.9954 26.8547L22.9298 20.8281Z" fill="white"/>
</g>
<defs>
<linearGradient id="paint0_linear" x1="0" y1="0" x2="40" y2="40" gradientUnits="userSpaceOnUse">
<stop stop-color="#A83592"/>
<stop offset="1" stop-color="#4F4A9D"/>
</linearGradient>
<clipPath id="clip0">
<rect width="20" height="20" fill="white" transform="translate(10 10)"/>
</clipPath>
</defs>
</svg>
