<svg width="90" height="98" viewBox="0 0 90 98" fill="none" xmlns="http://www.w3.org/2000/svg">
<ellipse cx="45" cy="44.9541" rx="45" ry="44.9541" fill="#FCF8F2"/>
<g clip-path="url(#clip0)">
<path d="M59.6272 60.3244L52.6473 57.2222C52.1542 57.0031 51.8358 56.5128 51.8358 55.9734V54.0567C54.1805 52.1885 55.6875 49.3116 55.6875 46.0876V43.3895C56.46 42.9626 56.9714 42.1378 56.9714 41.2141V40.9522C56.9714 35.3345 52.401 30.7642 46.7833 30.7642H44.2157C38.598 30.7642 34.0276 35.3345 34.0276 40.9522V43.3281C34.0276 44.1401 34.3771 44.8757 34.9862 45.3464C35.0895 45.4262 35.1982 45.4963 35.3115 45.557V46.0875C35.3115 49.3114 36.8184 52.1883 39.1629 54.0564V55.9733C39.1629 56.5127 38.8443 57.0029 38.3514 57.222L31.3714 60.3243C29.0855 61.3401 27.6084 63.6131 27.6084 66.1146V82.0348C27.6084 82.6981 28.1462 83.2359 28.8096 83.2359C29.4729 83.2359 30.0107 82.6981 30.0107 82.0348V66.1147C30.0107 65.9755 30.0207 65.838 30.0351 65.7015L33.2514 68.9178C33.7518 69.4184 34.0276 70.0839 34.0276 70.7919V82.0349C34.0276 82.6983 34.5654 83.2361 35.2288 83.2361C35.8922 83.2361 36.43 82.6983 36.43 82.0349V70.7919C36.43 69.4423 35.9045 68.1735 34.9501 67.2192L31.1158 63.3847C31.4613 63.0263 31.8758 62.7292 32.3473 62.5195L39.2095 59.4697L44.2985 64.5586V82.0348C44.2985 82.6981 44.8363 83.2359 45.4997 83.2359C46.163 83.2359 46.7008 82.6981 46.7008 82.0348V64.5588L51.7898 59.4698L58.6519 62.5195C59.1234 62.7292 59.5379 63.0263 59.8833 63.3849L56.049 67.2192C55.0946 68.1735 54.5692 69.4423 54.5692 70.7919V82.0349C54.5692 82.6983 55.107 83.2361 55.7703 83.2361C56.4337 83.2361 56.9715 82.6983 56.9715 82.0349V70.7919C56.9715 70.084 57.2471 69.4184 57.7478 68.9178L60.9639 65.7017C60.9783 65.8381 60.9882 65.9754 60.9882 66.1146V82.0348C60.9882 82.6981 61.5261 83.2359 62.1894 83.2359C62.8528 83.2359 63.3906 82.6981 63.3906 82.0348V66.1147C63.3901 63.6132 61.9131 61.3403 59.6272 60.3244ZM45.4992 62.3626L41.0338 57.8971C41.3734 57.3258 41.5651 56.6648 41.5651 55.9734V55.4846C42.7764 55.9936 44.1055 56.2757 45.4993 56.2757C46.8932 56.2757 48.2222 55.9938 49.4333 55.4848V55.9734C49.4333 56.665 49.625 57.3258 49.9647 57.8972L45.4992 62.3626ZM45.4993 53.8732C41.2063 53.8733 37.7136 50.3806 37.7136 46.0876V45.5474C38.4632 45.2503 39.1948 44.7775 39.8951 44.1313C40.3825 43.6814 40.4131 42.9215 39.963 42.434C39.5132 41.9466 38.7534 41.916 38.2657 42.3659C37.665 42.9205 37.0647 43.2788 36.482 43.4309C36.4679 43.4346 36.4575 43.4362 36.4502 43.4369C36.4415 43.4201 36.4298 43.3848 36.4298 43.3283V40.9524C36.4298 36.6594 39.9225 33.1667 44.2155 33.1667H46.7831C51.0763 33.1667 54.5688 36.6594 54.5688 40.9524V41.2142C54.5688 41.2531 54.5455 41.2869 54.5147 41.293C47.3219 42.7136 43.7142 40.0363 42.497 38.8191C42.0279 38.35 41.2674 38.35 40.7984 38.8191C40.3293 39.2882 40.3293 40.0488 40.7984 40.5177C44.5285 44.2477 49.9714 44.315 53.285 43.9169V46.0875C53.285 50.3805 49.7923 53.8732 45.4993 53.8732Z" fill="url(#paint0_linear)"/>
<path d="M26.1599 53.7902V51.2221C26.1599 48.0885 24.5314 45.3299 22.0777 43.7425C22.2292 43.2564 22.3083 42.7473 22.3083 42.2352C22.3083 39.4492 20.0418 37.1826 17.2557 37.1826C14.4696 37.1826 12.203 39.4493 12.203 42.2352C12.203 42.7537 12.2815 43.2578 12.4334 43.7428C9.97976 45.3301 8.35144 48.0886 8.35144 51.2221V53.7897C8.35144 56.8242 9.87822 59.5075 12.2029 61.1158V63.7572C12.2029 64.2782 11.9135 64.7465 11.4476 64.9796L7.29297 67.0568C5.57017 67.9184 4.5 69.65 4.5 71.5762V82.0343C4.5 82.6977 5.03781 83.2355 5.70117 83.2355C6.36454 83.2355 6.90235 82.6977 6.90235 82.0343V72.0958L8.85914 74.0526C9.35963 74.5532 9.63542 75.2187 9.63542 75.9267V82.0343C9.63542 82.6977 10.1732 83.2355 10.8366 83.2355C11.5 83.2355 12.0378 82.6977 12.0378 82.0343V75.9267C12.0378 74.5771 11.5121 73.3083 10.5579 72.354L7.83446 69.6305C7.82133 69.6174 7.80723 69.606 7.79378 69.5937C7.96467 69.4428 8.15637 69.3115 8.36746 69.2058L12.5221 67.1285C12.7349 67.022 12.933 66.8963 13.1177 66.7567L16.0545 69.6936V82.0345C16.0545 82.6978 16.5923 83.2356 17.2557 83.2356C17.919 83.2356 18.4568 82.6978 18.4568 82.0345V69.6934L21.3938 66.7565C21.5786 66.8963 21.7766 67.022 21.9894 67.1284L23.135 67.7013C23.3075 67.7876 23.4907 67.8284 23.6714 67.8284C24.112 67.8284 24.5362 67.585 24.7467 67.1643C25.0434 66.5709 24.8029 65.8494 24.2095 65.5528L23.0639 64.9799C22.5979 64.7468 22.3084 64.2785 22.3084 63.7577V61.1163C24.6331 59.508 26.1599 56.8245 26.1599 53.7902ZM17.2557 39.585C18.7171 39.585 19.9059 40.774 19.9059 42.2352C19.9059 42.3962 19.8915 42.5539 19.864 42.7085C19.0385 42.4551 18.163 42.3179 17.2557 42.3179C16.3497 42.3179 15.4752 42.4547 14.651 42.7074C14.6233 42.5528 14.6054 42.3959 14.6054 42.2352C14.6054 40.7738 15.7942 39.585 17.2557 39.585ZM17.2557 44.7204C20.8408 44.7204 23.7575 47.6372 23.7575 51.2223V51.6576C18.7567 53.1887 15.7763 49.3845 15.649 49.2177C15.44 48.9392 15.1205 48.765 14.7732 48.7403C14.426 48.716 14.0849 48.843 13.8387 49.0891C12.6922 50.2357 11.5691 50.7887 10.7581 51.0557C10.847 47.5473 13.7265 44.7204 17.2557 44.7204ZM17.2557 67.4971L14.48 64.7214C14.561 64.4116 14.6054 64.0888 14.6054 63.7574V62.2912C15.4429 62.5529 16.3332 62.694 17.2557 62.694C18.1782 62.694 19.0685 62.5529 19.9059 62.2912V63.7574C19.9059 64.0888 19.9503 64.4118 20.0313 64.7214L17.2557 67.4971ZM17.2557 60.2916C13.6706 60.2916 10.7538 57.3748 10.7538 53.7897V53.5409C11.7117 53.3208 13.132 52.8094 14.6136 51.6179C15.1378 52.1124 15.887 52.7191 16.841 53.2394C17.9695 53.8549 19.528 54.4243 21.4316 54.4243C22.155 54.4243 22.9291 54.3402 23.7473 54.147C23.561 57.5667 20.7208 60.2916 17.2557 60.2916Z" fill="url(#paint1_linear)"/>
<path d="M83.7065 64.4889L76.9843 61.1277C76.5184 60.8947 76.229 60.4264 76.229 59.9055V58.2032C77.8025 56.8062 78.7966 54.7703 78.7966 52.5057V51.1384C78.8243 51.1384 78.8515 51.1392 78.8792 51.1392C79.5426 51.1392 80.0804 50.6014 80.0804 49.938V47.3704C80.0804 43.1685 76.6619 39.75 72.46 39.75H69.8924C65.6905 39.75 62.272 43.1685 62.272 47.3704V49.938C62.272 50.6014 62.8098 51.1392 63.4731 51.1392C63.4831 51.1392 63.5119 51.1389 63.5558 51.1371V52.5057C63.5558 54.7704 64.55 56.8064 66.1236 58.2034V59.9057C66.1236 60.4267 65.8342 60.895 65.3681 61.1279C64.7747 61.4245 64.5342 62.146 64.831 62.7394C65.0414 63.1602 65.4657 63.4037 65.9062 63.4037C66.0867 63.4037 66.27 63.3628 66.4424 63.2767C66.6553 63.1702 66.8534 63.0445 67.0381 62.9048L69.975 65.8417V82.0341C69.975 82.6974 70.5128 83.2352 71.1762 83.2352C71.8396 83.2352 72.3774 82.6974 72.3774 82.0341V65.8414L75.3142 62.9045C75.499 63.0443 75.6969 63.17 75.9098 63.2764L82.4145 66.5288L80.4416 68.5018C79.4874 69.4562 78.9617 70.7249 78.9617 72.0746V82.0337C78.9617 82.6971 79.4995 83.2349 80.1629 83.2349C80.8263 83.2349 81.3641 82.6971 81.3641 82.0337V72.0746C81.3641 71.3667 81.6397 70.7011 82.1404 70.2004L84.0092 68.3315C84.0659 68.5489 84.097 68.7755 84.097 69.008V82.0337C84.097 82.6971 84.6348 83.2349 85.2982 83.2349C85.9615 83.2349 86.4993 82.6971 86.4993 82.0337V69.008C86.4995 67.082 85.4293 65.3504 83.7065 64.4889ZM64.6742 48.4897V47.3702H64.6743C64.6743 44.493 67.0152 42.1522 69.8924 42.1522H72.46C75.3372 42.1522 77.6781 44.493 77.6781 47.3702V48.7045C72.4565 48.4228 69.3054 46.3909 69.2748 46.3709C69.0716 46.2354 68.8397 46.1691 68.6089 46.1691C68.2988 46.1691 67.9913 46.2889 67.7591 46.5209C66.6098 47.6702 65.4838 48.2234 64.6742 48.4897ZM71.1762 63.6452L68.4005 60.8695C68.4816 60.5598 68.5259 60.2369 68.5259 59.9055V59.6498C69.3517 59.9571 70.2446 60.1259 71.1762 60.1259C72.1078 60.1259 73.0007 59.9571 73.8265 59.6498V59.9055C73.8265 60.2369 73.8707 60.5598 73.9519 60.8695L71.1762 63.6452ZM71.1762 57.7237C68.299 57.7237 65.9581 55.383 65.9581 52.5057V50.5692C66.7994 50.233 67.7796 49.6986 68.777 48.8488C70.0384 49.5051 72.6775 50.6395 76.3943 51.0143V52.5057C76.3943 55.3829 74.0534 57.7237 71.1762 57.7237Z" fill="url(#paint2_linear)"/>
</g>
<defs>
<linearGradient id="paint0_linear" x1="27.6084" y1="30.7642" x2="76.4569" y2="64.0754" gradientUnits="userSpaceOnUse">
<stop stop-color="#A83592"/>
<stop offset="1" stop-color="#4F4A9D"/>
</linearGradient>
<linearGradient id="paint1_linear" x1="4.5" y1="37.1826" x2="39.973" y2="53.8664" gradientUnits="userSpaceOnUse">
<stop stop-color="#A83592"/>
<stop offset="1" stop-color="#4F4A9D"/>
</linearGradient>
<linearGradient id="paint2_linear" x1="62.272" y1="39.75" x2="99.2489" y2="60.3513" gradientUnits="userSpaceOnUse">
<stop stop-color="#A83592"/>
<stop offset="1" stop-color="#4F4A9D"/>
</linearGradient>
<clipPath id="clip0">
<rect width="82" height="82" fill="white" transform="translate(4.5 16)"/>
</clipPath>
</defs>
</svg>
