<svg width="102" height="109" fill="none" xmlns="http://www.w3.org/2000/svg"><circle cx="50" cy="50" r="50" fill="#FCF8F2"/><g opacity=".65"><path d="M93.974 67.938a27.725 27.725 0 006.99-11.541c.105-.341.197-.695.275-1.05v-.13c.097-.432.097-.88 0-1.312C97.803 39.492 81.292 29 62 29c-19.292 0-35.803 10.492-39.279 24.918-.095.432-.095.88 0 1.312v.13c.079.355.17.709.276 1.037C26.59 68.659 39.705 77.918 55.993 79.78c-2.422 10.853 3.285 21.882 13.543 26.173 10.259 4.291 22.118.611 28.145-8.734 6.027-9.346 4.487-21.667-3.655-29.242l-.052-.04zm-2.033-1.679a22.514 22.514 0 00-2.4-1.6 31.7 31.7 0 002.125-.997 24.423 24.423 0 004.708-3.187 26.9 26.9 0 01-4.433 5.784zm-28.105.774h-2.465a82.112 82.112 0 01-12.486-1.036 16.879 16.879 0 010-21.535 82.622 82.622 0 0112.551-1.036h1.194c.944 0 1.888 0 2.82.066a5.889 5.889 0 00-2.086 3.934 7.759 7.759 0 00-1.311-.13 7.869 7.869 0 107.868 7.868 7.736 7.736 0 00-.13-1.312 5.902 5.902 0 005.324-5.836 5.836 5.836 0 00-1.403-3.777l1.468.223a16.866 16.866 0 012.558 17.325 22.82 22.82 0 00-13.902 5.246zM26.67 55.23a11.672 11.672 0 013.488-3.935c.242 1.298.365 2.615.368 3.934a21.377 21.377 0 01-.368 3.935 11.712 11.712 0 01-3.422-3.803.405.405 0 01-.066-.131zm5.85-5.509a42.15 42.15 0 0111.12-4.21l1.522-.34a19.502 19.502 0 000 20.117l-1.522-.34a42.147 42.147 0 01-11.03-4.184 23.36 23.36 0 00.539-5.535c0-1.853-.212-3.701-.63-5.508zm36.248 1.574A7.987 7.987 0 0066 48.528a2.442 2.442 0 010-.446 3.279 3.279 0 113.213 3.213 2.442 2.442 0 01-.446 0zm-1.521 3.934a5.246 5.246 0 11-10.492 0 5.246 5.246 0 0110.492 0zM78.892 45.17l1.508.341a46.375 46.375 0 019.941 3.58 23.948 23.948 0 000 12.276 40.071 40.071 0 01-4.157 1.81 22.783 22.783 0 00-5.679-1.311 19.593 19.593 0 00-1.613-16.722v.026zm18.36 10.23a13.273 13.273 0 01-4.563 4.59c-.7-3.135-.7-6.386 0-9.521a12.998 12.998 0 014.642 4.76l-.079.171zM62 31.623c16.525 0 30.793 8.04 35.58 19.488a22.978 22.978 0 00-5.967-4.314 47.805 47.805 0 00-10.584-3.83 80.08 80.08 0 00-18.308-2.164 11.982 11.982 0 00-1.377 0 80.22 80.22 0 00-18.36 2.151 45.806 45.806 0 00-11.725 4.407 21.181 21.181 0 00-4.826 3.685C31.246 39.636 45.502 31.623 62 31.623zM27.64 60.475a23.686 23.686 0 003.62 2.623 45.811 45.811 0 0011.71 4.446 79.83 79.83 0 0018.178 2.112 23.005 23.005 0 00-4.394 7.567C43.64 75.846 32.662 69.42 27.64 60.475zm50.754 44.591c-11.227 0-20.328-9.102-20.328-20.328 0-11.227 9.1-20.328 20.328-20.328 11.226 0 20.327 9.1 20.327 20.328-.007 11.224-9.104 20.32-20.328 20.328z" fill="url(#paint0_linear)"/><path d="M89.96 75.256l-18.635 17.39-4.367-5.443a1.312 1.312 0 10-2.046 1.626l5.246 6.558c.227.29.564.47.93.498h.093c.33 0 .65-.127.891-.354l19.672-18.36a1.311 1.311 0 00-1.783-1.915z" fill="url(#paint1_linear)"/></g><defs><linearGradient id="paint0_linear" x1="22.649" y1="29" x2="101.383" y2="107.695" gradientUnits="userSpaceOnUse"><stop stop-color="#A83592"/><stop offset="1" stop-color="#4F4A9D"/></linearGradient><linearGradient id="paint1_linear" x1="64.554" y1="74.963" x2="84.71" y2="101.498" gradientUnits="userSpaceOnUse"><stop stop-color="#A83592"/><stop offset="1" stop-color="#4F4A9D"/></linearGradient></defs></svg>