<svg width="27" height="27" fill="none" xmlns="http://www.w3.org/2000/svg"><circle cx="13.5" cy="13.5" r="13" stroke="#8A8A8A"/><path d="M12.07 15.884h2.404v-.371c0-.859.334-1.31 1.537-2.007 1.274-.75 1.934-1.7 1.934-3.056v-.009c0-2.07-1.718-3.498-4.294-3.498-2.775 0-4.321 1.564-4.393 3.688v.09h2.45l.008-.072c.055-.93.733-1.609 1.772-1.609 1.022 0 1.718.615 1.718 1.483v.009c0 .84-.353 1.293-1.519 1.989-1.247.732-1.717 1.555-1.627 2.838l.01.525zm1.238 4.33c.822 0 1.482-.624 1.482-1.42 0-.795-.66-1.419-1.482-1.419-.814 0-1.474.624-1.474 1.42 0 .795.66 1.419 1.474 1.419z" fill="#8A8A8A"/></svg>