<svg width="102" height="109" fill="none" xmlns="http://www.w3.org/2000/svg"><circle cx="50" cy="50" r="50" fill="#FCF8F2"/><g opacity=".65"><path d="M27.333 109H78a5.333 5.333 0 005.333-5.333v-20a1.333 1.333 0 10-2.666 0v20A2.667 2.667 0 0178 106.333H27.333a2.667 2.667 0 01-2.666-2.666v-60A2.667 2.667 0 0127.333 41h13.334v2.667h-12c-.737 0-1.334.597-1.334 1.333v57.333c0 .737.597 1.334 1.334 1.334h48c.736 0 1.333-.597 1.333-1.334V89a1.333 1.333 0 00-2.667 0v12H30V46.333h10.907A4 4 0 0044.667 49h16a4 4 0 003.76-2.667h10.906V61A1.333 1.333 0 0078 61V45c0-.736-.597-1.333-1.333-1.333h-12V41H78a2.667 2.667 0 012.667 2.667v10.666a1.333 1.333 0 102.666 0V43.667A5.333 5.333 0 0078 38.333H64.667a4 4 0 00-2.187-3.266l-3.147-1.56V33a4 4 0 00-4-4H50a4 4 0 00-4 4v.507l-3.12 1.56a4 4 0 00-2.213 3.266H27.333A5.333 5.333 0 0022 43.667v60A5.333 5.333 0 0027.333 109zm16-70.347a1.335 1.335 0 01.734-1.2l3.866-1.933c.449-.226.732-.685.734-1.187V33c0-.736.597-1.333 1.333-1.333h5.333c.737 0 1.334.597 1.334 1.333v1.333c.001.502.285.961.733 1.187l3.867 1.933c.452.228.736.694.733 1.2V45c0 .736-.597 1.333-1.333 1.333h-16A1.333 1.333 0 0143.333 45v-6.347z" fill="url(#paint0_linear)"/><path d="M72.547 64.493a3 3 0 000-1.68c-1.894-6.467-10.254-11.147-19.88-11.147-9.627 0-17.987 4.68-19.88 11.147a3 3 0 000 1.68c1.906 6.467 10.266 11.174 19.88 11.174 9.613 0 17.973-4.707 19.88-11.174zM62 63.667a9.333 9.333 0 11-18.667 0 9.333 9.333 0 0118.667 0zm-26.667.066a.387.387 0 010-.173c.947-3.214 4-5.894 8-7.534a12 12 0 000 15.267c-4-1.64-7.04-4.333-8-7.56zM62 71.293a12 12 0 000-15.267c4 1.64 7.04 4.307 8 7.534a.387.387 0 010 .173c-.96 3.227-4 5.92-8 7.56z" fill="url(#paint1_linear)"/><path d="M52.667 69a5.333 5.333 0 100-10.666 5.333 5.333 0 000 10.666zm0-8a2.667 2.667 0 110 5.334 2.667 2.667 0 010-5.334z" fill="url(#paint2_linear)"/><path d="M34 81h4a1.333 1.333 0 000-2.666h-4A1.333 1.333 0 1034 81z" fill="url(#paint3_linear)"/><path d="M62 79.667c0-.737-.597-1.334-1.333-1.334H43.333a1.333 1.333 0 000 2.667h17.334c.736 0 1.333-.597 1.333-1.333z" fill="url(#paint4_linear)"/><path d="M58 85c0-.737-.597-1.334-1.333-1.334H34a1.333 1.333 0 100 2.667h22.667c.736 0 1.333-.597 1.333-1.333z" fill="url(#paint5_linear)"/><path d="M99.88 61.72a6.668 6.668 0 00-9.427-9.427L80.08 62.667a2.667 2.667 0 00-.68 2.573L63.12 81.52s0 .093-.093.133l-.107.12-5.893 9.747a2.666 2.666 0 00-.24 1.987l-1.214 1.213A1.333 1.333 0 0056.52 97c.35-.001.685-.14.933-.387l1.2-1.2c.223.057.45.089.68.094.47-.005.93-.134 1.334-.374l9.706-5.866s.08-.08.12-.107l.134-.093 16.32-16.294c.22.068.45.104.68.107a2.67 2.67 0 001.893-.787L98 63.667l.947.946a1.333 1.333 0 010 1.88L91.4 74.04a1.333 1.333 0 000 1.88 1.333 1.333 0 001.88 0l7.547-7.547a4.001 4.001 0 000-5.653l-.947-1zM59.333 92.853l4.974-8.226 3.253 3.253-8.227 4.973zm10.374-6.666L66 82.467l15.027-15.08L84.8 71.16 69.707 86.187zm17.906-16L82 64.56l10.373-10.373a4 4 0 015.654 0 4 4 0 010 5.653l-.947.947-9.467 9.4z" fill="url(#paint6_linear)"/><path d="M51.333 94.533a2.56 2.56 0 00-2.08-.347 2.587 2.587 0 00-1.56 1.187L46.36 93.32a2.587 2.587 0 00-4.667.693l-.373 1.4-1.214-4.52a2.587 2.587 0 00-4.693-.653.624.624 0 00-.08.093l-2.547 5.587A1.333 1.333 0 1035.213 97l2.373-5.174 1.227 4.587a2.547 2.547 0 002.48 1.92 2.547 2.547 0 002.48-1.88l.427-1.533 1.333 2.013a2.56 2.56 0 004.427-.133l.893.587c.394.268.857.416 1.334.426a1.335 1.335 0 00.133-2.666l-.987-.614z" fill="url(#paint7_linear)"/><path d="M50 43.667c.736 0 1.333-.597 1.333-1.334v-4a1.333 1.333 0 00-2.666 0v4c0 .737.597 1.334 1.333 1.334z" fill="url(#paint8_linear)"/><path d="M55.334 43.667c.736 0 1.333-.597 1.333-1.334v-4a1.333 1.333 0 00-2.667 0v4c0 .737.597 1.334 1.334 1.334z" fill="url(#paint9_linear)"/></g><defs><linearGradient id="paint0_linear" x1="22" y1="29" x2="99.257" y2="88.23" gradientUnits="userSpaceOnUse"><stop stop-color="#A83592"/><stop offset="1" stop-color="#4F4A9D"/></linearGradient><linearGradient id="paint1_linear" x1="32.667" y1="51.666" x2="53.843" y2="86.961" gradientUnits="userSpaceOnUse"><stop stop-color="#A83592"/><stop offset="1" stop-color="#4F4A9D"/></linearGradient><linearGradient id="paint2_linear" x1="47.333" y1="58.334" x2="58" y2="69" gradientUnits="userSpaceOnUse"><stop stop-color="#A83592"/><stop offset="1" stop-color="#4F4A9D"/></linearGradient><linearGradient id="paint3_linear" x1="32.667" y1="78.334" x2="34.506" y2="82.931" gradientUnits="userSpaceOnUse"><stop stop-color="#A83592"/><stop offset="1" stop-color="#4F4A9D"/></linearGradient><linearGradient id="paint4_linear" x1="42" y1="78.334" x2="42.699" y2="83.574" gradientUnits="userSpaceOnUse"><stop stop-color="#A83592"/><stop offset="1" stop-color="#4F4A9D"/></linearGradient><linearGradient id="paint5_linear" x1="32.667" y1="83.666" x2="33.222" y2="88.941" gradientUnits="userSpaceOnUse"><stop stop-color="#A83592"/><stop offset="1" stop-color="#4F4A9D"/></linearGradient><linearGradient id="paint6_linear" x1="55.179" y1="50.422" x2="101.756" y2="97.239" gradientUnits="userSpaceOnUse"><stop stop-color="#A83592"/><stop offset="1" stop-color="#4F4A9D"/></linearGradient><linearGradient id="paint7_linear" x1="32.618" y1="89.008" x2="39.543" y2="104.579" gradientUnits="userSpaceOnUse"><stop stop-color="#A83592"/><stop offset="1" stop-color="#4F4A9D"/></linearGradient><linearGradient id="paint8_linear" x1="48.667" y1="37" x2="53.264" y2="38.839" gradientUnits="userSpaceOnUse"><stop stop-color="#A83592"/><stop offset="1" stop-color="#4F4A9D"/></linearGradient><linearGradient id="paint9_linear" x1="54" y1="37" x2="58.598" y2="38.839" gradientUnits="userSpaceOnUse"><stop stop-color="#A83592"/><stop offset="1" stop-color="#4F4A9D"/></linearGradient></defs></svg>