<svg width="102" height="109" fill="none" xmlns="http://www.w3.org/2000/svg"><circle cx="50" cy="50" r="50" fill="#FCF8F2"/><g opacity=".65" clip-path="url(#clip0)"><path d="M79.333 109h-16A5.339 5.339 0 0158 103.667V69a5.339 5.339 0 015.334-5.334h16A5.339 5.339 0 0184.666 69v34.667A5.339 5.339 0 0179.333 109zm-16-42.667A2.67 2.67 0 0060.668 69v34.667a2.67 2.67 0 002.666 2.666h16A2.67 2.67 0 0082 103.667V69a2.67 2.67 0 00-2.667-2.667h-16z" fill="url(#paint0_linear)"/><path d="M79.333 66.334h-16A1.334 1.334 0 0162 65v-3.196a3.473 3.473 0 013.47-3.47h11.727a3.473 3.473 0 013.47 3.47V65c0 .736-.598 1.334-1.334 1.334zm-14.666-2.667H78v-1.863a.805.805 0 00-.804-.804H65.469a.805.805 0 00-.802.804v1.863z" fill="url(#paint1_linear)"/><path d="M74 61h-5.333a1.334 1.334 0 01-1.334-1.333v-8c0-.736.598-1.334 1.334-1.334H74c.736 0 1.333.598 1.333 1.334v8c0 .736-.597 1.333-1.333 1.333zm-4-2.666h2.667V53H70v5.334z" fill="url(#paint2_linear)"/><path d="M74 53H63.333A1.334 1.334 0 0162 51.666V41c0-.736.597-1.334 1.333-1.334H74a6.674 6.674 0 016.667 6.667A6.674 6.674 0 0174 53zm-9.333-2.667H74c2.205 0 4-1.794 4-4 0-2.205-1.795-4-4-4h-9.333v8z" fill="url(#paint3_linear)"/><path d="M63.333 50.334H58A1.334 1.334 0 0156.667 49v-5.333c0-.736.597-1.334 1.333-1.334h5.333c.736 0 1.334.598 1.334 1.334V49c0 .736-.598 1.334-1.334 1.334zm-4-2.667H62V45h-2.667v2.667z" fill="url(#paint4_linear)"/><path d="M72.667 95.667H59.333A1.334 1.334 0 0158 94.333v-16c0-.736.597-1.333 1.334-1.333h13.333c.736 0 1.333.597 1.333 1.333v16c0 .736-.597 1.334-1.333 1.334zm-12-2.667h10.666V79.667H60.667V93z" fill="url(#paint5_linear)"/><path d="M83.333 95.667H78a1.334 1.334 0 01-1.333-1.334v-16c0-.736.597-1.333 1.333-1.333h5.333c.736 0 1.334.597 1.334 1.333v16c0 .736-.598 1.334-1.334 1.334zm-4-2.667H82V79.667h-2.667V93z" fill="url(#paint6_linear)"/><path d="M67.334 85h-8a1.334 1.334 0 010-2.666h8a1.334 1.334 0 010 2.666z" fill="url(#paint7_linear)"/><path d="M64.667 90.333h-5.334a1.334 1.334 0 010-2.666h5.334a1.334 1.334 0 010 2.666z" fill="url(#paint8_linear)"/><path d="M43.334 63.667c-2.206 0-4-1.795-4-4V33c0-2.205 1.794-4 4-4 2.205 0 4 1.795 4 4v26.667c0 2.205-1.795 4-4 4zm0-32c-.737 0-1.334.598-1.334 1.333v26.667a1.335 1.335 0 002.667 0V33c0-.735-.598-1.333-1.334-1.333z" fill="url(#paint9_linear)"/><path d="M46 59.667a1.334 1.334 0 01-1.334-1.334v-24c0-.736.598-1.333 1.334-1.333 7.352 0 13.333 5.981 13.333 13.333S53.352 59.667 46 59.667zm1.333-23.918v21.168c5.255-.658 9.334-5.154 9.334-10.584 0-5.429-4.08-9.925-9.334-10.584z" fill="url(#paint10_linear)"/></g><defs><linearGradient id="paint0_linear" x1="58" y1="63.666" x2="97.623" y2="86.974" gradientUnits="userSpaceOnUse"><stop stop-color="#A83592"/><stop offset="1" stop-color="#4F4A9D"/></linearGradient><linearGradient id="paint1_linear" x1="62" y1="58.334" x2="67.793" y2="71.851" gradientUnits="userSpaceOnUse"><stop stop-color="#A83592"/><stop offset="1" stop-color="#4F4A9D"/></linearGradient><linearGradient id="paint2_linear" x1="67.333" y1="50.334" x2="77.573" y2="58.014" gradientUnits="userSpaceOnUse"><stop stop-color="#A83592"/><stop offset="1" stop-color="#4F4A9D"/></linearGradient><linearGradient id="paint3_linear" x1="62" y1="39.666" x2="74.613" y2="57.324" gradientUnits="userSpaceOnUse"><stop stop-color="#A83592"/><stop offset="1" stop-color="#4F4A9D"/></linearGradient><linearGradient id="paint4_linear" x1="56.667" y1="42.334" x2="64.667" y2="50.334" gradientUnits="userSpaceOnUse"><stop stop-color="#A83592"/><stop offset="1" stop-color="#4F4A9D"/></linearGradient><linearGradient id="paint5_linear" x1="58" y1="77" x2="76.447" y2="92.812" gradientUnits="userSpaceOnUse"><stop stop-color="#A83592"/><stop offset="1" stop-color="#4F4A9D"/></linearGradient><linearGradient id="paint6_linear" x1="76.667" y1="77" x2="90.184" y2="82.793" gradientUnits="userSpaceOnUse"><stop stop-color="#A83592"/><stop offset="1" stop-color="#4F4A9D"/></linearGradient><linearGradient id="paint7_linear" x1="58" y1="82.334" x2="59.255" y2="87.353" gradientUnits="userSpaceOnUse"><stop stop-color="#A83592"/><stop offset="1" stop-color="#4F4A9D"/></linearGradient><linearGradient id="paint8_linear" x1="58" y1="87.666" x2="59.6" y2="92.466" gradientUnits="userSpaceOnUse"><stop stop-color="#A83592"/><stop offset="1" stop-color="#4F4A9D"/></linearGradient><linearGradient id="paint9_linear" x1="39.334" y1="29" x2="54.525" y2="32.506" gradientUnits="userSpaceOnUse"><stop stop-color="#A83592"/><stop offset="1" stop-color="#4F4A9D"/></linearGradient><linearGradient id="paint10_linear" x1="44.666" y1="33" x2="67.187" y2="45.386" gradientUnits="userSpaceOnUse"><stop stop-color="#A83592"/><stop offset="1" stop-color="#4F4A9D"/></linearGradient><clipPath id="clip0"><path fill="#fff" transform="translate(22 29)" d="M0 0h80v80H0z"/></clipPath></defs></svg>