<svg width="102" height="109" fill="none" xmlns="http://www.w3.org/2000/svg"><circle cx="50" cy="50" r="50" fill="#FCF8F2"/><g opacity=".65"><path d="M93.974 67.938a27.725 27.725 0 006.99-11.541c.105-.341.197-.695.275-1.05v-.13c.097-.432.097-.88 0-1.312C97.803 39.492 81.292 29 62 29c-19.292 0-35.803 10.492-39.279 24.918-.095.432-.095.88 0 1.312v.13c.079.355.17.709.276 1.037C26.59 68.659 39.705 77.918 55.993 79.78c-2.422 10.853 3.285 21.882 13.543 26.173 10.259 4.291 22.118.611 28.145-8.734 6.027-9.346 4.487-21.667-3.655-29.242l-.052-.04zm-2.033-1.679a22.514 22.514 0 00-2.4-1.6 31.7 31.7 0 002.125-.997l.918-.511a23.74 23.74 0 003.842-2.623 26.902 26.902 0 01-4.485 5.731zm-28.105.774h-2.465a80.744 80.744 0 01-12.486-1.036 16.879 16.879 0 010-21.522 80.542 80.542 0 0112.551-1.049h1.194c.957 0 1.888 0 2.82.066a5.889 5.889 0 00-2.086 3.934 7.759 7.759 0 00-1.311-.13 7.869 7.869 0 107.868 7.868 7.736 7.736 0 00-.13-1.312 5.85 5.85 0 003.934-9.613l1.455.223a16.84 16.84 0 012.558 17.325 22.82 22.82 0 00-13.902 5.246zM26.67 55.23a11.672 11.672 0 013.488-3.935c.242 1.298.365 2.615.368 3.934a21.539 21.539 0 01-.368 3.935 11.894 11.894 0 01-3.422-3.803.405.405 0 01-.066-.131zm5.85-5.509a42.15 42.15 0 0111.12-4.21l1.522-.34a19.502 19.502 0 000 20.117l-1.522-.34a42.636 42.636 0 01-11.03-4.171c.4-1.821.581-3.684.539-5.547 0-1.854-.212-3.702-.63-5.509zm36.248 1.574A7.987 7.987 0 0066 48.528a2.442 2.442 0 010-.446 3.279 3.279 0 113.213 3.213 2.442 2.442 0 01-.446 0zm-1.521 3.934a5.246 5.246 0 11-10.492 0 5.246 5.246 0 0110.492 0zM78.892 45.17l1.508.341a46.375 46.375 0 019.941 3.58 23.948 23.948 0 000 12.276 40.071 40.071 0 01-4.157 1.81 22.783 22.783 0 00-5.679-1.311 19.593 19.593 0 00-1.613-16.722v.026zm18.36 10.23a13.246 13.246 0 01-4.563 4.577 21.322 21.322 0 01-.525-4.747 21.7 21.7 0 01.525-4.761 13.114 13.114 0 014.642 4.76l-.079.171zM62 31.623c16.525 0 30.82 8.04 35.58 19.515a21.574 21.574 0 00-5.036-3.777h-.13l-.8-.433a47.8 47.8 0 00-10.585-3.83 69.045 69.045 0 00-4.917-1.01 82.07 82.07 0 00-13.39-1.285 11.982 11.982 0 00-1.378 0c-4.504.01-9 .392-13.442 1.141a68.39 68.39 0 00-4.931 1.01 45.716 45.716 0 00-11.804 4.512c-.315.183-.603.354-.84.511a19.87 19.87 0 00-3.868 3.082C31.26 39.623 45.515 31.623 62 31.623zM27.64 60.475c.826.71 1.703 1.358 2.622 1.941.302.197.643.394.97.59a45.813 45.813 0 0011.712 4.447c1.495.367 3.095.694 4.748.97h.17a85.688 85.688 0 0013.286 1.233 22.875 22.875 0 00-4.394 7.567C43.64 75.846 32.662 69.42 27.64 60.475zm50.754 44.591c-11.227 0-20.328-9.102-20.328-20.328 0-11.227 9.1-20.328 20.328-20.328 11.226 0 20.327 9.1 20.327 20.328-.007 11.224-9.104 20.32-20.328 20.328z" fill="url(#paint0_linear)"/><path d="M89.16 73.97a1.312 1.312 0 00-1.861 0l-8.905 8.918-8.905-8.918a1.317 1.317 0 10-1.863 1.863l8.918 8.905-8.918 8.905a1.311 1.311 0 000 1.862 1.311 1.311 0 001.863 0l8.905-8.918 8.905 8.918a1.311 1.311 0 001.862 0 1.312 1.312 0 000-1.862l-8.918-8.905 8.918-8.905a1.311 1.311 0 000-1.862z" fill="url(#paint1_linear)"/></g><defs><linearGradient id="paint0_linear" x1="22.649" y1="29" x2="101.383" y2="107.695" gradientUnits="userSpaceOnUse"><stop stop-color="#A83592"/><stop offset="1" stop-color="#4F4A9D"/></linearGradient><linearGradient id="paint1_linear" x1="67.239" y1="73.582" x2="89.549" y2="95.893" gradientUnits="userSpaceOnUse"><stop stop-color="#A83592"/><stop offset="1" stop-color="#4F4A9D"/></linearGradient></defs></svg>