<svg width="102" height="109" fill="none" xmlns="http://www.w3.org/2000/svg"><circle cx="50" cy="50" r="50" fill="#FCF8F2"/><g opacity=".65"><path d="M87.333 64.08a2.084 2.084 0 000-.32v-.093a1.962 1.962 0 000-.44c-2.773-11.36-15.64-19.56-30.666-19.56-15.027 0-27.894 8.2-30.667 19.586a2.084 2.084 0 000 .32v.173a1.927 1.927 0 000 .427c2.773 11.293 15.64 19.493 30.667 19.493 15.026 0 27.893-8.2 30.666-19.586zm-58.573-.413c1.68-3.347 6.96-6.16 13.96-7.8a15.84 15.84 0 000 15.6c-7-1.64-12.28-4.454-13.96-7.8zm17.68 8.52a13.24 13.24 0 010-17.04 64.095 64.095 0 0110.227-.814H58A4.627 4.627 0 0056.667 57a6.667 6.667 0 106.666 6.666 6.305 6.305 0 00-.24-1.68A4.667 4.667 0 0066 57.666a4.587 4.587 0 00-.947-2.786c.627.08 1.24.16 1.84.267a13.24 13.24 0 010 17.04A64.095 64.095 0 0156.667 73a64.095 64.095 0 01-10.227-.814zm15.453-12.614a6.665 6.665 0 00-2.56-2 2 2 0 112.547 2h.013zm-1.226 4.093a4 4 0 11-8 0 4 4 0 018 0zm9.946-7.8c7 1.64 12.28 4.454 13.96 7.8-1.68 3.347-6.96 6.16-13.96 7.8a15.84 15.84 0 000-15.6zm-13.946-9.533c10.56 0 19.92 4.307 24.813 10.814-5.667-3.387-14.64-5.48-24.813-5.48-10.174 0-19.12 2.093-24.787 5.466 4.907-6.52 14.253-10.8 24.787-10.8zM31.853 70.186c5.667 3.387 14.64 5.48 24.814 5.48 10.173 0 19.12-2.093 24.786-5.466C76.547 76.72 67.2 81 56.667 81c-10.534 0-19.92-4.307-24.814-10.814z" fill="url(#paint0_linear)"/><path d="M56.667 98.333a34.387 34.387 0 0020.28-6.56l14.813 15.454a5.987 5.987 0 008.493-8.44L89.827 87.88l-4.467-4.667c9.358-13.76 7.617-32.23-4.147-44-13.536-13.53-35.476-13.53-49.013 0-13.53 13.537-13.53 35.477 0 49.014a34.387 34.387 0 0024.467 10.106zM99.333 103a3.295 3.295 0 01-.986 2.36 3.413 3.413 0 01-4.68 0l-9.534-9.947 4.707-4.706 9.52 9.946c.625.621.976 1.466.974 2.347zM87 88.787l-4.707 4.706-3.24-3.373a29.114 29.114 0 002.12-1.947c.9-.89 1.747-1.835 2.534-2.826L87 88.787zM34 41c12.52-12.52 32.815-12.52 45.334 0 12.518 12.518 12.518 32.815 0 45.333-12.519 12.519-32.815 12.519-45.334 0C21.482 73.815 21.482 53.518 34 41z" fill="url(#paint1_linear)"/><path d="M36.867 45.2a1.33 1.33 0 00.946-.387 26.534 26.534 0 0113.627-7.306 1.358 1.358 0 10-.52-2.667 29.213 29.213 0 00-15 8 1.333 1.333 0 000 1.893c.238.28.58.448.947.467z" fill="url(#paint2_linear)"/><path d="M56.667 37a1.333 1.333 0 100-2.667 1.333 1.333 0 000 2.667z" fill="url(#paint3_linear)"/></g><defs><linearGradient id="paint0_linear" x1="25.988" y1="43.666" x2="62.587" y2="99.807" gradientUnits="userSpaceOnUse"><stop stop-color="#A83592"/><stop offset="1" stop-color="#4F4A9D"/></linearGradient><linearGradient id="paint1_linear" x1="22.053" y1="29.066" x2="101.98" y2="109.007" gradientUnits="userSpaceOnUse"><stop stop-color="#A83592"/><stop offset="1" stop-color="#4F4A9D"/></linearGradient><linearGradient id="paint2_linear" x1="35.526" y1="34.815" x2="44.762" y2="49.947" gradientUnits="userSpaceOnUse"><stop stop-color="#A83592"/><stop offset="1" stop-color="#4F4A9D"/></linearGradient><linearGradient id="paint3_linear" x1="55.334" y1="34.333" x2="58" y2="37" gradientUnits="userSpaceOnUse"><stop stop-color="#A83592"/><stop offset="1" stop-color="#4F4A9D"/></linearGradient></defs></svg>