<svg width="102" height="109" fill="none" xmlns="http://www.w3.org/2000/svg"><circle cx="50" cy="50" r="50" fill="#FCF8F2"/><g opacity=".65" clip-path="url(#clip0)"><path d="M58 65a4 4 0 000 8 4 4 0 008 0 4 4 0 100-8 4 4 0 10-8 0zm5.334 0v1.333c0 .737.596 1.334 1.333 1.334H66a1.333 1.333 0 110 2.666h-1.333c-.736 0-1.333.597-1.333 1.334V73a1.333 1.333 0 01-2.667 0v-1.333c0-.737-.597-1.334-1.333-1.334H58a1.333 1.333 0 010-2.666h1.334c.736 0 1.333-.597 1.333-1.334V65a1.333 1.333 0 012.667 0z" fill="url(#paint0_linear)"/><path d="M58.96 43.773c-17.08.934-31.547 9.76-36.093 22.094a26.822 26.822 0 00-.787 2.56.481.481 0 000 .146A2.01 2.01 0 0022 69a1.715 1.715 0 000 .4.785.785 0 000 .173c.213.854.48 1.707.787 2.56 4.626 12.334 19.093 21.16 36.173 22.094a3.933 3.933 0 006.08 0c17.08-.934 31.547-9.76 36.093-22.094a26.54 26.54 0 00.787-2.56.833.833 0 000-.186c.042-.125.069-.255.08-.387a1.673 1.673 0 000-.4.836.836 0 000-.173 26.626 26.626 0 00-.787-2.56C96.587 53.533 82.12 44.707 65.04 43.773a3.933 3.933 0 00-6.08 0zm5.96 13.334a81.18 81.18 0 0110.467.986A17.144 17.144 0 0178.867 65h-2.2a4 4 0 000 8h2.2a17.146 17.146 0 01-3.534 6.96c-3.463.555-6.96.884-10.466.987a4 4 0 00-5.84 0 80.936 80.936 0 01-10.36-.987 17.334 17.334 0 01-3.52-6.96h2.186a4 4 0 100-8h-2.186a17.335 17.335 0 013.52-6.96A80.954 80.954 0 0159.08 57a4 4 0 005.84 0v.107zM93.2 73.84a22.225 22.225 0 010-9.68 15.907 15.907 0 013.467 3.04c.521.539.97 1.144 1.333 1.8a8.691 8.691 0 01-1.333 1.813A15.478 15.478 0 0193.2 73.84zm-2.387 1.333a47.187 47.187 0 01-11.666 4A19.398 19.398 0 0081.587 73h3.08a4 4 0 100-8h-3.08a19.399 19.399 0 00-2.44-6.24 47.187 47.187 0 0111.666 4 24.347 24.347 0 000 12.48v-.067zm-6.146-7.506a1.333 1.333 0 110 2.666h-8a1.333 1.333 0 010-2.666h8zM29.627 65A21.91 21.91 0 0130 69a21.908 21.908 0 01-.373 4 13.955 13.955 0 01-2.294-2.2A8.132 8.132 0 0126.08 69a8.503 8.503 0 011.253-1.827A14.325 14.325 0 0129.627 65zm2.386-1.6A45.054 45.054 0 0144.8 58.787 19.496 19.496 0 0042.427 65h-3.094a4 4 0 000 8h3.094a19.494 19.494 0 002.426 6.24 45.054 45.054 0 01-12.786-4.613c.42-1.846.622-3.734.6-5.627a24.003 24.003 0 00-.654-5.6zm7.32 6.933a1.333 1.333 0 010-2.666h8a1.333 1.333 0 010 2.666h-8zM58 46.507v7.92a87.206 87.206 0 00-9.84.973A52.573 52.573 0 0030.733 61a22.39 22.39 0 00-4.093 2.973c5.08-9.64 17.147-16.386 31.36-17.466zM26.64 73.973A22.221 22.221 0 0030.733 77a52.572 52.572 0 0017.44 5.6c3.26.51 6.545.835 9.84.973v7.92c-14.226-1.08-26.293-7.826-31.373-17.52zm36.693 17.694a1.333 1.333 0 11-2.666 0v-8a1.333 1.333 0 012.666 0v8zM66 91.493v-7.92a87.21 87.21 0 009.84-.973 54.786 54.786 0 0016.293-5.027 24.361 24.361 0 005.227-3.586C92.267 83.667 80.213 90.413 66 91.493zm31.36-27.48a24.69 24.69 0 00-5.227-3.586A54.788 54.788 0 0075.827 55.4 87.205 87.205 0 0066 54.427v-7.92c14.213 1.08 26.267 7.826 31.36 17.506zm-34.027-17.68v8a1.333 1.333 0 11-2.666 0v-8a1.333 1.333 0 012.666 0z" fill="url(#paint1_linear)"/><path d="M26 46.333a4 4 0 004-4V37h5.333a4 4 0 100-8h-8A5.333 5.333 0 0022 34.333v8a4 4 0 004 4zm-1.333-12a2.667 2.667 0 012.666-2.666h8a1.333 1.333 0 110 2.666h-6.666c-.737 0-1.334.597-1.334 1.334v6.666a1.333 1.333 0 11-2.666 0v-8z" fill="url(#paint2_linear)"/><path d="M27.333 109h8a4 4 0 000-8H30v-5.334a4 4 0 00-8 0v8.001A5.333 5.333 0 0027.333 109zm-2.666-13.334a1.333 1.333 0 112.666 0v6.667c0 .737.597 1.334 1.334 1.334h6.666a1.333 1.333 0 110 2.666h-8a2.667 2.667 0 01-2.666-2.666v-8z" fill="url(#paint3_linear)"/><path d="M96.666 29h-8a4 4 0 000 8H94v5.333a4 4 0 108 0v-8A5.333 5.333 0 0096.666 29zm2.667 13.333a1.333 1.333 0 01-2.666 0v-6.666c0-.737-.597-1.334-1.334-1.334h-6.666a1.333 1.333 0 110-2.666h8a2.667 2.667 0 012.666 2.666v8z" fill="url(#paint4_linear)"/><path d="M98 91.666a4 4 0 00-4 4V101h-5.334a4 4 0 000 8h8a5.334 5.334 0 005.334-5.333v-8a4 4 0 00-4-4zm1.333 12.001a2.667 2.667 0 01-2.666 2.666h-8a1.333 1.333 0 110-2.666h6.666c.737 0 1.334-.597 1.334-1.334v-6.666a1.333 1.333 0 012.666 0v8z" fill="url(#paint5_linear)"/></g><defs><linearGradient id="paint0_linear" x1="54" y1="61" x2="70" y2="77" gradientUnits="userSpaceOnUse"><stop stop-color="#A83592"/><stop offset="1" stop-color="#4F4A9D"/></linearGradient><linearGradient id="paint1_linear" x1="21.988" y1="42.336" x2="71.207" y2="116.193" gradientUnits="userSpaceOnUse"><stop stop-color="#A83592"/><stop offset="1" stop-color="#4F4A9D"/></linearGradient><linearGradient id="paint2_linear" x1="22" y1="29" x2="39.333" y2="46.333" gradientUnits="userSpaceOnUse"><stop stop-color="#A83592"/><stop offset="1" stop-color="#4F4A9D"/></linearGradient><linearGradient id="paint3_linear" x1="22" y1="91.666" x2="39.333" y2="109" gradientUnits="userSpaceOnUse"><stop stop-color="#A83592"/><stop offset="1" stop-color="#4F4A9D"/></linearGradient><linearGradient id="paint4_linear" x1="84.666" y1="29" x2="102" y2="46.333" gradientUnits="userSpaceOnUse"><stop stop-color="#A83592"/><stop offset="1" stop-color="#4F4A9D"/></linearGradient><linearGradient id="paint5_linear" x1="84.666" y1="91.666" x2="102" y2="109" gradientUnits="userSpaceOnUse"><stop stop-color="#A83592"/><stop offset="1" stop-color="#4F4A9D"/></linearGradient><clipPath id="clip0"><path fill="#fff" transform="translate(22 29)" d="M0 0h80v80H0z"/></clipPath></defs></svg>