<svg width="102" height="109" fill="none" xmlns="http://www.w3.org/2000/svg"><circle cx="50" cy="50" r="50" fill="#FCF8F2"/><g opacity=".65" clip-path="url(#clip0)"><path d="M45.286 79.774L34.481 90.579a1.276 1.276 0 101.805 1.806l10.806-10.806a1.277 1.277 0 10-1.806-1.805z" fill="url(#paint0_linear)"/><path d="M83.668 79.774L72.863 90.579a1.276 1.276 0 101.805 1.806l10.806-10.806a1.277 1.277 0 10-1.806-1.805z" fill="url(#paint1_linear)"/><path d="M101.891 83.88l-.004-.024-10.392-41.814a7.195 7.195 0 00-6.997-5.466 1.277 1.277 0 100 2.553 4.646 4.646 0 014.519 3.529l9.52 38.303a3.87 3.87 0 00-.38-.019h-2.304c-.818-1.404-2.022-2.685-3.572-3.777-2.979-2.098-6.918-3.254-11.09-3.254-4.173 0-8.111 1.156-11.09 3.254-2.377 1.674-3.938 3.794-4.545 6.118A8.037 8.037 0 0062 82.466c-1.26 0-2.472.284-3.556.817-.607-2.324-2.168-4.444-4.544-6.118-2.98-2.098-6.918-3.254-11.09-3.254-4.174 0-8.112 1.156-11.092 3.254-1.55 1.092-2.753 2.373-3.57 3.777h-2.305a3.69 3.69 0 00-.38.02l9.52-38.304a4.646 4.646 0 014.519-3.529 1.277 1.277 0 100-2.553 7.195 7.195 0 00-6.997 5.466L22.113 83.856l-.004.023c-.07.291-.109.594-.109.906v.9a3.848 3.848 0 003.843 3.843h1.56a15.987 15.987 0 007.625 9.86c.064.045.132.082.201.113a15.824 15.824 0 007.58 1.923c8.578 0 15.592-6.82 15.91-15.322.916-.7 2.063-1.082 3.281-1.082s2.365.381 3.282 1.083c.212 5.702 3.438 10.647 8.128 13.286.064.044.13.08.2.111a15.821 15.821 0 007.581 1.924c7.39 0 13.618-5.06 15.406-11.896h1.56A3.848 3.848 0 00102 85.684v-.898c0-.313-.038-.616-.109-.907zm-76.048 3.094c-.711 0-1.29-.578-1.29-1.29v-.899c0-.711.579-1.29 1.29-1.29h1.278a8.75 8.75 0 00-.233 2.007c0 .497.024.987.068 1.472h-1.113zM42.81 98.871c-1.717 0-3.357-.33-4.866-.921l10.39-10.391a1.276 1.276 0 10-1.805-1.805l-10.97 10.97c-3.678-2.385-6.117-6.522-6.117-11.222 0-4.983 5.997-9.038 13.368-9.038 3.963 0 7.527 1.173 9.977 3.031l-2.647 2.648a1.276 1.276 0 101.805 1.805l2.675-2.675c.993 1.263 1.558 2.702 1.558 4.23 0 7.37-5.997 13.368-13.368 13.368zm38.382 0c-1.717 0-3.357-.33-4.866-.921l10.39-10.391a1.276 1.276 0 10-1.805-1.805l-10.97 10.97c-3.678-2.384-6.117-6.522-6.117-11.222 0-4.983 5.997-9.038 13.368-9.038 3.963 0 7.527 1.173 9.977 3.031l-2.648 2.648a1.277 1.277 0 101.806 1.805l2.675-2.675c.993 1.263 1.558 2.702 1.558 4.23 0 7.37-5.997 13.368-13.368 13.368zm18.256-13.187c0 .712-.579 1.29-1.29 1.29h-1.113c.044-.484.069-.975.069-1.472a8.75 8.75 0 00-.234-2.006h1.278c.711 0 1.29.578 1.29 1.29v.898z" fill="url(#paint2_linear)"/></g><defs><linearGradient id="paint0_linear" x1="34.107" y1="79.4" x2="47.465" y2="92.759" gradientUnits="userSpaceOnUse"><stop stop-color="#A83592"/><stop offset="1" stop-color="#4F4A9D"/></linearGradient><linearGradient id="paint1_linear" x1="72.489" y1="79.4" x2="85.847" y2="92.759" gradientUnits="userSpaceOnUse"><stop stop-color="#A83592"/><stop offset="1" stop-color="#4F4A9D"/></linearGradient><linearGradient id="paint2_linear" x1="22" y1="36.576" x2="85.444" y2="114.844" gradientUnits="userSpaceOnUse"><stop stop-color="#A83592"/><stop offset="1" stop-color="#4F4A9D"/></linearGradient><clipPath id="clip0"><path fill="#fff" transform="translate(22 29)" d="M0 0h80v80H0z"/></clipPath></defs></svg>