<svg width="102" height="109" fill="none" xmlns="http://www.w3.org/2000/svg"><circle cx="50" cy="50" r="50" fill="#FCF8F2"/><path d="M83.333 65.067V65c0-.736.597-1.333 1.334-1.333H90a5.333 5.333 0 005.333-5.72A5.48 5.48 0 0089.773 53H69.88a8 8 0 00-2.547-4.613v-4.72a5.333 5.333 0 00-10.666 0v4.72A8 8 0 0054.12 53H34a5.333 5.333 0 00-5.333 5.72 5.48 5.48 0 005.56 4.947h5.106c.737 0 1.334.597 1.334 1.333v.067a20 20 0 00-12.814 34.08c.252.25.592.389.947.386a1.333 1.333 0 00.947-2.28A17.333 17.333 0 0142 67.668h4A2.667 2.667 0 0048.667 65c0-.736.596-1.333 1.333-1.333h1.333c.737 0 1.334.597 1.334 1.333v9.96a14.667 14.667 0 102.906 15.56A11.773 11.773 0 0162 89a11.69 11.69 0 016.413 1.52 14.666 14.666 0 102.92-15.56V65c0-.736.597-1.333 1.334-1.333H74c.736 0 1.333.597 1.333 1.333A2.667 2.667 0 0078 67.667h4a17.333 17.333 0 0112.253 29.587 1.334 1.334 0 00.947 2.28c.354.002.695-.138.947-.387a20 20 0 00-12.814-34.08zm-24-21.4a2.667 2.667 0 015.334 0V46.8a7.853 7.853 0 00-5.334 0v-3.133zM62 49a5.333 5.333 0 012.893 9.8 9.2 9.2 0 00-5.786 0A5.333 5.333 0 0162 49zm0 12a6.667 6.667 0 110 13.333A6.667 6.667 0 0162 61zm-10.667 0H50a4 4 0 00-4 4h-2.667a4 4 0 00-4-4h-5.106a2.853 2.853 0 01-2.894-2.467 2.667 2.667 0 01.787-2.08 2.667 2.667 0 011.88-.786h20.12a8 8 0 002.387 4.48 9.133 9.133 0 00-2.187 2.187A4 4 0 0051.333 61zM32.067 91.667a12.147 12.147 0 01-1.334-2.827l15.16-15.173c.996.32 1.946.769 2.827 1.333L32.067 91.667zM42 73h.747L30 85.747V85c0-6.627 5.373-12 12-12zm0 24a11.92 11.92 0 01-8.187-3.253l16.934-16.933A12 12 0 0142 97zm20-10.666c-1.87-.03-3.73.254-5.507.84.111-.72.17-1.446.174-2.174v-.653a21.574 21.574 0 0110.746 0V85c.004.724.062 1.445.174 2.16A17.24 17.24 0 0062 86.334zm10.067 5.333a12.147 12.147 0 01-1.334-2.827l15.16-15.173c.996.32 1.946.769 2.827 1.333L72.067 91.667zM94 85a12 12 0 01-20.187 8.747l16.934-16.933A11.92 11.92 0 0194 85zM82 73h.747L70 85.747V85c0-6.627 5.373-12 12-12zm-13.333 5.92a14.186 14.186 0 00-.934 2.747 24.986 24.986 0 00-11.466 0 14.186 14.186 0 00-.934-2.747v-4.733a9.333 9.333 0 0013.334 0v4.733zM74 61h-1.333a4 4 0 00-2.987 1.334 9.335 9.335 0 00-2.173-2.227 8 8 0 002.373-4.44h19.893a2.853 2.853 0 012.894 2.466 2.667 2.667 0 01-.787 2.08A2.667 2.667 0 0190 61h-5.333a4 4 0 00-4 4H78a4 4 0 00-4-4z" fill="url(#paint0_linear)" opacity=".65"/><defs><linearGradient id="paint0_linear" x1="22.012" y1="38.334" x2="81.268" y2="115.579" gradientUnits="userSpaceOnUse"><stop stop-color="#A83592"/><stop offset="1" stop-color="#4F4A9D"/></linearGradient></defs></svg>