<svg width="102" height="109" fill="none" xmlns="http://www.w3.org/2000/svg"><circle cx="50" cy="50" r="50" fill="#FCF8F2"/><g opacity=".65" clip-path="url(#clip0)"><path d="M100.907 80.493l-3.08-2.253a4.187 4.187 0 01-1.614-4.093 30.67 30.67 0 00.454-3.627 29.454 29.454 0 00-8.134-21.986 28.254 28.254 0 00-43.493 2.893 3.533 3.533 0 01-1.427 1.16 11.64 11.64 0 00-5.426 5.066 1.333 1.333 0 102.293 1.334 10.907 10.907 0 012.107-2.667A35.6 35.6 0 0144.667 69a35.52 35.52 0 01-2.08 12.6 11.094 11.094 0 01-2.107-2.666 1.333 1.333 0 10-2.293 1.333 11.906 11.906 0 005.333 5.026 4 4 0 011.627 1.334A28.293 28.293 0 0067.92 98.334h.093a27.812 27.812 0 0014.374-4c.05-.029.1-.06.146-.094a29.617 29.617 0 004.947-3.773 4 4 0 015.093-.413l5.187 3.786a2.667 2.667 0 004.24-2.173v-9.014a2.667 2.667 0 00-1.093-2.16zM68.013 95.667h-.093A25.627 25.627 0 0147.253 85.08a6.92 6.92 0 00-2.4-2A36.866 36.866 0 0047.333 69a36.545 36.545 0 00-2.48-14.066A6.213 6.213 0 0047.2 53a25.573 25.573 0 0139.4-2.666A26.667 26.667 0 0193.867 66.6a16.68 16.68 0 00-10.04 6.747c-3.654 5.04-4.88 11.773-3.56 19.04a25.014 25.014 0 01-12.254 3.28zm31.32-4l-5.186-3.8a6.667 6.667 0 00-8.507.653 27.641 27.641 0 01-2.933 2.387c-.894-6.133.24-11.733 3.28-15.933a14.187 14.187 0 018-5.6V70.4a28.534 28.534 0 01-.36 3.307 6.84 6.84 0 002.666 6.667l3.04 2.28v9.013z" fill="url(#paint0_linear)"/><path d="M62.267 72.173c1.333-5.093.253-10.453-3.134-16a1.333 1.333 0 00-2.43.389c-.082.345-.023.71.164 1.011 2.986 4.854 4 9.52 2.827 13.894A16.093 16.093 0 0152.666 81V56.413c-.004-.278.085-.55.253-.773A19.813 19.813 0 0170 47.667 1.335 1.335 0 0070.133 45a22.44 22.44 0 00-19.36 9.067A3.907 3.907 0 0050 56.413V81a2.667 2.667 0 004 2.32 18.666 18.666 0 008.267-11.147z" fill="url(#paint1_linear)"/><path d="M23.333 70.334h14.4l-7.4 8.453a1.334 1.334 0 001 2.213 1.33 1.33 0 001-.453l9.334-10.667a1.333 1.333 0 000-1.76l-9.334-10.667a1.333 1.333 0 10-2 1.76l7.4 8.454h-14.4a1.333 1.333 0 000 2.666z" fill="url(#paint2_linear)"/><path d="M73.707 89c-11.014 2.453-15.88-2.093-16.107-2.307a1.333 1.333 0 10-1.88 1.894c.2.186 3.92 3.8 11.853 3.8a31.55 31.55 0 006.667-.774 1.365 1.365 0 00-.587-2.666l.054.053z" fill="url(#paint3_linear)"/><path d="M75.334 49a1.333 1.333 0 100-2.667 1.333 1.333 0 000 2.667z" fill="url(#paint4_linear)"/></g><defs><linearGradient id="paint0_linear" x1="37.932" y1="39.666" x2="96.373" y2="103.487" gradientUnits="userSpaceOnUse"><stop stop-color="#A83592"/><stop offset="1" stop-color="#4F4A9D"/></linearGradient><linearGradient id="paint1_linear" x1="50" y1="44.961" x2="82.785" y2="63.085" gradientUnits="userSpaceOnUse"><stop stop-color="#A83592"/><stop offset="1" stop-color="#4F4A9D"/></linearGradient><linearGradient id="paint2_linear" x1="22" y1="56.956" x2="45.641" y2="76.62" gradientUnits="userSpaceOnUse"><stop stop-color="#A83592"/><stop offset="1" stop-color="#4F4A9D"/></linearGradient><linearGradient id="paint3_linear" x1="55.326" y1="86.306" x2="58.713" y2="97.437" gradientUnits="userSpaceOnUse"><stop stop-color="#A83592"/><stop offset="1" stop-color="#4F4A9D"/></linearGradient><linearGradient id="paint4_linear" x1="74" y1="46.334" x2="76.667" y2="49" gradientUnits="userSpaceOnUse"><stop stop-color="#A83592"/><stop offset="1" stop-color="#4F4A9D"/></linearGradient><clipPath id="clip0"><path fill="#fff" transform="translate(22 29)" d="M0 0h80v80H0z"/></clipPath></defs></svg>