<svg width="102" height="109" fill="none" xmlns="http://www.w3.org/2000/svg"><circle cx="50" cy="50" r="50" fill="#FCF8F2"/><g opacity=".65" clip-path="url(#clip0)"><path d="M62 109c19.6 0 36.4-10.413 40-24.84.014-.164.014-.33 0-.493a3.35 3.35 0 00-.067-.574c-2.866-11.626-14.8-21-30.066-23.853l6.453-7.267a3.92 3.92 0 00.68-1.066v-.094c.206-.471.32-.978.333-1.493V41a.318.318 0 000-.107l3.08-8.293A2.667 2.667 0 0079.92 29H44.08a2.667 2.667 0 00-2.493 3.6l3.08 8.293a.318.318 0 000 .107v8.32a4 4 0 00.293 1.493.213.213 0 000 .094c.158.392.383.753.667 1.066l6.453 7.267c-15.213 2.853-27.147 12.227-30.013 23.933a2.95 2.95 0 00-.067.494 3.43 3.43 0 000 .573C25.6 98.587 42.4 109 62 109zm-8-60h-6.667v-6.667h29.334V49H59.333a1.333 1.333 0 000 2.667h15.694l-7.894 8.88a1.333 1.333 0 01-1 .453h-8.266c-.383 0-.748-.166-1-.453l-7.894-8.88H54A1.333 1.333 0 0054 49zm8 36c.736 0 1.333-.597 1.333-1.333v-12c4.052.054 8.094.406 12.094 1.053a17.213 17.213 0 010 21.84 82.87 82.87 0 01-26.84.027 17.173 17.173 0 010-21.84 82.439 82.439 0 0112.08-1.08v12c0 .736.597 1.333 1.333 1.333zm31.2 3.52a22.347 22.347 0 010-9.707 12.973 12.973 0 014.72 4.854 12.973 12.973 0 01-4.72 4.853zm-2.387 1.333a48.409 48.409 0 01-11.613 4 20 20 0 000-20.4 48.418 48.418 0 0111.613 4 24.24 24.24 0 000 12.454v-.054zM42 83.667a20 20 0 002.813 10.2 45.787 45.787 0 01-12.786-4.6 24.727 24.727 0 000-11.187 45.33 45.33 0 0112.786-4.613A20 20 0 0042 83.667zm-12.373-4c.245 1.319.37 2.658.373 4a22.026 22.026 0 01-.373 4 11.72 11.72 0 01-3.547-4 11.84 11.84 0 013.547-4zM62 106.333c-16.12 0-30.173-7.346-35.573-17.933 6.24 5.933 20 9.933 35.573 9.933s29.147-4 35.467-9.826C91.987 99.08 78 106.333 62 106.333zM97.48 78.84c-6.147-5.707-19.213-9.6-34.147-9.84v-5.333h2.8a4 4 0 002.987-1.334l.653-.72C82.52 63.547 92.96 70.2 97.48 78.84zM79.92 31.667l-3 8H47.08l-3-8h35.84zM54.227 61.6l.653.72a4 4 0 002.987 1.333h2.8v5.334c-14.854.213-27.88 4-34.067 9.72C31.173 70.12 41.56 63.533 54.227 61.6z" fill="url(#paint0_linear)"/><path d="M55.106 77.6a1.333 1.333 0 10-2.213 1.467l2.667 4c.245.372.66.597 1.106.6.263.003.52-.076.734-.227a1.333 1.333 0 00.373-1.84l-2.667-4z" fill="url(#paint1_linear)"/><path d="M55.334 85h-4a1.333 1.333 0 100 2.667h4a1.333 1.333 0 000-2.667z" fill="url(#paint2_linear)"/><path d="M67.333 83.667a1.333 1.333 0 001.107-.6l2.667-4a1.333 1.333 0 10-2.214-1.467l-2.666 4a1.333 1.333 0 00.373 1.84c.215.15.471.23.733.227z" fill="url(#paint3_linear)"/><path d="M67.333 86.333c0 .737.597 1.334 1.334 1.334h4a1.333 1.333 0 000-2.667h-4c-.737 0-1.334.597-1.334 1.333z" fill="url(#paint4_linear)"/></g><defs><linearGradient id="paint0_linear" x1="21.988" y1="29" x2="101.988" y2="109.022" gradientUnits="userSpaceOnUse"><stop stop-color="#A83592"/><stop offset="1" stop-color="#4F4A9D"/></linearGradient><linearGradient id="paint1_linear" x1="52.598" y1="76.897" x2="59.197" y2="82.154" gradientUnits="userSpaceOnUse"><stop stop-color="#A83592"/><stop offset="1" stop-color="#4F4A9D"/></linearGradient><linearGradient id="paint2_linear" x1="50" y1="85" x2="51.839" y2="89.598" gradientUnits="userSpaceOnUse"><stop stop-color="#A83592"/><stop offset="1" stop-color="#4F4A9D"/></linearGradient><linearGradient id="paint3_linear" x1="66.008" y1="76.897" x2="72.607" y2="82.154" gradientUnits="userSpaceOnUse"><stop stop-color="#A83592"/><stop offset="1" stop-color="#4F4A9D"/></linearGradient><linearGradient id="paint4_linear" x1="67.333" y1="85" x2="69.172" y2="89.598" gradientUnits="userSpaceOnUse"><stop stop-color="#A83592"/><stop offset="1" stop-color="#4F4A9D"/></linearGradient><clipPath id="clip0"><path fill="#fff" transform="translate(22 29)" d="M0 0h80v80H0z"/></clipPath></defs></svg>