<svg width="90" height="98" fill="none" xmlns="http://www.w3.org/2000/svg"><ellipse cx="45" cy="44.954" rx="45" ry="44.954" fill="#fff"/><path d="M38.236 48.545c-.582 0-1.054.472-1.054 1.055v1.127a1.055 1.055 0 102.109 0V49.6c0-.583-.472-1.055-1.055-1.055z" fill="url(#paint0_linear)"/><path d="M51.764 48.545c-.583 0-1.055.472-1.055 1.055v1.127a1.055 1.055 0 102.11 0V49.6c0-.583-.473-1.055-1.055-1.055z" fill="url(#paint1_linear)"/><path d="M49.133 56.75a1.054 1.054 0 00-1.49-.01c-.386.38-1.309.823-2.642.823-1.334 0-2.256-.444-2.641-.823a1.054 1.054 0 10-1.482 1.501c.909.896 2.45 1.431 4.123 1.431s3.214-.535 4.122-1.431c.415-.409.42-1.077.01-1.491z" fill="url(#paint2_linear)"/><path d="M39.363 45.164H37.11a1.055 1.055 0 100 2.11h2.254a1.055 1.055 0 100-2.11z" fill="url(#paint3_linear)"/><path d="M52.89 45.164h-2.254a1.054 1.054 0 100 2.11h2.255a1.055 1.055 0 100-2.11z" fill="url(#paint4_linear)"/><path d="M67.589 76.236L59.987 73.9a2.43 2.43 0 00-1.34-2.31l-4.7-2.35v-3.352c3.517-2.447 5.992-6.292 6.611-10.723h.627c2.055 0 3.819-1.528 4.014-3.478a3.89 3.89 0 00-.98-2.993 3.872 3.872 0 00-1.255-.919V36.073c0-4.311-3.507-7.819-7.818-7.819h-.178c-1.9-1.4-4.689-2.254-7.783-2.254-6.588 0-9.615 1.372-13.12 2.962-1.871.849-3.807 1.726-6.551 2.529a1.054 1.054 0 00-.677 1.419c.032.077.503 1.17 1.719 2.5-.525.646-1.519 2.298-1.519 5.548v6.863c-1.213.579-2.1 1.725-2.234 3.074a3.89 3.89 0 00.98 2.994 3.88 3.88 0 002.872 1.274h.788c.618 4.433 3.094 8.279 6.612 10.725v3.35l-4.701 2.351a2.43 2.43 0 00-1.34 2.31l-7.602 2.337a7.779 7.779 0 00-5.52 7.473v13.236a1.055 1.055 0 102.109 0V83.71a5.68 5.68 0 014.031-5.457l7.908-2.431 1.395 1.86-1.585 1.586a3.305 3.305 0 00-.62 3.82l3.019 6.039h-2.875v-1.2a1.055 1.055 0 10-2.11 0v1.2h-4.581c-.583 0-1.055.472-1.055 1.054v6.764c0 .583.472 1.055 1.055 1.055h11.273c.582 0 1.054-.472 1.054-1.055v-2.296l1.384 2.768a1.055 1.055 0 101.887-.944l-7.165-14.328a1.198 1.198 0 01.225-1.385l2.233-2.233c.371-.371.413-.959.098-1.379l-2.39-3.185a.322.322 0 01-.056-.27.322.322 0 01.171-.217l4.154-2.077 2.933 10.054a1.055 1.055 0 002.025-.59l-.462-1.585a12.356 12.356 0 008.108 0L45 93.179l-2.276-7.804a1.055 1.055 0 10-2.025.59l3.288 11.276a1.055 1.055 0 002.025 0L53.549 71.4l4.154 2.077c.119.06.158.161.172.216a.322.322 0 01-.057.27l-2.39 3.186a1.055 1.055 0 00.099 1.38l2.233 2.232c.365.366.456.922.224 1.385L50.82 96.474a1.055 1.055 0 001.887.944l7.164-14.329a3.305 3.305 0 00-.62-3.82l-1.586-1.585 1.396-1.861 7.907 2.431A5.68 5.68 0 0171 83.71v13.235a1.055 1.055 0 102.11 0V83.71a7.779 7.779 0 00-5.521-7.474zM33.8 95.89h-9.164v-4.654h3.527v.072a1.055 1.055 0 102.11 0v-.072H33.8v4.654zm1.136-65.007c3.417-1.55 6.116-2.774 12.248-2.774 3.89 0 7.368 1.629 8.088 3.788a1.055 1.055 0 002-.667 4.97 4.97 0 00-.214-.535 5.718 5.718 0 013.796 5.378v11.345h-1.2c-.662 0-1.2-.538-1.2-1.2v-1.127c0-4.89-3.54-8.486-3.69-8.637a1.056 1.056 0 00-1.064-.26c-5.855 1.85-14.11 3.407-20.187.332-2.163-1.094-3.44-2.485-4.112-3.413 2.24-.736 3.975-1.523 5.535-2.23zm16.9 38.857l-2.015 6.906A10.215 10.215 0 0145 77.854c-1.687 0-3.346-.416-4.822-1.207l-2.015-6.907v-2.617A15.614 15.614 0 0045 68.691a15.6 15.6 0 006.836-1.569v2.618zM45 66.582c-7.5 0-13.6-6.101-13.6-13.6a1.055 1.055 0 10-2.11 0v.072h-.636a1.767 1.767 0 01-1.754-1.949c.09-.885.93-1.578 1.916-1.578h1.53a3.313 3.313 0 003.309-3.309v-3.98a1.055 1.055 0 10-2.11 0v3.98c0 .662-.538 1.2-1.2 1.2h-1.2v-6.46c0-2.454.66-3.675.965-4.108.644.509 1.4 1.012 2.284 1.473 2.39 1.246 5.235 1.936 8.456 2.05 3.774.136 8.088-.526 12.83-1.965.837 1.014 2.665 3.583 2.665 6.683v1.127a3.313 3.313 0 003.31 3.31h1.69a1.767 1.767 0 011.754 1.948c-.088.885-.93 1.578-1.915 1.578h-.476v-.061a1.055 1.055 0 00-2.11 0C58.593 60.485 52.493 66.582 45 66.582z" fill="url(#paint5_linear)"/><path d="M66.418 89.69h-1.764v-1.763a1.055 1.055 0 10-2.11 0v1.763h-1.763a1.054 1.054 0 100 2.11h1.764v1.763a1.054 1.054 0 102.11 0v-1.764h1.763a1.054 1.054 0 100-2.109z" fill="url(#paint6_linear)"/><defs><linearGradient id="paint0_linear" x1="37.182" y1="48.545" x2="40.143" y2="50.475" gradientUnits="userSpaceOnUse"><stop stop-color="#A83592"/><stop offset="1" stop-color="#4F4A9D"/></linearGradient><linearGradient id="paint1_linear" x1="50.709" y1="48.545" x2="53.67" y2="50.475" gradientUnits="userSpaceOnUse"><stop stop-color="#A83592"/><stop offset="1" stop-color="#4F4A9D"/></linearGradient><linearGradient id="paint2_linear" x1="40.565" y1="56.435" x2="42.648" y2="62.149" gradientUnits="userSpaceOnUse"><stop stop-color="#A83592"/><stop offset="1" stop-color="#4F4A9D"/></linearGradient><linearGradient id="paint3_linear" x1="36.054" y1="45.164" x2="37.707" y2="48.584" gradientUnits="userSpaceOnUse"><stop stop-color="#A83592"/><stop offset="1" stop-color="#4F4A9D"/></linearGradient><linearGradient id="paint4_linear" x1="49.581" y1="45.164" x2="51.234" y2="48.584" gradientUnits="userSpaceOnUse"><stop stop-color="#A83592"/><stop offset="1" stop-color="#4F4A9D"/></linearGradient><linearGradient id="paint5_linear" x1="16.892" y1="26" x2="86.743" y2="80.54" gradientUnits="userSpaceOnUse"><stop stop-color="#A83592"/><stop offset="1" stop-color="#4F4A9D"/></linearGradient><linearGradient id="paint6_linear" x1="59.727" y1="86.872" x2="67.472" y2="94.618" gradientUnits="userSpaceOnUse"><stop stop-color="#A83592"/><stop offset="1" stop-color="#4F4A9D"/></linearGradient></defs></svg>