<svg width="102" height="109" fill="none" xmlns="http://www.w3.org/2000/svg"><circle cx="50" cy="50" r="50" fill="#FCF8F2"/><g opacity=".65" clip-path="url(#clip0)"><path d="M22 68.546A2.296 2.296 0 0022 69a2.51 2.51 0 000 .573c3.6 14.347 20.4 24.76 40 24.76s36.4-10.413 40-24.88a2.29 2.29 0 000-.453c0-.193-.023-.386-.067-.573C98.4 54.08 81.6 43.666 62 43.666S25.6 54.08 22 68.546zM68.88 65a8.121 8.121 0 00-2.814-2.813 2.487 2.487 0 010-.454A3.334 3.334 0 1169.333 65c-.15.014-.302.014-.453 0zm-1.547 4a5.333 5.333 0 11-10.667 0 5.333 5.333 0 0110.667 0zm-4-7.867A7.882 7.882 0 0062 61a8 8 0 108 8 7.882 7.882 0 00-.134-1.334 5.947 5.947 0 004-9.773l1.507.24a17.213 17.213 0 010 21.84A82.868 82.868 0 0162 81a82.558 82.558 0 01-13.414-1.08 17.173 17.173 0 010-21.84 82.58 82.58 0 0116.934-1 5.893 5.893 0 00-2.187 4.053zM93.2 73.853a22.347 22.347 0 010-9.706A12.974 12.974 0 0197.92 69a12.974 12.974 0 01-4.72 4.853zm-2.387 1.334a48.415 48.415 0 01-11.613 4 20 20 0 000-20.4 48.415 48.415 0 0111.613 4 24.24 24.24 0 000 12.453v-.053zM42 69c.005 3.59.977 7.114 2.813 10.2a45.331 45.331 0 01-12.787-4.614 24.65 24.65 0 00.64-5.586c0-1.88-.214-3.755-.64-5.587A45.334 45.334 0 0144.813 58.8 19.999 19.999 0 0042 69zm-12.374-4c.246 1.319.371 2.658.374 4a22.025 22.025 0 01-.374 4 11.84 11.84 0 01-3.546-4 11.841 11.841 0 013.546-4zM62 91.666c-16 0-30.027-7.266-35.48-17.84 6.306 5.84 19.986 9.84 35.48 9.84 15.493 0 29.146-4 35.466-9.826C91.986 84.413 78 91.666 62 91.666zm35.573-27.4c-6.24-5.933-20-9.933-35.573-9.933-15.574 0-29.16 4-35.48 9.84C32 53.586 46 46.333 62 46.333c16 0 30.16 7.347 35.573 17.933z" fill="url(#paint0_linear)"/><path d="M100.666 40.333C94.24 40.333 94 33.76 94 33a1.333 1.333 0 00-2.667 0c0 .76-.24 7.333-6.667 7.333a1.333 1.333 0 000 2.667c6.44 0 6.667 6.587 6.667 7.333a1.333 1.333 0 002.667 0c0-.76.24-7.333 6.666-7.333a1.333 1.333 0 100-2.667zm-8 4.667a8.613 8.613 0 00-2.986-3.334 8.613 8.613 0 002.986-3.333 8.614 8.614 0 002.987 3.334A8.614 8.614 0 0092.666 45z" fill="url(#paint1_linear)"/><path d="M23.333 97.667c6.44 0 6.667 6.586 6.667 7.333a1.333 1.333 0 102.666 0c0-.76.24-7.333 6.667-7.333a1.333 1.333 0 100-2.667c-6.426 0-6.666-6.573-6.666-7.333a1.333 1.333 0 10-2.667 0c0 .76-.24 7.333-6.667 7.333a1.333 1.333 0 100 2.667zm8-4.667a8.614 8.614 0 002.987 3.334 8.614 8.614 0 00-2.987 3.333 8.613 8.613 0 00-2.986-3.334A8.613 8.613 0 0031.332 93z" fill="url(#paint2_linear)"/><path d="M47.333 97a1.333 1.333 0 00-2.667 0v2.666a1.333 1.333 0 102.667 0V97z" fill="url(#paint3_linear)"/><path d="M46 109c.736 0 1.333-.597 1.333-1.334V105a1.333 1.333 0 10-2.667 0v2.666c0 .737.597 1.334 1.334 1.334z" fill="url(#paint4_linear)"/><path d="M48.666 103.667h2.667a1.333 1.333 0 000-2.667h-2.667a1.333 1.333 0 100 2.667z" fill="url(#paint5_linear)"/><path d="M43.333 101h-2.667a1.333 1.333 0 000 2.667h2.667a1.333 1.333 0 000-2.667z" fill="url(#paint6_linear)"/><path d="M78 29c-.736 0-1.333.597-1.333 1.333V33a1.333 1.333 0 002.666 0v-2.667c0-.736-.597-1.333-1.333-1.333z" fill="url(#paint7_linear)"/><path d="M76.667 41a1.333 1.333 0 002.666 0v-2.667a1.333 1.333 0 00-2.666 0V41z" fill="url(#paint8_linear)"/><path d="M80.666 37h2.667a1.333 1.333 0 000-2.666h-2.667a1.333 1.333 0 000 2.666z" fill="url(#paint9_linear)"/><path d="M75.333 34.334h-2.666a1.333 1.333 0 000 2.666h2.666a1.333 1.333 0 000-2.666z" fill="url(#paint10_linear)"/></g><defs><linearGradient id="paint0_linear" x1="21.983" y1="43.666" x2="67.782" y2="116.004" gradientUnits="userSpaceOnUse"><stop stop-color="#A83592"/><stop offset="1" stop-color="#4F4A9D"/></linearGradient><linearGradient id="paint1_linear" x1="83.333" y1="31.666" x2="103.286" y2="50.289" gradientUnits="userSpaceOnUse"><stop stop-color="#A83592"/><stop offset="1" stop-color="#4F4A9D"/></linearGradient><linearGradient id="paint2_linear" x1="22" y1="86.334" x2="41.952" y2="104.956" gradientUnits="userSpaceOnUse"><stop stop-color="#A83592"/><stop offset="1" stop-color="#4F4A9D"/></linearGradient><linearGradient id="paint3_linear" x1="44.666" y1="95.666" x2="48.933" y2="97.8" gradientUnits="userSpaceOnUse"><stop stop-color="#A83592"/><stop offset="1" stop-color="#4F4A9D"/></linearGradient><linearGradient id="paint4_linear" x1="44.666" y1="103.667" x2="48.933" y2="105.8" gradientUnits="userSpaceOnUse"><stop stop-color="#A83592"/><stop offset="1" stop-color="#4F4A9D"/></linearGradient><linearGradient id="paint5_linear" x1="47.333" y1="101" x2="49.466" y2="105.267" gradientUnits="userSpaceOnUse"><stop stop-color="#A83592"/><stop offset="1" stop-color="#4F4A9D"/></linearGradient><linearGradient id="paint6_linear" x1="39.333" y1="101" x2="41.466" y2="105.267" gradientUnits="userSpaceOnUse"><stop stop-color="#A83592"/><stop offset="1" stop-color="#4F4A9D"/></linearGradient><linearGradient id="paint7_linear" x1="76.667" y1="29" x2="80.933" y2="31.133" gradientUnits="userSpaceOnUse"><stop stop-color="#A83592"/><stop offset="1" stop-color="#4F4A9D"/></linearGradient><linearGradient id="paint8_linear" x1="76.667" y1="37" x2="80.933" y2="39.133" gradientUnits="userSpaceOnUse"><stop stop-color="#A83592"/><stop offset="1" stop-color="#4F4A9D"/></linearGradient><linearGradient id="paint9_linear" x1="79.333" y1="34.334" x2="81.466" y2="38.6" gradientUnits="userSpaceOnUse"><stop stop-color="#A83592"/><stop offset="1" stop-color="#4F4A9D"/></linearGradient><linearGradient id="paint10_linear" x1="71.333" y1="34.334" x2="73.467" y2="38.6" gradientUnits="userSpaceOnUse"><stop stop-color="#A83592"/><stop offset="1" stop-color="#4F4A9D"/></linearGradient><clipPath id="clip0"><path fill="#fff" transform="translate(22 29)" d="M0 0h80v80H0z"/></clipPath></defs></svg>