<svg width="102" height="109" fill="none" xmlns="http://www.w3.org/2000/svg"><circle cx="50" cy="50" r="50" fill="#FCF8F2"/><g opacity=".65" clip-path="url(#clip0)"><path d="M53.88 85.92a42.941 42.941 0 001.96-6.187 46.025 46.025 0 001.2-9.76V68.24a45.979 45.979 0 00-1.2-9.893 44.217 44.217 0 00-1.573-5.147h.08c3.387 0 8.213-1.333 10.227-6.307a1.335 1.335 0 00-2.48-.986 7.2 7.2 0 01-5.814 4.426 7.173 7.173 0 002-4.293c.174-2.4-1.186-4.36-2.386-6.093a17.206 17.206 0 01-1.054-1.614 14.467 14.467 0 01-1.706-5.773 4 4 0 00-4-3.547H30A4 4 0 0026 33v72a4 4 0 004 4h19.174a4 4 0 004-3.547c.14-2.025.707-3.997 1.666-5.786.318-.555.67-1.089 1.054-1.6 1.2-1.734 2.56-3.694 2.386-6.094a7.787 7.787 0 00-4.4-6.053zM36.667 64.147c.462.902.867 1.833 1.213 2.786a6.667 6.667 0 010 4.134c-.34.955-.746 1.886-1.213 2.786l-1.133-1.133a5.333 5.333 0 010-7.44l1.133-1.133zM40.4 66.08a26.8 26.8 0 00-1.733-3.867c1.2-1.106 2.4-2.16 3.613-3.133a51.569 51.569 0 019.2-5.8 41.184 41.184 0 011.48 4.493A12 12 0 0046 69a12 12 0 006.934 11.227 38.558 38.558 0 01-1.48 4.493 51.688 51.688 0 01-9.214-5.8 69.642 69.642 0 01-3.613-3.133 26.8 26.8 0 001.733-3.867 9.119 9.119 0 000-5.84h.04zm14.014 2.2v1.56a45.07 45.07 0 01-.814 7.747A9.52 9.52 0 0148.667 69a9.533 9.533 0 014.893-8.587c.507 2.593.78 5.226.814 7.867h.04zm-.68 28.28c-.4.587-.827 1.2-1.174 1.813a17.024 17.024 0 00-2.04 6.814 1.333 1.333 0 01-1.333 1.146H30A1.333 1.333 0 0128.667 105V33c0-.736.597-1.333 1.333-1.333h19.174a1.332 1.332 0 011.333 1.146c.183 2.4.869 4.736 2.013 6.854.347.6.774 1.213 1.174 1.8 1.04 1.493 2.026 2.906 1.92 4.36a5.213 5.213 0 01-3.08 4 58.132 58.132 0 00-12 7.226 77.69 77.69 0 00-6.987 6.44 8 8 0 000 11.12A77.698 77.698 0 0040.56 81a57.774 57.774 0 0012 7.213 5.24 5.24 0 013.094 4c.066 1.44-.92 2.854-1.96 4.347h.04z" fill="url(#paint0_linear)"/><path d="M92.667 70.333h-2.16c4.947-4.773 7.32-11.36 5.6-16.866a2.773 2.773 0 00-1.6-1.747 2.906 2.906 0 00-2.466.107L62.707 67.093a2.92 2.92 0 00-1.506 1.96 2.85 2.85 0 00.506 2.32c2.787 3.587 7.574 5.48 12.774 5.48a22.754 22.754 0 004.213-.4 15.84 15.84 0 00-3.36 9.88v20A2.667 2.667 0 0078 109h17.333A2.667 2.667 0 0098 106.333V75.667a5.333 5.333 0 00-5.334-5.334zm2.667 5.334v14.666a5.333 5.333 0 01-2.813-.88A6.853 6.853 0 0190 84.787c-.947-5.694.24-9.52 1.546-11.067a1.72 1.72 0 011.12-.72 2.667 2.667 0 012.667 2.667zm-31.48-6a.334.334 0 01.133-.174l29.334-15.266a.266.266 0 01.293.08c1.893 6.053-2.36 13.786-9.693 17.6-7.334 3.813-16.16 2.893-20.067-2.24zM78 106.333v-20a13.333 13.333 0 0110.666-13.066c-1.333 2.413-2.213 6.466-1.333 12a9.334 9.334 0 003.68 6.4A8.067 8.067 0 0095.334 93v6.667h-4a1.334 1.334 0 000 2.666h4v4H78z" fill="url(#paint1_linear)"/></g><defs><linearGradient id="paint0_linear" x1="26" y1="29.013" x2="88.686" y2="59.318" gradientUnits="userSpaceOnUse"><stop stop-color="#A83592"/><stop offset="1" stop-color="#4F4A9D"/></linearGradient><linearGradient id="paint1_linear" x1="61.135" y1="51.496" x2="113.39" y2="84.995" gradientUnits="userSpaceOnUse"><stop stop-color="#A83592"/><stop offset="1" stop-color="#4F4A9D"/></linearGradient><clipPath id="clip0"><path fill="#fff" transform="translate(22 29)" d="M0 0h80v80H0z"/></clipPath></defs></svg>