<svg width="102" height="109" fill="none" xmlns="http://www.w3.org/2000/svg"><circle cx="50" cy="50" r="50" fill="#FCF8F2"/><g opacity=".65"><path d="M96.667 29H27.333A5.333 5.333 0 0022 34.333V92.92a5.333 5.333 0 005.333 5.333h21.334v1.254a2.187 2.187 0 01-1.654 2.12 4.84 4.84 0 00-3.68 4.706A2.667 2.667 0 0046 109h32a2.667 2.667 0 002.667-2.667 4.84 4.84 0 00-3.68-4.706 2.187 2.187 0 01-1.654-2.12v-1.254h21.334A5.333 5.333 0 00102 92.92V34.333A5.333 5.333 0 0096.667 29zm-69.334 2.667h69.334a2.667 2.667 0 012.666 2.666v52h-8V65a2.667 2.667 0 00-2.666-2.667H35.333A2.667 2.667 0 0032.667 65v21.333h-8v-52a2.667 2.667 0 012.666-2.666zm61.334 46.666H67.333V73h21.334v5.333zM51.333 73h5.334v5.333h-5.334V73zm-2.666 5.333h-5.334V73h5.334v5.333zM59.333 73h5.334v5.333h-5.334V73zm29.334-2.667H67.333V65h21.334v5.333zm-24 0h-5.334V65h5.334v5.333zm-8 0h-5.334V65h5.334v5.333zm-8 0h-5.334V65h5.334v5.333zm-8 0h-5.334V65h5.334v5.333zM35.333 73h5.334v5.333h-5.334V73zm0 8h5.334v5.333h-5.334V81zm8 0h5.334v5.333h-5.334V81zm8 0h5.334v5.333h-5.334V81zm8 0h5.334v5.333h-5.334V81zm8 0h21.334v5.333H67.333V81zm9.014 23.213a2.187 2.187 0 011.653 2.12H46c0-1.002.682-1.875 1.653-2.12a4.84 4.84 0 003.68-4.706v-1.254h21.334v1.254a4.84 4.84 0 003.68 4.706zm20.32-8.626H27.333a2.667 2.667 0 01-2.666-2.667V89h74.666v3.92a2.667 2.667 0 01-2.666 2.667z" fill="url(#paint0_linear)"/><path d="M48.667 59.666c9.613 0 17.973-4.706 19.88-11.173a3 3 0 000-1.68c-1.894-6.467-10.254-11.147-19.88-11.147-9.627 0-17.987 4.68-19.88 11.147a3 3 0 000 1.68c1.906 6.467 10.266 11.173 19.88 11.173zm-9.334-12a9.333 9.333 0 1118.667 0 9.333 9.333 0 01-18.667 0zM66 47.56a.387.387 0 010 .173c-.947 3.227-4 5.92-8 7.56a12 12 0 000-15.267c4 1.64 7.04 4.307 8 7.534zm-34.667 0c.947-3.214 4-5.894 8.067-7.534a12 12 0 000 15.267c-4.067-1.64-7.107-4.333-8.067-7.56a.387.387 0 010-.173z" fill="url(#paint1_linear)"/><path d="M48.667 42.334a5.333 5.333 0 100 10.666 5.333 5.333 0 000-10.666zm0 8a2.667 2.667 0 110-5.334 2.667 2.667 0 010 5.334z" fill="url(#paint2_linear)"/><path d="M74 38.333h4a1.333 1.333 0 000-2.666h-4a1.333 1.333 0 100 2.666z" fill="url(#paint3_linear)"/><path d="M83.333 38.333H94a1.333 1.333 0 000-2.666H83.333a1.333 1.333 0 000 2.666z" fill="url(#paint4_linear)"/><path d="M94 41h-4a1.333 1.333 0 000 2.667h4A1.333 1.333 0 0094 41z" fill="url(#paint5_linear)"/><path d="M74 43.667h10.667a1.333 1.333 0 000-2.667H74a1.333 1.333 0 100 2.667z" fill="url(#paint6_linear)"/><path d="M74 49h4a1.333 1.333 0 000-2.666h-4A1.333 1.333 0 1074 49z" fill="url(#paint7_linear)"/><path d="M94 46.334H83.333a1.333 1.333 0 000 2.666H94a1.333 1.333 0 000-2.666z" fill="url(#paint8_linear)"/><path d="M94 51.666h-4a1.333 1.333 0 000 2.667h4a1.333 1.333 0 000-2.666z" fill="url(#paint9_linear)"/><path d="M74 54.333h10.667a1.333 1.333 0 000-2.666H74a1.333 1.333 0 100 2.666z" fill="url(#paint10_linear)"/></g><defs><linearGradient id="paint0_linear" x1="22" y1="29" x2="102" y2="109" gradientUnits="userSpaceOnUse"><stop stop-color="#A83592"/><stop offset="1" stop-color="#4F4A9D"/></linearGradient><linearGradient id="paint1_linear" x1="28.667" y1="35.666" x2="49.843" y2="70.961" gradientUnits="userSpaceOnUse"><stop stop-color="#A83592"/><stop offset="1" stop-color="#4F4A9D"/></linearGradient><linearGradient id="paint2_linear" x1="43.334" y1="42.334" x2="54" y2="53" gradientUnits="userSpaceOnUse"><stop stop-color="#A83592"/><stop offset="1" stop-color="#4F4A9D"/></linearGradient><linearGradient id="paint3_linear" x1="72.667" y1="35.666" x2="74.506" y2="40.264" gradientUnits="userSpaceOnUse"><stop stop-color="#A83592"/><stop offset="1" stop-color="#4F4A9D"/></linearGradient><linearGradient id="paint4_linear" x1="82" y1="35.666" x2="83.026" y2="40.795" gradientUnits="userSpaceOnUse"><stop stop-color="#A83592"/><stop offset="1" stop-color="#4F4A9D"/></linearGradient><linearGradient id="paint5_linear" x1="88.667" y1="41" x2="90.506" y2="45.598" gradientUnits="userSpaceOnUse"><stop stop-color="#A83592"/><stop offset="1" stop-color="#4F4A9D"/></linearGradient><linearGradient id="paint6_linear" x1="72.667" y1="41" x2="73.692" y2="46.128" gradientUnits="userSpaceOnUse"><stop stop-color="#A83592"/><stop offset="1" stop-color="#4F4A9D"/></linearGradient><linearGradient id="paint7_linear" x1="72.667" y1="46.334" x2="74.506" y2="50.931" gradientUnits="userSpaceOnUse"><stop stop-color="#A83592"/><stop offset="1" stop-color="#4F4A9D"/></linearGradient><linearGradient id="paint8_linear" x1="82" y1="46.334" x2="83.026" y2="51.462" gradientUnits="userSpaceOnUse"><stop stop-color="#A83592"/><stop offset="1" stop-color="#4F4A9D"/></linearGradient><linearGradient id="paint9_linear" x1="88.667" y1="51.666" x2="90.506" y2="56.264" gradientUnits="userSpaceOnUse"><stop stop-color="#A83592"/><stop offset="1" stop-color="#4F4A9D"/></linearGradient><linearGradient id="paint10_linear" x1="72.667" y1="51.666" x2="73.692" y2="56.795" gradientUnits="userSpaceOnUse"><stop stop-color="#A83592"/><stop offset="1" stop-color="#4F4A9D"/></linearGradient></defs></svg>