<svg width="102" height="109" fill="none" xmlns="http://www.w3.org/2000/svg"><circle cx="50" cy="50" r="50" fill="#FCF8F2"/><g opacity=".65"><path d="M96.607 35.05a.939.939 0 00-1.552 0c-.122.18-2.998 4.425-3.74 6.001-.422.896-.871 1.962-.871 3.271a5.388 5.388 0 1010.775 0c0-1.325-.395-2.266-.872-3.274-.752-1.585-3.618-5.819-3.74-5.998zm-.776 12.782a3.516 3.516 0 01-3.513-3.51c0-.923.343-1.728.693-2.473.456-.968 1.906-3.206 2.82-4.586.911 1.378 2.358 3.612 2.821 4.589.469.989.692 1.61.692 2.47a3.516 3.516 0 01-3.513 3.51z" fill="url(#paint0_linear)"/><path d="M31.884 104.544a2.883 2.883 0 104.078-4.078l-2.09-2.09 6.223-6.223 4.469 4.47a3.066 3.066 0 004.998-3.34 3.064 3.064 0 00-.664-.995l-.34-.34 27.234-27.234a3.4 3.4 0 00.318-4.447l3.544-3.544a2.823 2.823 0 00.518-3.27l4.509-4.508a3.861 3.861 0 00.578-4.708l10.025-10.025a.936.936 0 00-1.022-1.529.938.938 0 00-.304.203l-10.02 10.021a3.861 3.861 0 00-4.712.582l-4.509 4.509a2.824 2.824 0 00-3.27.518l-3.545 3.544a3.4 3.4 0 00-4.446.318L36.22 79.612l-.34-.34a3.065 3.065 0 00-4.334 4.334l4.469 4.47-6.222 6.221-2.09-2.09a2.884 2.884 0 00-4.078 4.079l8.258 8.258zm48.668-59.729a1.983 1.983 0 012.803 2.803l-4.41 4.41-2.803-2.803 4.41-4.41zm-7.78 5.027a.946.946 0 011.336 0l4.22 4.22a.945.945 0 010 1.336l-3.516 3.517-5.556-5.555 3.516-3.518zm-7.99 3.861a1.53 1.53 0 012.166 0l7.518 7.518a1.532 1.532 0 010 2.167l-2.44 2.44-3.466-3.466a.937.937 0 00-1.326 1.326l3.467 3.466-2.024 2.023-1.401-1.401A.936.936 0 1065.95 69.1l1.401 1.402-2.023 2.024-3.466-3.466a.938.938 0 00-1.326 1.326l3.466 3.466-2.023 2.023-1.402-1.401a.938.938 0 00-1.326 1.325l1.402 1.402-2.023 2.023-3.466-3.466a.938.938 0 00-1.326 1.326l3.466 3.466-2.023 2.024-1.401-1.402a.937.937 0 10-1.326 1.326l1.401 1.401-2.023 2.024-3.467-3.467a.938.938 0 10-1.326 1.326l3.467 3.467-3.374 3.374-9.685-9.686L64.78 53.703zm-31.91 28.578a1.19 1.19 0 111.683-1.682l13.016 13.016a1.19 1.19 0 01-1.683 1.682L32.873 82.281zm4.469 7.12l1.427 1.428-6.222 6.221-1.427-1.427 6.222-6.221zm-12.39 4.133a1.01 1.01 0 011.426 0l8.259 8.258a1.01 1.01 0 11-1.427 1.427l-8.258-8.259a1.009 1.009 0 010-1.427v.001z" fill="url(#paint1_linear)"/><path d="M65.575 57.32a1.015 1.015 0 100-2.03 1.015 1.015 0 000 2.03z" fill="url(#paint2_linear)"/><path d="M52.893 70.035a.936.936 0 00.663-.275L64.36 58.957a.938.938 0 00-1.326-1.326L52.23 68.434a.937.937 0 00.663 1.6z" fill="url(#paint3_linear)"/></g><defs><linearGradient id="paint0_linear" x1="90.444" y1="34.638" x2="104.705" y2="44.834" gradientUnits="userSpaceOnUse"><stop stop-color="#A83592"/><stop offset="1" stop-color="#4F4A9D"/></linearGradient><linearGradient id="paint1_linear" x1="22.815" y1="32.612" x2="95.618" y2="105.355" gradientUnits="userSpaceOnUse"><stop stop-color="#A83592"/><stop offset="1" stop-color="#4F4A9D"/></linearGradient><linearGradient id="paint2_linear" x1="64.559" y1="55.29" x2="66.591" y2="57.321" gradientUnits="userSpaceOnUse"><stop stop-color="#A83592"/><stop offset="1" stop-color="#4F4A9D"/></linearGradient><linearGradient id="paint3_linear" x1="51.955" y1="57.356" x2="64.634" y2="70.035" gradientUnits="userSpaceOnUse"><stop stop-color="#A83592"/><stop offset="1" stop-color="#4F4A9D"/></linearGradient></defs></svg>