<svg width="1059" height="465" fill="none" xmlns="http://www.w3.org/2000/svg"><g opacity=".05"><path d="M353.884 555.755a171.437 171.437 0 0112.792-65.359 170.433 170.433 0 0136.695-55.417 168.991 168.991 0 0154.986-36.997 167.951 167.951 0 0164.863-12.917 167.953 167.953 0 0164.864 12.917 168.977 168.977 0 0154.985 36.997 170.42 170.42 0 0136.696 55.417 171.456 171.456 0 0112.792 65.359c0 94.509-75.566 169.276-169.337 169.276-93.755 0-169.336-76.182-169.336-169.276zm393.272 0c0-124.136-100.805-225.701-224.01-225.701-123.206 0-224.01 101.565-224.01 225.701s100.804 225.701 224.01 225.701c123.205-1.414 224.01-101.565 224.01-225.701z" fill="#4F4A9D"/><path d="M732.218 360.147a30.211 30.211 0 008.748 21.28 29.76 29.76 0 0021.12 8.814 29.756 29.756 0 0021.12-8.814 30.211 30.211 0 008.748-21.28 30.21 30.21 0 00-8.748-21.279 29.752 29.752 0 00-21.12-8.814 29.756 29.756 0 00-21.12 8.814 30.21 30.21 0 00-8.748 21.279z" fill="url(#paint0_linear)"/><path d="M329.005 299.961a30.206 30.206 0 008.749 21.279 29.752 29.752 0 0021.119 8.815 29.753 29.753 0 0021.12-8.815 30.205 30.205 0 008.748-21.279 30.205 30.205 0 00-8.748-21.279 29.752 29.752 0 00-21.12-8.814 29.752 29.752 0 00-21.119 8.814 30.206 30.206 0 00-8.749 21.279z" fill="url(#paint1_linear)"/><path d="M582.882 254.832a30.211 30.211 0 008.748 21.28 29.76 29.76 0 0021.12 8.814 29.756 29.756 0 0021.12-8.814 30.207 30.207 0 008.748-21.28 30.207 30.207 0 00-8.748-21.279 29.752 29.752 0 00-21.12-8.814 29.756 29.756 0 00-21.12 8.814 30.21 30.21 0 00-8.748 21.279z" fill="url(#paint2_linear)"/><path d="M672.491 299.962a30.21 30.21 0 008.748 21.279 29.756 29.756 0 0021.12 8.814c7.922 0 15.519-3.17 21.12-8.814a30.21 30.21 0 008.748-21.279 30.211 30.211 0 00-8.748-21.28 29.756 29.756 0 00-21.12-8.814 29.76 29.76 0 00-21.12 8.814 30.211 30.211 0 00-8.748 21.28z" fill="url(#paint3_linear)"/><path d="M403.672 254.832a30.211 30.211 0 008.748 21.28 29.76 29.76 0 0021.12 8.814 29.756 29.756 0 0021.12-8.814 30.211 30.211 0 008.748-21.28 30.21 30.21 0 00-8.748-21.279 29.752 29.752 0 00-21.12-8.814 29.756 29.756 0 00-21.12 8.814 30.21 30.21 0 00-8.748 21.279z" fill="url(#paint4_linear)"/><path d="M493.284 239.775a30.21 30.21 0 008.748 21.279 29.757 29.757 0 0021.12 8.815 29.753 29.753 0 0021.12-8.815 30.21 30.21 0 008.748-21.279 30.21 30.21 0 00-8.748-21.279 29.752 29.752 0 00-21.12-8.814 29.756 29.756 0 00-21.12 8.814 30.21 30.21 0 00-8.748 21.279z" fill="url(#paint5_linear)"/><path d="M657.557 202.169c0 9.977 3.934 19.545 10.935 26.599a37.193 37.193 0 0026.4 11.018 37.193 37.193 0 0026.4-11.018c7.002-7.054 10.935-16.622 10.935-26.599s-3.933-19.545-10.935-26.599a37.193 37.193 0 00-26.4-11.018 37.193 37.193 0 00-26.4 11.018c-7.001 7.054-10.935 16.622-10.935 26.599z" fill="url(#paint6_linear)"/><path d="M553.019 157.026c0 9.977 3.934 19.545 10.935 26.599a37.193 37.193 0 0026.4 11.018 37.193 37.193 0 0026.4-11.018c7.002-7.054 10.935-16.622 10.935-26.599s-3.933-19.545-10.935-26.599a37.193 37.193 0 00-26.4-11.018 37.193 37.193 0 00-26.4 11.018c-7.001 7.054-10.935 16.622-10.935 26.599z" fill="url(#paint7_linear)"/><path d="M433.54 157.026c0 9.977 3.934 19.545 10.935 26.599a37.193 37.193 0 0026.4 11.018 37.193 37.193 0 0026.4-11.018c7.002-7.054 10.935-16.622 10.935-26.599s-3.933-19.545-10.935-26.599a37.193 37.193 0 00-26.4-11.018 37.193 37.193 0 00-26.4 11.018c-7.001 7.054-10.935 16.622-10.935 26.599z" fill="url(#paint8_linear)"/><path d="M314.071 202.169a37.762 37.762 0 0010.936 26.599 37.194 37.194 0 0026.399 11.017 37.194 37.194 0 0026.4-11.017c7.002-7.055 10.935-16.623 10.935-26.599 0-9.977-3.933-19.545-10.935-26.6a37.194 37.194 0 00-26.4-11.017 37.194 37.194 0 00-26.399 11.017 37.763 37.763 0 00-10.936 26.6z" fill="url(#paint9_linear)"/><path d="M777.02 172.065c0 5.986 2.36 11.727 6.561 15.959a22.316 22.316 0 0015.84 6.611 22.316 22.316 0 0015.84-6.611 22.654 22.654 0 006.561-15.959c0-5.986-2.36-11.727-6.561-15.96a22.319 22.319 0 00-15.84-6.61 22.319 22.319 0 00-15.84 6.61 22.658 22.658 0 00-6.561 15.96z" fill="url(#paint10_linear)"/><path d="M642.611 96.836c0 5.986 2.36 11.727 6.561 15.959a22.316 22.316 0 0015.84 6.611 22.316 22.316 0 0015.84-6.611 22.654 22.654 0 006.561-15.96c0-5.985-2.36-11.726-6.561-15.959a22.316 22.316 0 00-15.84-6.61 22.316 22.316 0 00-15.84 6.61 22.657 22.657 0 00-6.561 15.96z" fill="url(#paint11_linear)"/><path d="M508.218 81.793c0 5.986 2.36 11.727 6.561 15.96a22.318 22.318 0 0015.84 6.61 22.318 22.318 0 0015.84-6.61 22.657 22.657 0 006.561-15.96c0-5.986-2.36-11.727-6.561-15.96a22.317 22.317 0 00-15.84-6.61 22.317 22.317 0 00-15.84 6.61 22.657 22.657 0 00-6.561 15.96z" fill="url(#paint12_linear)"/><path d="M358.869 96.835c0 5.986 2.36 11.727 6.561 15.96a22.319 22.319 0 0015.84 6.61 22.319 22.319 0 0015.84-6.61 22.658 22.658 0 006.561-15.96 22.66 22.66 0 00-6.561-15.96 22.316 22.316 0 00-15.84-6.61 22.316 22.316 0 00-15.84 6.61 22.657 22.657 0 00-6.561 15.96z" fill="url(#paint13_linear)"/><path d="M254.333 360.147a30.21 30.21 0 008.748 21.279 29.754 29.754 0 0021.12 8.814c7.922 0 15.519-3.17 21.12-8.814a30.21 30.21 0 008.748-21.279 30.211 30.211 0 00-8.748-21.28 29.756 29.756 0 00-21.12-8.814 29.758 29.758 0 00-21.12 8.814 30.211 30.211 0 00-8.748 21.28z" fill="url(#paint14_linear)"/><path d="M209.538 450.433a30.208 30.208 0 008.749 21.279 29.752 29.752 0 0021.12 8.814c7.921 0 15.518-3.17 21.12-8.814a30.21 30.21 0 008.748-21.279 30.21 30.21 0 00-8.748-21.279 29.757 29.757 0 00-21.12-8.815 29.753 29.753 0 00-21.12 8.815 30.206 30.206 0 00-8.749 21.279z" fill="url(#paint15_linear)"/><path d="M149.792 367.671a37.766 37.766 0 0010.935 26.599 37.196 37.196 0 0026.4 11.017 37.194 37.194 0 0026.4-11.017c7.002-7.055 10.935-16.623 10.935-26.599 0-9.977-3.933-19.545-10.935-26.6a37.194 37.194 0 00-26.4-11.017 37.196 37.196 0 00-26.4 11.017 37.766 37.766 0 00-10.935 26.6z" fill="url(#paint16_linear)"/><path d="M119.935 488.058c0 9.977 3.933 19.545 10.935 26.6a37.194 37.194 0 0026.4 11.017 37.194 37.194 0 0026.399-11.017c7.002-7.055 10.935-16.623 10.935-26.6 0-9.976-3.933-19.544-10.935-26.599a37.195 37.195 0 00-26.399-11.018 37.195 37.195 0 00-26.4 11.018c-7.002 7.055-10.935 16.623-10.935 26.599z" fill="url(#paint17_linear)"/><path d="M224.46 262.355c0 9.977 3.933 19.545 10.935 26.599a37.191 37.191 0 0026.4 11.018 37.19 37.19 0 0026.399-11.018c7.002-7.054 10.936-16.622 10.936-26.599a37.762 37.762 0 00-10.936-26.599 37.19 37.19 0 00-26.399-11.018 37.191 37.191 0 00-26.4 11.018c-7.002 7.055-10.935 16.623-10.935 26.599z" fill="url(#paint18_linear)"/><path d="M134.859 277.394c0 5.986 2.36 11.727 6.561 15.96a22.315 22.315 0 0015.84 6.61 22.315 22.315 0 0015.84-6.61 22.658 22.658 0 006.561-15.96c0-5.986-2.36-11.726-6.561-15.959a22.316 22.316 0 00-15.84-6.611 22.316 22.316 0 00-15.84 6.611 22.656 22.656 0 00-6.561 15.959z" fill="url(#paint19_linear)"/><path d="M75.12 397.768c0 5.986 2.36 11.727 6.562 15.959a22.315 22.315 0 0015.84 6.611 22.316 22.316 0 0015.84-6.611 22.654 22.654 0 006.561-15.959c0-5.986-2.36-11.727-6.561-15.96a22.32 22.32 0 00-15.84-6.61 22.319 22.319 0 00-15.84 6.61 22.658 22.658 0 00-6.561 15.96z" fill="url(#paint20_linear)"/><path d="M239.4 172.065c0 5.986 2.36 11.727 6.561 15.96a22.319 22.319 0 0015.84 6.61 22.319 22.319 0 0015.84-6.61 22.658 22.658 0 006.561-15.96c0-5.986-2.36-11.727-6.561-15.959a22.316 22.316 0 00-15.84-6.611 22.316 22.316 0 00-15.84 6.611 22.654 22.654 0 00-6.561 15.959z" fill="url(#paint21_linear)"/><path d="M777.03 450.434a30.21 30.21 0 008.748 21.279 29.756 29.756 0 0021.12 8.814c7.922 0 15.519-3.17 21.12-8.814a30.207 30.207 0 008.748-21.279 30.205 30.205 0 00-8.748-21.279 29.753 29.753 0 00-21.12-8.815 29.757 29.757 0 00-21.12 8.815 30.21 30.21 0 00-8.748 21.279z" fill="url(#paint22_linear)"/><path d="M836.765 367.671A37.766 37.766 0 00847.7 394.27a37.196 37.196 0 0026.4 11.017 37.196 37.196 0 0026.4-11.017c7.002-7.055 10.935-16.623 10.935-26.599 0-9.977-3.933-19.545-10.935-26.6a37.196 37.196 0 00-26.4-11.017 37.196 37.196 0 00-26.4 11.017 37.766 37.766 0 00-10.935 26.6z" fill="url(#paint23_linear)"/><path d="M762.096 262.356a37.766 37.766 0 0010.935 26.599 37.197 37.197 0 0026.4 11.018 37.197 37.197 0 0026.4-11.018c7.002-7.055 10.935-16.623 10.935-26.599 0-9.977-3.933-19.545-10.935-26.6a37.196 37.196 0 00-26.4-11.017 37.196 37.196 0 00-26.4 11.017 37.766 37.766 0 00-10.935 26.6z" fill="url(#paint24_linear)"/><path d="M866.636 488.058c0 9.977 3.933 19.545 10.935 26.6a37.196 37.196 0 0026.4 11.017 37.196 37.196 0 0026.4-11.017 37.766 37.766 0 0010.935-26.6 37.766 37.766 0 00-10.935-26.599 37.197 37.197 0 00-26.4-11.018 37.197 37.197 0 00-26.4 11.018c-7.002 7.055-10.935 16.623-10.935 26.599z" fill="url(#paint25_linear)"/><path d="M941.299 397.768c0 5.986 2.36 11.727 6.561 15.959a22.314 22.314 0 0015.84 6.611 22.314 22.314 0 0015.839-6.611 22.655 22.655 0 006.562-15.959 22.66 22.66 0 00-6.562-15.96 22.317 22.317 0 00-15.839-6.61 22.317 22.317 0 00-15.84 6.61 22.658 22.658 0 00-6.561 15.96z" fill="url(#paint26_linear)"/><path d="M881.56 277.394a22.655 22.655 0 006.562 15.959 22.314 22.314 0 0015.84 6.611 22.314 22.314 0 0015.839-6.611 22.655 22.655 0 006.562-15.959 22.66 22.66 0 00-6.562-15.96 22.317 22.317 0 00-15.839-6.61 22.317 22.317 0 00-15.84 6.61 22.66 22.66 0 00-6.562 15.96z" fill="url(#paint27_linear)"/><path d="M431.772 29.647a16.583 16.583 0 006.611 10.85 16.47 16.47 0 0012.327 2.948 16.636 16.636 0 0010.823-6.682 16.753 16.753 0 002.978-12.398 16.586 16.586 0 00-6.61-10.85 16.47 16.47 0 00-12.327-2.948 16.634 16.634 0 00-10.823 6.682 16.753 16.753 0 00-2.979 12.398z" fill="url(#paint28_linear)"/><path d="M276.876 84.044a16.421 16.421 0 0022.249 7.239c8.159-4.213 11.438-14.305 7.303-22.504-4.134-8.2-14.09-11.451-22.249-7.238-8.165 4.199-11.444 14.29-7.303 22.504z" fill="url(#paint29_linear)"/><path d="M746.336 87.637c8.165 4.2 18.129.97 22.257-7.25 4.136-8.199.851-18.277-7.307-22.49a16.434 16.434 0 00-22.257 7.248c-4.135 8.2-.851 18.278 7.307 22.492z" fill="url(#paint30_linear)"/><path d="M1021.24 463.332c.68 4.36 3.06 8.264 6.61 10.853a16.454 16.454 0 0012.32 2.95 16.63 16.63 0 0010.83-6.679 16.747 16.747 0 002.98-12.397 16.59 16.59 0 00-6.61-10.853 16.459 16.459 0 00-12.32-2.951c-4.35.7-8.24 3.103-10.83 6.68a16.747 16.747 0 00-2.98 12.397z" fill="url(#paint31_linear)"/><path d="M609.124 35.62a16.53 16.53 0 0012.368-2.953 16.592 16.592 0 006.621-10.879 16.8 16.8 0 00-3.006-12.43 16.731 16.731 0 00-10.872-6.702 16.529 16.529 0 00-12.369 2.954 16.595 16.595 0 00-6.62 10.878 16.795 16.795 0 003.006 12.43 16.731 16.731 0 0010.872 6.702z" fill="url(#paint32_linear)"/><path d="M22.295 479.818a16.513 16.513 0 0012.364-2.968 16.58 16.58 0 004.39-4.78 16.688 16.688 0 002.231-6.111 16.81 16.81 0 00-3-12.434 16.752 16.752 0 00-4.772-4.43 16.64 16.64 0 00-6.09-2.263 16.52 16.52 0 00-12.364 2.968 16.638 16.638 0 00-6.622 10.891c-.679 4.374.4 8.847 3 12.434a16.686 16.686 0 0010.863 6.693z" fill="url(#paint33_linear)"/><path d="M881.035 182.515a16.491 16.491 0 005.364 3.622 16.38 16.38 0 0012.664-.004 16.502 16.502 0 005.362-3.625 16.846 16.846 0 004.847-11.824 16.844 16.844 0 00-4.833-11.829 16.53 16.53 0 00-5.364-3.628 16.4 16.4 0 00-12.672-.002 16.504 16.504 0 00-5.365 3.627c-6.464 6.532-6.455 17.119.007 23.652l-.01.011z" fill="url(#paint34_linear)"/><path d="M150.528 180.601a16.502 16.502 0 005.364 3.622 16.38 16.38 0 0012.664-.004 16.502 16.502 0 005.362-3.625 16.84 16.84 0 004.847-11.823 16.84 16.84 0 00-4.833-11.829 16.495 16.495 0 00-5.364-3.629 16.402 16.402 0 00-12.672-.001 16.489 16.489 0 00-5.365 3.627c-6.464 6.531-6.454 17.118.007 23.651l-.01.011z" fill="url(#paint35_linear)"/><path d="M972.875 316.314a16.421 16.421 0 0022.248 7.243c8.157-4.211 11.437-14.302 7.307-22.502-4.132-8.201-14.087-11.454-22.247-7.243-8.166 4.198-11.447 14.289-7.308 22.502z" fill="url(#paint36_linear)"/><path d="M59.05 320.94a16.434 16.434 0 0022.256-7.252c4.134-8.199.849-18.278-7.31-22.49a16.435 16.435 0 00-22.256 7.251c-4.135 8.2-.842 18.265 7.31 22.491z" fill="url(#paint37_linear)"/></g><defs><linearGradient id="paint0_linear" x1="791.954" y1="330.054" x2="731.769" y2="389.788" gradientUnits="userSpaceOnUse"><stop stop-color="#A83592"/><stop offset="1" stop-color="#4F4A9D"/></linearGradient><linearGradient id="paint1_linear" x1="388.741" y1="269.868" x2="328.556" y2="329.602" gradientUnits="userSpaceOnUse"><stop stop-color="#A83592"/><stop offset="1" stop-color="#4F4A9D"/></linearGradient><linearGradient id="paint2_linear" x1="642.618" y1="224.739" x2="582.433" y2="284.473" gradientUnits="userSpaceOnUse"><stop stop-color="#A83592"/><stop offset="1" stop-color="#4F4A9D"/></linearGradient><linearGradient id="paint3_linear" x1="732.227" y1="269.868" x2="672.042" y2="329.603" gradientUnits="userSpaceOnUse"><stop stop-color="#A83592"/><stop offset="1" stop-color="#4F4A9D"/></linearGradient><linearGradient id="paint4_linear" x1="463.408" y1="224.739" x2="403.223" y2="284.473" gradientUnits="userSpaceOnUse"><stop stop-color="#A83592"/><stop offset="1" stop-color="#4F4A9D"/></linearGradient><linearGradient id="paint5_linear" x1="553.02" y1="209.682" x2="492.835" y2="269.416" gradientUnits="userSpaceOnUse"><stop stop-color="#A83592"/><stop offset="1" stop-color="#4F4A9D"/></linearGradient><linearGradient id="paint6_linear" x1="732.227" y1="164.552" x2="656.996" y2="239.22" gradientUnits="userSpaceOnUse"><stop stop-color="#A83592"/><stop offset="1" stop-color="#4F4A9D"/></linearGradient><linearGradient id="paint7_linear" x1="627.689" y1="119.409" x2="552.458" y2="194.077" gradientUnits="userSpaceOnUse"><stop stop-color="#A83592"/><stop offset="1" stop-color="#4F4A9D"/></linearGradient><linearGradient id="paint8_linear" x1="508.21" y1="119.409" x2="432.979" y2="194.077" gradientUnits="userSpaceOnUse"><stop stop-color="#A83592"/><stop offset="1" stop-color="#4F4A9D"/></linearGradient><linearGradient id="paint9_linear" x1="388.741" y1="164.552" x2="313.51" y2="239.22" gradientUnits="userSpaceOnUse"><stop stop-color="#A83592"/><stop offset="1" stop-color="#4F4A9D"/></linearGradient><linearGradient id="paint10_linear" x1="821.822" y1="149.495" x2="776.683" y2="194.295" gradientUnits="userSpaceOnUse"><stop stop-color="#A83592"/><stop offset="1" stop-color="#4F4A9D"/></linearGradient><linearGradient id="paint11_linear" x1="687.413" y1="74.266" x2="642.274" y2="119.066" gradientUnits="userSpaceOnUse"><stop stop-color="#A83592"/><stop offset="1" stop-color="#4F4A9D"/></linearGradient><linearGradient id="paint12_linear" x1="553.02" y1="59.223" x2="507.881" y2="104.024" gradientUnits="userSpaceOnUse"><stop stop-color="#A83592"/><stop offset="1" stop-color="#4F4A9D"/></linearGradient><linearGradient id="paint13_linear" x1="403.671" y1="74.265" x2="358.532" y2="119.066" gradientUnits="userSpaceOnUse"><stop stop-color="#A83592"/><stop offset="1" stop-color="#4F4A9D"/></linearGradient><linearGradient id="paint14_linear" x1="314.069" y1="330.053" x2="253.884" y2="389.788" gradientUnits="userSpaceOnUse"><stop stop-color="#A83592"/><stop offset="1" stop-color="#4F4A9D"/></linearGradient><linearGradient id="paint15_linear" x1="269.275" y1="420.339" x2="209.089" y2="480.074" gradientUnits="userSpaceOnUse"><stop stop-color="#A83592"/><stop offset="1" stop-color="#4F4A9D"/></linearGradient><linearGradient id="paint16_linear" x1="224.462" y1="330.054" x2="149.231" y2="404.722" gradientUnits="userSpaceOnUse"><stop stop-color="#A83592"/><stop offset="1" stop-color="#4F4A9D"/></linearGradient><linearGradient id="paint17_linear" x1="194.604" y1="450.441" x2="119.373" y2="525.109" gradientUnits="userSpaceOnUse"><stop stop-color="#A83592"/><stop offset="1" stop-color="#4F4A9D"/></linearGradient><linearGradient id="paint18_linear" x1="299.13" y1="224.738" x2="223.898" y2="299.406" gradientUnits="userSpaceOnUse"><stop stop-color="#A83592"/><stop offset="1" stop-color="#4F4A9D"/></linearGradient><linearGradient id="paint19_linear" x1="179.661" y1="254.824" x2="134.522" y2="299.625" gradientUnits="userSpaceOnUse"><stop stop-color="#A83592"/><stop offset="1" stop-color="#4F4A9D"/></linearGradient><linearGradient id="paint20_linear" x1="119.923" y1="375.198" x2="74.784" y2="419.999" gradientUnits="userSpaceOnUse"><stop stop-color="#A83592"/><stop offset="1" stop-color="#4F4A9D"/></linearGradient><linearGradient id="paint21_linear" x1="284.202" y1="149.495" x2="239.063" y2="194.296" gradientUnits="userSpaceOnUse"><stop stop-color="#A83592"/><stop offset="1" stop-color="#4F4A9D"/></linearGradient><linearGradient id="paint22_linear" x1="836.766" y1="420.34" x2="776.581" y2="480.075" gradientUnits="userSpaceOnUse"><stop stop-color="#A83592"/><stop offset="1" stop-color="#4F4A9D"/></linearGradient><linearGradient id="paint23_linear" x1="911.435" y1="330.054" x2="836.204" y2="404.722" gradientUnits="userSpaceOnUse"><stop stop-color="#A83592"/><stop offset="1" stop-color="#4F4A9D"/></linearGradient><linearGradient id="paint24_linear" x1="836.766" y1="224.739" x2="761.535" y2="299.407" gradientUnits="userSpaceOnUse"><stop stop-color="#A83592"/><stop offset="1" stop-color="#4F4A9D"/></linearGradient><linearGradient id="paint25_linear" x1="941.306" y1="450.441" x2="866.074" y2="525.109" gradientUnits="userSpaceOnUse"><stop stop-color="#A83592"/><stop offset="1" stop-color="#4F4A9D"/></linearGradient><linearGradient id="paint26_linear" x1="986.101" y1="375.198" x2="940.962" y2="419.999" gradientUnits="userSpaceOnUse"><stop stop-color="#A83592"/><stop offset="1" stop-color="#4F4A9D"/></linearGradient><linearGradient id="paint27_linear" x1="926.363" y1="254.824" x2="881.224" y2="299.625" gradientUnits="userSpaceOnUse"><stop stop-color="#A83592"/><stop offset="1" stop-color="#4F4A9D"/></linearGradient><linearGradient id="paint28_linear" x1="461.952" y1="7.932" x2="434.2" y2="45.983" gradientUnits="userSpaceOnUse"><stop stop-color="#A83592"/><stop offset="1" stop-color="#4F4A9D"/></linearGradient><linearGradient id="paint29_linear" x1="298.949" y1="53.945" x2="284.323" y2="98.868" gradientUnits="userSpaceOnUse"><stop stop-color="#A83592"/><stop offset="1" stop-color="#4F4A9D"/></linearGradient><linearGradient id="paint30_linear" x1="746.517" y1="50.299" x2="761.138" y2="95.224" gradientUnits="userSpaceOnUse"><stop stop-color="#A83592"/><stop offset="1" stop-color="#4F4A9D"/></linearGradient><linearGradient id="paint31_linear" x1="1051.42" y1="441.619" x2="1023.67" y2="479.676" gradientUnits="userSpaceOnUse"><stop stop-color="#A83592"/><stop offset="1" stop-color="#4F4A9D"/></linearGradient><linearGradient id="paint32_linear" x1="597.81" y1="0" x2="625.624" y2="38.222" gradientUnits="userSpaceOnUse"><stop stop-color="#A83592"/><stop offset="1" stop-color="#4F4A9D"/></linearGradient><linearGradient id="paint33_linear" x1="11.002" y1="444.191" x2="38.841" y2="482.363" gradientUnits="userSpaceOnUse"><stop stop-color="#A83592"/><stop offset="1" stop-color="#4F4A9D"/></linearGradient><linearGradient id="paint34_linear" x1="892.74" y1="147.065" x2="892.744" y2="194.295" gradientUnits="userSpaceOnUse"><stop stop-color="#A83592"/><stop offset="1" stop-color="#4F4A9D"/></linearGradient><linearGradient id="paint35_linear" x1="162.233" y1="145.151" x2="162.237" y2="192.381" gradientUnits="userSpaceOnUse"><stop stop-color="#A83592"/><stop offset="1" stop-color="#4F4A9D"/></linearGradient><linearGradient id="paint36_linear" x1="994.955" y1="286.219" x2="980.319" y2="331.14" gradientUnits="userSpaceOnUse"><stop stop-color="#A83592"/><stop offset="1" stop-color="#4F4A9D"/></linearGradient><linearGradient id="paint37_linear" x1="59.226" y1="283.602" x2="73.852" y2="328.525" gradientUnits="userSpaceOnUse"><stop stop-color="#A83592"/><stop offset="1" stop-color="#4F4A9D"/></linearGradient></defs></svg>