<svg width="102" height="109" fill="none" xmlns="http://www.w3.org/2000/svg"><circle cx="50" cy="50" r="50" fill="#FCF8F2"/><g opacity=".65" clip-path="url(#clip0)"><path d="M52.667 109c15.026 0 27.893-8.2 30.666-19.587a2.397 2.397 0 000-.413.826.826 0 000-.2 1.133 1.133 0 000-.307 22.493 22.493 0 00-8.52-12.466 1.333 1.333 0 10-1.626 2.106A21.974 21.974 0 0178.52 84c-5.147-4.267-14.76-7-25.853-7-11.094 0-20.774 2.747-25.88 7.04 4.173-6.787 13-11.6 23.306-12.293a1.336 1.336 0 00-.173-2.667c-13.88.92-25.333 8.907-27.853 19.4a.858.858 0 000 .267L22 89a2.664 2.664 0 000 .507C24.773 100.8 37.64 109 52.667 109zm0-2.667c-11.347 0-21.334-4.96-25.854-12.346C31.933 98.333 41.56 101 52.667 101c11.106 0 20.733-2.667 25.853-7.013-4.52 7.386-14.507 12.346-25.853 12.346zM79.253 89c-1.52 3.227-6.24 5.947-12.533 7.6a15.814 15.814 0 000-15.2c6.293 1.653 11.013 4.373 12.533 7.6zM57.92 84.907a6.666 6.666 0 00-2.587-2 2 2 0 112.547 2h.04zM56.667 89a4 4 0 11-8 0 4 4 0 018 0zM54 79.667a4.693 4.693 0 00-1.333 2.666A6.667 6.667 0 1059.333 89a6.306 6.306 0 00-.24-1.68 4.653 4.653 0 002.014-7.053l1.866.306a13.24 13.24 0 010 16.854 59.044 59.044 0 01-20.613 0 13.24 13.24 0 010-16.854 58.945 58.945 0 0110.307-.906H54zM38.613 81.4a15.814 15.814 0 000 15.2C32.32 94.947 27.6 92.213 26.08 89c1.52-3.213 6.24-5.947 12.533-7.6z" fill="url(#paint0_linear)"/><path d="M58 74.92a4 4 0 005.654 0l1.96-1.92a6.587 6.587 0 003.666 1.107A6.667 6.667 0 0074 72.093l1.827-1.84 25.16-19.76a2.665 2.665 0 00.227-4l-16.72-16.706a2.667 2.667 0 00-4 .226l-19.747 25.16L58.907 57a6.667 6.667 0 00-1.947 4.72 6.587 6.587 0 001.107 3.667l-1.987 1.986a4 4 0 000 5.654L58 74.92zM78.454 37l3.08 3.08a1.333 1.333 0 101.893-1.88l-3.307-3.36 2.48-3.173L99.334 48.4l-3.174 2.493L90 44.747a1.333 1.333 0 10-1.893 1.88L94 52.547 75.04 67.48 63.52 55.96 78.454 37zM60.8 58.893l.947-.946 11.307 11.306-.947.947a4.093 4.093 0 01-5.653 0L60.8 64.547a4 4 0 010-5.654zM58 69.253l1.88-1.88 3.774 3.774L61.747 73a1.334 1.334 0 01-1.894 0L58 71.147a1.334 1.334 0 010-1.894z" fill="url(#paint1_linear)"/></g><defs><linearGradient id="paint0_linear" x1="21.988" y1="69.077" x2="58.488" y2="125.173" gradientUnits="userSpaceOnUse"><stop stop-color="#A83592"/><stop offset="1" stop-color="#4F4A9D"/></linearGradient><linearGradient id="paint1_linear" x1="54.91" y1="28.991" x2="102.01" y2="76.09" gradientUnits="userSpaceOnUse"><stop stop-color="#A83592"/><stop offset="1" stop-color="#4F4A9D"/></linearGradient><clipPath id="clip0"><path fill="#fff" transform="translate(22 29)" d="M0 0h80v80H0z"/></clipPath></defs></svg>