<svg width="102" height="109" fill="none" xmlns="http://www.w3.org/2000/svg"><circle cx="50" cy="50" r="50" fill="#FCF8F2"/><g opacity=".65" clip-path="url(#clip0)"><path d="M51.333 75.316c.179 0 .356-.039.52-.112.677-.303.993-1.126.707-1.839l-4-9.824a1.349 1.349 0 00-1.067-.894 1.305 1.305 0 00-1.255.56c-.289.415-.34.963-.131 1.428l4 9.825c.208.518.691.856 1.226.856z" fill="url(#paint0_linear)"/><path d="M42.468 77.786c.56.504 1.401.435 1.88-.154a1.455 1.455 0 00-.147-1.98l-9.333-8.42a1.288 1.288 0 00-1.88.154 1.455 1.455 0 00.147 1.979l9.333 8.42z" fill="url(#paint1_linear)"/><path d="M77.188 62.796c-.677-.301-1.459.032-1.746.744l-4 9.825c-.287.713.03 1.536.706 1.838.165.074.342.112.52.113.535 0 1.018-.338 1.227-.856l4-9.825c.287-.713-.03-1.536-.707-1.839z" fill="url(#paint2_linear)"/><path d="M79.652 77.632a1.286 1.286 0 001.88.154l9.334-8.421c.362-.326.53-.83.444-1.324a1.385 1.385 0 00-.867-1.066 1.282 1.282 0 00-1.31.257l-9.334 8.42a1.43 1.43 0 00-.463.958c-.027.371.086.739.316 1.022z" fill="url(#paint3_linear)"/><path d="M98.44 84.944a13.666 13.666 0 01-5.773-1.783c-.507-.308-1.04-.701-1.614-1.108-1.72-1.263-3.666-2.681-6.066-2.513-2.645.343-4.936 2.093-6.067 4.632a40.558 40.558 0 00-6.253-2.077 44.447 44.447 0 00-9.334-1.165v-8.421h1.334c2.209 0 4-1.885 4-4.21v-9.825h2.666c2.21 0 4-1.885 4-4.21v-9.825h.587c1.275.03 2.393-.893 2.667-2.204l2.066-9.825a2.916 2.916 0 00-.573-2.357A2.619 2.619 0 0078 29H46c-.81 0-1.574.388-2.08 1.053a2.92 2.92 0 00-.52 2.357l2.067 9.825c.274 1.311 1.391 2.235 2.666 2.204h.534v9.824c0 2.326 1.79 4.21 4 4.21h2.666v9.825c0 2.326 1.791 4.21 4 4.21h1.334v8.422a43.47 43.47 0 00-9.334 1.235 41.383 41.383 0 00-6.186 2.077C44.02 81.648 41.69 79.861 39 79.526c-2.4-.168-4.347 1.25-6.067 2.513-.573.407-1.106.8-1.613 1.108a13.665 13.665 0 01-5.76 1.783c-2.036.237-3.572 2.054-3.56 4.21V109c0 2.325 1.79 4.211 4 4.211h72c2.209 0 4-1.886 4-4.211V89.126c-.001-2.145-1.534-3.946-3.56-4.182zM48.08 41.632L46 31.807h32l-2.08 9.825H48.08zm3.253 12.631V44.44h21.334v9.824c0 .775-.597 1.404-1.334 1.404H52.667c-.737 0-1.334-.629-1.334-1.404zM58 68.298v-9.824h8v9.824c0 .775-.597 1.404-1.333 1.404h-5.334c-.736 0-1.333-.629-1.333-1.404zm10.787 31.93a24.31 24.31 0 00-3.867-1.838 8.89 8.89 0 00-5.84 0 24.306 24.306 0 00-3.867 1.838 71.496 71.496 0 01-3.133-3.803 56.334 56.334 0 01-5.8-9.685 36.465 36.465 0 014.493-1.6c2.014 4.586 6.43 7.467 11.227 7.327 4.797.14 9.213-2.741 11.227-7.327a38.23 38.23 0 014.506 1.558 56.805 56.805 0 01-5.813 9.67 55.227 55.227 0 01-3.133 3.86zm-1.934 2.105l-1.133 1.179c-2.07 2.122-5.37 2.122-7.44 0l-1.133-1.179c.896-.5 1.828-.927 2.786-1.277a6.148 6.148 0 014.134 0c.957.353 1.889.78 2.786 1.277zm-6.186-16.884c0 .775.597 1.404 1.333 1.404s1.333-.629 1.333-1.404v-1.712a42.58 42.58 0 017.227.842c-1.743 3.228-5.034 5.182-8.56 5.08-3.549.095-6.855-1.888-8.587-5.15a41.957 41.957 0 017.254-.772v1.712zM99.333 109c0 .775-.596 1.404-1.333 1.404H26c-.736 0-1.333-.629-1.333-1.404V89.126c-.007-.704.484-1.305 1.146-1.403a16.245 16.245 0 006.854-2.12c.613-.378 1.226-.828 1.813-1.249a7.832 7.832 0 014.107-2.02h.213c1.778.275 3.292 1.503 4 3.241.133.31.267.59.413.885a.519.519 0 000 .154.706.706 0 00.107.168 60.615 60.615 0 006.667 11.383 75.96 75.96 0 006.426 7.354c3.105 3.173 8.043 3.173 11.147 0a76.02 76.02 0 006.44-7.34 62.544 62.544 0 007.227-12.632c.703-1.742 2.22-2.97 4-3.242 1.466-.126 2.853.912 4.346 2.007.587.421 1.2.87 1.814 1.25a16.25 16.25 0 006.826 2.133c.663.098 1.154.699 1.147 1.403L99.333 109z" fill="url(#paint4_linear)"/></g><defs><linearGradient id="paint0_linear" x1="45.98" y1="62.634" x2="56.443" y2="68.151" gradientUnits="userSpaceOnUse"><stop stop-color="#A83592"/><stop offset="1" stop-color="#4F4A9D"/></linearGradient><linearGradient id="paint1_linear" x1="32.668" y1="66.894" x2="43.871" y2="78.868" gradientUnits="userSpaceOnUse"><stop stop-color="#A83592"/><stop offset="1" stop-color="#4F4A9D"/></linearGradient><linearGradient id="paint2_linear" x1="71.336" y1="62.685" x2="81.762" y2="68.187" gradientUnits="userSpaceOnUse"><stop stop-color="#A83592"/><stop offset="1" stop-color="#4F4A9D"/></linearGradient><linearGradient id="paint3_linear" x1="79.332" y1="66.894" x2="90.535" y2="78.868" gradientUnits="userSpaceOnUse"><stop stop-color="#A83592"/><stop offset="1" stop-color="#4F4A9D"/></linearGradient><linearGradient id="paint4_linear" x1="22" y1="29" x2="106.1" y2="108.895" gradientUnits="userSpaceOnUse"><stop stop-color="#A83592"/><stop offset="1" stop-color="#4F4A9D"/></linearGradient><clipPath id="clip0"><path fill="#fff" transform="translate(22 29)" d="M0 0h80v80H0z"/></clipPath></defs></svg>