<svg width="102" height="109" fill="none" xmlns="http://www.w3.org/2000/svg"><circle cx="50" cy="50" r="50" fill="#FCF8F2"/><g opacity=".65" clip-path="url(#clip0)"><path d="M22.96 49a27.803 27.803 0 00-.96 7.773c.067 4.774 2.12 7.547 4 10a18.209 18.209 0 012.32 3.667 14.88 14.88 0 011.147 7.653 23.375 23.375 0 01-2.133 7.76 3.146 3.146 0 00.173 3.067 3.04 3.04 0 002.6 1.413h18.56a2.667 2.667 0 002.533-1.84 13.746 13.746 0 011.787-3.693 5.333 5.333 0 003.68 1.533V101a2.667 2.667 0 002.667 2.667H62A2.667 2.667 0 0064.667 101V86.333h4a4 4 0 000-8H66.76c.187-.106.36-.2.534-.32.383-.274.638-.693.706-1.16a2.452 2.452 0 00-.186-1.24l.546-.44c1.147-.96.414-2.24 0-2.866a5.765 5.765 0 01-.36-.64 1.334 1.334 0 01-.093-.574c.26-.222.552-.402.867-.533a7.55 7.55 0 001-.587 3.054 3.054 0 001.56-2.013A4 4 0 0070 65a32.655 32.655 0 01-3.92-6.493c.165-.216.353-.413.56-.587a3.84 3.84 0 001.454-2.253A5.08 5.08 0 0067.44 53h1.227a4 4 0 100-8h-4.133A17.203 17.203 0 0062 41.4a17.334 17.334 0 00-9.026-4.4c-11.134-2.587-17.334-1.533-24.52 4.12A15.267 15.267 0 0022.96 49zM62 101h-2.666V86.333H62V101zm2.894-47.173c.233.47.421.96.56 1.466 0 .12-.414.494-.6.667a3.52 3.52 0 00-1.454 2.573c0 1.494 3.187 6.494 4.547 8.147.233.283.447.581.64.893l-.347.267c-.196.13-.4.245-.613.347-.8.4-2.013 1.026-2.24 2.32a3.88 3.88 0 00.267 2.293c.146.293.293.56.426.787l-.8.613a1.333 1.333 0 00-.253 1.88l.093.133a3.146 3.146 0 00-1.666 2v.12h-4.12V53h5.186c.147.293.254.573.374.827zM70 49c0 .736-.597 1.333-1.333 1.333H58c-.736 0-1.333.597-1.333 1.334v28c0 .736.597 1.333 1.333 1.333h10.667a1.333 1.333 0 010 2.667h-12A2.667 2.667 0 0154 81V50.333a2.667 2.667 0 012.667-2.666h12c.736 0 1.333.597 1.333 1.333zm-39.893-5.787c5.72-4.506 10.667-6.306 22.267-3.626a14.747 14.747 0 017.653 3.653c.516.545.985 1.134 1.4 1.76h-4.76a5.333 5.333 0 00-5.333 5.333v29.414l-.68-.24c-2.667-.814-4.16-1.907-4.134-3a1.333 1.333 0 10-2.666 0c0 1.706.96 4 5.986 5.613l1.48.507a15.053 15.053 0 00-2.653 5.04h-18.56a.347.347 0 01-.32-.174.507.507 0 010-.506 26.002 26.002 0 002.267-8.574 17.466 17.466 0 00-1.334-9.04 21.333 21.333 0 00-2.666-4.2c-1.694-2.32-3.387-4.533-3.387-8.426-.046-2.358.241-4.71.853-6.987a12.56 12.56 0 014.587-6.547z" fill="url(#paint0_linear)"/><path d="M98 39.667a5.333 5.333 0 00-10.666 0H86a4 4 0 00-4 4v1.573A4 4 0 0079.334 49v5.334h-4A2.667 2.667 0 0072.667 57v6.027a2.667 2.667 0 001.174 2.213c.441.297.961.455 1.493.454.338.003.673-.06.987-.187l3.013-1.2v14.026a4 4 0 00-4 4v5.334a4 4 0 004 4H98a4 4 0 004-4v-5.334a4 4 0 00-4-4h-1.334V73A5.334 5.334 0 00102 67.667v-24a4 4 0 00-4-4zM92.668 37a2.667 2.667 0 110 5.333 2.667 2.667 0 010-5.333zM75.334 63.027V57h4v4.427l-4 1.6zM82 62.333V49c0-.736.596-1.333 1.333-1.333H86c.736 0 1.333.597 1.333 1.333v29.334H82v-16zm17.333 20v5.334c0 .736-.597 1.333-1.333 1.333H79.334A1.333 1.333 0 0178 87.667v-5.334c0-.736.596-1.333 1.333-1.333H98c.736 0 1.333.597 1.333 1.334zm-5.333-4h-4V73h4v5.334zm5.333-10.666a2.667 2.667 0 01-2.667 2.666H90V49a4 4 0 00-4-4h-1.334v-1.333c0-.737.597-1.334 1.334-1.334h2.08a5.333 5.333 0 009.173 0H98c.736 0 1.333.597 1.333 1.334v24z" fill="url(#paint1_linear)"/><path d="M28.667 55.667c.736 0 1.333-.597 1.333-1.333 0-5.654 5.574-8 5.827-8.094a1.334 1.334 0 10-.987-2.48c-.306.12-7.506 3.094-7.506 10.574 0 .736.597 1.333 1.333 1.333z" fill="url(#paint2_linear)"/><path d="M40.667 43.667a1.333 1.333 0 100-2.667 1.333 1.333 0 000 2.667z" fill="url(#paint3_linear)"/></g><defs><linearGradient id="paint0_linear" x1="21.995" y1="35.662" x2="87.16" y2="84.216" gradientUnits="userSpaceOnUse"><stop stop-color="#A83592"/><stop offset="1" stop-color="#4F4A9D"/></linearGradient><linearGradient id="paint1_linear" x1="72.667" y1="34.334" x2="119.163" y2="58.122" gradientUnits="userSpaceOnUse"><stop stop-color="#A83592"/><stop offset="1" stop-color="#4F4A9D"/></linearGradient><linearGradient id="paint2_linear" x1="27.334" y1="43.666" x2="38.966" y2="52.713" gradientUnits="userSpaceOnUse"><stop stop-color="#A83592"/><stop offset="1" stop-color="#4F4A9D"/></linearGradient><linearGradient id="paint3_linear" x1="39.333" y1="41" x2="42" y2="43.667" gradientUnits="userSpaceOnUse"><stop stop-color="#A83592"/><stop offset="1" stop-color="#4F4A9D"/></linearGradient><clipPath id="clip0"><path fill="#fff" transform="translate(22 29)" d="M0 0h80v80H0z"/></clipPath></defs></svg>