<svg width="102" height="109" fill="none" xmlns="http://www.w3.org/2000/svg"><circle cx="50" cy="50" r="50" fill="#FCF8F2"/><g opacity=".65" clip-path="url(#clip0)"><path d="M62 43.666c-19.6 0-36.4 10.414-39.933 24.84A2.95 2.95 0 0022 69a3.43 3.43 0 000 .573c3.6 14.347 20.4 24.76 40 24.76s36.4-10.413 40-24.84a2.899 2.899 0 000-.493 3.35 3.35 0 00-.067-.573C98.4 54.08 81.6 43.666 62 43.666zM29.627 65c.245 1.32.37 2.658.373 4a22.025 22.025 0 01-.373 4 11.72 11.72 0 01-3.547-4 11.842 11.842 0 013.547-4zm2.4-1.574a45.334 45.334 0 0112.786-4.613 19.894 19.894 0 000 20.4A45.785 45.785 0 0132.027 74.6a24.727 24.727 0 000-11.187v.014zm16.56 16.494a17.173 17.173 0 010-21.84 83.924 83.924 0 0126.84 0 17.213 17.213 0 010 21.84A82.857 82.857 0 0162 81a82.558 82.558 0 01-13.413-1.08zM82 69a20 20 0 00-2.8-10.2 48.418 48.418 0 0111.613 4 24.24 24.24 0 000 12.453 48.413 48.413 0 01-11.613 4A20.001 20.001 0 0082 69zm11.2 4.853a22.347 22.347 0 010-9.706A12.973 12.973 0 0197.92 69a12.972 12.972 0 01-4.72 4.853zM62 46.333c16.12 0 30.173 7.347 35.573 17.933-6.24-5.933-20-9.933-35.573-9.933s-29.16 4-35.48 9.84C32 53.586 46 46.333 62 46.333zm0 45.334c-16 0-30.027-7.28-35.493-17.854 6.32 5.853 20 9.853 35.493 9.853 15.493 0 29.147-4 35.467-9.826C91.987 84.413 78 91.666 62 91.666z" fill="url(#paint0_linear)"/><path d="M66.387 77.947a1.334 1.334 0 001.893 0l6.667-6.667a1.339 1.339 0 10-1.894-1.893l-6.666 6.666a1.334 1.334 0 000 1.894z" fill="url(#paint1_linear)"/><path d="M57.613 60.053a1.333 1.333 0 00-1.893 0l-6.667 6.667a1.334 1.334 0 000 1.893 1.334 1.334 0 001.894 0l6.666-6.667a1.333 1.333 0 000-1.893z" fill="url(#paint2_linear)"/><path d="M72.28 62.72a1.333 1.333 0 00-1.893 0L57.054 76.053a1.334 1.334 0 000 1.893 1.333 1.333 0 001.893 0L72.28 64.613a1.333 1.333 0 000-1.893z" fill="url(#paint3_linear)"/><path d="M66.947 60.053a1.334 1.334 0 00-1.894 0L51.72 73.386a1.334 1.334 0 000 1.894 1.334 1.334 0 001.894 0l13.333-13.334a1.333 1.333 0 000-1.893z" fill="url(#paint4_linear)"/></g><defs><linearGradient id="paint0_linear" x1="21.988" y1="43.666" x2="67.787" y2="116.002" gradientUnits="userSpaceOnUse"><stop stop-color="#A83592"/><stop offset="1" stop-color="#4F4A9D"/></linearGradient><linearGradient id="paint1_linear" x1="65.992" y1="68.995" x2="75.339" y2="78.341" gradientUnits="userSpaceOnUse"><stop stop-color="#A83592"/><stop offset="1" stop-color="#4F4A9D"/></linearGradient><linearGradient id="paint2_linear" x1="48.659" y1="59.659" x2="58.008" y2="69.007" gradientUnits="userSpaceOnUse"><stop stop-color="#A83592"/><stop offset="1" stop-color="#4F4A9D"/></linearGradient><linearGradient id="paint3_linear" x1="56.659" y1="62.325" x2="72.675" y2="78.341" gradientUnits="userSpaceOnUse"><stop stop-color="#A83592"/><stop offset="1" stop-color="#4F4A9D"/></linearGradient><linearGradient id="paint4_linear" x1="51.326" y1="59.659" x2="67.341" y2="75.674" gradientUnits="userSpaceOnUse"><stop stop-color="#A83592"/><stop offset="1" stop-color="#4F4A9D"/></linearGradient><clipPath id="clip0"><path fill="#fff" transform="translate(22 29)" d="M0 0h80v80H0z"/></clipPath></defs></svg>