<svg width="237" height="51" fill="none" xmlns="http://www.w3.org/2000/svg"><g opacity=".05" clip-path="url(#clip0)"><path d="M130.433 57.317c0 1.785.703 3.498 1.956 4.76a6.648 6.648 0 004.721 1.973 6.65 6.65 0 004.721-1.972 6.762 6.762 0 001.955-4.761 6.762 6.762 0 00-1.955-4.761 6.65 6.65 0 00-4.721-1.972 6.65 6.65 0 00-4.721 1.972 6.758 6.758 0 00-1.956 4.76z" fill="url(#paint0_linear)"/><path d="M90.373 57.317a6.76 6.76 0 001.956 4.76 6.649 6.649 0 004.721 1.973c1.77 0 3.469-.71 4.721-1.972a6.763 6.763 0 001.956-4.761 6.763 6.763 0 00-1.956-4.761 6.648 6.648 0 00-4.721-1.972c-1.77 0-3.469.71-4.721 1.972a6.762 6.762 0 00-1.956 4.76z" fill="url(#paint1_linear)"/><path d="M110.404 53.948a6.76 6.76 0 001.956 4.76 6.647 6.647 0 004.721 1.973 6.65 6.65 0 004.721-1.972 6.763 6.763 0 001.956-4.761 6.763 6.763 0 00-1.956-4.761 6.648 6.648 0 00-4.721-1.972 6.65 6.65 0 00-4.721 1.972 6.763 6.763 0 00-1.956 4.76z" fill="url(#paint2_linear)"/><path d="M147.126 45.534c0 2.232.879 4.373 2.444 5.951a8.31 8.31 0 005.901 2.465 8.31 8.31 0 005.902-2.465 8.453 8.453 0 002.444-5.95 8.452 8.452 0 00-2.444-5.952 8.31 8.31 0 00-5.902-2.465 8.31 8.31 0 00-5.901 2.465 8.452 8.452 0 00-2.444 5.951z" fill="url(#paint3_linear)"/><path d="M123.758 35.435a8.45 8.45 0 002.444 5.95 8.31 8.31 0 005.902 2.466 8.31 8.31 0 005.901-2.465 8.453 8.453 0 002.444-5.951 8.452 8.452 0 00-2.444-5.951 8.31 8.31 0 00-5.901-2.465 8.31 8.31 0 00-5.902 2.465 8.452 8.452 0 00-2.444 5.95z" fill="url(#paint4_linear)"/><path d="M97.05 35.435c0 2.232.88 4.372 2.444 5.95a8.31 8.31 0 005.901 2.466 8.31 8.31 0 005.902-2.465 8.453 8.453 0 002.444-5.951 8.452 8.452 0 00-2.444-5.951 8.31 8.31 0 00-5.901-2.465 8.31 8.31 0 00-5.902 2.465 8.452 8.452 0 00-2.444 5.95z" fill="url(#paint5_linear)"/><path d="M70.344 45.534c0 2.232.88 4.373 2.445 5.951a8.31 8.31 0 005.901 2.465 8.31 8.31 0 005.901-2.465 8.452 8.452 0 002.445-5.95c0-2.233-.88-4.373-2.445-5.952a8.31 8.31 0 00-5.9-2.465 8.31 8.31 0 00-5.902 2.465 8.452 8.452 0 00-2.445 5.951z" fill="url(#paint6_linear)"/><path d="M173.83 38.799a5.07 5.07 0 001.466 3.571 4.987 4.987 0 003.541 1.48 4.987 4.987 0 003.541-1.48 5.072 5.072 0 001.466-3.571c0-1.34-.527-2.624-1.466-3.57a4.987 4.987 0 00-3.541-1.48 4.987 4.987 0 00-3.541 1.48 5.072 5.072 0 00-1.466 3.57z" fill="url(#paint7_linear)"/><path d="M143.784 21.968c0 1.34.528 2.624 1.467 3.57a4.986 4.986 0 003.541 1.48 4.986 4.986 0 003.541-1.48 5.072 5.072 0 001.466-3.57c0-1.34-.527-2.624-1.466-3.57a4.986 4.986 0 00-3.541-1.48 4.986 4.986 0 00-3.541 1.48 5.072 5.072 0 00-1.467 3.57z" fill="url(#paint8_linear)"/><path d="M113.743 18.603c0 1.34.527 2.624 1.466 3.57a4.987 4.987 0 003.541 1.48 4.987 4.987 0 003.541-1.48 5.073 5.073 0 001.467-3.57c0-1.34-.528-2.624-1.467-3.571a4.986 4.986 0 00-3.541-1.48 4.986 4.986 0 00-3.541 1.48 5.071 5.071 0 00-1.466 3.57z" fill="url(#paint9_linear)"/><path d="M80.358 21.968c0 1.34.528 2.624 1.467 3.57a4.986 4.986 0 003.54 1.48 4.986 4.986 0 003.541-1.48 5.072 5.072 0 001.467-3.57c0-1.34-.528-2.624-1.467-3.57a4.986 4.986 0 00-3.54-1.48 4.986 4.986 0 00-3.541 1.48 5.072 5.072 0 00-1.467 3.57z" fill="url(#paint10_linear)"/><path d="M50.313 59c0 2.232.879 4.373 2.444 5.951a8.31 8.31 0 005.901 2.465 8.31 8.31 0 005.902-2.465A8.453 8.453 0 0067.004 59c0-2.232-.88-4.373-2.444-5.951a8.31 8.31 0 00-5.902-2.465 8.31 8.31 0 00-5.9 2.465A8.452 8.452 0 0050.312 59z" fill="url(#paint11_linear)"/><path d="M53.653 38.799a5.07 5.07 0 001.466 3.571 4.986 4.986 0 003.541 1.48 4.986 4.986 0 003.54-1.48 5.072 5.072 0 001.467-3.571c0-1.34-.527-2.624-1.466-3.57a4.986 4.986 0 00-3.54-1.48 4.986 4.986 0 00-3.542 1.48 5.072 5.072 0 00-1.466 3.57z" fill="url(#paint12_linear)"/><path d="M170.494 59c0 2.232.879 4.373 2.444 5.951a8.31 8.31 0 005.902 2.465 8.31 8.31 0 005.901-2.465A8.452 8.452 0 00187.185 59a8.452 8.452 0 00-2.444-5.951 8.31 8.31 0 00-5.901-2.465 8.31 8.31 0 00-5.902 2.465A8.452 8.452 0 00170.494 59z" fill="url(#paint13_linear)"/><path d="M96.588 6.81a3.915 3.915 0 001.45 2.554 3.744 3.744 0 002.783.785 3.683 3.683 0 002.486-1.442 3.85 3.85 0 00.732-2.827 3.916 3.916 0 00-1.45-2.554 3.747 3.747 0 00-2.783-.786 3.681 3.681 0 00-2.486 1.443 3.849 3.849 0 00-.732 2.826z" fill="url(#paint14_linear)"/><path d="M61.838 18.691c.815 2.065 3.044 3.163 4.974 2.45 1.93-.713 2.834-2.971 2.016-5.035-.819-2.064-3.045-3.163-4.974-2.45-1.931.71-2.836 2.968-2.016 5.035z" fill="url(#paint15_linear)"/><path d="M167.163 20.327c1.931.71 4.159-.384 4.976-2.453.819-2.063-.087-4.318-2.017-5.032-1.931-.71-4.159.384-4.975 2.453-.819 2.063.087 4.318 2.016 5.032z" fill="url(#paint16_linear)"/><path d="M136.365 8.398a3.765 3.765 0 002.794-.789 3.92 3.92 0 001.452-2.561 3.857 3.857 0 00-.738-2.833 3.7 3.7 0 00-2.498-1.446 3.762 3.762 0 00-2.793.789 3.922 3.922 0 00-1.453 2.56 3.857 3.857 0 00.739 2.834 3.7 3.7 0 002.497 1.446z" fill="url(#paint17_linear)"/><path d="M197.08 41.14a3.69 3.69 0 002.616 1.094 3.676 3.676 0 002.614-1.096 3.766 3.766 0 001.084-2.646 3.772 3.772 0 00-1.08-2.647 3.693 3.693 0 00-2.616-1.098 3.661 3.661 0 00-2.617 1.097 3.773 3.773 0 00.002 5.293l-.003.002z" fill="url(#paint18_linear)"/><path d="M33.786 40.711a3.688 3.688 0 002.615 1.096 3.664 3.664 0 002.615-1.097 3.77 3.77 0 001.084-2.646c0-.991-.388-1.943-1.08-2.647a3.69 3.69 0 00-2.617-1.098 3.662 3.662 0 00-2.616 1.097 3.773 3.773 0 00.001 5.293l-.002.002z" fill="url(#paint19_linear)"/></g><defs><linearGradient id="paint0_linear" x1="143.786" y1="50.584" x2="130.321" y2="63.937" gradientUnits="userSpaceOnUse"><stop stop-color="#A83592"/><stop offset="1" stop-color="#4F4A9D"/></linearGradient><linearGradient id="paint1_linear" x1="103.727" y1="50.584" x2="90.261" y2="63.937" gradientUnits="userSpaceOnUse"><stop stop-color="#A83592"/><stop offset="1" stop-color="#4F4A9D"/></linearGradient><linearGradient id="paint2_linear" x1="123.758" y1="47.215" x2="110.292" y2="60.568" gradientUnits="userSpaceOnUse"><stop stop-color="#A83592"/><stop offset="1" stop-color="#4F4A9D"/></linearGradient><linearGradient id="paint3_linear" x1="163.817" y1="37.118" x2="146.986" y2="53.809" gradientUnits="userSpaceOnUse"><stop stop-color="#A83592"/><stop offset="1" stop-color="#4F4A9D"/></linearGradient><linearGradient id="paint4_linear" x1="140.449" y1="27.019" x2="123.618" y2="43.709" gradientUnits="userSpaceOnUse"><stop stop-color="#A83592"/><stop offset="1" stop-color="#4F4A9D"/></linearGradient><linearGradient id="paint5_linear" x1="113.741" y1="27.019" x2="96.91" y2="43.709" gradientUnits="userSpaceOnUse"><stop stop-color="#A83592"/><stop offset="1" stop-color="#4F4A9D"/></linearGradient><linearGradient id="paint6_linear" x1="87.036" y1="37.118" x2="70.204" y2="53.809" gradientUnits="userSpaceOnUse"><stop stop-color="#A83592"/><stop offset="1" stop-color="#4F4A9D"/></linearGradient><linearGradient id="paint7_linear" x1="183.844" y1="33.749" x2="173.745" y2="43.764" gradientUnits="userSpaceOnUse"><stop stop-color="#A83592"/><stop offset="1" stop-color="#4F4A9D"/></linearGradient><linearGradient id="paint8_linear" x1="153.799" y1="16.918" x2="143.7" y2="26.933" gradientUnits="userSpaceOnUse"><stop stop-color="#A83592"/><stop offset="1" stop-color="#4F4A9D"/></linearGradient><linearGradient id="paint9_linear" x1="123.758" y1="13.553" x2="113.658" y2="23.567" gradientUnits="userSpaceOnUse"><stop stop-color="#A83592"/><stop offset="1" stop-color="#4F4A9D"/></linearGradient><linearGradient id="paint10_linear" x1="90.373" y1="16.918" x2="80.273" y2="26.933" gradientUnits="userSpaceOnUse"><stop stop-color="#A83592"/><stop offset="1" stop-color="#4F4A9D"/></linearGradient><linearGradient id="paint11_linear" x1="67.004" y1="50.584" x2="50.173" y2="67.275" gradientUnits="userSpaceOnUse"><stop stop-color="#A83592"/><stop offset="1" stop-color="#4F4A9D"/></linearGradient><linearGradient id="paint12_linear" x1="63.667" y1="33.749" x2="53.568" y2="43.764" gradientUnits="userSpaceOnUse"><stop stop-color="#A83592"/><stop offset="1" stop-color="#4F4A9D"/></linearGradient><linearGradient id="paint13_linear" x1="187.185" y1="50.584" x2="170.354" y2="67.275" gradientUnits="userSpaceOnUse"><stop stop-color="#A83592"/><stop offset="1" stop-color="#4F4A9D"/></linearGradient><linearGradient id="paint14_linear" x1="103.533" y1="2.077" x2="96.908" y2="10.466" gradientUnits="userSpaceOnUse"><stop stop-color="#A83592"/><stop offset="1" stop-color="#4F4A9D"/></linearGradient><linearGradient id="paint15_linear" x1="67.347" y1="12.372" x2="62.574" y2="22.058" gradientUnits="userSpaceOnUse"><stop stop-color="#A83592"/><stop offset="1" stop-color="#4F4A9D"/></linearGradient><linearGradient id="paint16_linear" x1="166.629" y1="11.558" x2="171.401" y2="21.244" gradientUnits="userSpaceOnUse"><stop stop-color="#A83592"/><stop offset="1" stop-color="#4F4A9D"/></linearGradient><linearGradient id="paint17_linear" x1="133.636" y1=".303" x2="140.277" y2="8.728" gradientUnits="userSpaceOnUse"><stop stop-color="#A83592"/><stop offset="1" stop-color="#4F4A9D"/></linearGradient><linearGradient id="paint18_linear" x1="199.698" y1="33.206" x2="199.698" y2="43.776" gradientUnits="userSpaceOnUse"><stop stop-color="#A83592"/><stop offset="1" stop-color="#4F4A9D"/></linearGradient><linearGradient id="paint19_linear" x1="36.404" y1="32.778" x2="36.404" y2="43.348" gradientUnits="userSpaceOnUse"><stop stop-color="#A83592"/><stop offset="1" stop-color="#4F4A9D"/></linearGradient><clipPath id="clip0"><path fill="#fff" d="M0 0h237v51H0z"/></clipPath></defs></svg>