<svg width="18" height="18" fill="none" xmlns="http://www.w3.org/2000/svg"><path d="M12.198 11.99l.012-.015.012-.016a.85.85 0 011.148-.232l2.916 1.906c.14.099.325.268.461.46.145.206.182.362.168.458-.008.052-.066.236-.217.504a4.04 4.04 0 01-.636.836c-.555.562-1.362 1.047-2.45 1.047-1.128 0-2.438-.447-3.826-1.258-1.381-.806-2.803-1.951-4.145-3.293-1.342-1.342-2.494-2.765-3.308-4.15-.817-1.391-1.27-2.708-1.27-3.85 0-1.116.448-1.915.98-2.453.55-.556 1.164-.81 1.43-.848a.579.579 0 01.499.13c.127.107.22.243.337.414l.057.084L6.273 4.63a.85.85 0 01-.232 1.148l-.016.012-.016.012c-.03.026-.065.053-.101.083-.376.301-1.008.81-1.07 1.662-.067.919.525 2.039 2.065 3.579 1.538 1.538 2.654 2.126 3.57 2.05.835-.07 1.337-.7 1.634-1.072l.09-.113z" stroke="url(#paint0_linear)"/><defs><linearGradient id="paint0_linear" x1=".563" y1=".577" x2="17.423" y2="17.432" gradientUnits="userSpaceOnUse"><stop stop-color="#A83592"/><stop offset="1" stop-color="#4F4A9D"/></linearGradient></defs></svg>