<svg width="188" height="72" fill="none" xmlns="http://www.w3.org/2000/svg"><path fill-rule="evenodd" clip-rule="evenodd" d="M37.6 21.295c-8.384 0-15.244 6.845-15.244 15.212 0 8.366 6.86 15.21 15.244 15.21 8.383 0 15.243-6.844 15.243-15.21-.095-8.366-6.86-15.212-15.243-15.212zm0 26.715c-6.383 0-11.528-5.134-11.528-11.503 0-6.37 5.145-11.504 11.528-11.504 6.383 0 11.432 5.134 11.432 11.504 0 6.37-5.144 11.503-11.432 11.503z" fill="#504B99"/><path d="M37.6 41.577a5.076 5.076 0 005.08-5.07c0-2.8-2.274-5.07-5.08-5.07a5.076 5.076 0 00-5.081 5.07c0 2.8 2.274 5.07 5.08 5.07z" fill="#A69AC8"/><path d="M61.48 19.267a1.522 1.522 0 10.001-3.042c-.842 0-1.525.681-1.525 1.521 0 .84.683 1.521 1.525 1.521z" fill="url(#paint0_linear)"/><path d="M52.843 49.69a2.03 2.03 0 002.032-2.028 2.03 2.03 0 00-2.032-2.028 2.03 2.03 0 00-2.033 2.028c0 1.12.91 2.028 2.033 2.028z" fill="url(#paint1_linear)"/><path d="M24.389 22.31a2.03 2.03 0 002.032-2.028 2.03 2.03 0 00-2.032-2.029 2.03 2.03 0 00-2.033 2.029c0 1.12.91 2.028 2.033 2.028z" fill="url(#paint2_linear)"/><path d="M52.843 26.366a2.03 2.03 0 002.032-2.028 2.03 2.03 0 00-2.032-2.028 2.03 2.03 0 00-2.033 2.028c0 1.12.91 2.028 2.033 2.028z" fill="url(#paint3_linear)"/><path d="M48.778 22.31a2.03 2.03 0 002.032-2.028 2.03 2.03 0 00-2.032-2.029 2.03 2.03 0 00-2.032 2.029c0 1.12.91 2.028 2.032 2.028z" fill="url(#paint4_linear)"/><path d="M55.384 20.281a2.538 2.538 0 002.54-2.535c0-1.4-1.137-2.535-2.54-2.535a2.538 2.538 0 00-2.54 2.535c0 1.4 1.137 2.535 2.54 2.535z" fill="url(#paint5_linear)"/><path d="M55.384 12.169a1.522 1.522 0 100-3.043c-.842 0-1.525.681-1.525 1.522 0 .84.683 1.52 1.525 1.52z" fill="url(#paint6_linear)"/><path d="M20.324 49.69a2.03 2.03 0 002.032-2.028 2.03 2.03 0 00-2.032-2.028 2.03 2.03 0 00-2.033 2.028c0 1.12.91 2.028 2.033 2.028z" fill="url(#paint7_linear)"/><path d="M17.276 32.45a2.03 2.03 0 002.032-2.028 2.03 2.03 0 00-2.032-2.028 2.03 2.03 0 00-2.033 2.028c0 1.12.91 2.028 2.033 2.028z" fill="url(#paint8_linear)"/><path d="M20.324 26.366a2.03 2.03 0 002.032-2.028 2.03 2.03 0 00-2.032-2.028 2.03 2.03 0 00-2.033 2.028c0 1.12.91 2.028 2.033 2.028z" fill="url(#paint9_linear)"/><path d="M17.276 44.62a2.03 2.03 0 002.032-2.028 2.03 2.03 0 00-2.032-2.029 2.03 2.03 0 00-2.033 2.029c0 1.12.91 2.028 2.033 2.028z" fill="url(#paint10_linear)"/><path d="M16.26 38.535a2.03 2.03 0 002.032-2.028 2.03 2.03 0 00-2.033-2.029 2.03 2.03 0 00-2.032 2.029c0 1.12.91 2.028 2.032 2.028z" fill="url(#paint11_linear)"/><path d="M13.719 27.38a2.538 2.538 0 002.54-2.535c0-1.4-1.137-2.535-2.54-2.535a2.538 2.538 0 00-2.54 2.535c0 1.4 1.137 2.535 2.54 2.535z" fill="url(#paint12_linear)"/><path d="M10.67 34.479a2.538 2.538 0 002.54-2.536c0-1.4-1.137-2.535-2.54-2.535a2.538 2.538 0 00-2.54 2.535c0 1.4 1.137 2.536 2.54 2.536z" fill="url(#paint13_linear)"/><path d="M10.67 42.591a2.538 2.538 0 002.54-2.535c0-1.4-1.137-2.535-2.54-2.535a2.538 2.538 0 00-2.54 2.535c0 1.4 1.137 2.535 2.54 2.535z" fill="url(#paint14_linear)"/><path d="M13.719 50.704a2.538 2.538 0 002.54-2.535c0-1.4-1.137-2.535-2.54-2.535a2.538 2.538 0 00-2.54 2.535c0 1.4 1.137 2.535 2.54 2.535z" fill="url(#paint15_linear)"/><path d="M11.686 19.267c.842 0 1.525-.68 1.525-1.52a1.524 1.524 0 00-3.049-.001c0 .84.683 1.521 1.524 1.521z" fill="url(#paint16_linear)"/><path d="M6.605 28.394c.842 0 1.525-.68 1.525-1.52a1.524 1.524 0 00-3.049-.001c0 .84.683 1.521 1.524 1.521z" fill="url(#paint17_linear)"/><path d="M5.589 37.52a1.521 1.521 0 100-3.042c-.842 0-1.525.682-1.525 1.522s.683 1.52 1.525 1.52z" fill="url(#paint18_linear)"/><path d="M6.605 47.662c.842 0 1.525-.681 1.525-1.521 0-.84-.683-1.521-1.525-1.521a1.522 1.522 0 100 3.042z" fill="url(#paint19_linear)"/><path d="M36.584 57.803a2.03 2.03 0 002.032-2.028 2.03 2.03 0 00-2.032-2.028 2.03 2.03 0 00-2.033 2.028c0 1.12.91 2.028 2.033 2.028z" fill="url(#paint20_linear)"/><path d="M42.68 57.803a2.03 2.03 0 002.033-2.028 2.03 2.03 0 00-2.032-2.028 2.03 2.03 0 00-2.033 2.028c0 1.12.91 2.028 2.033 2.028z" fill="url(#paint21_linear)"/><path d="M48.778 54.76a2.03 2.03 0 002.032-2.028 2.03 2.03 0 00-2.032-2.028 2.03 2.03 0 00-2.032 2.028c0 1.12.91 2.028 2.032 2.028z" fill="url(#paint22_linear)"/><path d="M24.389 54.76a2.03 2.03 0 002.032-2.028 2.03 2.03 0 00-2.032-2.028 2.03 2.03 0 00-2.033 2.028c0 1.12.91 2.028 2.033 2.028z" fill="url(#paint23_linear)"/><path d="M30.486 57.803a2.03 2.03 0 002.033-2.028 2.03 2.03 0 00-2.032-2.028 2.03 2.03 0 00-2.033 2.028c0 1.12.91 2.028 2.032 2.028z" fill="url(#paint24_linear)"/><path d="M24.897 61.859a2.538 2.538 0 002.54-2.535c0-1.4-1.137-2.535-2.54-2.535a2.538 2.538 0 00-2.54 2.535c0 1.4 1.137 2.535 2.54 2.535z" fill="url(#paint25_linear)"/><path d="M33.027 63.887a2.538 2.538 0 002.54-2.535c0-1.4-1.137-2.535-2.54-2.535a2.538 2.538 0 00-2.54 2.535c0 1.4 1.137 2.535 2.54 2.535z" fill="url(#paint26_linear)"/><path d="M41.157 63.887a2.538 2.538 0 002.54-2.535c0-1.4-1.137-2.535-2.54-2.535a2.538 2.538 0 00-2.54 2.535c0 1.4 1.137 2.535 2.54 2.535z" fill="url(#paint27_linear)"/><path d="M48.27 61.859a2.538 2.538 0 002.54-2.535c0-1.4-1.137-2.535-2.54-2.535a2.538 2.538 0 00-2.54 2.535c0 1.4 1.137 2.535 2.54 2.535z" fill="url(#paint28_linear)"/><path d="M55.384 56.789a2.538 2.538 0 002.54-2.535c0-1.4-1.137-2.536-2.54-2.536a2.538 2.538 0 00-2.54 2.535c0 1.4 1.137 2.536 2.54 2.536z" fill="url(#paint29_linear)"/><path d="M17.784 56.789a2.538 2.538 0 002.54-2.535c0-1.4-1.137-2.536-2.54-2.536a2.538 2.538 0 00-2.54 2.535c0 1.4 1.137 2.536 2.54 2.536z" fill="url(#paint30_linear)"/><path d="M18.8 62.873a1.521 1.521 0 100-3.042c-.842 0-1.525.681-1.525 1.521 0 .84.683 1.521 1.525 1.521z" fill="url(#paint31_linear)"/><path d="M26.93 66.93a1.523 1.523 0 100-3.042c-.842 0-1.525.68-1.525 1.52s.683 1.522 1.525 1.522z" fill="url(#paint32_linear)"/><path d="M37.092 68.958a1.522 1.522 0 100-3.043c-.842 0-1.525.682-1.525 1.522s.683 1.52 1.525 1.52z" fill="url(#paint33_linear)"/><path d="M46.238 66.93a1.523 1.523 0 100-3.042c-.842 0-1.525.68-1.525 1.52s.683 1.522 1.525 1.522z" fill="url(#paint34_linear)"/><path d="M55.384 62.873a1.521 1.521 0 100-3.042c-.842 0-1.525.681-1.525 1.521 0 .84.683 1.521 1.525 1.521z" fill="url(#paint35_linear)"/><path d="M61.48 55.775a1.523 1.523 0 10.001-3.043c-.842 0-1.525.681-1.525 1.522 0 .84.683 1.52 1.525 1.52z" fill="url(#paint36_linear)"/><path d="M11.686 55.775c.842 0 1.525-.681 1.525-1.521 0-.84-.683-1.522-1.525-1.522a1.523 1.523 0 100 3.042z" fill="url(#paint37_linear)"/><path d="M36.584 18.254a2.03 2.03 0 002.032-2.029 2.03 2.03 0 00-2.032-2.028 2.03 2.03 0 00-2.033 2.028c0 1.12.91 2.029 2.033 2.029z" fill="url(#paint38_linear)"/><path d="M42.68 19.267a2.03 2.03 0 002.033-2.028 2.03 2.03 0 00-2.032-2.028 2.03 2.03 0 00-2.033 2.028c0 1.12.91 2.028 2.033 2.028z" fill="url(#paint39_linear)"/><path d="M30.486 19.267a2.03 2.03 0 002.033-2.028 2.03 2.03 0 00-2.032-2.028 2.03 2.03 0 00-2.033 2.028c0 1.12.91 2.028 2.032 2.028z" fill="url(#paint40_linear)"/><path d="M24.897 15.211a2.538 2.538 0 002.54-2.535c0-1.4-1.137-2.535-2.54-2.535a2.538 2.538 0 00-2.54 2.535c0 1.4 1.137 2.535 2.54 2.535z" fill="url(#paint41_linear)"/><path d="M17.784 20.281a2.538 2.538 0 002.54-2.535c0-1.4-1.137-2.535-2.54-2.535a2.538 2.538 0 00-2.54 2.535c0 1.4 1.137 2.535 2.54 2.535z" fill="url(#paint42_linear)"/><path d="M48.27 15.211a2.538 2.538 0 002.54-2.535c0-1.4-1.137-2.535-2.54-2.535a2.538 2.538 0 00-2.54 2.535c0 1.4 1.137 2.535 2.54 2.535z" fill="url(#paint43_linear)"/><path d="M41.157 13.183a2.538 2.538 0 002.54-2.535c0-1.4-1.137-2.536-2.54-2.536a2.538 2.538 0 00-2.54 2.536c0 1.4 1.137 2.535 2.54 2.535z" fill="url(#paint44_linear)"/><path d="M33.027 13.183a2.538 2.538 0 002.54-2.535c0-1.4-1.137-2.536-2.54-2.536a2.538 2.538 0 00-2.54 2.536c0 1.4 1.137 2.535 2.54 2.535z" fill="url(#paint45_linear)"/><path d="M26.93 8.113a1.523 1.523 0 100-3.042c-.842 0-1.525.68-1.525 1.52s.683 1.522 1.525 1.522z" fill="url(#paint46_linear)"/><path d="M18.8 12.169a1.522 1.522 0 100-3.043c-.842 0-1.525.681-1.525 1.522 0 .84.683 1.52 1.525 1.52z" fill="url(#paint47_linear)"/><path d="M46.238 8.113a1.523 1.523 0 100-3.042c-.842 0-1.525.68-1.525 1.52s.683 1.522 1.525 1.522z" fill="url(#paint48_linear)"/><path d="M37.092 7.098a1.521 1.521 0 100-3.042c-.842 0-1.525.681-1.525 1.521 0 .84.683 1.521 1.525 1.521z" fill="url(#paint49_linear)"/><path d="M2.058 42.768a1.128 1.128 0 00.94-1.287 1.125 1.125 0 00-1.29-.932 1.128 1.128 0 00-.941 1.287c.097.613.675 1.03 1.29.932zm3.718 10.298a1.124 1.124 0 10-1.023-2.003 1.124 1.124 0 101.023 2.003zm37.62-51.374a1.126 1.126 0 00-.94-1.285 1.127 1.127 0 00-1.291.933 1.126 1.126 0 00.94 1.286 1.127 1.127 0 001.291-.934zM6.271 20.78a1.129 1.129 0 00-2.012-1.023 1.129 1.129 0 002.012 1.023zM31.35 2.707a1.126 1.126 0 00.939-1.286 1.127 1.127 0 00-1.292-.933 1.126 1.126 0 00-.94 1.286c.098.612.676 1.03 1.292.933zm22.4 2.744a1.129 1.129 0 00-2.012-1.023 1.129 1.129 0 002.012 1.023zM3.04 30.881a1.128 1.128 0 00-.94-1.287 1.125 1.125 0 00-1.29.932c-.098.613.323 1.19.94 1.287a1.125 1.125 0 001.29-.932zm50.2 37.511a1.124 1.124 0 10-1.023-2.003 1.124 1.124 0 101.023 2.003zm-20.934 2.6a1.126 1.126 0 00-.94-1.286 1.127 1.127 0 00-1.292.933 1.126 1.126 0 00.94 1.286 1.127 1.127 0 001.292-.933zm10.138.879a1.126 1.126 0 00.94-1.286 1.127 1.127 0 00-1.292-.933 1.126 1.126 0 00-.94 1.286c.098.612.676 1.03 1.292.933zm20.038-59.69c.44-.44.44-1.152 0-1.591a1.13 1.13 0 00-1.595 0 1.124 1.124 0 000 1.591c.44.44 1.154.44 1.595 0zm-.029 49.539c.44-.44.44-1.153 0-1.592a1.13 1.13 0 00-1.596 0c-.44.44-.44 1.153 0 1.592a1.13 1.13 0 001.596 0zM12.6 12.218c.44-.44.44-1.152 0-1.591a1.13 1.13 0 00-1.595 0 1.122 1.122 0 000 1.59c.44.44 1.154.44 1.594.001zm-.03 49.53c.44-.44.44-1.152 0-1.591a1.13 1.13 0 00-1.595 0 1.124 1.124 0 000 1.591c.44.44 1.154.44 1.595 0zm8.665-55.785a1.124 1.124 0 10-1.023-2.004 1.124 1.124 0 101.023 2.004zm.493 61.937a1.129 1.129 0 00-2.012-1.023 1.129 1.129 0 002.012 1.023zm48.217-12.17h.375v5.318h-.375v-5.319zm2.809 0h.374v2.523h3.464V55.73h.375v5.318h-.375v-2.524h-3.464v2.524h-.374v-5.319zm8.894-.09c.655 0 1.404.18 1.966.63l-.187.27c-.468-.36-1.124-.63-1.779-.63-1.404 0-2.434.991-2.434 2.433 0 1.352.936 2.434 2.434 2.434.655 0 1.404-.27 1.872-.72l.188.27c-.468.45-1.124.81-2.06.81-1.685 0-2.809-1.261-2.809-2.794 0-1.532 1.217-2.704 2.809-2.704zm5.336.36h-2.06v-.27h4.494V56h-2.06v5.048h-.374V56zm4.119-.27h.375v4.776s.28-.45.468-.72l3.09-4.147h.28v5.319h-.374v-4.779s-.281.45-.468.631l-3.183 4.147h-.281v-5.229h.093zm7.958.27h-2.06v-.27h4.494V56h-2.06v5.048h-.374V56zm4.213 4.597c.094.09.375.27.656.27.374 0 .561-.36.749-.811l-2.247-4.237h.374l1.685 3.245c.188.27.281.721.281.721s.094-.36.281-.72l1.217-3.246h.375l-1.873 4.597c-.187.451-.468.812-.936.812-.281 0-.562-.18-.843-.27l.281-.361zM109.827 56h-2.059v-.27h4.493V56h-2.059v5.048h-.375V56zm9.175-.36c1.498 0 2.809 1.171 2.809 2.703a2.783 2.783 0 01-2.809 2.795c-1.498 0-2.809-1.262-2.809-2.795 0-1.532 1.217-2.704 2.809-2.704zm0 5.137c1.311 0 2.434-1.081 2.434-2.434 0-1.352-1.123-2.433-2.434-2.433-1.311 0-2.434 1.081-2.434 2.433 0 1.443 1.03 2.434 2.434 2.434zM125.93 56v-.631h.374v.63c1.592 0 2.622.812 2.622 2.254s-1.03 2.254-2.622 2.254v.72h-.374v-.72c-1.592 0-2.621-.812-2.621-2.254S124.432 56 125.93 56zm0 4.146V56.27c-1.404 0-2.247.721-2.247 1.893 0 1.352.843 1.983 2.247 1.983zm2.621-1.893c0-1.262-.842-1.893-2.247-1.893v3.876c1.405-.09 2.247-.72 2.247-1.983zM131.922 56h-2.06v-.27h4.494V56h-2.06v5.048h-.374V56zm5.055-.27h.374l2.06 5.318h-.374l-.749-1.803h-2.341l-.749 1.803h-.374l2.153-5.319zm1.217 3.154l-.843-2.163c-.093-.27-.187-.63-.187-.63s-.093.45-.187.63l-.843 2.163h2.06zm3.558-2.254v-.9h2.808v5.318h-.374V56h-2.06v.63c0 2.525-.187 4.328-1.685 4.508v-.36c1.03-.18 1.311-1.803 1.311-4.147zm5.243-.9h.374v2.253h1.311c.842 0 1.591.45 1.591 1.532 0 .902-.655 1.533-1.498 1.533h-1.778v-5.319zm1.685 5.047c.749 0 1.217-.45 1.217-1.172 0-.81-.468-1.261-1.217-1.261h-1.311v2.433h1.311zm3.651-5.047h.374l1.592 3.335c.094.27.281.63.281.63s.187-.36.281-.63l1.591-3.335h.375l.468 5.318h-.375l-.374-4.056v-.722s-.187.451-.281.721l-1.498 3.065h-.374l-1.498-3.064c-.094-.271-.281-.722-.281-.722v.721l-.375 4.057h-.374l.468-5.319zm9.549-.09c1.498 0 2.808 1.171 2.808 2.703a2.783 2.783 0 01-2.808 2.795c-1.498 0-2.809-1.262-2.809-2.795 0-1.532 1.217-2.704 2.809-2.704zm0 5.137c1.311 0 2.434-1.081 2.434-2.434 0-1.352-1.123-2.433-2.434-2.433-1.311 0-2.434 1.081-2.434 2.433 0 1.443 1.03 2.434 2.434 2.434zm5.243-4.147v-.9h2.808v5.318h-.374V56h-2.154v.63c0 2.525-.187 4.328-1.685 4.508v-.36c1.124-.18 1.405-1.803 1.405-4.147zm7.677-.99c1.498 0 2.808 1.171 2.808 2.703a2.783 2.783 0 01-2.808 2.795c-1.498 0-2.809-1.262-2.809-2.795 0-1.532 1.217-2.704 2.809-2.704zm0 5.137c1.31 0 2.434-1.081 2.434-2.434 0-1.352-1.124-2.433-2.434-2.433-1.311 0-2.434 1.081-2.434 2.433-.094 1.443 1.03 2.434 2.434 2.434zm4.774-5.047h2.809V56h-2.434v5.048h-.375v-5.319zm4.494 0h.374v5.318h-.374v-5.319zm2.153-1.263h.375v.541h-.375v-.54zm.562 1.262h.374v5.319h-.374v-5.319zm.562-1.262h.374v.541h-.374v-.54z" fill="#923A8E"/><path d="M70.981 21.756c3.773 0 7.922 1.107 10.752 3.78l-2.075 3.042c-2.17-1.843-5.47-3.134-8.488-3.134-6.79 0-10.846 4.886-10.846 10.97 0 6.085 4.15 11.34 10.94 11.34 3.301 0 6.696-1.383 9.054-3.78l2.17 2.858c-2.547 2.489-6.131 4.517-11.412 4.517-9.149 0-15.09-6.637-15.09-15.027 0-8.205 6.224-14.566 14.995-14.566zm15.184.461h4.15v18.53c0 4.425 2.923 7.007 7.45 7.007s7.451-2.581 7.451-7.007v-18.53h4.149V40.84c0 6.453-4.621 10.694-11.505 10.694-6.885 0-11.6-4.241-11.6-10.694V22.217h-.095zm30.18 0h4.149v25.26h13.204v3.503h-17.353V22.217zm30.085 0h4.338l10.563 28.763h-4.244l-2.924-8.297h-11.128l-2.924 8.297h-4.244l10.563-28.763zm6.696 17.148l-3.207-9.127c-.471-1.475-1.131-4.149-1.131-4.149h-.095s-.66 2.582-1.131 4.149l-3.301 9.127h8.865zm12.072-17.148h9.337c2.829 0 4.244.277 5.47.738 2.829 1.198 4.621 3.872 4.621 7.56 0 3.687-2.075 6.821-5.282 7.928v.092s.378.369.849 1.29l6.225 11.155h-4.622l-6.13-11.431h-6.319V50.98h-4.149V22.217zm10.091 13.829c3.207 0 5.281-2.12 5.281-5.255 0-2.12-.943-3.78-2.735-4.517-.754-.37-1.697-.461-3.583-.461h-4.905v10.233h5.942z" fill="#504B99"/><defs><linearGradient id="paint0_linear" x1="-5.926" y1="18.11" x2="66.056" y2="17.686" gradientUnits="userSpaceOnUse"><stop stop-color="#504B99"/><stop offset="1" stop-color="#923A8E"/></linearGradient><linearGradient id="paint1_linear" x1="-18.301" y1="48.049" x2="68.077" y2="47.54" gradientUnits="userSpaceOnUse"><stop stop-color="#504B99"/><stop offset="1" stop-color="#923A8E"/></linearGradient><linearGradient id="paint2_linear" x1="-16.45" y1="20.558" x2="69.929" y2="20.049" gradientUnits="userSpaceOnUse"><stop stop-color="#504B99"/><stop offset="1" stop-color="#923A8E"/></linearGradient><linearGradient id="paint3_linear" x1="-18.452" y1="24.75" x2="67.926" y2="24.24" gradientUnits="userSpaceOnUse"><stop stop-color="#504B99"/><stop offset="1" stop-color="#923A8E"/></linearGradient><linearGradient id="paint4_linear" x1="-17.668" y1="20.709" x2="68.71" y2="20.2" gradientUnits="userSpaceOnUse"><stop stop-color="#504B99"/><stop offset="1" stop-color="#923A8E"/></linearGradient><linearGradient id="paint5_linear" x1="-8.041" y1="18.151" x2="66.423" y2="17.712" gradientUnits="userSpaceOnUse"><stop stop-color="#504B99"/><stop offset="1" stop-color="#923A8E"/></linearGradient><linearGradient id="paint6_linear" x1="-5.878" y1="11.036" x2="66.104" y2="10.612" gradientUnits="userSpaceOnUse"><stop stop-color="#504B99"/><stop offset="1" stop-color="#923A8E"/></linearGradient><linearGradient id="paint7_linear" x1="-15.457" y1="47.841" x2="70.921" y2="47.332" gradientUnits="userSpaceOnUse"><stop stop-color="#504B99"/><stop offset="1" stop-color="#923A8E"/></linearGradient><linearGradient id="paint8_linear" x1="-15.471" y1="30.602" x2="70.908" y2="30.093" gradientUnits="userSpaceOnUse"><stop stop-color="#504B99"/><stop offset="1" stop-color="#923A8E"/></linearGradient><linearGradient id="paint9_linear" x1="-15.608" y1="24.542" x2="70.77" y2="24.033" gradientUnits="userSpaceOnUse"><stop stop-color="#504B99"/><stop offset="1" stop-color="#923A8E"/></linearGradient><linearGradient id="paint10_linear" x1="-15.391" y1="42.759" x2="70.987" y2="42.25" gradientUnits="userSpaceOnUse"><stop stop-color="#504B99"/><stop offset="1" stop-color="#923A8E"/></linearGradient><linearGradient id="paint11_linear" x1="-15.431" y1="36.658" x2="70.948" y2="36.149" gradientUnits="userSpaceOnUse"><stop stop-color="#504B99"/><stop offset="1" stop-color="#923A8E"/></linearGradient><linearGradient id="paint12_linear" x1="-10.862" y1="24.947" x2="63.602" y2="24.508" gradientUnits="userSpaceOnUse"><stop stop-color="#504B99"/><stop offset="1" stop-color="#923A8E"/></linearGradient><linearGradient id="paint13_linear" x1="-11.503" y1="32.071" x2="62.961" y2="31.632" gradientUnits="userSpaceOnUse"><stop stop-color="#504B99"/><stop offset="1" stop-color="#923A8E"/></linearGradient><linearGradient id="paint14_linear" x1="-11.459" y1="40.157" x2="63.006" y2="39.718" gradientUnits="userSpaceOnUse"><stop stop-color="#504B99"/><stop offset="1" stop-color="#923A8E"/></linearGradient><linearGradient id="paint15_linear" x1="-10.732" y1="48.323" x2="63.732" y2="47.884" gradientUnits="userSpaceOnUse"><stop stop-color="#504B99"/><stop offset="1" stop-color="#923A8E"/></linearGradient><linearGradient id="paint16_linear" x1="-10.331" y1="17.844" x2="61.651" y2="17.419" gradientUnits="userSpaceOnUse"><stop stop-color="#504B99"/><stop offset="1" stop-color="#923A8E"/></linearGradient><linearGradient id="paint17_linear" x1="-11.386" y1="26.975" x2="60.596" y2="26.551" gradientUnits="userSpaceOnUse"><stop stop-color="#504B99"/><stop offset="1" stop-color="#923A8E"/></linearGradient><linearGradient id="paint18_linear" x1="-10.997" y1="36.123" x2="60.985" y2="35.699" gradientUnits="userSpaceOnUse"><stop stop-color="#504B99"/><stop offset="1" stop-color="#923A8E"/></linearGradient><linearGradient id="paint19_linear" x1="-11.284" y1="46.218" x2="60.698" y2="45.794" gradientUnits="userSpaceOnUse"><stop stop-color="#504B99"/><stop offset="1" stop-color="#923A8E"/></linearGradient><linearGradient id="paint20_linear" x1="-16.826" y1="56.122" x2="69.552" y2="55.612" gradientUnits="userSpaceOnUse"><stop stop-color="#504B99"/><stop offset="1" stop-color="#923A8E"/></linearGradient><linearGradient id="paint21_linear" x1="-17.442" y1="56.108" x2="68.936" y2="55.599" gradientUnits="userSpaceOnUse"><stop stop-color="#504B99"/><stop offset="1" stop-color="#923A8E"/></linearGradient><linearGradient id="paint22_linear" x1="-17.46" y1="53.148" x2="68.918" y2="52.639" gradientUnits="userSpaceOnUse"><stop stop-color="#504B99"/><stop offset="1" stop-color="#923A8E"/></linearGradient><linearGradient id="paint23_linear" x1="-16.242" y1="52.998" x2="70.137" y2="52.488" gradientUnits="userSpaceOnUse"><stop stop-color="#504B99"/><stop offset="1" stop-color="#923A8E"/></linearGradient><linearGradient id="paint24_linear" x1="-16.223" y1="56.029" x2="70.156" y2="55.52" gradientUnits="userSpaceOnUse"><stop stop-color="#504B99"/><stop offset="1" stop-color="#923A8E"/></linearGradient><linearGradient id="paint25_linear" x1="-10.092" y1="59.548" x2="64.372" y2="59.109" gradientUnits="userSpaceOnUse"><stop stop-color="#504B99"/><stop offset="1" stop-color="#923A8E"/></linearGradient><linearGradient id="paint26_linear" x1="-9.219" y1="61.601" x2="65.245" y2="61.162" gradientUnits="userSpaceOnUse"><stop stop-color="#504B99"/><stop offset="1" stop-color="#923A8E"/></linearGradient><linearGradient id="paint27_linear" x1="-8.623" y1="61.645" x2="65.841" y2="61.206" gradientUnits="userSpaceOnUse"><stop stop-color="#504B99"/><stop offset="1" stop-color="#923A8E"/></linearGradient><linearGradient id="paint28_linear" x1="-8.794" y1="59.678" x2="65.67" y2="59.239" gradientUnits="userSpaceOnUse"><stop stop-color="#504B99"/><stop offset="1" stop-color="#923A8E"/></linearGradient><linearGradient id="paint29_linear" x1="-7.839" y1="54.647" x2="66.625" y2="54.208" gradientUnits="userSpaceOnUse"><stop stop-color="#504B99"/><stop offset="1" stop-color="#923A8E"/></linearGradient><linearGradient id="paint30_linear" x1="-11.099" y1="54.446" x2="63.365" y2="54.007" gradientUnits="userSpaceOnUse"><stop stop-color="#504B99"/><stop offset="1" stop-color="#923A8E"/></linearGradient><linearGradient id="paint31_linear" x1="-9.169" y1="61.541" x2="62.813" y2="61.116" gradientUnits="userSpaceOnUse"><stop stop-color="#504B99"/><stop offset="1" stop-color="#923A8E"/></linearGradient><linearGradient id="paint32_linear" x1="-8.891" y1="65.647" x2="63.091" y2="65.222" gradientUnits="userSpaceOnUse"><stop stop-color="#504B99"/><stop offset="1" stop-color="#923A8E"/></linearGradient><linearGradient id="paint33_linear" x1="-7.359" y1="67.659" x2="64.623" y2="67.235" gradientUnits="userSpaceOnUse"><stop stop-color="#504B99"/><stop offset="1" stop-color="#923A8E"/></linearGradient><linearGradient id="paint34_linear" x1="-6.858" y1="65.749" x2="65.124" y2="65.324" gradientUnits="userSpaceOnUse"><stop stop-color="#504B99"/><stop offset="1" stop-color="#923A8E"/></linearGradient><linearGradient id="paint35_linear" x1="-5.611" y1="61.734" x2="66.371" y2="61.31" gradientUnits="userSpaceOnUse"><stop stop-color="#504B99"/><stop offset="1" stop-color="#923A8E"/></linearGradient><linearGradient id="paint36_linear" x1="-5.732" y1="54.649" x2="66.25" y2="54.224" gradientUnits="userSpaceOnUse"><stop stop-color="#504B99"/><stop offset="1" stop-color="#923A8E"/></linearGradient><linearGradient id="paint37_linear" x1="-10.137" y1="54.382" x2="61.845" y2="53.958" gradientUnits="userSpaceOnUse"><stop stop-color="#504B99"/><stop offset="1" stop-color="#923A8E"/></linearGradient><linearGradient id="paint38_linear" x1="-17.083" y1="16.571" x2="69.295" y2="16.062" gradientUnits="userSpaceOnUse"><stop stop-color="#504B99"/><stop offset="1" stop-color="#923A8E"/></linearGradient><linearGradient id="paint39_linear" x1="-17.686" y1="17.576" x2="68.692" y2="17.067" gradientUnits="userSpaceOnUse"><stop stop-color="#504B99"/><stop offset="1" stop-color="#923A8E"/></linearGradient><linearGradient id="paint40_linear" x1="-16.467" y1="17.497" x2="69.911" y2="16.988" gradientUnits="userSpaceOnUse"><stop stop-color="#504B99"/><stop offset="1" stop-color="#923A8E"/></linearGradient><linearGradient id="paint41_linear" x1="-10.346" y1="12.919" x2="64.118" y2="12.48" gradientUnits="userSpaceOnUse"><stop stop-color="#504B99"/><stop offset="1" stop-color="#923A8E"/></linearGradient><linearGradient id="paint42_linear" x1="-11.301" y1="17.95" x2="63.163" y2="17.511" gradientUnits="userSpaceOnUse"><stop stop-color="#504B99"/><stop offset="1" stop-color="#923A8E"/></linearGradient><linearGradient id="paint43_linear" x1="-9.049" y1="13.048" x2="65.415" y2="12.61" gradientUnits="userSpaceOnUse"><stop stop-color="#504B99"/><stop offset="1" stop-color="#923A8E"/></linearGradient><linearGradient id="paint44_linear" x1="-8.905" y1="10.909" x2="65.559" y2="10.47" gradientUnits="userSpaceOnUse"><stop stop-color="#504B99"/><stop offset="1" stop-color="#923A8E"/></linearGradient><linearGradient id="paint45_linear" x1="-9.501" y1="10.864" x2="64.963" y2="10.425" gradientUnits="userSpaceOnUse"><stop stop-color="#504B99"/><stop offset="1" stop-color="#923A8E"/></linearGradient><linearGradient id="paint46_linear" x1="-9.205" y1="6.828" x2="62.777" y2="6.404" gradientUnits="userSpaceOnUse"><stop stop-color="#504B99"/><stop offset="1" stop-color="#923A8E"/></linearGradient><linearGradient id="paint47_linear" x1="-9.436" y1="10.843" x2="62.546" y2="10.418" gradientUnits="userSpaceOnUse"><stop stop-color="#504B99"/><stop offset="1" stop-color="#923A8E"/></linearGradient><linearGradient id="paint48_linear" x1="-7.172" y1="6.93" x2="64.81" y2="6.506" gradientUnits="userSpaceOnUse"><stop stop-color="#504B99"/><stop offset="1" stop-color="#923A8E"/></linearGradient><linearGradient id="paint49_linear" x1="-7.688" y1="5.847" x2="64.293" y2="5.423" gradientUnits="userSpaceOnUse"><stop stop-color="#504B99"/><stop offset="1" stop-color="#923A8E"/></linearGradient></defs></svg>