<svg width="20" height="20" fill="none" xmlns="http://www.w3.org/2000/svg"><path d="M13.51 13.287l.013-.015.011-.016a1 1 0 011.352-.273l3.24 2.12c.161.111.372.304.528.525.163.232.214.42.195.548-.01.068-.078.279-.248.58a4.57 4.57 0 01-.714.94c-.625.631-1.535 1.179-2.762 1.179-1.267 0-2.733-.502-4.28-1.404-1.54-.9-3.123-2.175-4.616-3.668-1.495-1.495-2.778-3.079-3.685-4.623-.91-1.55-1.419-3.023-1.419-4.305 0-1.258.506-2.159 1.106-2.766.617-.624 1.31-.913 1.621-.958.281-.04.454.04.597.158.148.124.255.282.385.472l.064.092 2.119 3.241a1 1 0 01-.273 1.351l-.016.012-.016.013c-.034.029-.073.06-.113.092-.418.336-1.101.886-1.168 1.808-.072.993.568 2.222 2.278 3.932 1.709 1.709 2.932 2.345 3.923 2.262.903-.075 1.444-.754 1.776-1.17l.102-.127z" stroke="url(#paint0_linear)"/><defs><linearGradient id="paint0_linear" x1=".625" y1=".641" x2="19.359" y2="19.369" gradientUnits="userSpaceOnUse"><stop stop-color="#A83592"/><stop offset="1" stop-color="#4F4A9D"/></linearGradient></defs></svg>