<svg width="91" height="99" fill="none" xmlns="http://www.w3.org/2000/svg"><ellipse cx="45.5" cy="44.954" rx="45" ry="44.954" fill="#FCF8F2"/><g clip-path="url(#clip0)"><path d="M46 89.636a1.055 1.055 0 100 2.11 1.055 1.055 0 000-2.11zm0-6.328a1.055 1.055 0 100 2.109 1.055 1.055 0 000-2.11zm0 12.656a1.055 1.055 0 100 2.11 1.055 1.055 0 000-2.11zm20.72-21.638l-4.695-1.58c2.595-1.848 4.222-4.882 4.222-8.157.007-.013 0-18.268 0-18.268a20.117 20.117 0 00-5.93-14.316A20.115 20.115 0 0046 26.072c-3.474 0-6.901.895-9.912 2.588a1.055 1.055 0 001.034 1.839A18.146 18.146 0 0146 28.183c4.844 0 9.4 1.887 12.825 5.313a18.023 18.023 0 015.313 12.824v.005a4.159 4.159 0 00-2.077-.554h-1.014a38.486 38.486 0 01-8.227-2.379 38.494 38.494 0 01-5.798-3.009 1.84 1.84 0 00-2.092.095 26.14 26.14 0 01-4.607 2.818 26.275 26.275 0 01-9.32 2.475h-1.064a4.16 4.16 0 00-2.077.554v-.005c0-4.907 1.929-9.504 5.431-12.943a1.055 1.055 0 10-1.478-1.505 20.098 20.098 0 00-6.062 14.448v18.27c0 3.275 1.626 6.309 4.221 8.157l-4.694 1.58a9.486 9.486 0 00-6.466 8.997V97.02a1.055 1.055 0 002.11 0V83.323a7.378 7.378 0 015.029-6.998l1.832-.616a12.465 12.465 0 00-.349 3.401c.04 1.08.223 2.141.538 3.171a4.982 4.982 0 00-3.546 4.764v4.292c0 1.062.864 1.926 1.925 1.926h1.182a1.055 1.055 0 100-2.11h-.998v-4.108A2.868 2.868 0 0129.4 84.18h.004a2.868 2.868 0 012.862 2.864v4.108h-.998a1.055 1.055 0 000 2.11h1.182a1.928 1.928 0 001.925-1.926v-4.292c0-2.49-1.84-4.558-4.23-4.918a10.274 10.274 0 01-.6-3.095 10.43 10.43 0 01.708-4.154l7.195-2.421 7.549 7.549a1.631 1.631 0 002.287 0l2.083-2.084a1.055 1.055 0 10-1.491-1.491l-1.736 1.735-6.685-6.685c.991-.862 1.443-2.176 1.342-3.501 1.615.563 3.346.873 5.146.879 1.815.006 3.591-.29 5.26-.862-.172 1.345.45 2.81 1.497 3.61l-1.351 1.35a1.054 1.054 0 101.491 1.492l1.922-1.921 6.422 2.161c.486 1.235.737 2.571.724 3.894a10.443 10.443 0 01-.662 3.537 5.603 5.603 0 00-4.866 5.547 5.602 5.602 0 005.596 5.596 5.602 5.602 0 005.596-5.596 5.605 5.605 0 00-4.144-5.404 12.54 12.54 0 00.59-3.66 12.5 12.5 0 00-.36-3.082l2.389.804a7.378 7.378 0 015.029 6.998v13.695a1.055 1.055 0 102.11 0V83.323a9.486 9.486 0 00-6.466-8.997zm-4.713-26.445h.054a2.08 2.08 0 012.077 2.069v.016a2.083 2.083 0 01-2.131 2.069v-4.154zM27.862 49.95a2.083 2.083 0 012.13-2.07v4.155a2.082 2.082 0 01-2.13-2.069v-.016zm10.825 18.602c0 .756-.48 1.425-1.197 1.665l-4.839 1.629a7.93 7.93 0 01-4.789-7.257V53.591a4.17 4.17 0 002.197.554 16.219 16.219 0 008.628 12.923v1.484zm7.264-1.803c-7.636-.026-13.849-6.333-13.849-14.06v-4.902a28.33 28.33 0 009.129-2.587 28.24 28.24 0 004.827-2.93 40.619 40.619 0 005.953 3.07 40.587 40.587 0 007.886 2.367v5.145c0 3.721-1.452 7.217-4.087 9.844-2.681 2.672-6.03 4.067-9.86 4.053zm13.397 5.096l-4.84-1.628a1.754 1.754 0 01-1.196-1.665v-1.453A16.044 16.044 0 0057.3 64.19a15.883 15.883 0 004.656-10.045 4.268 4.268 0 002.183-.554v10.998a7.93 7.93 0 01-4.79 7.256zm6.114 15.822a3.49 3.49 0 01-3.486 3.486 3.49 3.49 0 01-3.487-3.486 3.49 3.49 0 013.483-3.486h.006a3.49 3.49 0 013.484 3.486zM52.82 48.741c-.583 0-1.055.472-1.055 1.055v2.413a1.055 1.055 0 102.11 0v-2.413c0-.583-.473-1.055-1.055-1.055zm-5.323 10.02a2.624 2.624 0 01-1.404.48 2.628 2.628 0 01-1.592-.48 1.055 1.055 0 10-1.22 1.721 4.75 4.75 0 002.72.87c1.132 0 2.184-.491 2.718-.87a1.055 1.055 0 10-1.222-1.72zm-8.317-10.02c-.583 0-1.055.472-1.055 1.055v2.413a1.055 1.055 0 102.11 0v-2.413c0-.583-.473-1.055-1.055-1.055z" fill="url(#paint0_linear)"/></g><defs><linearGradient id="paint0_linear" x1="18.814" y1="26.073" x2="88.065" y2="78.369" gradientUnits="userSpaceOnUse"><stop stop-color="#A83592"/><stop offset="1" stop-color="#4F4A9D"/></linearGradient><clipPath id="clip0"><path fill="#fff" transform="translate(10 26.073)" d="M0 0h72v72H0z"/></clipPath></defs></svg>