<svg width="237" height="51" viewBox="0 0 237 51" fill="none" xmlns="http://www.w3.org/2000/svg">
<g clip-path="url(#clip0)">
<g opacity="0.05">
<path d="M130.433 57.3168C130.433 59.1025 131.136 60.815 132.389 62.0777C133.641 63.3403 135.339 64.0497 137.11 64.0497C138.88 64.0497 140.579 63.3403 141.831 62.0777C143.083 60.815 143.786 59.1025 143.786 57.3168C143.786 55.5312 143.083 53.8186 141.831 52.556C140.579 51.2933 138.88 50.584 137.11 50.584C135.339 50.584 133.641 51.2933 132.389 52.556C131.136 53.8186 130.433 55.5312 130.433 57.3168V57.3168Z" fill="url(#paint0_linear)"/>
<path d="M90.3734 57.3168C90.3734 59.1025 91.0769 60.815 92.3289 62.0777C93.581 63.3403 95.2793 64.0497 97.05 64.0497C98.8207 64.0497 100.519 63.3403 101.771 62.0777C103.023 60.815 103.727 59.1025 103.727 57.3168C103.727 55.5312 103.023 53.8186 101.771 52.556C100.519 51.2933 98.8207 50.584 97.05 50.584C95.2793 50.584 93.581 51.2933 92.329 52.556C91.0769 53.8186 90.3734 55.5312 90.3734 57.3168V57.3168Z" fill="url(#paint1_linear)"/>
<path d="M110.404 53.9477C110.404 55.7333 111.108 57.4459 112.36 58.7085C113.612 59.9712 115.31 60.6805 117.081 60.6805C118.852 60.6805 120.55 59.9712 121.802 58.7085C123.054 57.4459 123.758 55.7333 123.758 53.9477C123.758 52.162 123.054 50.4495 121.802 49.1868C120.55 47.9242 118.852 47.2148 117.081 47.2148C115.31 47.2148 113.612 47.9242 112.36 49.1868C111.108 50.4495 110.404 52.162 110.404 53.9477Z" fill="url(#paint2_linear)"/>
<path d="M147.126 45.5342C147.126 47.7663 148.005 49.9069 149.57 51.4853C151.135 53.0636 153.258 53.9503 155.471 53.9503C157.685 53.9503 159.808 53.0636 161.373 51.4853C162.938 49.9069 163.817 47.7663 163.817 45.5342C163.817 43.3021 162.938 41.1615 161.373 39.5832C159.808 38.0049 157.685 37.1182 155.471 37.1182C153.258 37.1182 151.135 38.0049 149.57 39.5832C148.005 41.1615 147.126 43.3021 147.126 45.5342V45.5342Z" fill="url(#paint3_linear)"/>
<path d="M123.758 35.4346C123.758 37.6667 124.637 39.8073 126.202 41.3857C127.767 42.964 129.89 43.8507 132.104 43.8507C134.317 43.8507 136.44 42.964 138.005 41.3857C139.57 39.8073 140.449 37.6667 140.449 35.4346C140.449 33.2025 139.57 31.0619 138.005 29.4836C136.44 27.9052 134.317 27.0186 132.104 27.0186C129.89 27.0186 127.767 27.9052 126.202 29.4836C124.637 31.0619 123.758 33.2025 123.758 35.4346V35.4346Z" fill="url(#paint4_linear)"/>
<path d="M97.0498 35.4346C97.0498 37.6667 97.9291 39.8073 99.4942 41.3857C101.059 42.964 103.182 43.8507 105.395 43.8507C107.609 43.8507 109.732 42.964 111.297 41.3857C112.862 39.8073 113.741 37.6667 113.741 35.4346C113.741 33.2025 112.862 31.0619 111.297 29.4836C109.732 27.9052 107.609 27.0186 105.396 27.0186C103.182 27.0186 101.059 27.9052 99.4942 29.4836C97.9291 31.0619 97.0498 33.2025 97.0498 35.4346V35.4346Z" fill="url(#paint5_linear)"/>
<path d="M70.3445 45.5342C70.3445 47.7663 71.2237 49.9069 72.7889 51.4853C74.354 53.0636 76.4768 53.9503 78.6902 53.9503C80.9036 53.9503 83.0264 53.0636 84.5915 51.4853C86.1566 49.9069 87.0359 47.7663 87.0359 45.5342C87.0359 43.3021 86.1566 41.1615 84.5915 39.5832C83.0264 38.0049 80.9036 37.1182 78.6902 37.1182C76.4768 37.1182 74.354 38.0049 72.7889 39.5832C71.2237 41.1615 70.3445 43.3021 70.3445 45.5342V45.5342Z" fill="url(#paint6_linear)"/>
<path d="M173.83 38.799C173.83 40.1384 174.357 41.4229 175.296 42.37C176.235 43.317 177.509 43.8491 178.837 43.8491C180.165 43.8491 181.439 43.317 182.378 42.37C183.317 41.4229 183.844 40.1384 183.844 38.799C183.844 37.4597 183.317 36.1752 182.378 35.2281C181.439 34.2811 180.165 33.749 178.837 33.749C177.509 33.749 176.235 34.2811 175.296 35.2281C174.357 36.1752 173.83 37.4597 173.83 38.799Z" fill="url(#paint7_linear)"/>
<path d="M143.784 21.968C143.784 23.3073 144.312 24.5918 145.251 25.5389C146.19 26.486 147.464 27.018 148.792 27.018C150.12 27.018 151.394 26.486 152.333 25.5389C153.272 24.5918 153.799 23.3073 153.799 21.968C153.799 20.6286 153.272 19.3441 152.333 18.3971C151.394 17.45 150.12 16.918 148.792 16.918C147.464 16.918 146.19 17.45 145.251 18.3971C144.312 19.3441 143.784 20.6286 143.784 21.968V21.968Z" fill="url(#paint8_linear)"/>
<path d="M113.743 18.6028C113.743 19.9421 114.27 21.2266 115.209 22.1737C116.148 23.1207 117.422 23.6528 118.75 23.6528C120.078 23.6528 121.352 23.1207 122.291 22.1737C123.23 21.2266 123.758 19.9421 123.758 18.6028C123.758 17.2634 123.23 15.9789 122.291 15.0319C121.352 14.0848 120.078 13.5527 118.75 13.5527C117.422 13.5527 116.148 14.0848 115.209 15.0319C114.27 15.9789 113.743 17.2634 113.743 18.6028V18.6028Z" fill="url(#paint9_linear)"/>
<path d="M80.3582 21.968C80.3582 23.3073 80.8858 24.5918 81.8248 25.5389C82.7639 26.486 84.0376 27.018 85.3656 27.018C86.6937 27.018 87.9673 26.486 88.9064 25.5389C89.8455 24.5918 90.373 23.3073 90.373 21.968C90.373 20.6286 89.8455 19.3441 88.9064 18.3971C87.9673 17.45 86.6937 16.918 85.3656 16.918C84.0376 16.918 82.7639 17.45 81.8248 18.3971C80.8858 19.3441 80.3582 20.6286 80.3582 21.968V21.968Z" fill="url(#paint10_linear)"/>
<path d="M50.3127 59C50.3127 61.2321 51.192 63.3728 52.7571 64.9511C54.3222 66.5294 56.445 67.4161 58.6584 67.4161C60.8719 67.4161 62.9946 66.5294 64.5598 64.9511C66.1249 63.3728 67.0041 61.2321 67.0042 59C67.0042 56.768 66.1249 54.6273 64.5598 53.049C62.9946 51.4707 60.8719 50.584 58.6584 50.584C56.445 50.584 54.3222 51.4707 52.7571 53.049C51.192 54.6273 50.3127 56.768 50.3127 59V59Z" fill="url(#paint11_linear)"/>
<path d="M53.6526 38.799C53.6526 40.1384 54.1802 41.4229 55.1193 42.37C56.0583 43.317 57.332 43.8491 58.6601 43.8491C59.9881 43.8491 61.2618 43.317 62.2008 42.37C63.1399 41.4229 63.6675 40.1384 63.6675 38.799C63.6675 37.4597 63.1399 36.1752 62.2008 35.2281C61.2618 34.2811 59.9881 33.749 58.6601 33.749C57.332 33.749 56.0583 34.2811 55.1193 35.2281C54.1802 36.1752 53.6526 37.4597 53.6526 38.799Z" fill="url(#paint12_linear)"/>
<path d="M170.494 59C170.494 61.2321 171.373 63.3728 172.938 64.9511C174.503 66.5294 176.626 67.4161 178.84 67.4161C181.053 67.4161 183.176 66.5294 184.741 64.9511C186.306 63.3728 187.185 61.2321 187.185 59C187.185 56.768 186.306 54.6273 184.741 53.049C183.176 51.4707 181.053 50.584 178.84 50.584C176.626 50.584 174.503 51.4707 172.938 53.049C171.373 54.6273 170.494 56.768 170.494 59Z" fill="url(#paint13_linear)"/>
<path d="M96.5876 6.80943C96.7222 7.81848 97.2438 8.73725 98.0378 9.36363C98.8317 9.99001 99.8328 10.2727 100.821 10.1495C101.809 10.0263 102.703 9.50725 103.307 8.70662C103.91 7.90598 104.174 6.88932 104.039 5.88027C103.904 4.87122 103.383 3.95244 102.589 3.32606C101.795 2.69968 100.794 2.41701 99.8056 2.54022C98.8175 2.66344 97.9233 3.18245 97.3198 3.98308C96.7163 4.78371 96.4529 5.80038 96.5876 6.80943V6.80943Z" fill="url(#paint14_linear)"/>
<path d="M61.8376 18.6913C62.6531 20.7563 64.8819 21.8542 66.8117 21.1409C68.7414 20.4276 69.6464 18.1698 68.8277 16.1059C68.0091 14.042 65.7834 12.943 63.8537 13.6563C61.9226 14.3663 61.0176 16.624 61.8376 18.6913Z" fill="url(#paint15_linear)"/>
<path d="M167.163 20.3267C169.094 21.037 171.322 19.9427 172.139 17.8743C172.958 15.8105 172.052 13.5559 170.122 12.8423C168.191 12.1321 165.963 13.2264 165.147 15.2947C164.328 17.3585 165.234 19.6131 167.163 20.3267V20.3267Z" fill="url(#paint16_linear)"/>
<path d="M136.365 8.39816C137.357 8.52137 138.362 8.23764 139.159 7.60937C139.955 6.9811 140.477 6.05976 140.611 5.04804C140.745 4.03633 140.48 3.0171 139.873 2.21459C139.266 1.41208 138.368 0.892011 137.375 0.768802C136.383 0.645593 135.378 0.929334 134.582 1.5576C133.786 2.18587 133.263 3.1072 133.129 4.11892C132.995 5.13064 133.261 6.14986 133.868 6.95237C134.475 7.75489 135.373 8.27495 136.365 8.39816V8.39816Z" fill="url(#paint17_linear)"/>
<path d="M197.08 41.1392C197.423 41.4865 197.831 41.7619 198.28 41.9499C198.728 42.1378 199.21 42.2345 199.696 42.2344C200.182 42.2343 200.663 42.1374 201.111 41.9492C201.56 41.7611 201.968 41.4854 202.31 41.138C203.004 40.4351 203.394 39.4839 203.394 38.4922C203.395 37.5005 203.006 36.5488 202.314 35.8449C201.971 35.4972 201.563 35.2212 201.114 35.0328C200.665 34.8444 200.184 34.7474 199.698 34.7473C199.211 34.7472 198.73 34.844 198.281 35.0322C197.832 35.2203 197.424 35.4961 197.081 35.8437C195.636 37.3054 195.638 39.6745 197.083 41.1368L197.08 41.1392Z" fill="url(#paint18_linear)"/>
<path d="M33.7859 40.7113C34.1289 41.0585 34.5364 41.334 34.9852 41.5219C35.434 41.7099 35.9152 41.8066 36.4012 41.8065C36.8871 41.8064 37.3683 41.7094 37.817 41.5213C38.2657 41.3332 38.6731 41.0575 39.0158 40.7101C39.7095 40.0072 40.0991 39.056 40.0998 38.0643C40.1004 37.0727 39.7119 36.121 39.0192 35.4171C38.6764 35.0694 38.2688 34.7934 37.8199 34.605C37.3709 34.4167 36.8895 34.3196 36.4033 34.3195C35.917 34.3194 35.4356 34.4162 34.9866 34.6044C34.5376 34.7925 34.1299 35.0683 33.7869 35.4159C32.3416 36.8775 32.3435 39.2466 33.7883 40.7089L33.7859 40.7113Z" fill="url(#paint19_linear)"/>
</g>
</g>
<defs>
<linearGradient id="paint0_linear" x1="143.786" y1="50.584" x2="130.321" y2="63.9366" gradientUnits="userSpaceOnUse">
<stop stop-color="#A83592"/>
<stop offset="1" stop-color="#4F4A9D"/>
</linearGradient>
<linearGradient id="paint1_linear" x1="103.727" y1="50.584" x2="90.2614" y2="63.9366" gradientUnits="userSpaceOnUse">
<stop stop-color="#A83592"/>
<stop offset="1" stop-color="#4F4A9D"/>
</linearGradient>
<linearGradient id="paint2_linear" x1="123.758" y1="47.2148" x2="110.292" y2="60.5675" gradientUnits="userSpaceOnUse">
<stop stop-color="#A83592"/>
<stop offset="1" stop-color="#4F4A9D"/>
</linearGradient>
<linearGradient id="paint3_linear" x1="163.817" y1="37.1182" x2="146.986" y2="53.809" gradientUnits="userSpaceOnUse">
<stop stop-color="#A83592"/>
<stop offset="1" stop-color="#4F4A9D"/>
</linearGradient>
<linearGradient id="paint4_linear" x1="140.449" y1="27.0186" x2="123.618" y2="43.7094" gradientUnits="userSpaceOnUse">
<stop stop-color="#A83592"/>
<stop offset="1" stop-color="#4F4A9D"/>
</linearGradient>
<linearGradient id="paint5_linear" x1="113.741" y1="27.0186" x2="96.9097" y2="43.7094" gradientUnits="userSpaceOnUse">
<stop stop-color="#A83592"/>
<stop offset="1" stop-color="#4F4A9D"/>
</linearGradient>
<linearGradient id="paint6_linear" x1="87.0359" y1="37.1182" x2="70.2044" y2="53.809" gradientUnits="userSpaceOnUse">
<stop stop-color="#A83592"/>
<stop offset="1" stop-color="#4F4A9D"/>
</linearGradient>
<linearGradient id="paint7_linear" x1="183.844" y1="33.749" x2="173.745" y2="43.7635" gradientUnits="userSpaceOnUse">
<stop stop-color="#A83592"/>
<stop offset="1" stop-color="#4F4A9D"/>
</linearGradient>
<linearGradient id="paint8_linear" x1="153.799" y1="16.918" x2="143.7" y2="26.9325" gradientUnits="userSpaceOnUse">
<stop stop-color="#A83592"/>
<stop offset="1" stop-color="#4F4A9D"/>
</linearGradient>
<linearGradient id="paint9_linear" x1="123.758" y1="13.5527" x2="113.658" y2="23.5672" gradientUnits="userSpaceOnUse">
<stop stop-color="#A83592"/>
<stop offset="1" stop-color="#4F4A9D"/>
</linearGradient>
<linearGradient id="paint10_linear" x1="90.373" y1="16.918" x2="80.2734" y2="26.9325" gradientUnits="userSpaceOnUse">
<stop stop-color="#A83592"/>
<stop offset="1" stop-color="#4F4A9D"/>
</linearGradient>
<linearGradient id="paint11_linear" x1="67.0042" y1="50.584" x2="50.1726" y2="67.2748" gradientUnits="userSpaceOnUse">
<stop stop-color="#A83592"/>
<stop offset="1" stop-color="#4F4A9D"/>
</linearGradient>
<linearGradient id="paint12_linear" x1="63.6675" y1="33.749" x2="53.5678" y2="43.7635" gradientUnits="userSpaceOnUse">
<stop stop-color="#A83592"/>
<stop offset="1" stop-color="#4F4A9D"/>
</linearGradient>
<linearGradient id="paint13_linear" x1="187.185" y1="50.584" x2="170.354" y2="67.2748" gradientUnits="userSpaceOnUse">
<stop stop-color="#A83592"/>
<stop offset="1" stop-color="#4F4A9D"/>
</linearGradient>
<linearGradient id="paint14_linear" x1="103.533" y1="2.07715" x2="96.9081" y2="10.4663" gradientUnits="userSpaceOnUse">
<stop stop-color="#A83592"/>
<stop offset="1" stop-color="#4F4A9D"/>
</linearGradient>
<linearGradient id="paint15_linear" x1="67.3467" y1="12.3721" x2="62.5739" y2="22.0581" gradientUnits="userSpaceOnUse">
<stop stop-color="#A83592"/>
<stop offset="1" stop-color="#4F4A9D"/>
</linearGradient>
<linearGradient id="paint16_linear" x1="166.629" y1="11.5576" x2="171.401" y2="21.2444" gradientUnits="userSpaceOnUse">
<stop stop-color="#A83592"/>
<stop offset="1" stop-color="#4F4A9D"/>
</linearGradient>
<linearGradient id="paint17_linear" x1="133.636" y1="0.302734" x2="140.277" y2="8.72781" gradientUnits="userSpaceOnUse">
<stop stop-color="#A83592"/>
<stop offset="1" stop-color="#4F4A9D"/>
</linearGradient>
<linearGradient id="paint18_linear" x1="199.698" y1="33.2061" x2="199.698" y2="43.7757" gradientUnits="userSpaceOnUse">
<stop stop-color="#A83592"/>
<stop offset="1" stop-color="#4F4A9D"/>
</linearGradient>
<linearGradient id="paint19_linear" x1="36.4036" y1="32.7783" x2="36.4036" y2="43.3477" gradientUnits="userSpaceOnUse">
<stop stop-color="#A83592"/>
<stop offset="1" stop-color="#4F4A9D"/>
</linearGradient>
<clipPath id="clip0">
<rect width="237" height="51" fill="white"/>
</clipPath>
</defs>
</svg>
