<svg width="18" height="18" viewBox="0 0 18 18" fill="none" xmlns="http://www.w3.org/2000/svg">
<path d="M12.1977 11.9907L12.2105 11.9753L12.222 11.9589C12.3474 11.7798 12.537 11.656 12.7514 11.6132C12.9647 11.5705 13.1862 11.6113 13.3703 11.727L16.286 13.6334C16.4263 13.7315 16.6113 13.9005 16.7474 14.0938C16.8917 14.2986 16.9293 14.4548 16.9149 14.5509C16.9071 14.6032 16.8495 14.787 16.6975 15.0553C16.5528 15.3107 16.3415 15.6085 16.0624 15.8907C15.5068 16.4526 14.7 16.9376 13.6125 16.9376C12.4843 16.9376 11.1743 16.4905 9.78644 15.6803C8.40492 14.8739 6.98292 13.729 5.64105 12.3871C4.29852 11.0446 3.14651 9.62226 2.33311 8.2371C1.51608 6.84576 1.0625 5.52912 1.0625 4.38755C1.0625 3.27057 1.51118 2.47161 2.04307 1.93361C2.59244 1.37793 3.20681 1.1238 3.47384 1.08565C3.71121 1.05174 3.85313 1.11758 3.97187 1.21685C4.09929 1.32339 4.19202 1.45896 4.30904 1.63005C4.32746 1.65699 4.34649 1.6848 4.36634 1.71352L6.27307 4.6297C6.38879 4.81383 6.42955 5.03535 6.38689 5.24868C6.34401 5.46303 6.22021 5.65263 6.04119 5.77808L6.02478 5.78958L6.00934 5.80236C5.97838 5.82798 5.94418 5.85545 5.90753 5.8849C5.53249 6.18619 4.89988 6.69441 4.83803 7.54708C4.7714 8.46559 5.36296 9.58574 6.9027 11.1255C8.44107 12.6639 9.55701 13.2523 10.4726 13.1756C11.3084 13.1056 11.8099 12.4762 12.1068 12.1035C12.1395 12.0624 12.1698 12.0245 12.1977 11.9907Z" stroke="url(#paint0_linear)"/>
<defs>
<linearGradient id="paint0_linear" x1="0.5625" y1="0.57666" x2="17.4234" y2="17.432" gradientUnits="userSpaceOnUse">
<stop stop-color="#A83592"/>
<stop offset="1" stop-color="#4F4A9D"/>
</linearGradient>
</defs>
</svg>
