<svg width="188" height="72" viewBox="0 0 188 72" fill="none" xmlns="http://www.w3.org/2000/svg">
<path fill-rule="evenodd" clip-rule="evenodd" d="M37.5997 21.2954C29.2159 21.2954 22.3564 28.1405 22.3564 36.5067C22.3564 44.8729 29.2159 51.7179 37.5997 51.7179C45.9835 51.7179 52.8429 44.8729 52.8429 36.5067C52.7477 28.1405 45.9835 21.2954 37.5997 21.2954ZM37.5997 48.0102C31.2166 48.0102 26.072 42.8764 26.072 36.5067C26.072 30.137 31.2166 25.0032 37.5997 25.0032C43.9828 25.0032 49.0321 30.137 49.0321 36.5067C49.0321 42.8764 43.8875 48.0102 37.5997 48.0102Z" fill="#504B99"/>
<path d="M37.5996 41.5774C40.4058 41.5774 42.6807 39.3073 42.6807 36.5069C42.6807 33.7066 40.4058 31.4365 37.5996 31.4365C34.7934 31.4365 32.5186 33.7066 32.5186 36.5069C32.5186 39.3073 34.7934 41.5774 37.5996 41.5774Z" fill="#A69AC8"/>
<path d="M61.4809 19.2674C62.3227 19.2674 63.0052 18.5863 63.0052 17.7462C63.0052 16.9061 62.3227 16.2251 61.4809 16.2251C60.639 16.2251 59.9565 16.9061 59.9565 17.7462C59.9565 18.5863 60.639 19.2674 61.4809 19.2674Z" fill="url(#paint0_linear)"/>
<path d="M52.843 49.6901C53.9655 49.6901 54.8754 48.7821 54.8754 47.662C54.8754 46.5418 53.9655 45.6338 52.843 45.6338C51.7205 45.6338 50.8105 46.5418 50.8105 47.662C50.8105 48.7821 51.7205 49.6901 52.843 49.6901Z" fill="url(#paint1_linear)"/>
<path d="M24.3889 22.3098C25.5114 22.3098 26.4213 21.4017 26.4213 20.2816C26.4213 19.1615 25.5114 18.2534 24.3889 18.2534C23.2664 18.2534 22.3564 19.1615 22.3564 20.2816C22.3564 21.4017 23.2664 22.3098 24.3889 22.3098Z" fill="url(#paint2_linear)"/>
<path d="M52.843 26.3659C53.9655 26.3659 54.8754 25.4579 54.8754 24.3377C54.8754 23.2176 53.9655 22.3096 52.843 22.3096C51.7205 22.3096 50.8105 23.2176 50.8105 24.3377C50.8105 25.4579 51.7205 26.3659 52.843 26.3659Z" fill="url(#paint3_linear)"/>
<path d="M48.778 22.3098C49.9005 22.3098 50.8105 21.4017 50.8105 20.2816C50.8105 19.1615 49.9005 18.2534 48.778 18.2534C47.6556 18.2534 46.7456 19.1615 46.7456 20.2816C46.7456 21.4017 47.6556 22.3098 48.778 22.3098Z" fill="url(#paint4_linear)"/>
<path d="M55.3838 20.2814C56.7869 20.2814 57.9243 19.1463 57.9243 17.7461C57.9243 16.346 56.7869 15.2109 55.3838 15.2109C53.9807 15.2109 52.8433 16.346 52.8433 17.7461C52.8433 19.1463 53.9807 20.2814 55.3838 20.2814Z" fill="url(#paint5_linear)"/>
<path d="M55.3837 12.1687C56.2256 12.1687 56.908 11.4877 56.908 10.6476C56.908 9.8075 56.2256 9.12646 55.3837 9.12646C54.5418 9.12646 53.8594 9.8075 53.8594 10.6476C53.8594 11.4877 54.5418 12.1687 55.3837 12.1687Z" fill="url(#paint6_linear)"/>
<path d="M20.3239 49.6901C21.4464 49.6901 22.3564 48.7821 22.3564 47.662C22.3564 46.5418 21.4464 45.6338 20.3239 45.6338C19.2015 45.6338 18.2915 46.5418 18.2915 47.662C18.2915 48.7821 19.2015 49.6901 20.3239 49.6901Z" fill="url(#paint7_linear)"/>
<path d="M17.2756 32.4504C18.3981 32.4504 19.308 31.5423 19.308 30.4222C19.308 29.3021 18.3981 28.394 17.2756 28.394C16.1531 28.394 15.2432 29.3021 15.2432 30.4222C15.2432 31.5423 16.1531 32.4504 17.2756 32.4504Z" fill="url(#paint8_linear)"/>
<path d="M20.3239 26.3659C21.4464 26.3659 22.3564 25.4579 22.3564 24.3377C22.3564 23.2176 21.4464 22.3096 20.3239 22.3096C19.2015 22.3096 18.2915 23.2176 18.2915 24.3377C18.2915 25.4579 19.2015 26.3659 20.3239 26.3659Z" fill="url(#paint9_linear)"/>
<path d="M17.2756 44.6198C18.3981 44.6198 19.308 43.7118 19.308 42.5916C19.308 41.4715 18.3981 40.5635 17.2756 40.5635C16.1531 40.5635 15.2432 41.4715 15.2432 42.5916C15.2432 43.7118 16.1531 44.6198 17.2756 44.6198Z" fill="url(#paint10_linear)"/>
<path d="M16.2595 38.5349C17.382 38.5349 18.2919 37.6268 18.2919 36.5067C18.2919 35.3866 17.382 34.4785 16.2595 34.4785C15.137 34.4785 14.2271 35.3866 14.2271 36.5067C14.2271 37.6268 15.137 38.5349 16.2595 38.5349Z" fill="url(#paint11_linear)"/>
<path d="M13.7188 27.38C15.1219 27.38 16.2593 26.2449 16.2593 24.8448C16.2593 23.4446 15.1219 22.3096 13.7188 22.3096C12.3157 22.3096 11.1782 23.4446 11.1782 24.8448C11.1782 26.2449 12.3157 27.38 13.7188 27.38Z" fill="url(#paint12_linear)"/>
<path d="M10.6699 34.4786C12.073 34.4786 13.2105 33.3436 13.2105 31.9434C13.2105 30.5433 12.073 29.4082 10.6699 29.4082C9.26683 29.4082 8.12939 30.5433 8.12939 31.9434C8.12939 33.3436 9.26683 34.4786 10.6699 34.4786Z" fill="url(#paint13_linear)"/>
<path d="M10.6699 42.5914C12.073 42.5914 13.2105 41.4564 13.2105 40.0562C13.2105 38.656 12.073 37.521 10.6699 37.521C9.26683 37.521 8.12939 38.656 8.12939 40.0562C8.12939 41.4564 9.26683 42.5914 10.6699 42.5914Z" fill="url(#paint14_linear)"/>
<path d="M13.7188 50.7042C15.1219 50.7042 16.2593 49.5692 16.2593 48.169C16.2593 46.7688 15.1219 45.6338 13.7188 45.6338C12.3157 45.6338 11.1782 46.7688 11.1782 48.169C11.1782 49.5692 12.3157 50.7042 13.7188 50.7042Z" fill="url(#paint15_linear)"/>
<path d="M11.6864 19.2674C12.5283 19.2674 13.2108 18.5863 13.2108 17.7462C13.2108 16.9061 12.5283 16.2251 11.6864 16.2251C10.8446 16.2251 10.1621 16.9061 10.1621 17.7462C10.1621 18.5863 10.8446 19.2674 11.6864 19.2674Z" fill="url(#paint16_linear)"/>
<path d="M6.60538 28.3943C7.44724 28.3943 8.1297 27.7133 8.1297 26.8732C8.1297 26.0331 7.44724 25.3521 6.60538 25.3521C5.76352 25.3521 5.08105 26.0331 5.08105 26.8732C5.08105 27.7133 5.76352 28.3943 6.60538 28.3943Z" fill="url(#paint17_linear)"/>
<path d="M5.58878 37.5208C6.43064 37.5208 7.1131 36.8397 7.1131 35.9996C7.1131 35.1595 6.43064 34.4785 5.58878 34.4785C4.74692 34.4785 4.06445 35.1595 4.06445 35.9996C4.06445 36.8397 4.74692 37.5208 5.58878 37.5208Z" fill="url(#paint18_linear)"/>
<path d="M6.60538 47.6619C7.44724 47.6619 8.1297 46.9808 8.1297 46.1408C8.1297 45.3007 7.44724 44.6196 6.60538 44.6196C5.76352 44.6196 5.08105 45.3007 5.08105 46.1408C5.08105 46.9808 5.76352 47.6619 6.60538 47.6619Z" fill="url(#paint19_linear)"/>
<path d="M36.5837 57.8029C37.7062 57.8029 38.6161 56.8949 38.6161 55.7748C38.6161 54.6546 37.7062 53.7466 36.5837 53.7466C35.4612 53.7466 34.5513 54.6546 34.5513 55.7748C34.5513 56.8949 35.4612 57.8029 36.5837 57.8029Z" fill="url(#paint20_linear)"/>
<path d="M42.6809 57.8029C43.8033 57.8029 44.7133 56.8949 44.7133 55.7748C44.7133 54.6546 43.8033 53.7466 42.6809 53.7466C41.5584 53.7466 40.6484 54.6546 40.6484 55.7748C40.6484 56.8949 41.5584 57.8029 42.6809 57.8029Z" fill="url(#paint21_linear)"/>
<path d="M48.778 54.7604C49.9005 54.7604 50.8105 53.8524 50.8105 52.7323C50.8105 51.6121 49.9005 50.7041 48.778 50.7041C47.6556 50.7041 46.7456 51.6121 46.7456 52.7323C46.7456 53.8524 47.6556 54.7604 48.778 54.7604Z" fill="url(#paint22_linear)"/>
<path d="M24.3889 54.7604C25.5114 54.7604 26.4213 53.8524 26.4213 52.7323C26.4213 51.6121 25.5114 50.7041 24.3889 50.7041C23.2664 50.7041 22.3564 51.6121 22.3564 52.7323C22.3564 53.8524 23.2664 54.7604 24.3889 54.7604Z" fill="url(#paint23_linear)"/>
<path d="M30.4865 57.8029C31.609 57.8029 32.519 56.8949 32.519 55.7748C32.519 54.6546 31.609 53.7466 30.4865 53.7466C29.3641 53.7466 28.4541 54.6546 28.4541 55.7748C28.4541 56.8949 29.3641 57.8029 30.4865 57.8029Z" fill="url(#paint24_linear)"/>
<path d="M24.897 61.859C26.3001 61.859 27.4375 60.7239 27.4375 59.3238C27.4375 57.9236 26.3001 56.7886 24.897 56.7886C23.4939 56.7886 22.3564 57.9236 22.3564 59.3238C22.3564 60.7239 23.4939 61.859 24.897 61.859Z" fill="url(#paint25_linear)"/>
<path d="M33.0269 63.8873C34.43 63.8873 35.5674 62.7523 35.5674 61.3521C35.5674 59.9519 34.43 58.8169 33.0269 58.8169C31.6238 58.8169 30.4863 59.9519 30.4863 61.3521C30.4863 62.7523 31.6238 63.8873 33.0269 63.8873Z" fill="url(#paint26_linear)"/>
<path d="M41.1568 63.8873C42.5599 63.8873 43.6973 62.7523 43.6973 61.3521C43.6973 59.9519 42.5599 58.8169 41.1568 58.8169C39.7536 58.8169 38.6162 59.9519 38.6162 61.3521C38.6162 62.7523 39.7536 63.8873 41.1568 63.8873Z" fill="url(#paint27_linear)"/>
<path d="M48.27 61.859C49.6731 61.859 50.8106 60.7239 50.8106 59.3238C50.8106 57.9236 49.6731 56.7886 48.27 56.7886C46.8669 56.7886 45.7295 57.9236 45.7295 59.3238C45.7295 60.7239 46.8669 61.859 48.27 61.859Z" fill="url(#paint28_linear)"/>
<path d="M55.3838 56.7887C56.7869 56.7887 57.9243 55.6536 57.9243 54.2535C57.9243 52.8533 56.7869 51.7183 55.3838 51.7183C53.9807 51.7183 52.8433 52.8533 52.8433 54.2535C52.8433 55.6536 53.9807 56.7887 55.3838 56.7887Z" fill="url(#paint29_linear)"/>
<path d="M17.7837 56.7887C19.1868 56.7887 20.3242 55.6536 20.3242 54.2535C20.3242 52.8533 19.1868 51.7183 17.7837 51.7183C16.3806 51.7183 15.2432 52.8533 15.2432 54.2535C15.2432 55.6536 16.3806 56.7887 17.7837 56.7887Z" fill="url(#paint30_linear)"/>
<path d="M18.7997 62.8733C19.6416 62.8733 20.324 62.1923 20.324 61.3522C20.324 60.5121 19.6416 59.8311 18.7997 59.8311C17.9579 59.8311 17.2754 60.5121 17.2754 61.3522C17.2754 62.1923 17.9579 62.8733 18.7997 62.8733Z" fill="url(#paint31_linear)"/>
<path d="M26.9296 66.9295C27.7715 66.9295 28.4539 66.2484 28.4539 65.4083C28.4539 64.5682 27.7715 63.8872 26.9296 63.8872C26.0877 63.8872 25.4053 64.5682 25.4053 65.4083C25.4053 66.2484 26.0877 66.9295 26.9296 66.9295Z" fill="url(#paint32_linear)"/>
<path d="M37.0917 68.9578C37.9336 68.9578 38.616 68.2768 38.616 67.4367C38.616 66.5966 37.9336 65.9155 37.0917 65.9155C36.2498 65.9155 35.5674 66.5966 35.5674 67.4367C35.5674 68.2768 36.2498 68.9578 37.0917 68.9578Z" fill="url(#paint33_linear)"/>
<path d="M46.2377 66.9295C47.0796 66.9295 47.762 66.2484 47.762 65.4083C47.762 64.5682 47.0796 63.8872 46.2377 63.8872C45.3958 63.8872 44.7134 64.5682 44.7134 65.4083C44.7134 66.2484 45.3958 66.9295 46.2377 66.9295Z" fill="url(#paint34_linear)"/>
<path d="M55.3837 62.8733C56.2256 62.8733 56.908 62.1923 56.908 61.3522C56.908 60.5121 56.2256 59.8311 55.3837 59.8311C54.5418 59.8311 53.8594 60.5121 53.8594 61.3522C53.8594 62.1923 54.5418 62.8733 55.3837 62.8733Z" fill="url(#paint35_linear)"/>
<path d="M61.4809 55.7747C62.3227 55.7747 63.0052 55.0936 63.0052 54.2535C63.0052 53.4135 62.3227 52.7324 61.4809 52.7324C60.639 52.7324 59.9565 53.4135 59.9565 54.2535C59.9565 55.0936 60.639 55.7747 61.4809 55.7747Z" fill="url(#paint36_linear)"/>
<path d="M11.6864 55.7747C12.5283 55.7747 13.2108 55.0936 13.2108 54.2535C13.2108 53.4135 12.5283 52.7324 11.6864 52.7324C10.8446 52.7324 10.1621 53.4135 10.1621 54.2535C10.1621 55.0936 10.8446 55.7747 11.6864 55.7747Z" fill="url(#paint37_linear)"/>
<path d="M36.5837 18.2536C37.7062 18.2536 38.6161 17.3456 38.6161 16.2254C38.6161 15.1053 37.7062 14.1973 36.5837 14.1973C35.4612 14.1973 34.5513 15.1053 34.5513 16.2254C34.5513 17.3456 35.4612 18.2536 36.5837 18.2536Z" fill="url(#paint38_linear)"/>
<path d="M42.6809 19.2673C43.8033 19.2673 44.7133 18.3592 44.7133 17.2391C44.7133 16.119 43.8033 15.2109 42.6809 15.2109C41.5584 15.2109 40.6484 16.119 40.6484 17.2391C40.6484 18.3592 41.5584 19.2673 42.6809 19.2673Z" fill="url(#paint39_linear)"/>
<path d="M30.4865 19.2673C31.609 19.2673 32.519 18.3592 32.519 17.2391C32.519 16.119 31.609 15.2109 30.4865 15.2109C29.3641 15.2109 28.4541 16.119 28.4541 17.2391C28.4541 18.3592 29.3641 19.2673 30.4865 19.2673Z" fill="url(#paint40_linear)"/>
<path d="M24.897 15.211C26.3001 15.211 27.4375 14.076 27.4375 12.6758C27.4375 11.2757 26.3001 10.1406 24.897 10.1406C23.4939 10.1406 22.3564 11.2757 22.3564 12.6758C22.3564 14.076 23.4939 15.211 24.897 15.211Z" fill="url(#paint41_linear)"/>
<path d="M17.7837 20.2814C19.1868 20.2814 20.3242 19.1463 20.3242 17.7461C20.3242 16.346 19.1868 15.2109 17.7837 15.2109C16.3806 15.2109 15.2432 16.346 15.2432 17.7461C15.2432 19.1463 16.3806 20.2814 17.7837 20.2814Z" fill="url(#paint42_linear)"/>
<path d="M48.27 15.211C49.6731 15.211 50.8106 14.076 50.8106 12.6758C50.8106 11.2757 49.6731 10.1406 48.27 10.1406C46.8669 10.1406 45.7295 11.2757 45.7295 12.6758C45.7295 14.076 46.8669 15.211 48.27 15.211Z" fill="url(#paint43_linear)"/>
<path d="M41.1568 13.1827C42.5599 13.1827 43.6973 12.0477 43.6973 10.6475C43.6973 9.24736 42.5599 8.1123 41.1568 8.1123C39.7536 8.1123 38.6162 9.24736 38.6162 10.6475C38.6162 12.0477 39.7536 13.1827 41.1568 13.1827Z" fill="url(#paint44_linear)"/>
<path d="M33.0269 13.1827C34.43 13.1827 35.5674 12.0477 35.5674 10.6475C35.5674 9.24736 34.43 8.1123 33.0269 8.1123C31.6238 8.1123 30.4863 9.24736 30.4863 10.6475C30.4863 12.0477 31.6238 13.1827 33.0269 13.1827Z" fill="url(#paint45_linear)"/>
<path d="M26.9296 8.11257C27.7715 8.11257 28.4539 7.43153 28.4539 6.59144C28.4539 5.75134 27.7715 5.07031 26.9296 5.07031C26.0877 5.07031 25.4053 5.75134 25.4053 6.59144C25.4053 7.43153 26.0877 8.11257 26.9296 8.11257Z" fill="url(#paint46_linear)"/>
<path d="M18.7997 12.1687C19.6416 12.1687 20.324 11.4877 20.324 10.6476C20.324 9.8075 19.6416 9.12646 18.7997 9.12646C17.9579 9.12646 17.2754 9.8075 17.2754 10.6476C17.2754 11.4877 17.9579 12.1687 18.7997 12.1687Z" fill="url(#paint47_linear)"/>
<path d="M46.2377 8.11257C47.0796 8.11257 47.762 7.43153 47.762 6.59144C47.762 5.75134 47.0796 5.07031 46.2377 5.07031C45.3958 5.07031 44.7134 5.75134 44.7134 6.59144C44.7134 7.43153 45.3958 8.11257 46.2377 8.11257Z" fill="url(#paint48_linear)"/>
<path d="M37.0917 7.09841C37.9336 7.09841 38.616 6.41737 38.616 5.57728C38.616 4.73718 37.9336 4.05615 37.0917 4.05615C36.2498 4.05615 35.5674 4.73718 35.5674 5.57728C35.5674 6.41737 36.2498 7.09841 37.0917 7.09841Z" fill="url(#paint49_linear)"/>
<path d="M2.05776 42.7683C2.67391 42.6704 3.09499 42.0942 2.99825 41.4813C2.90152 40.8684 2.32361 40.451 1.70745 40.5488C1.09129 40.6467 0.670216 41.2229 0.766951 41.8358C0.863686 42.4487 1.4416 42.8662 2.05776 42.7683Z" fill="#923A8E"/>
<path d="M5.77583 53.0665C6.33136 52.784 6.55274 52.1066 6.27028 51.5534C5.98782 51.0002 5.30849 50.7808 4.75296 51.0632C4.19742 51.3457 3.97605 52.0231 4.25851 52.5763C4.54096 53.1295 5.22029 53.3489 5.77583 53.0665Z" fill="#923A8E"/>
<path d="M43.3962 1.6923C43.4933 1.0795 43.0725 0.503889 42.4563 0.406639C41.84 0.309388 41.2617 0.727327 41.1646 1.34013C41.0675 1.95293 41.4883 2.52854 42.1046 2.62579C42.7208 2.72305 43.2991 2.30511 43.3962 1.6923Z" fill="#923A8E"/>
<path d="M6.27137 20.7798C6.55389 20.2267 6.33257 19.5492 5.77703 19.2666C5.22149 18.9841 4.54212 19.2035 4.25959 19.7567C3.97707 20.3099 4.1984 20.9873 4.75393 21.2699C5.30947 21.5524 5.98885 21.333 6.27137 20.7798Z" fill="#923A8E"/>
<path d="M31.3492 2.70668C31.9655 2.60918 32.3861 2.03337 32.2887 1.42056C32.1914 0.80776 31.6129 0.390024 30.9967 0.487524C30.3804 0.585023 29.9598 1.16084 30.0572 1.77364C30.1545 2.38644 30.733 2.80418 31.3492 2.70668Z" fill="#923A8E"/>
<path d="M53.7509 5.45115C54.0333 4.89791 53.8118 4.22049 53.2562 3.93807C52.7006 3.65566 52.0213 3.87521 51.7389 4.42845C51.4565 4.98169 51.6779 5.65912 52.2335 5.94153C52.7891 6.22394 53.4685 6.00439 53.7509 5.45115Z" fill="#923A8E"/>
<path d="M3.04058 30.8812C3.1375 30.2683 2.71658 29.6919 2.10042 29.5939C1.48427 29.4958 0.906201 29.9131 0.80928 30.526C0.712359 31.1389 1.13328 31.7152 1.74944 31.8133C2.3656 31.9114 2.94366 31.494 3.04058 30.8812Z" fill="#923A8E"/>
<path d="M53.2405 68.3917C53.796 68.1091 54.0172 67.4316 53.7346 66.8785C53.452 66.3254 52.7727 66.1061 52.2172 66.3887C51.6617 66.6713 51.4405 67.3488 51.7231 67.9019C52.0057 68.455 52.685 68.6743 53.2405 68.3917Z" fill="#923A8E"/>
<path d="M32.3056 70.9921C32.4029 70.3793 31.9821 69.8036 31.3659 69.7062C30.7496 69.6088 30.1713 70.0266 30.074 70.6394C29.9768 71.2522 30.3975 71.828 31.0137 71.9253C31.63 72.0227 32.2084 71.6049 32.3056 70.9921Z" fill="#923A8E"/>
<path d="M42.4443 71.8711C43.0605 71.7738 43.4813 71.1981 43.3841 70.5853C43.2869 69.9725 42.7086 69.5546 42.0924 69.6519C41.4761 69.7492 41.0553 70.3249 41.1525 70.9377C41.2497 71.5505 41.828 71.9684 42.4443 71.8711Z" fill="#923A8E"/>
<path d="M62.4816 12.181C62.922 11.7415 62.922 11.029 62.4816 10.5895C62.0412 10.15 61.3272 10.15 60.8868 10.5895C60.4464 11.029 60.4464 11.7415 60.8868 12.181C61.3272 12.6205 62.0412 12.6205 62.4816 12.181Z" fill="#923A8E"/>
<path d="M62.4525 61.7194C62.8928 61.2798 62.8926 60.5673 62.4521 60.1279C62.0116 59.6885 61.2975 59.6887 60.8572 60.1284C60.417 60.568 60.4172 61.2805 60.8577 61.7198C61.2982 62.1592 62.0123 62.159 62.4525 61.7194Z" fill="#923A8E"/>
<path d="M12.5992 12.218C13.0396 11.7785 13.0397 11.066 12.5994 10.6265C12.1591 10.1869 11.445 10.1868 11.0046 10.6262C10.5641 11.0657 10.564 11.7782 11.0043 12.2177C11.4447 12.6573 12.1587 12.6574 12.5992 12.218Z" fill="#923A8E"/>
<path d="M12.5699 61.7482C13.0103 61.3088 13.0104 60.5963 12.5701 60.1567C12.1298 59.7172 11.4157 59.7171 10.9753 60.1565C10.5348 60.5959 10.5347 61.3085 10.975 61.748C11.4154 62.1875 12.1294 62.1876 12.5699 61.7482Z" fill="#923A8E"/>
<path d="M21.2345 5.96292C21.7901 5.68057 22.0116 5.00319 21.7293 4.44995C21.4469 3.89671 20.7677 3.67711 20.2121 3.95946C19.6565 4.24181 19.4349 4.91919 19.7173 5.47243C19.9996 6.02567 20.6789 6.24527 21.2345 5.96292Z" fill="#923A8E"/>
<path d="M21.7278 67.8997C22.0103 67.3466 21.7889 66.6691 21.2333 66.3866C20.6778 66.1042 19.9985 66.3236 19.716 66.8768C19.4336 67.43 19.6549 68.1074 20.2105 68.3899C20.766 68.6724 21.4453 68.4529 21.7278 67.8997Z" fill="#923A8E"/>
<path d="M69.9453 55.7295H70.3198V61.0478H69.9453V55.7295Z" fill="#923A8E"/>
<path d="M72.7539 55.7295H73.1284V58.2534H76.5923V55.7295H76.9668V61.0478H76.5923V58.5239H73.1284V61.0478H72.7539V55.7295Z" fill="#923A8E"/>
<path d="M81.648 55.6392C82.3033 55.6392 83.0522 55.8194 83.614 56.2701L83.4267 56.5406C82.9586 56.18 82.3033 55.9096 81.648 55.9096C80.2437 55.9096 79.2138 56.9011 79.2138 58.3434C79.2138 59.6955 80.15 60.7772 81.648 60.7772C82.3033 60.7772 83.0522 60.5068 83.5203 60.0561L83.7076 60.3265C83.2395 60.7772 82.5841 61.1378 81.648 61.1378C79.9628 61.1378 78.8394 59.8758 78.8394 58.3434C78.8394 56.811 80.0564 55.6392 81.648 55.6392Z" fill="#923A8E"/>
<path d="M86.984 55.9999H84.9243V55.7295H89.4181V55.9999H87.3584V61.0478H86.984V55.9999Z" fill="#923A8E"/>
<path d="M91.1034 55.7293H91.4779V59.8758C91.4779 60.1462 91.4779 60.5068 91.4779 60.5068C91.4779 60.5068 91.7587 60.0561 91.946 59.7856L95.0354 55.6392H95.3163V60.9575H94.9418V56.811C94.9418 56.5406 94.9418 56.18 94.9418 56.18C94.9418 56.18 94.6609 56.6307 94.4737 56.811L91.2906 60.9575H91.0098V55.7293H91.1034Z" fill="#923A8E"/>
<path d="M99.0611 55.9999H97.0015V55.7295H101.495V55.9999H99.4356V61.0478H99.0611V55.9999Z" fill="#923A8E"/>
<path d="M103.274 60.5968C103.368 60.6869 103.649 60.8672 103.93 60.8672C104.304 60.8672 104.491 60.5067 104.679 60.056L102.432 55.8193H102.806L104.491 59.0644C104.679 59.3348 104.772 59.7855 104.772 59.7855C104.772 59.7855 104.866 59.425 105.053 59.0644L106.27 55.8193H106.645L104.772 60.4165C104.585 60.8672 104.304 61.2278 103.836 61.2278C103.555 61.2278 103.274 61.0475 102.993 60.9574L103.274 60.5968Z" fill="#923A8E"/>
<path d="M109.827 55.9999H107.768V55.7295H112.261V55.9999H110.202V61.0478H109.827V55.9999Z" fill="#923A8E"/>
<path d="M119.002 55.6392C120.5 55.6392 121.811 56.811 121.811 58.3434C121.811 59.8758 120.593 61.1378 119.002 61.1378C117.504 61.1378 116.193 59.8758 116.193 58.3434C116.193 56.811 117.41 55.6392 119.002 55.6392ZM119.002 60.7772C120.313 60.7772 121.436 59.6955 121.436 58.3434C121.436 56.9913 120.313 55.9096 119.002 55.9096C117.691 55.9096 116.568 56.9913 116.568 58.3434C116.568 59.7856 117.598 60.7772 119.002 60.7772Z" fill="#923A8E"/>
<path d="M125.93 55.9996V55.3687H126.304V55.9996C127.896 55.9996 128.926 56.8109 128.926 58.2532C128.926 59.6954 127.896 60.5067 126.304 60.5067V61.2278H125.93V60.5067C124.338 60.5067 123.309 59.6954 123.309 58.2532C123.309 56.8109 124.432 55.9996 125.93 55.9996ZM125.93 60.1461V56.2701C124.526 56.2701 123.683 56.9912 123.683 58.163C123.683 59.5151 124.526 60.1461 125.93 60.1461ZM128.551 58.2532C128.551 56.9912 127.709 56.3602 126.304 56.3602V60.2363C127.709 60.1461 128.551 59.5151 128.551 58.2532Z" fill="#923A8E"/>
<path d="M131.922 55.9999H129.862V55.7295H134.356V55.9999H132.296V61.0478H131.922V55.9999Z" fill="#923A8E"/>
<path d="M136.977 55.7295H137.351L139.411 61.0478H139.037L138.288 59.245H135.947L135.198 61.0478H134.824L136.977 55.7295ZM138.194 58.8844L137.351 56.721C137.258 56.4506 137.164 56.0901 137.164 56.0901C137.164 56.0901 137.071 56.5408 136.977 56.721L136.134 58.8844H138.194Z" fill="#923A8E"/>
<path d="M141.752 56.6309V55.7295H144.56V61.0478H144.186V55.9999H142.126V56.6309C142.126 59.1548 141.939 60.9577 140.441 61.1379V60.7774C141.471 60.5971 141.752 58.9746 141.752 56.6309Z" fill="#923A8E"/>
<path d="M146.995 55.7295H147.369V57.983H148.68C149.522 57.983 150.271 58.4337 150.271 59.5154C150.271 60.4168 149.616 61.0478 148.773 61.0478H146.995V55.7295ZM148.68 60.7774C149.429 60.7774 149.897 60.3267 149.897 59.6055C149.897 58.7943 149.429 58.3436 148.68 58.3436H147.369V60.7774H148.68Z" fill="#923A8E"/>
<path d="M152.331 55.7295H152.705L154.297 59.0647C154.391 59.3351 154.578 59.6957 154.578 59.6957C154.578 59.6957 154.765 59.3351 154.859 59.0647L156.45 55.7295H156.825L157.293 61.0478H156.918L156.544 56.9915C156.544 56.721 156.544 56.2703 156.544 56.2703C156.544 56.2703 156.357 56.721 156.263 56.9915L154.765 60.0563H154.391L152.893 56.9915C152.799 56.721 152.612 56.2703 152.612 56.2703C152.612 56.2703 152.612 56.721 152.612 56.9915L152.237 61.0478H151.863L152.331 55.7295Z" fill="#923A8E"/>
<path d="M161.88 55.6392C163.378 55.6392 164.688 56.811 164.688 58.3434C164.688 59.8758 163.471 61.1378 161.88 61.1378C160.382 61.1378 159.071 59.8758 159.071 58.3434C159.071 56.811 160.288 55.6392 161.88 55.6392ZM161.88 60.7772C163.191 60.7772 164.314 59.6955 164.314 58.3434C164.314 56.9913 163.191 55.9096 161.88 55.9096C160.569 55.9096 159.446 56.9913 159.446 58.3434C159.446 59.7856 160.476 60.7772 161.88 60.7772Z" fill="#923A8E"/>
<path d="M167.123 56.6309V55.7295H169.931V61.0478H169.557V55.9999H167.403V56.6309C167.403 59.1548 167.216 60.9577 165.718 61.1379V60.7774C166.842 60.5971 167.123 58.9746 167.123 56.6309Z" fill="#923A8E"/>
<path d="M174.8 55.6392C176.298 55.6392 177.608 56.811 177.608 58.3434C177.608 59.8758 176.391 61.1378 174.8 61.1378C173.302 61.1378 171.991 59.8758 171.991 58.3434C171.991 56.811 173.208 55.6392 174.8 55.6392ZM174.8 60.7772C176.11 60.7772 177.234 59.6955 177.234 58.3434C177.234 56.9913 176.11 55.9096 174.8 55.9096C173.489 55.9096 172.366 56.9913 172.366 58.3434C172.272 59.7856 173.396 60.7772 174.8 60.7772Z" fill="#923A8E"/>
<path d="M179.574 55.7295H182.383V55.9999H179.949V61.0478H179.574V55.7295Z" fill="#923A8E"/>
<path d="M184.068 55.7295H184.442V61.0478H184.068V55.7295Z" fill="#923A8E"/>
<path d="M186.221 54.4673H186.596V55.0081H186.221V54.4673ZM186.783 55.7293H187.157V61.0476H186.783V55.7293ZM187.345 54.4673H187.719V55.0081H187.345V54.4673Z" fill="#923A8E"/>
<path d="M70.9812 21.7563C74.7537 21.7563 78.9033 22.8626 81.7327 25.5361L79.6578 28.5784C77.4887 26.7346 74.1878 25.4439 71.1699 25.4439C64.3795 25.4439 60.3241 30.33 60.3241 36.4145C60.3241 42.499 64.4738 47.7538 71.2642 47.7538C74.565 47.7538 77.9602 46.3709 80.318 43.974L82.4871 46.8319C79.9408 49.321 76.357 51.3492 71.0756 51.3492C61.9274 51.3492 55.9858 44.7115 55.9858 36.3223C55.9858 28.1174 62.2103 21.7563 70.9812 21.7563Z" fill="#504B99"/>
<path d="M86.165 22.2173H90.3147V40.7474C90.3147 45.1725 93.2383 47.7538 97.7653 47.7538C102.292 47.7538 105.216 45.1725 105.216 40.7474V22.2173H109.365V40.8396C109.365 47.2928 104.744 51.5336 97.8596 51.5336C90.9749 51.5336 86.2593 47.2928 86.2593 40.8396V22.2173H86.165Z" fill="#504B99"/>
<path d="M116.345 22.2173H120.494V47.4772H133.698V50.9804H116.345V22.2173Z" fill="#504B99"/>
<path d="M146.43 22.2173H150.768L161.331 50.9804H157.087L154.163 42.6834H143.035L140.111 50.9804H135.867L146.43 22.2173ZM153.126 39.3645L149.919 30.2378C149.448 28.7627 148.788 26.0892 148.788 26.0892H148.693C148.693 26.0892 148.033 28.6705 147.562 30.2378L144.261 39.3645H153.126Z" fill="#504B99"/>
<path d="M165.198 22.2173H174.535C177.364 22.2173 178.779 22.4939 180.005 22.9548C182.834 24.1533 184.626 26.8268 184.626 30.5143C184.626 34.2019 182.551 37.3364 179.344 38.4426V38.5348C179.344 38.5348 179.722 38.9036 180.193 39.8255L186.418 50.9804H181.796L175.666 39.5489H169.347V50.9804H165.198V22.2173ZM175.289 36.0457C178.496 36.0457 180.57 33.9254 180.57 30.7909C180.57 28.6705 179.627 27.0111 177.835 26.2736C177.081 25.9049 176.138 25.8127 174.252 25.8127H169.347V36.0457H175.289Z" fill="#504B99"/>
<defs>
<linearGradient id="paint0_linear" x1="-5.92611" y1="18.1101" x2="66.0559" y2="17.6858" gradientUnits="userSpaceOnUse">
<stop stop-color="#504B99"/>
<stop offset="1" stop-color="#923A8E"/>
</linearGradient>
<linearGradient id="paint1_linear" x1="-18.3013" y1="48.0487" x2="68.0769" y2="47.5396" gradientUnits="userSpaceOnUse">
<stop stop-color="#504B99"/>
<stop offset="1" stop-color="#923A8E"/>
</linearGradient>
<linearGradient id="paint2_linear" x1="-16.4495" y1="20.5582" x2="69.9288" y2="20.0491" gradientUnits="userSpaceOnUse">
<stop stop-color="#504B99"/>
<stop offset="1" stop-color="#923A8E"/>
</linearGradient>
<linearGradient id="paint3_linear" x1="-18.4524" y1="24.7496" x2="67.9259" y2="24.2404" gradientUnits="userSpaceOnUse">
<stop stop-color="#504B99"/>
<stop offset="1" stop-color="#923A8E"/>
</linearGradient>
<linearGradient id="paint4_linear" x1="-17.6682" y1="20.709" x2="68.7102" y2="20.1998" gradientUnits="userSpaceOnUse">
<stop stop-color="#504B99"/>
<stop offset="1" stop-color="#923A8E"/>
</linearGradient>
<linearGradient id="paint5_linear" x1="-8.04089" y1="18.1511" x2="66.4232" y2="17.7121" gradientUnits="userSpaceOnUse">
<stop stop-color="#504B99"/>
<stop offset="1" stop-color="#923A8E"/>
</linearGradient>
<linearGradient id="paint6_linear" x1="-5.87796" y1="11.0363" x2="66.104" y2="10.612" gradientUnits="userSpaceOnUse">
<stop stop-color="#504B99"/>
<stop offset="1" stop-color="#923A8E"/>
</linearGradient>
<linearGradient id="paint7_linear" x1="-15.4573" y1="47.8413" x2="70.921" y2="47.3322" gradientUnits="userSpaceOnUse">
<stop stop-color="#504B99"/>
<stop offset="1" stop-color="#923A8E"/>
</linearGradient>
<linearGradient id="paint8_linear" x1="-15.4707" y1="30.6019" x2="70.9076" y2="30.0927" gradientUnits="userSpaceOnUse">
<stop stop-color="#504B99"/>
<stop offset="1" stop-color="#923A8E"/>
</linearGradient>
<linearGradient id="paint9_linear" x1="-15.6084" y1="24.5422" x2="70.77" y2="24.033" gradientUnits="userSpaceOnUse">
<stop stop-color="#504B99"/>
<stop offset="1" stop-color="#923A8E"/>
</linearGradient>
<linearGradient id="paint10_linear" x1="-15.3913" y1="42.7593" x2="70.9871" y2="42.2501" gradientUnits="userSpaceOnUse">
<stop stop-color="#504B99"/>
<stop offset="1" stop-color="#923A8E"/>
</linearGradient>
<linearGradient id="paint11_linear" x1="-15.4307" y1="36.6582" x2="70.9476" y2="36.149" gradientUnits="userSpaceOnUse">
<stop stop-color="#504B99"/>
<stop offset="1" stop-color="#923A8E"/>
</linearGradient>
<linearGradient id="paint12_linear" x1="-10.8621" y1="24.9465" x2="63.602" y2="24.5076" gradientUnits="userSpaceOnUse">
<stop stop-color="#504B99"/>
<stop offset="1" stop-color="#923A8E"/>
</linearGradient>
<linearGradient id="paint13_linear" x1="-11.5032" y1="32.0708" x2="62.9609" y2="31.6318" gradientUnits="userSpaceOnUse">
<stop stop-color="#504B99"/>
<stop offset="1" stop-color="#923A8E"/>
</linearGradient>
<linearGradient id="paint14_linear" x1="-11.4585" y1="40.1567" x2="63.0056" y2="39.7178" gradientUnits="userSpaceOnUse">
<stop stop-color="#504B99"/>
<stop offset="1" stop-color="#923A8E"/>
</linearGradient>
<linearGradient id="paint15_linear" x1="-10.7325" y1="48.3229" x2="63.7317" y2="47.8839" gradientUnits="userSpaceOnUse">
<stop stop-color="#504B99"/>
<stop offset="1" stop-color="#923A8E"/>
</linearGradient>
<linearGradient id="paint16_linear" x1="-10.3311" y1="17.8437" x2="61.6509" y2="17.4193" gradientUnits="userSpaceOnUse">
<stop stop-color="#504B99"/>
<stop offset="1" stop-color="#923A8E"/>
</linearGradient>
<linearGradient id="paint17_linear" x1="-11.3861" y1="26.9753" x2="60.5958" y2="26.5509" gradientUnits="userSpaceOnUse">
<stop stop-color="#504B99"/>
<stop offset="1" stop-color="#923A8E"/>
</linearGradient>
<linearGradient id="paint18_linear" x1="-10.9968" y1="36.1234" x2="60.9852" y2="35.6991" gradientUnits="userSpaceOnUse">
<stop stop-color="#504B99"/>
<stop offset="1" stop-color="#923A8E"/>
</linearGradient>
<linearGradient id="paint19_linear" x1="-11.2842" y1="46.218" x2="60.6978" y2="45.7937" gradientUnits="userSpaceOnUse">
<stop stop-color="#504B99"/>
<stop offset="1" stop-color="#923A8E"/>
</linearGradient>
<linearGradient id="paint20_linear" x1="-16.8261" y1="56.1216" x2="69.5523" y2="55.6124" gradientUnits="userSpaceOnUse">
<stop stop-color="#504B99"/>
<stop offset="1" stop-color="#923A8E"/>
</linearGradient>
<linearGradient id="paint21_linear" x1="-17.442" y1="56.1082" x2="68.9363" y2="55.599" gradientUnits="userSpaceOnUse">
<stop stop-color="#504B99"/>
<stop offset="1" stop-color="#923A8E"/>
</linearGradient>
<linearGradient id="paint22_linear" x1="-17.4602" y1="53.1483" x2="68.9182" y2="52.6392" gradientUnits="userSpaceOnUse">
<stop stop-color="#504B99"/>
<stop offset="1" stop-color="#923A8E"/>
</linearGradient>
<linearGradient id="paint23_linear" x1="-16.2416" y1="52.9975" x2="70.1368" y2="52.4883" gradientUnits="userSpaceOnUse">
<stop stop-color="#504B99"/>
<stop offset="1" stop-color="#923A8E"/>
</linearGradient>
<linearGradient id="paint24_linear" x1="-16.2227" y1="56.029" x2="70.1556" y2="55.5198" gradientUnits="userSpaceOnUse">
<stop stop-color="#504B99"/>
<stop offset="1" stop-color="#923A8E"/>
</linearGradient>
<linearGradient id="paint25_linear" x1="-10.0917" y1="59.5482" x2="64.3724" y2="59.1092" gradientUnits="userSpaceOnUse">
<stop stop-color="#504B99"/>
<stop offset="1" stop-color="#923A8E"/>
</linearGradient>
<linearGradient id="paint26_linear" x1="-9.21903" y1="61.6006" x2="65.2451" y2="61.1617" gradientUnits="userSpaceOnUse">
<stop stop-color="#504B99"/>
<stop offset="1" stop-color="#923A8E"/>
</linearGradient>
<linearGradient id="paint27_linear" x1="-8.62287" y1="61.6451" x2="65.8412" y2="61.2062" gradientUnits="userSpaceOnUse">
<stop stop-color="#504B99"/>
<stop offset="1" stop-color="#923A8E"/>
</linearGradient>
<linearGradient id="paint28_linear" x1="-8.79432" y1="59.6776" x2="65.6698" y2="59.2386" gradientUnits="userSpaceOnUse">
<stop stop-color="#504B99"/>
<stop offset="1" stop-color="#923A8E"/>
</linearGradient>
<linearGradient id="paint29_linear" x1="-7.83896" y1="54.647" x2="66.6252" y2="54.208" gradientUnits="userSpaceOnUse">
<stop stop-color="#504B99"/>
<stop offset="1" stop-color="#923A8E"/>
</linearGradient>
<linearGradient id="paint30_linear" x1="-11.0991" y1="54.4455" x2="63.365" y2="54.0065" gradientUnits="userSpaceOnUse">
<stop stop-color="#504B99"/>
<stop offset="1" stop-color="#923A8E"/>
</linearGradient>
<linearGradient id="paint31_linear" x1="-9.16911" y1="61.5407" x2="62.8129" y2="61.1164" gradientUnits="userSpaceOnUse">
<stop stop-color="#504B99"/>
<stop offset="1" stop-color="#923A8E"/>
</linearGradient>
<linearGradient id="paint32_linear" x1="-8.89116" y1="65.6467" x2="63.0908" y2="65.2224" gradientUnits="userSpaceOnUse">
<stop stop-color="#504B99"/>
<stop offset="1" stop-color="#923A8E"/>
</linearGradient>
<linearGradient id="paint33_linear" x1="-7.35855" y1="67.6594" x2="64.6233" y2="67.2351" gradientUnits="userSpaceOnUse">
<stop stop-color="#504B99"/>
<stop offset="1" stop-color="#923A8E"/>
</linearGradient>
<linearGradient id="paint34_linear" x1="-6.85822" y1="65.7485" x2="65.1238" y2="65.3242" gradientUnits="userSpaceOnUse">
<stop stop-color="#504B99"/>
<stop offset="1" stop-color="#923A8E"/>
</linearGradient>
<linearGradient id="paint35_linear" x1="-5.61104" y1="61.7343" x2="66.3709" y2="61.31" gradientUnits="userSpaceOnUse">
<stop stop-color="#504B99"/>
<stop offset="1" stop-color="#923A8E"/>
</linearGradient>
<linearGradient id="paint36_linear" x1="-5.7321" y1="54.6487" x2="66.2499" y2="54.2244" gradientUnits="userSpaceOnUse">
<stop stop-color="#504B99"/>
<stop offset="1" stop-color="#923A8E"/>
</linearGradient>
<linearGradient id="paint37_linear" x1="-10.1371" y1="54.3823" x2="61.8448" y2="53.9579" gradientUnits="userSpaceOnUse">
<stop stop-color="#504B99"/>
<stop offset="1" stop-color="#923A8E"/>
</linearGradient>
<linearGradient id="paint38_linear" x1="-17.0832" y1="16.5712" x2="69.2952" y2="16.0621" gradientUnits="userSpaceOnUse">
<stop stop-color="#504B99"/>
<stop offset="1" stop-color="#923A8E"/>
</linearGradient>
<linearGradient id="paint39_linear" x1="-17.6864" y1="17.5761" x2="68.6919" y2="17.0669" gradientUnits="userSpaceOnUse">
<stop stop-color="#504B99"/>
<stop offset="1" stop-color="#923A8E"/>
</linearGradient>
<linearGradient id="paint40_linear" x1="-16.4672" y1="17.4969" x2="69.9111" y2="16.9877" gradientUnits="userSpaceOnUse">
<stop stop-color="#504B99"/>
<stop offset="1" stop-color="#923A8E"/>
</linearGradient>
<linearGradient id="paint41_linear" x1="-10.3462" y1="12.9191" x2="64.1179" y2="12.4802" gradientUnits="userSpaceOnUse">
<stop stop-color="#504B99"/>
<stop offset="1" stop-color="#923A8E"/>
</linearGradient>
<linearGradient id="paint42_linear" x1="-11.301" y1="17.9497" x2="63.1631" y2="17.5107" gradientUnits="userSpaceOnUse">
<stop stop-color="#504B99"/>
<stop offset="1" stop-color="#923A8E"/>
</linearGradient>
<linearGradient id="paint43_linear" x1="-9.04881" y1="13.0484" x2="65.4154" y2="12.6095" gradientUnits="userSpaceOnUse">
<stop stop-color="#504B99"/>
<stop offset="1" stop-color="#923A8E"/>
</linearGradient>
<linearGradient id="paint44_linear" x1="-8.90487" y1="10.9086" x2="65.5592" y2="10.4697" gradientUnits="userSpaceOnUse">
<stop stop-color="#504B99"/>
<stop offset="1" stop-color="#923A8E"/>
</linearGradient>
<linearGradient id="paint45_linear" x1="-9.50103" y1="10.8641" x2="64.9631" y2="10.4251" gradientUnits="userSpaceOnUse">
<stop stop-color="#504B99"/>
<stop offset="1" stop-color="#923A8E"/>
</linearGradient>
<linearGradient id="paint46_linear" x1="-9.205" y1="6.82848" x2="62.7769" y2="6.40417" gradientUnits="userSpaceOnUse">
<stop stop-color="#504B99"/>
<stop offset="1" stop-color="#923A8E"/>
</linearGradient>
<linearGradient id="paint47_linear" x1="-9.43612" y1="10.8426" x2="62.5459" y2="10.4183" gradientUnits="userSpaceOnUse">
<stop stop-color="#504B99"/>
<stop offset="1" stop-color="#923A8E"/>
</linearGradient>
<linearGradient id="paint48_linear" x1="-7.17206" y1="6.93031" x2="64.81" y2="6.506" gradientUnits="userSpaceOnUse">
<stop stop-color="#504B99"/>
<stop offset="1" stop-color="#923A8E"/>
</linearGradient>
<linearGradient id="paint49_linear" x1="-7.68849" y1="5.84719" x2="64.2934" y2="5.42288" gradientUnits="userSpaceOnUse">
<stop stop-color="#504B99"/>
<stop offset="1" stop-color="#923A8E"/>
</linearGradient>
</defs>
</svg>
