<svg width="32" height="32" viewBox="0 0 32 32" fill="none" xmlns="http://www.w3.org/2000/svg">
<path d="M19.5278 16L30.2778 5.27498C30.7485 4.80422 31.013 4.16573 31.013 3.49998C31.013 2.83422 30.7485 2.19573 30.2778 1.72498C29.807 1.25422 29.1685 0.989746 28.5028 0.989746C27.837 0.989746 27.1985 1.25422 26.7278 1.72498L16.0028 12.475L5.27778 1.72498C4.80702 1.25422 4.16853 0.989746 3.50278 0.989746C2.83702 0.989746 2.19854 1.25422 1.72778 1.72498C1.25702 2.19573 0.992548 2.83422 0.992548 3.49998C0.992548 4.16573 1.25702 4.80422 1.72778 5.27498L12.4778 16L1.72778 26.725C1.49346 26.9574 1.30747 27.2339 1.18055 27.5385C1.05363 27.8432 0.988281 28.1699 0.988281 28.5C0.988281 28.83 1.05363 29.1568 1.18055 29.4614C1.30747 29.7661 1.49346 30.0426 1.72778 30.275C1.96018 30.5093 2.23669 30.6953 2.54134 30.8222C2.84598 30.9491 3.17275 31.0145 3.50278 31.0145C3.83281 31.0145 4.15957 30.9491 4.46422 30.8222C4.76887 30.6953 5.04537 30.5093 5.27778 30.275L16.0028 19.525L26.7278 30.275C26.9602 30.5093 27.2367 30.6953 27.5413 30.8222C27.846 30.9491 28.1727 31.0145 28.5028 31.0145C28.8328 31.0145 29.1596 30.9491 29.4642 30.8222C29.7689 30.6953 30.0454 30.5093 30.2778 30.275C30.5121 30.0426 30.6981 29.7661 30.825 29.4614C30.9519 29.1568 31.0173 28.83 31.0173 28.5C31.0173 28.1699 30.9519 27.8432 30.825 27.5385C30.6981 27.2339 30.5121 26.9574 30.2778 26.725L19.5278 16Z" fill="#292929"/>
</svg>
