<svg width="20" height="20" viewBox="0 0 20 20" fill="none" xmlns="http://www.w3.org/2000/svg">
<path d="M13.5102 13.2875L13.523 13.272L13.5345 13.2556C13.6821 13.045 13.9051 12.8994 14.1573 12.8489C14.4084 12.7987 14.6692 12.8468 14.8859 12.9831L18.1267 15.1021C18.2873 15.2142 18.4981 15.4067 18.6537 15.6277C18.8174 15.8602 18.8684 16.0484 18.8493 16.1758C18.8391 16.2437 18.7714 16.4549 18.6011 16.7554C18.4382 17.043 18.2005 17.3779 17.8867 17.6953C17.2615 18.3275 16.3516 18.8749 15.125 18.8749C13.8577 18.8749 12.3922 18.3732 10.8458 17.4705C9.3057 16.5714 7.72199 15.2961 6.22855 13.8026C4.73446 12.3085 3.45119 10.7245 2.54444 9.18036C1.63405 7.63003 1.125 6.15714 1.125 4.87495C1.125 3.61735 1.63071 2.71604 2.23057 2.10929C2.84791 1.48486 3.54118 1.19557 3.85196 1.15117C4.13308 1.11101 4.30626 1.19013 4.44882 1.30933C4.59673 1.43299 4.70445 1.59059 4.83427 1.78052C4.85475 1.81048 4.87577 1.84124 4.8976 1.8728L7.01686 5.11403C7.1532 5.33073 7.20124 5.59152 7.15102 5.84265C7.10058 6.09484 6.95492 6.31789 6.74431 6.46548L6.7279 6.47698L6.71247 6.48975C6.6776 6.5186 6.63942 6.54933 6.59873 6.58207C6.18066 6.91846 5.49786 7.46787 5.431 8.38956C5.3589 9.38345 5.9989 10.6122 7.70895 12.3223C9.41764 14.0309 10.6414 14.6671 11.6316 14.5841C12.5346 14.5085 13.0763 13.8297 13.408 13.4142C13.4445 13.3683 13.4785 13.3257 13.5102 13.2875Z" stroke="url(#paint0_linear)"/>
<defs>
<linearGradient id="paint0_linear" x1="0.625" y1="0.640625" x2="19.3593" y2="19.3688" gradientUnits="userSpaceOnUse">
<stop stop-color="#A83592"/>
<stop offset="1" stop-color="#4F4A9D"/>
</linearGradient>
</defs>
</svg>
