<svg width="25" height="48" viewBox="0 0 25 48" fill="none" xmlns="http://www.w3.org/2000/svg">
<path d="M24.3331 23.9999C24.3346 24.7787 24.0634 25.5335 23.5665 26.1332L6.89978 46.1332C6.33399 46.8139 5.52095 47.242 4.63953 47.3233C3.75811 47.4046 2.8805 47.1324 2.19978 46.5666C1.51906 46.0008 1.09098 45.1877 1.00971 44.3063C0.928445 43.4249 1.20065 42.5473 1.76644 41.8666L16.6998 23.9999L2.29978 6.13322C2.02289 5.79226 1.81612 5.39994 1.69135 4.97881C1.56658 4.55768 1.52626 4.11605 1.57273 3.67929C1.61919 3.24253 1.75151 2.81925 1.96209 2.4338C2.17267 2.04834 2.45736 1.7083 2.79978 1.43322C3.14252 1.12796 3.54461 0.896763 3.98085 0.75412C4.4171 0.611477 4.8781 0.560467 5.33498 0.604278C5.79186 0.648086 6.23476 0.785774 6.63595 1.00872C7.03714 1.23166 7.38797 1.53506 7.66645 1.89989L23.7665 21.8999C24.1848 22.5168 24.3844 23.2562 24.3331 23.9999Z" fill="#A83592"/>
</svg>
