<svg width="91" height="99" viewBox="0 0 91 99" fill="none" xmlns="http://www.w3.org/2000/svg">
<ellipse cx="45.5" cy="44.9541" rx="45" ry="44.9541" fill="#FCF8F2"/>
<g clip-path="url(#clip0)">
<path d="M45.9997 89.6357C45.4172 89.6357 44.945 90.108 44.945 90.6904C44.945 91.2729 45.4172 91.7451 45.9997 91.7451C46.5822 91.7451 47.0544 91.2729 47.0544 90.6904C47.0544 90.108 46.5822 89.6357 45.9997 89.6357ZM45.9997 83.3076C45.4172 83.3076 44.945 83.7798 44.945 84.3623C44.945 84.9448 45.4172 85.417 45.9997 85.417C46.5822 85.417 47.0544 84.9448 47.0544 84.3623C47.0544 83.7798 46.5822 83.3076 45.9997 83.3076ZM45.9997 95.9639C45.4172 95.9639 44.945 96.4361 44.945 97.0186C44.945 97.601 45.4172 98.0732 45.9997 98.0732C46.5822 98.0732 47.0544 97.601 47.0544 97.0186C47.0544 96.4361 46.5822 95.9639 45.9997 95.9639ZM66.7197 74.3262L62.025 72.7464C64.6203 70.8979 66.2469 67.864 66.2469 64.5892C66.2536 64.5757 66.2469 46.3206 66.2469 46.3206C66.2469 40.9141 64.141 35.8298 60.3172 32.0045C56.4926 28.1797 51.4079 26.0732 45.9997 26.0732C42.526 26.0732 39.0988 26.968 36.0884 28.661C35.5808 28.9465 35.4006 29.5896 35.6861 30.0972C35.9716 30.605 36.6148 30.7849 37.1223 30.4996C39.8177 28.9839 42.8874 28.1826 45.9997 28.1826C50.8444 28.1826 55.3994 30.0695 58.8255 33.4957C62.251 36.9226 64.1375 41.4772 64.1375 46.3204V46.3252C63.5249 45.9736 62.8162 45.7714 62.0608 45.7714H61.0473C58.2255 45.2868 55.4579 44.4871 52.82 43.3923C50.8124 42.5591 48.8616 41.5468 47.0216 40.3835C46.3773 39.976 45.5366 40.0138 44.9298 40.4776C43.4945 41.5741 41.9445 42.5223 40.3227 43.2957C37.4088 44.6854 34.2733 45.518 31.0027 45.7714H29.9388C29.1833 45.7714 28.4746 45.9736 27.862 46.3252V46.3204C27.862 41.4129 29.7908 36.8163 33.2932 33.3774C33.7089 32.9694 33.715 32.3017 33.3069 31.886C32.8989 31.4704 32.2311 31.4641 31.8154 31.8723C27.9058 35.711 25.7526 40.8422 25.7526 46.3204V64.589C25.7526 67.8639 27.3793 70.8979 29.9745 72.7463L25.2797 74.3262C21.4125 75.6278 18.8142 79.2434 18.8142 83.3231V97.0186C18.8142 97.601 19.2864 98.0732 19.8689 98.0732C20.4514 98.0732 20.9236 97.601 20.9236 97.0186V83.3231C20.9236 80.15 22.9446 77.3378 25.9526 76.3254L27.7855 75.7087C27.5143 76.8234 27.3943 77.9724 27.4365 79.11C27.4764 80.19 27.6587 81.2515 27.9741 82.2811C25.9253 82.8961 24.428 84.7985 24.428 87.045V91.3373C24.428 92.3992 25.2918 93.2629 26.3535 93.2629H27.5355C28.118 93.2629 28.5902 92.7907 28.5902 92.2082C28.5902 91.6257 28.118 91.1535 27.5355 91.1535H26.5372V87.0449C26.5372 85.4661 27.8211 84.1816 29.3996 84.1806C29.4005 84.1806 29.4012 84.1808 29.402 84.1808C29.4029 84.1808 29.4037 84.1806 29.4045 84.1806C30.9826 84.1823 32.266 85.4665 32.266 87.0449V91.1535H31.2678C30.6854 91.1535 30.2131 91.6257 30.2131 92.2082C30.2131 92.7907 30.6854 93.2629 31.2678 93.2629H32.4498C33.5115 93.2629 34.3754 92.399 34.3754 91.3373V87.045C34.3754 84.5548 32.5358 82.4865 30.1444 82.1269C29.7865 81.1286 29.5834 80.0907 29.5442 79.0319C29.4923 77.6279 29.7374 76.2016 30.2535 74.8781L37.448 72.457L44.9969 80.0057C45.6135 80.6283 46.6651 80.6312 47.284 80.0057L49.3674 77.9224C49.7793 77.5105 49.7793 76.8427 49.3674 76.4309C48.9555 76.019 48.2877 76.019 47.8759 76.4309L46.1403 78.1661L39.4549 71.4806C40.4461 70.6189 40.8978 69.3053 40.7966 67.9799C42.4119 68.5433 44.1432 68.8525 45.9433 68.8588C47.7577 68.8651 49.5343 68.5691 51.2028 67.9972C51.0306 69.3423 51.6537 70.8061 52.7002 71.6062L51.3489 72.9575C50.937 73.3694 50.937 74.0372 51.3489 74.4489C51.7608 74.8608 52.4286 74.8608 52.8404 74.4489L54.7618 72.5276L61.1845 74.689C61.6702 75.9242 61.921 77.2603 61.9085 78.5825C61.8971 79.7812 61.6681 80.9917 61.246 82.1202C58.5042 82.4791 56.3798 84.8288 56.3798 87.6669C56.3798 90.7524 58.8901 93.2627 61.9757 93.2627C65.0613 93.2627 67.5716 90.7526 67.5716 87.667C67.5716 85.0839 65.8118 82.9049 63.4285 82.2635C63.8039 81.08 64.0062 79.836 64.0178 78.6026C64.0277 77.57 63.9042 76.5302 63.6574 75.5211L66.0469 76.3252C69.055 77.3377 71.076 80.1499 71.076 83.3229V97.0184C71.076 97.6009 71.5482 98.0731 72.1306 98.0731C72.7131 98.0731 73.1853 97.6009 73.1853 97.0184V83.3229C73.1853 79.2434 70.587 75.6279 66.7197 74.3262ZM62.0066 47.8808H62.0608C63.2033 47.8808 64.133 48.8084 64.1375 49.9498V49.966C64.1325 51.1228 63.1686 52.0682 62.0066 52.035V47.8808ZM27.8619 49.95C27.8653 48.7925 28.8321 47.8483 29.9928 47.8809V52.0353C28.8308 52.0674 27.8668 51.1257 27.8619 49.9663V49.95ZM38.6872 68.5518C38.6872 69.3077 38.2065 69.9768 37.4902 70.2171L32.6514 71.8456C29.7724 70.6131 27.862 67.7425 27.862 64.5892V53.591C28.5238 53.9735 29.2552 54.1577 30.0586 54.1448C30.5594 59.7739 33.9348 64.5887 38.6872 67.0681V68.5518ZM45.9505 66.7494C38.3145 66.723 32.1021 60.4158 32.1021 52.6898V47.7873C35.2948 47.4367 38.3612 46.5679 41.2307 45.1996C42.9268 44.3909 44.5499 43.4054 46.0581 42.2693C47.9509 43.4532 49.9529 44.4863 52.0114 45.3406C54.5465 46.3929 57.1953 47.1875 59.8971 47.7071V52.852C59.8971 56.5733 58.4454 60.0692 55.8096 62.6961C53.1288 65.3677 49.7803 66.7628 45.9505 66.7494ZM59.3481 71.8454L54.5082 70.2167C53.7929 69.9768 53.3122 69.3077 53.3122 68.5518V67.0988C54.7643 66.3515 56.1084 65.3764 57.2986 64.1902C60.0273 61.4709 61.6534 57.9428 61.9547 54.1445C62.7303 54.1556 63.5023 53.9599 64.1376 53.5907V64.5889C64.1375 67.7424 62.2271 70.6131 59.3481 71.8454ZM65.4622 87.667C65.4622 89.5895 63.8982 91.1535 61.9758 91.1535C60.0533 91.1535 58.4893 89.5895 58.4893 87.667C58.4893 85.7459 60.0512 84.1829 61.9717 84.1806C61.9729 84.1806 61.974 84.1808 61.9751 84.1808C61.9761 84.1808 61.9771 84.1806 61.9781 84.1806C63.8994 84.1817 65.4622 85.7452 65.4622 87.667ZM52.8196 48.7411C52.2371 48.7411 51.7649 49.2134 51.7649 49.7958V52.2085C51.7649 52.791 52.2371 53.2632 52.8196 53.2632C53.4021 53.2632 53.8743 52.791 53.8743 52.2085V49.7958C53.8743 49.2134 53.4021 48.7411 52.8196 48.7411ZM47.4972 58.7618C47.2598 58.9304 46.7617 59.2169 46.0925 59.2408C45.3376 59.2671 44.7705 58.9518 44.5012 58.761C44.026 58.4242 43.3676 58.5365 43.0308 59.0118C42.694 59.487 42.8064 60.1454 43.2817 60.4822C43.7484 60.813 44.7076 61.3518 46.0005 61.3518C47.1333 61.3518 48.1851 60.8605 48.7187 60.4815C49.1936 60.1441 49.3051 59.4857 48.9677 59.0109C48.6305 58.536 47.9721 58.4244 47.4972 58.7618ZM39.1798 48.7411C38.5973 48.7411 38.1251 49.2134 38.1251 49.7958V52.2085C38.1251 52.791 38.5973 53.2632 39.1798 53.2632C39.7623 53.2632 40.2345 52.791 40.2345 52.2085V49.7958C40.2345 49.2134 39.7624 48.7411 39.1798 48.7411Z" fill="url(#paint0_linear)"/>
</g>
<defs>
<linearGradient id="paint0_linear" x1="18.8142" y1="26.0732" x2="88.0654" y2="78.3686" gradientUnits="userSpaceOnUse">
<stop stop-color="#A83592"/>
<stop offset="1" stop-color="#4F4A9D"/>
</linearGradient>
<clipPath id="clip0">
<rect width="72" height="72" fill="white" transform="translate(10 26.0732)"/>
</clipPath>
</defs>
</svg>
